<?xml version="1.0" encoding="utf-8" standalone="no"?>
<!DOCTYPE svg PUBLIC "-//W3C//DTD SVG 1.1//EN"
  "http://www.w3.org/Graphics/SVG/1.1/DTD/svg11.dtd">
<svg xmlns:xlink="http://www.w3.org/1999/xlink" width="670.882904pt" height="2716.886576pt" viewBox="0 0 670.882904 2716.886576" xmlns="http://www.w3.org/2000/svg" version="1.1">
 <metadata>
  <rdf:RDF xmlns:dc="http://purl.org/dc/elements/1.1/" xmlns:cc="http://creativecommons.org/ns#" xmlns:rdf="http://www.w3.org/1999/02/22-rdf-syntax-ns#">
   <cc:Work>
    <dc:type rdf:resource="http://purl.org/dc/dcmitype/StillImage"/>
    <dc:date>2025-04-10T12:45:14.366419</dc:date>
    <dc:format>image/svg+xml</dc:format>
    <dc:creator>
     <cc:Agent>
      <dc:title>Matplotlib v3.7.2, https://matplotlib.org/</dc:title>
     </cc:Agent>
    </dc:creator>
   </cc:Work>
  </rdf:RDF>
 </metadata>
 <defs>
  <style type="text/css">*{stroke-linejoin: round; stroke-linecap: butt}</style>
 </defs>
 <g id="figure_1">
  <g id="patch_1">
   <path d="M 0 2716.886576 
L 670.882904 2716.886576 
L 670.882904 0 
L 0 0 
z
" style="fill: #ffffff"/>
  </g>
  <g id="axes_1">
   <g id="patch_2">
    <path d="M 100.643063 2685.282264 
L 658.643063 2685.282264 
L 658.643063 2130.882264 
L 100.643063 2130.882264 
z
" style="fill: #ffffff"/>
   </g>
   <g id="patch_3">
    <path d="M 129.855142 2964.007096 
L 129.855142 2964.007096 
L 129.855142 2964.007096 
L 129.855142 2964.007096 
z
" clip-path="url(#p3bb7f83a1c)" style="fill: #cbd5e8; stroke: #7a7a7a; stroke-width: 0.75; stroke-linejoin: miter"/>
   </g>
   <g id="PolyCollection_1">
    <defs>
     <path id="m9cdae9b2e2" d="M 134.16023 -81.947559 
L 125.550054 -81.947559 
L 124.531903 -82.561342 
L 123.326369 -83.175124 
L 121.912331 -83.788906 
L 120.269295 -84.402688 
L 118.378148 -85.016471 
L 116.221995 -85.630253 
L 113.787043 -86.244035 
L 111.063507 -86.857817 
L 108.046497 -87.4716 
L 104.736839 -88.085382 
L 101.141792 -88.699164 
L 97.275614 -89.312946 
L 93.159939 -89.926729 
L 88.823927 -90.540511 
L 84.30417 -91.154293 
L 79.644337 -91.768075 
L 74.894549 -92.381858 
L 70.110512 -92.99564 
L 65.352407 -93.609422 
L 60.6836 -94.223204 
L 56.169189 -94.836987 
L 51.874458 -95.450769 
L 47.863289 -96.064551 
L 44.19658 -96.678333 
L 40.930741 -97.292116 
L 38.116305 -97.905898 
L 35.796708 -98.51968 
L 34.007275 -99.133462 
L 32.77443 -99.747245 
L 32.115163 -100.361027 
L 32.036749 -100.974809 
L 32.536725 -101.588591 
L 33.603109 -102.202374 
L 35.214855 -102.816156 
L 37.342505 -103.429938 
L 39.949021 -104.04372 
L 42.990764 -104.657503 
L 46.418584 -105.271285 
L 50.17899 -105.885067 
L 54.215362 -106.498849 
L 58.469181 -107.112632 
L 62.881233 -107.726414 
L 67.392764 -108.340196 
L 71.946567 -108.953978 
L 76.487961 -109.567761 
L 80.965659 -110.181543 
L 85.332495 -110.795325 
L 89.546013 -111.409107 
L 93.568898 -112.02289 
L 97.369266 -112.636672 
L 100.920789 -113.250454 
L 104.202707 -113.864236 
L 107.199694 -114.478019 
L 109.90164 -115.091801 
L 112.303336 -115.705583 
L 114.404114 -116.319365 
L 116.207439 -116.933148 
L 117.7205 -117.54693 
L 118.953804 -118.160712 
L 119.920785 -118.774494 
L 120.637453 -119.388277 
L 121.122075 -120.002059 
L 121.394886 -120.615841 
L 121.477825 -121.229623 
L 121.394286 -121.843406 
L 121.168859 -122.457188 
L 120.827067 -123.07097 
L 120.395052 -123.684752 
L 119.899235 -124.298535 
L 119.365913 -124.912317 
L 118.820818 -125.526099 
L 118.288628 -126.139881 
L 117.792452 -126.753664 
L 117.353315 -127.367446 
L 116.989656 -127.981228 
L 116.71688 -128.59501 
L 116.546983 -129.208793 
L 116.488278 -129.822575 
L 116.545251 -130.436357 
L 116.718545 -131.050139 
L 117.005099 -131.663922 
L 117.398416 -132.277704 
L 117.888967 -132.891486 
L 118.464695 -133.505268 
L 119.111608 -134.119051 
L 119.814414 -134.732833 
L 120.557168 -135.346615 
L 121.323911 -135.960397 
L 122.099244 -136.57418 
L 122.868847 -137.187962 
L 123.619883 -137.801744 
L 124.341309 -138.415526 
L 125.024072 -139.029309 
L 125.661194 -139.643091 
L 126.247759 -140.256873 
L 126.78081 -140.870655 
L 127.259181 -141.484438 
L 127.683269 -142.09822 
L 128.054783 -142.712002 
L 131.655502 -142.712002 
L 131.655502 -142.712002 
L 132.027015 -142.09822 
L 132.451104 -141.484438 
L 132.929475 -140.870655 
L 133.462526 -140.256873 
L 134.049091 -139.643091 
L 134.686213 -139.029309 
L 135.368976 -138.415526 
L 136.090402 -137.801744 
L 136.841437 -137.187962 
L 137.61104 -136.57418 
L 138.386374 -135.960397 
L 139.153116 -135.346615 
L 139.895871 -134.732833 
L 140.598677 -134.119051 
L 141.24559 -133.505268 
L 141.821318 -132.891486 
L 142.311868 -132.277704 
L 142.705185 -131.663922 
L 142.991739 -131.050139 
L 143.165034 -130.436357 
L 143.222006 -129.822575 
L 143.163302 -129.208793 
L 142.993405 -128.59501 
L 142.720629 -127.981228 
L 142.35697 -127.367446 
L 141.917833 -126.753664 
L 141.421657 -126.139881 
L 140.889466 -125.526099 
L 140.344372 -124.912317 
L 139.81105 -124.298535 
L 139.315233 -123.684752 
L 138.883218 -123.07097 
L 138.541426 -122.457188 
L 138.315999 -121.843406 
L 138.232459 -121.229623 
L 138.315399 -120.615841 
L 138.58821 -120.002059 
L 139.072832 -119.388277 
L 139.7895 -118.774494 
L 140.756481 -118.160712 
L 141.989784 -117.54693 
L 143.502846 -116.933148 
L 145.306171 -116.319365 
L 147.406949 -115.705583 
L 149.808645 -115.091801 
L 152.510591 -114.478019 
L 155.507578 -113.864236 
L 158.789496 -113.250454 
L 162.341019 -112.636672 
L 166.141386 -112.02289 
L 170.164272 -111.409107 
L 174.37779 -110.795325 
L 178.744626 -110.181543 
L 183.222324 -109.567761 
L 187.763718 -108.953978 
L 192.317521 -108.340196 
L 196.829052 -107.726414 
L 201.241103 -107.112632 
L 205.494923 -106.498849 
L 209.531295 -105.885067 
L 213.291701 -105.271285 
L 216.719521 -104.657503 
L 219.761264 -104.04372 
L 222.36778 -103.429938 
L 224.49543 -102.816156 
L 226.107176 -102.202374 
L 227.17356 -101.588591 
L 227.673535 -100.974809 
L 227.595121 -100.361027 
L 226.935855 -99.747245 
L 225.70301 -99.133462 
L 223.913577 -98.51968 
L 221.59398 -97.905898 
L 218.779544 -97.292116 
L 215.513705 -96.678333 
L 211.846996 -96.064551 
L 207.835827 -95.450769 
L 203.541096 -94.836987 
L 199.026685 -94.223204 
L 194.357878 -93.609422 
L 189.599773 -92.99564 
L 184.815736 -92.381858 
L 180.065948 -91.768075 
L 175.406115 -91.154293 
L 170.886358 -90.540511 
L 166.550346 -89.926729 
L 162.434671 -89.312946 
L 158.568493 -88.699164 
L 154.973446 -88.085382 
L 151.663788 -87.4716 
L 148.646778 -86.857817 
L 145.923242 -86.244035 
L 143.48829 -85.630253 
L 141.332137 -85.016471 
L 139.44099 -84.402688 
L 137.797954 -83.788906 
L 136.383916 -83.175124 
L 135.178382 -82.561342 
L 134.16023 -81.947559 
z
" style="stroke: #7a7a7a; stroke-width: 1.5"/>
    </defs>
    <g clip-path="url(#p3bb7f83a1c)">
     <use xlink:href="#m9cdae9b2e2" x="0" y="2716.886576" style="fill: #cbd5e8; stroke: #7a7a7a; stroke-width: 1.5"/>
    </g>
   </g>
   <g id="patch_4">
    <path d="M 129.855142 2964.007096 
L 129.855142 2964.007096 
L 129.855142 2964.007096 
L 129.855142 2964.007096 
z
" clip-path="url(#p3bb7f83a1c)" style="fill: #fdcdac; stroke: #7a7a7a; stroke-width: 0.75; stroke-linejoin: miter"/>
   </g>
   <g id="patch_5">
    <path d="M 129.855142 2964.007096 
L 129.855142 2964.007096 
L 129.855142 2964.007096 
L 129.855142 2964.007096 
z
" clip-path="url(#p3bb7f83a1c)" style="fill: #b3e2cd; stroke: #7a7a7a; stroke-width: 0.75; stroke-linejoin: miter"/>
   </g>
   <g id="PolyCollection_2">
    <defs>
     <path id="m21c997a800" d="M 377.180478 -71.783819 
L 371.621772 -71.783819 
L 371.067092 -71.893994 
L 370.430428 -72.004169 
L 369.705762 -72.114344 
L 368.887775 -72.22452 
L 367.972061 -72.334695 
L 366.955325 -72.44487 
L 365.835559 -72.555046 
L 364.612183 -72.665221 
L 363.286146 -72.775396 
L 361.859972 -72.885571 
L 360.337752 -72.995747 
L 358.725078 -73.105922 
L 357.028917 -73.216097 
L 355.257441 -73.326272 
L 353.419807 -73.436448 
L 351.525914 -73.546623 
L 349.586134 -73.656798 
L 347.611052 -73.766973 
L 345.61121 -73.877149 
L 343.59688 -73.987324 
L 341.577871 -74.097499 
L 339.563378 -74.207674 
L 337.561878 -74.31785 
L 335.581058 -74.428025 
L 333.627788 -74.5382 
L 331.708112 -74.648376 
L 329.827245 -74.758551 
L 327.989576 -74.868726 
L 326.198647 -74.978901 
L 324.45711 -75.089077 
L 322.766644 -75.199252 
L 321.127845 -75.309427 
L 319.540079 -75.419602 
L 318.001325 -75.529778 
L 316.508013 -75.639953 
L 315.054885 -75.750128 
L 313.634913 -75.860303 
L 312.239282 -75.970479 
L 310.857493 -76.080654 
L 309.477575 -76.190829 
L 308.086451 -76.301004 
L 306.670446 -76.41118 
L 305.215939 -76.521355 
L 303.710143 -76.63153 
L 302.141979 -76.741706 
L 300.503009 -76.851881 
L 298.788373 -76.962056 
L 296.997679 -77.072231 
L 295.135772 -77.182407 
L 293.213342 -77.292582 
L 291.247287 -77.402757 
L 289.260819 -77.512932 
L 287.283252 -77.623108 
L 285.349471 -77.733283 
L 283.49909 -77.843458 
L 281.775308 -77.953633 
L 280.223525 -78.063809 
L 278.889765 -78.173984 
L 277.818988 -78.284159 
L 277.053376 -78.394334 
L 276.630685 -78.50451 
L 276.582732 -78.614685 
L 276.934123 -78.72486 
L 277.701259 -78.835036 
L 278.891689 -78.945211 
L 280.503823 -79.055386 
L 282.527016 -79.165561 
L 284.94201 -79.275737 
L 287.721689 -79.385912 
L 290.832101 -79.496087 
L 294.233688 -79.606262 
L 297.882645 -79.716438 
L 301.732335 -79.826613 
L 305.734702 -79.936788 
L 309.84161 -80.046963 
L 314.006057 -80.157139 
L 318.183238 -80.267314 
L 322.331407 -80.377489 
L 326.412557 -80.487664 
L 330.392898 -80.59784 
L 334.243139 -80.708015 
L 337.93862 -80.81819 
L 341.459285 -80.928366 
L 344.789544 -81.038541 
L 347.918039 -81.148716 
L 350.837345 -81.258891 
L 353.543628 -81.369067 
L 356.036272 -81.479242 
L 358.317499 -81.589417 
L 360.391985 -81.699592 
L 362.266488 -81.809768 
L 363.949489 -81.919943 
L 365.450846 -82.030118 
L 366.781475 -82.140293 
L 367.953045 -82.250469 
L 368.977704 -82.360644 
L 369.867823 -82.470819 
L 370.635768 -82.580994 
L 371.293701 -82.69117 
L 377.508549 -82.69117 
L 377.508549 -82.69117 
L 378.166482 -82.580994 
L 378.934427 -82.470819 
L 379.824546 -82.360644 
L 380.849205 -82.250469 
L 382.020775 -82.140293 
L 383.351404 -82.030118 
L 384.852761 -81.919943 
L 386.535762 -81.809768 
L 388.410265 -81.699592 
L 390.484751 -81.589417 
L 392.765978 -81.479242 
L 395.258622 -81.369067 
L 397.964905 -81.258891 
L 400.884211 -81.148716 
L 404.012706 -81.038541 
L 407.342965 -80.928366 
L 410.86363 -80.81819 
L 414.559111 -80.708015 
L 418.409352 -80.59784 
L 422.389693 -80.487664 
L 426.470843 -80.377489 
L 430.619012 -80.267314 
L 434.796193 -80.157139 
L 438.96064 -80.046963 
L 443.067548 -79.936788 
L 447.069915 -79.826613 
L 450.919605 -79.716438 
L 454.568562 -79.606262 
L 457.970149 -79.496087 
L 461.080562 -79.385912 
L 463.86024 -79.275737 
L 466.275234 -79.165561 
L 468.298427 -79.055386 
L 469.910561 -78.945211 
L 471.100991 -78.835036 
L 471.868127 -78.72486 
L 472.219518 -78.614685 
L 472.171565 -78.50451 
L 471.748874 -78.394334 
L 470.983263 -78.284159 
L 469.912485 -78.173984 
L 468.578725 -78.063809 
L 467.026942 -77.953633 
L 465.30316 -77.843458 
L 463.452779 -77.733283 
L 461.518998 -77.623108 
L 459.541431 -77.512932 
L 457.554963 -77.402757 
L 455.588908 -77.292582 
L 453.666478 -77.182407 
L 451.804572 -77.072231 
L 450.013877 -76.962056 
L 448.299241 -76.851881 
L 446.660271 -76.741706 
L 445.092107 -76.63153 
L 443.586311 -76.521355 
L 442.131804 -76.41118 
L 440.7158 -76.301004 
L 439.324675 -76.190829 
L 437.944757 -76.080654 
L 436.562968 -75.970479 
L 435.167337 -75.860303 
L 433.747365 -75.750128 
L 432.294237 -75.639953 
L 430.800925 -75.529778 
L 429.262171 -75.419602 
L 427.674405 -75.309427 
L 426.035606 -75.199252 
L 424.34514 -75.089077 
L 422.603603 -74.978901 
L 420.812674 -74.868726 
L 418.975005 -74.758551 
L 417.094138 -74.648376 
L 415.174462 -74.5382 
L 413.221192 -74.428025 
L 411.240372 -74.31785 
L 409.238872 -74.207674 
L 407.224379 -74.097499 
L 405.20537 -73.987324 
L 403.19104 -73.877149 
L 401.191198 -73.766973 
L 399.216116 -73.656798 
L 397.276336 -73.546623 
L 395.382443 -73.436448 
L 393.544809 -73.326272 
L 391.773333 -73.216097 
L 390.077172 -73.105922 
L 388.464498 -72.995747 
L 386.942278 -72.885571 
L 385.516104 -72.775396 
L 384.190067 -72.665221 
L 382.966691 -72.555046 
L 381.846925 -72.44487 
L 380.830189 -72.334695 
L 379.914475 -72.22452 
L 379.096488 -72.114344 
L 378.371822 -72.004169 
L 377.735158 -71.893994 
L 377.180478 -71.783819 
z
" style="stroke: #7a7a7a; stroke-width: 1.5"/>
    </defs>
    <g clip-path="url(#p3bb7f83a1c)">
     <use xlink:href="#m21c997a800" x="0" y="2716.886576" style="fill: #fdcdac; stroke: #7a7a7a; stroke-width: 1.5"/>
    </g>
   </g>
   <g id="PolyCollection_3">
    <defs>
     <path id="m8ae1a626e0" d="M 623.417886 -489.53599 
L 614.476329 -489.53599 
L 613.382035 -489.677418 
L 612.084186 -489.818846 
L 610.561873 -489.960274 
L 608.796113 -490.101702 
L 606.770945 -490.243131 
L 604.474587 -490.384559 
L 601.900583 -490.525987 
L 599.048878 -490.667415 
L 595.926743 -490.808843 
L 592.549462 -490.950271 
L 588.940708 -491.091699 
L 585.132555 -491.233127 
L 581.165051 -491.374555 
L 577.085352 -491.515984 
L 572.946414 -491.657412 
L 568.805273 -491.79884 
L 564.720975 -491.940268 
L 560.752273 -492.081696 
L 556.955186 -492.223124 
L 553.380576 -492.364552 
L 550.071871 -492.50598 
L 547.063102 -492.647409 
L 544.377358 -492.788837 
L 542.025781 -492.930265 
L 540.007178 -493.071693 
L 538.308281 -493.213121 
L 536.90465 -493.354549 
L 535.762187 -493.495977 
L 534.839161 -493.637405 
L 534.088632 -493.778834 
L 533.461134 -493.920262 
L 532.907448 -494.06169 
L 532.381322 -494.203118 
L 531.841943 -494.344546 
L 531.256065 -494.485974 
L 530.599639 -494.627402 
L 529.858878 -494.76883 
L 529.030715 -494.910258 
L 528.122631 -495.051687 
L 527.151901 -495.193115 
L 526.144312 -495.334543 
L 525.132455 -495.475971 
L 524.153718 -495.617399 
L 523.248101 -495.758827 
L 522.456014 -495.900255 
L 521.816171 -496.041683 
L 521.363721 -496.183112 
L 521.128715 -496.32454 
L 521.134968 -496.465968 
L 521.399378 -496.607396 
L 521.931694 -496.748824 
L 522.734706 -496.890252 
L 523.80481 -497.03168 
L 525.132865 -497.173108 
L 526.705233 -497.314536 
L 528.504919 -497.455965 
L 530.512698 -497.597393 
L 532.708144 -497.738821 
L 535.070499 -497.880249 
L 537.579323 -498.021677 
L 540.21493 -498.163105 
L 542.958596 -498.304533 
L 545.792588 -498.445961 
L 548.70006 -498.58739 
L 551.664861 -498.728818 
L 554.671335 -498.870246 
L 557.704147 -499.011674 
L 560.748189 -499.153102 
L 563.788575 -499.29453 
L 566.810749 -499.435958 
L 569.800666 -499.577386 
L 572.745044 -499.718815 
L 575.631637 -499.860243 
L 578.44949 -500.001671 
L 581.189146 -500.143099 
L 583.842768 -500.284527 
L 586.404166 -500.425955 
L 588.868724 -500.567383 
L 591.23323 -500.708811 
L 593.495649 -500.850239 
L 595.654841 -500.991668 
L 597.71028 -501.133096 
L 599.661795 -501.274524 
L 601.50936 -501.415952 
L 603.25295 -501.55738 
L 604.892479 -501.698808 
L 606.427814 -501.840236 
L 607.85885 -501.981664 
L 609.185645 -502.123093 
L 610.408573 -502.264521 
L 611.52849 -502.405949 
L 612.546882 -502.547377 
L 613.465979 -502.688805 
L 614.288825 -502.830233 
L 615.019295 -502.971661 
L 615.662055 -503.113089 
L 616.222479 -503.254517 
L 616.706523 -503.395946 
L 617.12057 -503.537374 
L 620.773645 -503.537374 
L 620.773645 -503.537374 
L 621.187692 -503.395946 
L 621.671736 -503.254517 
L 622.23216 -503.113089 
L 622.87492 -502.971661 
L 623.60539 -502.830233 
L 624.428236 -502.688805 
L 625.347333 -502.547377 
L 626.365725 -502.405949 
L 627.485642 -502.264521 
L 628.70857 -502.123093 
L 630.035365 -501.981664 
L 631.466402 -501.840236 
L 633.001736 -501.698808 
L 634.641265 -501.55738 
L 636.384855 -501.415952 
L 638.23242 -501.274524 
L 640.183935 -501.133096 
L 642.239374 -500.991668 
L 644.398566 -500.850239 
L 646.660985 -500.708811 
L 649.025492 -500.567383 
L 651.490049 -500.425955 
L 654.051447 -500.284527 
L 656.705069 -500.143099 
L 659.444725 -500.001671 
L 662.262578 -499.860243 
L 665.149171 -499.718815 
L 668.093549 -499.577386 
L 671.083466 -499.435958 
L 674.10564 -499.29453 
L 677.146027 -499.153102 
L 680.190068 -499.011674 
L 683.22288 -498.870246 
L 686.229354 -498.728818 
L 689.194155 -498.58739 
L 692.101627 -498.445961 
L 694.93562 -498.304533 
L 697.679285 -498.163105 
L 700.314892 -498.021677 
L 702.823716 -497.880249 
L 705.186071 -497.738821 
L 707.381517 -497.597393 
L 709.389296 -497.455965 
L 711.188982 -497.314536 
L 712.76135 -497.173108 
L 714.089405 -497.03168 
L 715.159509 -496.890252 
L 715.962521 -496.748824 
L 716.494837 -496.607396 
L 716.759248 -496.465968 
L 716.765501 -496.32454 
L 716.530494 -496.183112 
L 716.078045 -496.041683 
L 715.438201 -495.900255 
L 714.646114 -495.758827 
L 713.740497 -495.617399 
L 712.76176 -495.475971 
L 711.749903 -495.334543 
L 710.742314 -495.193115 
L 709.771584 -495.051687 
L 708.863501 -494.910258 
L 708.035337 -494.76883 
L 707.294576 -494.627402 
L 706.63815 -494.485974 
L 706.052272 -494.344546 
L 705.512894 -494.203118 
L 704.986767 -494.06169 
L 704.433082 -493.920262 
L 703.805583 -493.778834 
L 703.055054 -493.637405 
L 702.132028 -493.495977 
L 700.989566 -493.354549 
L 699.585935 -493.213121 
L 697.887037 -493.071693 
L 695.868434 -492.930265 
L 693.516857 -492.788837 
L 690.831113 -492.647409 
L 687.822344 -492.50598 
L 684.51364 -492.364552 
L 680.939029 -492.223124 
L 677.141943 -492.081696 
L 673.173241 -491.940268 
L 669.088943 -491.79884 
L 664.947801 -491.657412 
L 660.808864 -491.515984 
L 656.729165 -491.374555 
L 652.76166 -491.233127 
L 648.953507 -491.091699 
L 645.344754 -490.950271 
L 641.967472 -490.808843 
L 638.845337 -490.667415 
L 635.993633 -490.525987 
L 633.419628 -490.384559 
L 631.12327 -490.243131 
L 629.098102 -490.101702 
L 627.332342 -489.960274 
L 625.810029 -489.818846 
L 624.51218 -489.677418 
L 623.417886 -489.53599 
z
" style="stroke: #7a7a7a; stroke-width: 1.5"/>
    </defs>
    <g clip-path="url(#p3bb7f83a1c)">
     <use xlink:href="#m8ae1a626e0" x="0" y="2716.886576" style="fill: #b3e2cd; stroke: #7a7a7a; stroke-width: 1.5"/>
    </g>
   </g>
   <g id="PathCollection_1">
    <defs>
     <path id="C0_0_922108fa31" d="M 0 2 
C 0.530406 2 1.03916 1.789267 1.414214 1.414214 
C 1.789267 1.03916 2 0.530406 2 -0 
C 2 -0.530406 1.789267 -1.03916 1.414214 -1.414214 
C 1.03916 -1.789267 0.530406 -2 0 -2 
C -0.530406 -2 -1.03916 -1.789267 -1.414214 -1.414214 
C -1.789267 -1.03916 -2 -0.530406 -2 0 
C -2 0.530406 -1.789267 1.03916 -1.414214 1.414214 
C -1.03916 1.789267 -0.530406 2 0 2 
z
"/>
    </defs>
    <g clip-path="url(#p3bb7f83a1c)">
     <use xlink:href="#C0_0_922108fa31" x="135.806685" y="2613.805718" style="fill: #7570b3"/>
    </g>
    <g clip-path="url(#p3bb7f83a1c)">
     <use xlink:href="#C0_0_922108fa31" x="131.646884" y="2614.357815" style="fill: #7570b3"/>
    </g>
    <g clip-path="url(#p3bb7f83a1c)">
     <use xlink:href="#C0_0_922108fa31" x="124.805172" y="2616.118024" style="fill: #7570b3"/>
    </g>
    <g clip-path="url(#p3bb7f83a1c)">
     <use xlink:href="#C0_0_922108fa31" x="132.565008" y="2619.110496" style="fill: #7570b3"/>
    </g>
    <g clip-path="url(#p3bb7f83a1c)">
     <use xlink:href="#C0_0_922108fa31" x="129.855142" y="2622.16653" style="fill: #7570b3"/>
    </g>
    <g clip-path="url(#p3bb7f83a1c)">
     <use xlink:href="#C0_0_922108fa31" x="125.803333" y="2621.113368" style="fill: #7570b3"/>
    </g>
    <g clip-path="url(#p3bb7f83a1c)">
     <use xlink:href="#C0_0_922108fa31" x="129.464006" y="2610.9405" style="fill: #7570b3"/>
    </g>
    <g clip-path="url(#p3bb7f83a1c)">
     <use xlink:href="#C0_0_922108fa31" x="128.81404" y="2617.310964" style="fill: #7570b3"/>
    </g>
    <g clip-path="url(#p3bb7f83a1c)">
     <use xlink:href="#C0_0_922108fa31" x="132.720586" y="2608.4145" style="fill: #7570b3"/>
    </g>
    <g clip-path="url(#p3bb7f83a1c)">
     <use xlink:href="#C0_0_922108fa31" x="129.855142" y="2586.947061" style="fill: #7570b3"/>
    </g>
   </g>
   <g id="PathCollection_2">
    <defs>
     <path id="C1_0_f30b35c664" d="M 0 2 
C 0.530406 2 1.03916 1.789267 1.414214 1.414214 
C 1.789267 1.03916 2 0.530406 2 -0 
C 2 -0.530406 1.789267 -1.03916 1.414214 -1.414214 
C 1.03916 -1.789267 0.530406 -2 0 -2 
C -0.530406 -2 -1.03916 -1.789267 -1.414214 -1.414214 
C -1.789267 -1.03916 -2 -0.530406 -2 0 
C -2 0.530406 -1.789267 1.03916 -1.414214 1.414214 
C -1.03916 1.789267 -0.530406 2 0 2 
z
"/>
    </defs>
    <g clip-path="url(#p3bb7f83a1c)">
     <use xlink:href="#C1_0_f30b35c664" x="378.953451" y="2636.662054" style="fill: #d95f02"/>
    </g>
    <g clip-path="url(#p3bb7f83a1c)">
     <use xlink:href="#C1_0_f30b35c664" x="374.401125" y="2642.63611" style="fill: #d95f02"/>
    </g>
    <g clip-path="url(#p3bb7f83a1c)">
     <use xlink:href="#C1_0_f30b35c664" x="374.401125" y="2638.40026" style="fill: #d95f02"/>
    </g>
    <g clip-path="url(#p3bb7f83a1c)">
     <use xlink:href="#C1_0_f30b35c664" x="363.620561" y="2638.117151" style="fill: #d95f02"/>
    </g>
    <g clip-path="url(#p3bb7f83a1c)">
     <use xlink:href="#C1_0_f30b35c664" x="367.820208" y="2638.168948" style="fill: #d95f02"/>
    </g>
    <g clip-path="url(#p3bb7f83a1c)">
     <use xlink:href="#C1_0_f30b35c664" x="382.091278" y="2639.702055" style="fill: #d95f02"/>
    </g>
    <g clip-path="url(#p3bb7f83a1c)">
     <use xlink:href="#C1_0_f30b35c664" x="370.445691" y="2641.291078" style="fill: #d95f02"/>
    </g>
    <g clip-path="url(#p3bb7f83a1c)">
     <use xlink:href="#C1_0_f30b35c664" x="377.987854" y="2640.554907" style="fill: #d95f02"/>
    </g>
    <g clip-path="url(#p3bb7f83a1c)">
     <use xlink:href="#C1_0_f30b35c664" x="385.826255" y="2637.872604" style="fill: #d95f02"/>
    </g>
   </g>
   <g id="PathCollection_3">
    <defs>
     <path id="C2_0_9e2096d830" d="M 0 2 
C 0.530406 2 1.03916 1.789267 1.414214 1.414214 
C 1.789267 1.03916 2 0.530406 2 -0 
C 2 -0.530406 1.789267 -1.03916 1.414214 -1.414214 
C 1.03916 -1.789267 0.530406 -2 0 -2 
C -0.530406 -2 -1.03916 -1.789267 -1.414214 -1.414214 
C -1.789267 -1.03916 -2 -0.530406 -2 0 
C -2 0.530406 -1.789267 1.03916 -1.414214 1.414214 
C -1.03916 1.789267 -0.530406 2 0 2 
z
"/>
    </defs>
    <g clip-path="url(#p3bb7f83a1c)">
     <use xlink:href="#C2_0_9e2096d830" x="606.815463" y="2218.029657" style="fill: #1b9e77"/>
    </g>
    <g clip-path="url(#p3bb7f83a1c)">
     <use xlink:href="#C2_0_9e2096d830" x="606.546923" y="2222.89296" style="fill: #1b9e77"/>
    </g>
    <g clip-path="url(#p3bb7f83a1c)">
     <use xlink:href="#C2_0_9e2096d830" x="623.120383" y="2224.074701" style="fill: #1b9e77"/>
    </g>
    <g clip-path="url(#p3bb7f83a1c)">
     <use xlink:href="#C2_0_9e2096d830" x="618.947108" y="2220.241444" style="fill: #1b9e77"/>
    </g>
    <g clip-path="url(#p3bb7f83a1c)">
     <use xlink:href="#C2_0_9e2096d830" x="626.923524" y="2218.233959" style="fill: #1b9e77"/>
    </g>
    <g clip-path="url(#p3bb7f83a1c)">
     <use xlink:href="#C2_0_9e2096d830" x="623.137045" y="2219.964719" style="fill: #1b9e77"/>
    </g>
    <g clip-path="url(#p3bb7f83a1c)">
     <use xlink:href="#C2_0_9e2096d830" x="614.763805" y="2224.1689" style="fill: #1b9e77"/>
    </g>
    <g clip-path="url(#p3bb7f83a1c)">
     <use xlink:href="#C2_0_9e2096d830" x="638.707627" y="2219.750139" style="fill: #1b9e77"/>
    </g>
    <g clip-path="url(#p3bb7f83a1c)">
     <use xlink:href="#C2_0_9e2096d830" x="618.947108" y="2216.174572" style="fill: #1b9e77"/>
    </g>
    <g clip-path="url(#p3bb7f83a1c)">
     <use xlink:href="#C2_0_9e2096d830" x="634.836905" y="2221.302698" style="fill: #1b9e77"/>
    </g>
    <g clip-path="url(#p3bb7f83a1c)">
     <use xlink:href="#C2_0_9e2096d830" x="618.947108" y="2224.525217" style="fill: #1b9e77"/>
    </g>
    <g clip-path="url(#p3bb7f83a1c)">
     <use xlink:href="#C2_0_9e2096d830" x="611.001912" y="2218.350712" style="fill: #1b9e77"/>
    </g>
    <g clip-path="url(#p3bb7f83a1c)">
     <use xlink:href="#C2_0_9e2096d830" x="610.745248" y="2223.005901" style="fill: #1b9e77"/>
    </g>
    <g clip-path="url(#p3bb7f83a1c)">
     <use xlink:href="#C2_0_9e2096d830" x="614.74799" y="2220.159459" style="fill: #1b9e77"/>
    </g>
    <g clip-path="url(#p3bb7f83a1c)">
     <use xlink:href="#C2_0_9e2096d830" x="602.802533" y="2221.081046" style="fill: #1b9e77"/>
    </g>
    <g clip-path="url(#p3bb7f83a1c)">
     <use xlink:href="#C2_0_9e2096d830" x="630.641531" y="2221.490376" style="fill: #1b9e77"/>
    </g>
    <g clip-path="url(#p3bb7f83a1c)">
     <use xlink:href="#C2_0_9e2096d830" x="627.317851" y="2223.935818" style="fill: #1b9e77"/>
    </g>
   </g>
   <g id="matplotlib.axis_1">
    <g id="xtick_1">
     <g id="line2d_1">
      <defs>
       <path id="mf6c96e66a0" d="M 0 0 
L 0 6 
" style="stroke: #000000; stroke-width: 1.25"/>
      </defs>
      <g>
       <use xlink:href="#mf6c96e66a0" x="129.855142" y="2685.282264" style="stroke: #000000; stroke-width: 1.25"/>
      </g>
     </g>
     <g id="text_1">
      <!-- Healthy Controls -->
      <g transform="translate(65.724971 2706.483858) scale(0.154 -0.154)">
       <defs>
        <path id="DejaVuSans-48" d="M 628 4666 
L 1259 4666 
L 1259 2753 
L 3553 2753 
L 3553 4666 
L 4184 4666 
L 4184 0 
L 3553 0 
L 3553 2222 
L 1259 2222 
L 1259 0 
L 628 0 
L 628 4666 
z
" transform="scale(0.015625)"/>
        <path id="DejaVuSans-65" d="M 3597 1894 
L 3597 1613 
L 953 1613 
Q 991 1019 1311 708 
Q 1631 397 2203 397 
Q 2534 397 2845 478 
Q 3156 559 3463 722 
L 3463 178 
Q 3153 47 2828 -22 
Q 2503 -91 2169 -91 
Q 1331 -91 842 396 
Q 353 884 353 1716 
Q 353 2575 817 3079 
Q 1281 3584 2069 3584 
Q 2775 3584 3186 3129 
Q 3597 2675 3597 1894 
z
M 3022 2063 
Q 3016 2534 2758 2815 
Q 2500 3097 2075 3097 
Q 1594 3097 1305 2825 
Q 1016 2553 972 2059 
L 3022 2063 
z
" transform="scale(0.015625)"/>
        <path id="DejaVuSans-61" d="M 2194 1759 
Q 1497 1759 1228 1600 
Q 959 1441 959 1056 
Q 959 750 1161 570 
Q 1363 391 1709 391 
Q 2188 391 2477 730 
Q 2766 1069 2766 1631 
L 2766 1759 
L 2194 1759 
z
M 3341 1997 
L 3341 0 
L 2766 0 
L 2766 531 
Q 2569 213 2275 61 
Q 1981 -91 1556 -91 
Q 1019 -91 701 211 
Q 384 513 384 1019 
Q 384 1609 779 1909 
Q 1175 2209 1959 2209 
L 2766 2209 
L 2766 2266 
Q 2766 2663 2505 2880 
Q 2244 3097 1772 3097 
Q 1472 3097 1187 3025 
Q 903 2953 641 2809 
L 641 3341 
Q 956 3463 1253 3523 
Q 1550 3584 1831 3584 
Q 2591 3584 2966 3190 
Q 3341 2797 3341 1997 
z
" transform="scale(0.015625)"/>
        <path id="DejaVuSans-6c" d="M 603 4863 
L 1178 4863 
L 1178 0 
L 603 0 
L 603 4863 
z
" transform="scale(0.015625)"/>
        <path id="DejaVuSans-74" d="M 1172 4494 
L 1172 3500 
L 2356 3500 
L 2356 3053 
L 1172 3053 
L 1172 1153 
Q 1172 725 1289 603 
Q 1406 481 1766 481 
L 2356 481 
L 2356 0 
L 1766 0 
Q 1100 0 847 248 
Q 594 497 594 1153 
L 594 3053 
L 172 3053 
L 172 3500 
L 594 3500 
L 594 4494 
L 1172 4494 
z
" transform="scale(0.015625)"/>
        <path id="DejaVuSans-68" d="M 3513 2113 
L 3513 0 
L 2938 0 
L 2938 2094 
Q 2938 2591 2744 2837 
Q 2550 3084 2163 3084 
Q 1697 3084 1428 2787 
Q 1159 2491 1159 1978 
L 1159 0 
L 581 0 
L 581 4863 
L 1159 4863 
L 1159 2956 
Q 1366 3272 1645 3428 
Q 1925 3584 2291 3584 
Q 2894 3584 3203 3211 
Q 3513 2838 3513 2113 
z
" transform="scale(0.015625)"/>
        <path id="DejaVuSans-79" d="M 2059 -325 
Q 1816 -950 1584 -1140 
Q 1353 -1331 966 -1331 
L 506 -1331 
L 506 -850 
L 844 -850 
Q 1081 -850 1212 -737 
Q 1344 -625 1503 -206 
L 1606 56 
L 191 3500 
L 800 3500 
L 1894 763 
L 2988 3500 
L 3597 3500 
L 2059 -325 
z
" transform="scale(0.015625)"/>
        <path id="DejaVuSans-20" transform="scale(0.015625)"/>
        <path id="DejaVuSans-43" d="M 4122 4306 
L 4122 3641 
Q 3803 3938 3442 4084 
Q 3081 4231 2675 4231 
Q 1875 4231 1450 3742 
Q 1025 3253 1025 2328 
Q 1025 1406 1450 917 
Q 1875 428 2675 428 
Q 3081 428 3442 575 
Q 3803 722 4122 1019 
L 4122 359 
Q 3791 134 3420 21 
Q 3050 -91 2638 -91 
Q 1578 -91 968 557 
Q 359 1206 359 2328 
Q 359 3453 968 4101 
Q 1578 4750 2638 4750 
Q 3056 4750 3426 4639 
Q 3797 4528 4122 4306 
z
" transform="scale(0.015625)"/>
        <path id="DejaVuSans-6f" d="M 1959 3097 
Q 1497 3097 1228 2736 
Q 959 2375 959 1747 
Q 959 1119 1226 758 
Q 1494 397 1959 397 
Q 2419 397 2687 759 
Q 2956 1122 2956 1747 
Q 2956 2369 2687 2733 
Q 2419 3097 1959 3097 
z
M 1959 3584 
Q 2709 3584 3137 3096 
Q 3566 2609 3566 1747 
Q 3566 888 3137 398 
Q 2709 -91 1959 -91 
Q 1206 -91 779 398 
Q 353 888 353 1747 
Q 353 2609 779 3096 
Q 1206 3584 1959 3584 
z
" transform="scale(0.015625)"/>
        <path id="DejaVuSans-6e" d="M 3513 2113 
L 3513 0 
L 2938 0 
L 2938 2094 
Q 2938 2591 2744 2837 
Q 2550 3084 2163 3084 
Q 1697 3084 1428 2787 
Q 1159 2491 1159 1978 
L 1159 0 
L 581 0 
L 581 3500 
L 1159 3500 
L 1159 2956 
Q 1366 3272 1645 3428 
Q 1925 3584 2291 3584 
Q 2894 3584 3203 3211 
Q 3513 2838 3513 2113 
z
" transform="scale(0.015625)"/>
        <path id="DejaVuSans-72" d="M 2631 2963 
Q 2534 3019 2420 3045 
Q 2306 3072 2169 3072 
Q 1681 3072 1420 2755 
Q 1159 2438 1159 1844 
L 1159 0 
L 581 0 
L 581 3500 
L 1159 3500 
L 1159 2956 
Q 1341 3275 1631 3429 
Q 1922 3584 2338 3584 
Q 2397 3584 2469 3576 
Q 2541 3569 2628 3553 
L 2631 2963 
z
" transform="scale(0.015625)"/>
        <path id="DejaVuSans-73" d="M 2834 3397 
L 2834 2853 
Q 2591 2978 2328 3040 
Q 2066 3103 1784 3103 
Q 1356 3103 1142 2972 
Q 928 2841 928 2578 
Q 928 2378 1081 2264 
Q 1234 2150 1697 2047 
L 1894 2003 
Q 2506 1872 2764 1633 
Q 3022 1394 3022 966 
Q 3022 478 2636 193 
Q 2250 -91 1575 -91 
Q 1294 -91 989 -36 
Q 684 19 347 128 
L 347 722 
Q 666 556 975 473 
Q 1284 391 1588 391 
Q 1994 391 2212 530 
Q 2431 669 2431 922 
Q 2431 1156 2273 1281 
Q 2116 1406 1581 1522 
L 1381 1569 
Q 847 1681 609 1914 
Q 372 2147 372 2553 
Q 372 3047 722 3315 
Q 1072 3584 1716 3584 
Q 2034 3584 2315 3537 
Q 2597 3491 2834 3397 
z
" transform="scale(0.015625)"/>
       </defs>
       <use xlink:href="#DejaVuSans-48"/>
       <use xlink:href="#DejaVuSans-65" x="75.195312"/>
       <use xlink:href="#DejaVuSans-61" x="136.71875"/>
       <use xlink:href="#DejaVuSans-6c" x="197.998047"/>
       <use xlink:href="#DejaVuSans-74" x="225.78125"/>
       <use xlink:href="#DejaVuSans-68" x="264.990234"/>
       <use xlink:href="#DejaVuSans-79" x="328.369141"/>
       <use xlink:href="#DejaVuSans-20" x="387.548828"/>
       <use xlink:href="#DejaVuSans-43" x="419.335938"/>
       <use xlink:href="#DejaVuSans-6f" x="489.160156"/>
       <use xlink:href="#DejaVuSans-6e" x="550.341797"/>
       <use xlink:href="#DejaVuSans-74" x="613.720703"/>
       <use xlink:href="#DejaVuSans-72" x="652.929688"/>
       <use xlink:href="#DejaVuSans-6f" x="691.792969"/>
       <use xlink:href="#DejaVuSans-6c" x="752.974609"/>
       <use xlink:href="#DejaVuSans-73" x="780.757812"/>
      </g>
     </g>
    </g>
    <g id="xtick_2">
     <g id="line2d_2">
      <g>
       <use xlink:href="#mf6c96e66a0" x="374.401125" y="2685.282264" style="stroke: #000000; stroke-width: 1.25"/>
      </g>
     </g>
     <g id="text_2">
      <!-- MCI -->
      <g transform="translate(360.109203 2706.483858) scale(0.154 -0.154)">
       <defs>
        <path id="DejaVuSans-4d" d="M 628 4666 
L 1569 4666 
L 2759 1491 
L 3956 4666 
L 4897 4666 
L 4897 0 
L 4281 0 
L 4281 4097 
L 3078 897 
L 2444 897 
L 1241 4097 
L 1241 0 
L 628 0 
L 628 4666 
z
" transform="scale(0.015625)"/>
        <path id="DejaVuSans-49" d="M 628 4666 
L 1259 4666 
L 1259 0 
L 628 0 
L 628 4666 
z
" transform="scale(0.015625)"/>
       </defs>
       <use xlink:href="#DejaVuSans-4d"/>
       <use xlink:href="#DejaVuSans-43" x="86.279297"/>
       <use xlink:href="#DejaVuSans-49" x="156.103516"/>
      </g>
     </g>
    </g>
    <g id="xtick_3">
     <g id="line2d_3">
      <g>
       <use xlink:href="#mf6c96e66a0" x="618.947108" y="2685.282264" style="stroke: #000000; stroke-width: 1.25"/>
      </g>
     </g>
     <g id="text_3">
      <!-- Alzheimer's -->
      <g transform="translate(574.211311 2706.483858) scale(0.154 -0.154)">
       <defs>
        <path id="DejaVuSans-41" d="M 2188 4044 
L 1331 1722 
L 3047 1722 
L 2188 4044 
z
M 1831 4666 
L 2547 4666 
L 4325 0 
L 3669 0 
L 3244 1197 
L 1141 1197 
L 716 0 
L 50 0 
L 1831 4666 
z
" transform="scale(0.015625)"/>
        <path id="DejaVuSans-7a" d="M 353 3500 
L 3084 3500 
L 3084 2975 
L 922 459 
L 3084 459 
L 3084 0 
L 275 0 
L 275 525 
L 2438 3041 
L 353 3041 
L 353 3500 
z
" transform="scale(0.015625)"/>
        <path id="DejaVuSans-69" d="M 603 3500 
L 1178 3500 
L 1178 0 
L 603 0 
L 603 3500 
z
M 603 4863 
L 1178 4863 
L 1178 4134 
L 603 4134 
L 603 4863 
z
" transform="scale(0.015625)"/>
        <path id="DejaVuSans-6d" d="M 3328 2828 
Q 3544 3216 3844 3400 
Q 4144 3584 4550 3584 
Q 5097 3584 5394 3201 
Q 5691 2819 5691 2113 
L 5691 0 
L 5113 0 
L 5113 2094 
Q 5113 2597 4934 2840 
Q 4756 3084 4391 3084 
Q 3944 3084 3684 2787 
Q 3425 2491 3425 1978 
L 3425 0 
L 2847 0 
L 2847 2094 
Q 2847 2600 2669 2842 
Q 2491 3084 2119 3084 
Q 1678 3084 1418 2786 
Q 1159 2488 1159 1978 
L 1159 0 
L 581 0 
L 581 3500 
L 1159 3500 
L 1159 2956 
Q 1356 3278 1631 3431 
Q 1906 3584 2284 3584 
Q 2666 3584 2933 3390 
Q 3200 3197 3328 2828 
z
" transform="scale(0.015625)"/>
        <path id="DejaVuSans-27" d="M 1147 4666 
L 1147 2931 
L 616 2931 
L 616 4666 
L 1147 4666 
z
" transform="scale(0.015625)"/>
       </defs>
       <use xlink:href="#DejaVuSans-41"/>
       <use xlink:href="#DejaVuSans-6c" x="68.408203"/>
       <use xlink:href="#DejaVuSans-7a" x="96.191406"/>
       <use xlink:href="#DejaVuSans-68" x="148.681641"/>
       <use xlink:href="#DejaVuSans-65" x="212.060547"/>
       <use xlink:href="#DejaVuSans-69" x="273.583984"/>
       <use xlink:href="#DejaVuSans-6d" x="301.367188"/>
       <use xlink:href="#DejaVuSans-65" x="398.779297"/>
       <use xlink:href="#DejaVuSans-72" x="460.302734"/>
       <use xlink:href="#DejaVuSans-27" x="501.416016"/>
       <use xlink:href="#DejaVuSans-73" x="528.90625"/>
      </g>
     </g>
    </g>
   </g>
   <g id="matplotlib.axis_2">
    <g id="ytick_1">
     <g id="line2d_4">
      <defs>
       <path id="m3a0fd56edd" d="M 0 0 
L -6 0 
" style="stroke: #000000; stroke-width: 1.25"/>
      </defs>
      <g>
       <use xlink:href="#m3a0fd56edd" x="100.643063" y="2675.574576" style="stroke: #000000; stroke-width: 1.25"/>
      </g>
     </g>
     <g id="text_4">
      <!-- 0.00008 -->
      <g transform="translate(27.45925 2681.425373) scale(0.154 -0.154)">
       <defs>
        <path id="DejaVuSans-30" d="M 2034 4250 
Q 1547 4250 1301 3770 
Q 1056 3291 1056 2328 
Q 1056 1369 1301 889 
Q 1547 409 2034 409 
Q 2525 409 2770 889 
Q 3016 1369 3016 2328 
Q 3016 3291 2770 3770 
Q 2525 4250 2034 4250 
z
M 2034 4750 
Q 2819 4750 3233 4129 
Q 3647 3509 3647 2328 
Q 3647 1150 3233 529 
Q 2819 -91 2034 -91 
Q 1250 -91 836 529 
Q 422 1150 422 2328 
Q 422 3509 836 4129 
Q 1250 4750 2034 4750 
z
" transform="scale(0.015625)"/>
        <path id="DejaVuSans-2e" d="M 684 794 
L 1344 794 
L 1344 0 
L 684 0 
L 684 794 
z
" transform="scale(0.015625)"/>
        <path id="DejaVuSans-38" d="M 2034 2216 
Q 1584 2216 1326 1975 
Q 1069 1734 1069 1313 
Q 1069 891 1326 650 
Q 1584 409 2034 409 
Q 2484 409 2743 651 
Q 3003 894 3003 1313 
Q 3003 1734 2745 1975 
Q 2488 2216 2034 2216 
z
M 1403 2484 
Q 997 2584 770 2862 
Q 544 3141 544 3541 
Q 544 4100 942 4425 
Q 1341 4750 2034 4750 
Q 2731 4750 3128 4425 
Q 3525 4100 3525 3541 
Q 3525 3141 3298 2862 
Q 3072 2584 2669 2484 
Q 3125 2378 3379 2068 
Q 3634 1759 3634 1313 
Q 3634 634 3220 271 
Q 2806 -91 2034 -91 
Q 1263 -91 848 271 
Q 434 634 434 1313 
Q 434 1759 690 2068 
Q 947 2378 1403 2484 
z
M 1172 3481 
Q 1172 3119 1398 2916 
Q 1625 2713 2034 2713 
Q 2441 2713 2670 2916 
Q 2900 3119 2900 3481 
Q 2900 3844 2670 4047 
Q 2441 4250 2034 4250 
Q 1625 4250 1398 4047 
Q 1172 3844 1172 3481 
z
" transform="scale(0.015625)"/>
       </defs>
       <use xlink:href="#DejaVuSans-30"/>
       <use xlink:href="#DejaVuSans-2e" x="63.623047"/>
       <use xlink:href="#DejaVuSans-30" x="95.410156"/>
       <use xlink:href="#DejaVuSans-30" x="159.033203"/>
       <use xlink:href="#DejaVuSans-30" x="222.65625"/>
       <use xlink:href="#DejaVuSans-30" x="286.279297"/>
       <use xlink:href="#DejaVuSans-38" x="349.902344"/>
      </g>
     </g>
    </g>
    <g id="ytick_2">
     <g id="line2d_5">
      <g>
       <use xlink:href="#m3a0fd56edd" x="100.643063" y="2603.466446" style="stroke: #000000; stroke-width: 1.25"/>
      </g>
     </g>
     <g id="text_5">
      <!-- 0.00010 -->
      <g transform="translate(27.45925 2609.317243) scale(0.154 -0.154)">
       <defs>
        <path id="DejaVuSans-31" d="M 794 531 
L 1825 531 
L 1825 4091 
L 703 3866 
L 703 4441 
L 1819 4666 
L 2450 4666 
L 2450 531 
L 3481 531 
L 3481 0 
L 794 0 
L 794 531 
z
" transform="scale(0.015625)"/>
       </defs>
       <use xlink:href="#DejaVuSans-30"/>
       <use xlink:href="#DejaVuSans-2e" x="63.623047"/>
       <use xlink:href="#DejaVuSans-30" x="95.410156"/>
       <use xlink:href="#DejaVuSans-30" x="159.033203"/>
       <use xlink:href="#DejaVuSans-30" x="222.65625"/>
       <use xlink:href="#DejaVuSans-31" x="286.279297"/>
       <use xlink:href="#DejaVuSans-30" x="349.902344"/>
      </g>
     </g>
    </g>
    <g id="ytick_3">
     <g id="line2d_6">
      <g>
       <use xlink:href="#m3a0fd56edd" x="100.643063" y="2531.358316" style="stroke: #000000; stroke-width: 1.25"/>
      </g>
     </g>
     <g id="text_6">
      <!-- 0.00012 -->
      <g transform="translate(27.45925 2537.209113) scale(0.154 -0.154)">
       <defs>
        <path id="DejaVuSans-32" d="M 1228 531 
L 3431 531 
L 3431 0 
L 469 0 
L 469 531 
Q 828 903 1448 1529 
Q 2069 2156 2228 2338 
Q 2531 2678 2651 2914 
Q 2772 3150 2772 3378 
Q 2772 3750 2511 3984 
Q 2250 4219 1831 4219 
Q 1534 4219 1204 4116 
Q 875 4013 500 3803 
L 500 4441 
Q 881 4594 1212 4672 
Q 1544 4750 1819 4750 
Q 2544 4750 2975 4387 
Q 3406 4025 3406 3419 
Q 3406 3131 3298 2873 
Q 3191 2616 2906 2266 
Q 2828 2175 2409 1742 
Q 1991 1309 1228 531 
z
" transform="scale(0.015625)"/>
       </defs>
       <use xlink:href="#DejaVuSans-30"/>
       <use xlink:href="#DejaVuSans-2e" x="63.623047"/>
       <use xlink:href="#DejaVuSans-30" x="95.410156"/>
       <use xlink:href="#DejaVuSans-30" x="159.033203"/>
       <use xlink:href="#DejaVuSans-30" x="222.65625"/>
       <use xlink:href="#DejaVuSans-31" x="286.279297"/>
       <use xlink:href="#DejaVuSans-32" x="349.902344"/>
      </g>
     </g>
    </g>
    <g id="ytick_4">
     <g id="line2d_7">
      <g>
       <use xlink:href="#m3a0fd56edd" x="100.643063" y="2459.250186" style="stroke: #000000; stroke-width: 1.25"/>
      </g>
     </g>
     <g id="text_7">
      <!-- 0.00014 -->
      <g transform="translate(27.45925 2465.100983) scale(0.154 -0.154)">
       <defs>
        <path id="DejaVuSans-34" d="M 2419 4116 
L 825 1625 
L 2419 1625 
L 2419 4116 
z
M 2253 4666 
L 3047 4666 
L 3047 1625 
L 3713 1625 
L 3713 1100 
L 3047 1100 
L 3047 0 
L 2419 0 
L 2419 1100 
L 313 1100 
L 313 1709 
L 2253 4666 
z
" transform="scale(0.015625)"/>
       </defs>
       <use xlink:href="#DejaVuSans-30"/>
       <use xlink:href="#DejaVuSans-2e" x="63.623047"/>
       <use xlink:href="#DejaVuSans-30" x="95.410156"/>
       <use xlink:href="#DejaVuSans-30" x="159.033203"/>
       <use xlink:href="#DejaVuSans-30" x="222.65625"/>
       <use xlink:href="#DejaVuSans-31" x="286.279297"/>
       <use xlink:href="#DejaVuSans-34" x="349.902344"/>
      </g>
     </g>
    </g>
    <g id="ytick_5">
     <g id="line2d_8">
      <g>
       <use xlink:href="#m3a0fd56edd" x="100.643063" y="2387.142056" style="stroke: #000000; stroke-width: 1.25"/>
      </g>
     </g>
     <g id="text_8">
      <!-- 0.00016 -->
      <g transform="translate(27.45925 2392.992853) scale(0.154 -0.154)">
       <defs>
        <path id="DejaVuSans-36" d="M 2113 2584 
Q 1688 2584 1439 2293 
Q 1191 2003 1191 1497 
Q 1191 994 1439 701 
Q 1688 409 2113 409 
Q 2538 409 2786 701 
Q 3034 994 3034 1497 
Q 3034 2003 2786 2293 
Q 2538 2584 2113 2584 
z
M 3366 4563 
L 3366 3988 
Q 3128 4100 2886 4159 
Q 2644 4219 2406 4219 
Q 1781 4219 1451 3797 
Q 1122 3375 1075 2522 
Q 1259 2794 1537 2939 
Q 1816 3084 2150 3084 
Q 2853 3084 3261 2657 
Q 3669 2231 3669 1497 
Q 3669 778 3244 343 
Q 2819 -91 2113 -91 
Q 1303 -91 875 529 
Q 447 1150 447 2328 
Q 447 3434 972 4092 
Q 1497 4750 2381 4750 
Q 2619 4750 2861 4703 
Q 3103 4656 3366 4563 
z
" transform="scale(0.015625)"/>
       </defs>
       <use xlink:href="#DejaVuSans-30"/>
       <use xlink:href="#DejaVuSans-2e" x="63.623047"/>
       <use xlink:href="#DejaVuSans-30" x="95.410156"/>
       <use xlink:href="#DejaVuSans-30" x="159.033203"/>
       <use xlink:href="#DejaVuSans-30" x="222.65625"/>
       <use xlink:href="#DejaVuSans-31" x="286.279297"/>
       <use xlink:href="#DejaVuSans-36" x="349.902344"/>
      </g>
     </g>
    </g>
    <g id="ytick_6">
     <g id="line2d_9">
      <g>
       <use xlink:href="#m3a0fd56edd" x="100.643063" y="2315.033926" style="stroke: #000000; stroke-width: 1.25"/>
      </g>
     </g>
     <g id="text_9">
      <!-- 0.00018 -->
      <g transform="translate(27.45925 2320.884723) scale(0.154 -0.154)">
       <use xlink:href="#DejaVuSans-30"/>
       <use xlink:href="#DejaVuSans-2e" x="63.623047"/>
       <use xlink:href="#DejaVuSans-30" x="95.410156"/>
       <use xlink:href="#DejaVuSans-30" x="159.033203"/>
       <use xlink:href="#DejaVuSans-30" x="222.65625"/>
       <use xlink:href="#DejaVuSans-31" x="286.279297"/>
       <use xlink:href="#DejaVuSans-38" x="349.902344"/>
      </g>
     </g>
    </g>
    <g id="ytick_7">
     <g id="line2d_10">
      <g>
       <use xlink:href="#m3a0fd56edd" x="100.643063" y="2242.925796" style="stroke: #000000; stroke-width: 1.25"/>
      </g>
     </g>
     <g id="text_10">
      <!-- 0.00020 -->
      <g transform="translate(27.45925 2248.776593) scale(0.154 -0.154)">
       <use xlink:href="#DejaVuSans-30"/>
       <use xlink:href="#DejaVuSans-2e" x="63.623047"/>
       <use xlink:href="#DejaVuSans-30" x="95.410156"/>
       <use xlink:href="#DejaVuSans-30" x="159.033203"/>
       <use xlink:href="#DejaVuSans-30" x="222.65625"/>
       <use xlink:href="#DejaVuSans-32" x="286.279297"/>
       <use xlink:href="#DejaVuSans-30" x="349.902344"/>
      </g>
     </g>
    </g>
    <g id="ytick_8">
     <g id="line2d_11">
      <g>
       <use xlink:href="#m3a0fd56edd" x="100.643063" y="2170.817666" style="stroke: #000000; stroke-width: 1.25"/>
      </g>
     </g>
     <g id="text_11">
      <!-- 0.00022 -->
      <g transform="translate(27.45925 2176.668463) scale(0.154 -0.154)">
       <use xlink:href="#DejaVuSans-30"/>
       <use xlink:href="#DejaVuSans-2e" x="63.623047"/>
       <use xlink:href="#DejaVuSans-30" x="95.410156"/>
       <use xlink:href="#DejaVuSans-30" x="159.033203"/>
       <use xlink:href="#DejaVuSans-30" x="222.65625"/>
       <use xlink:href="#DejaVuSans-32" x="286.279297"/>
       <use xlink:href="#DejaVuSans-32" x="349.902344"/>
      </g>
     </g>
    </g>
    <g id="text_12">
     <!-- I(t=tmax,s=0) [Parcells] -->
     <g transform="translate(19.965375 2509.623826) rotate(-90) scale(0.168 -0.168)">
      <defs>
       <path id="DejaVuSans-28" d="M 1984 4856 
Q 1566 4138 1362 3434 
Q 1159 2731 1159 2009 
Q 1159 1288 1364 580 
Q 1569 -128 1984 -844 
L 1484 -844 
Q 1016 -109 783 600 
Q 550 1309 550 2009 
Q 550 2706 781 3412 
Q 1013 4119 1484 4856 
L 1984 4856 
z
" transform="scale(0.015625)"/>
       <path id="DejaVuSans-3d" d="M 678 2906 
L 4684 2906 
L 4684 2381 
L 678 2381 
L 678 2906 
z
M 678 1631 
L 4684 1631 
L 4684 1100 
L 678 1100 
L 678 1631 
z
" transform="scale(0.015625)"/>
       <path id="DejaVuSans-78" d="M 3513 3500 
L 2247 1797 
L 3578 0 
L 2900 0 
L 1881 1375 
L 863 0 
L 184 0 
L 1544 1831 
L 300 3500 
L 978 3500 
L 1906 2253 
L 2834 3500 
L 3513 3500 
z
" transform="scale(0.015625)"/>
       <path id="DejaVuSans-2c" d="M 750 794 
L 1409 794 
L 1409 256 
L 897 -744 
L 494 -744 
L 750 256 
L 750 794 
z
" transform="scale(0.015625)"/>
       <path id="DejaVuSans-29" d="M 513 4856 
L 1013 4856 
Q 1481 4119 1714 3412 
Q 1947 2706 1947 2009 
Q 1947 1309 1714 600 
Q 1481 -109 1013 -844 
L 513 -844 
Q 928 -128 1133 580 
Q 1338 1288 1338 2009 
Q 1338 2731 1133 3434 
Q 928 4138 513 4856 
z
" transform="scale(0.015625)"/>
       <path id="DejaVuSans-5b" d="M 550 4863 
L 1875 4863 
L 1875 4416 
L 1125 4416 
L 1125 -397 
L 1875 -397 
L 1875 -844 
L 550 -844 
L 550 4863 
z
" transform="scale(0.015625)"/>
       <path id="DejaVuSans-50" d="M 1259 4147 
L 1259 2394 
L 2053 2394 
Q 2494 2394 2734 2622 
Q 2975 2850 2975 3272 
Q 2975 3691 2734 3919 
Q 2494 4147 2053 4147 
L 1259 4147 
z
M 628 4666 
L 2053 4666 
Q 2838 4666 3239 4311 
Q 3641 3956 3641 3272 
Q 3641 2581 3239 2228 
Q 2838 1875 2053 1875 
L 1259 1875 
L 1259 0 
L 628 0 
L 628 4666 
z
" transform="scale(0.015625)"/>
       <path id="DejaVuSans-63" d="M 3122 3366 
L 3122 2828 
Q 2878 2963 2633 3030 
Q 2388 3097 2138 3097 
Q 1578 3097 1268 2742 
Q 959 2388 959 1747 
Q 959 1106 1268 751 
Q 1578 397 2138 397 
Q 2388 397 2633 464 
Q 2878 531 3122 666 
L 3122 134 
Q 2881 22 2623 -34 
Q 2366 -91 2075 -91 
Q 1284 -91 818 406 
Q 353 903 353 1747 
Q 353 2603 823 3093 
Q 1294 3584 2113 3584 
Q 2378 3584 2631 3529 
Q 2884 3475 3122 3366 
z
" transform="scale(0.015625)"/>
       <path id="DejaVuSans-5d" d="M 1947 4863 
L 1947 -844 
L 622 -844 
L 622 -397 
L 1369 -397 
L 1369 4416 
L 622 4416 
L 622 4863 
L 1947 4863 
z
" transform="scale(0.015625)"/>
      </defs>
      <use xlink:href="#DejaVuSans-49"/>
      <use xlink:href="#DejaVuSans-28" x="29.492188"/>
      <use xlink:href="#DejaVuSans-74" x="68.505859"/>
      <use xlink:href="#DejaVuSans-3d" x="107.714844"/>
      <use xlink:href="#DejaVuSans-74" x="191.503906"/>
      <use xlink:href="#DejaVuSans-6d" x="230.712891"/>
      <use xlink:href="#DejaVuSans-61" x="328.125"/>
      <use xlink:href="#DejaVuSans-78" x="389.404297"/>
      <use xlink:href="#DejaVuSans-2c" x="448.583984"/>
      <use xlink:href="#DejaVuSans-73" x="480.371094"/>
      <use xlink:href="#DejaVuSans-3d" x="532.470703"/>
      <use xlink:href="#DejaVuSans-30" x="616.259766"/>
      <use xlink:href="#DejaVuSans-29" x="679.882812"/>
      <use xlink:href="#DejaVuSans-20" x="718.896484"/>
      <use xlink:href="#DejaVuSans-5b" x="750.683594"/>
      <use xlink:href="#DejaVuSans-50" x="789.697266"/>
      <use xlink:href="#DejaVuSans-61" x="845.5"/>
      <use xlink:href="#DejaVuSans-72" x="906.779297"/>
      <use xlink:href="#DejaVuSans-63" x="945.642578"/>
      <use xlink:href="#DejaVuSans-65" x="1000.623047"/>
      <use xlink:href="#DejaVuSans-6c" x="1062.146484"/>
      <use xlink:href="#DejaVuSans-6c" x="1089.929688"/>
      <use xlink:href="#DejaVuSans-73" x="1117.712891"/>
      <use xlink:href="#DejaVuSans-5d" x="1169.8125"/>
     </g>
    </g>
   </g>
   <g id="line2d_12">
    <path d="M 129.855142 2622.16653 
L 129.855142 2608.4145 
" clip-path="url(#p3bb7f83a1c)" style="fill: none; stroke: #7a7a7a; stroke-width: 1.5; stroke-linecap: square"/>
   </g>
   <g id="line2d_13">
    <path d="M 129.855142 2618.660613 
L 129.855142 2611.656804 
" clip-path="url(#p3bb7f83a1c)" style="fill: none; stroke: #7a7a7a; stroke-width: 4.5; stroke-linecap: square"/>
   </g>
   <g id="line2d_14">
    <path d="M 374.401125 2642.63611 
L 374.401125 2636.662054 
" clip-path="url(#p3bb7f83a1c)" style="fill: none; stroke: #7a7a7a; stroke-width: 1.5; stroke-linecap: square"/>
   </g>
   <g id="line2d_15">
    <path d="M 374.401125 2640.554907 
L 374.401125 2638.117151 
" clip-path="url(#p3bb7f83a1c)" style="fill: none; stroke: #7a7a7a; stroke-width: 4.5; stroke-linecap: square"/>
   </g>
   <g id="line2d_16">
    <path d="M 618.947108 2224.525217 
L 618.947108 2216.174572 
" clip-path="url(#p3bb7f83a1c)" style="fill: none; stroke: #7a7a7a; stroke-width: 1.5; stroke-linecap: square"/>
   </g>
   <g id="line2d_17">
    <path d="M 618.947108 2223.005901 
L 618.947108 2219.750139 
" clip-path="url(#p3bb7f83a1c)" style="fill: none; stroke: #7a7a7a; stroke-width: 4.5; stroke-linecap: square"/>
   </g>
   <g id="line2d_18">
    <path d="M 129.855142 2717.886576 
L 129.855142 392.148246 
L 374.401125 392.148246 
L 374.401125 2717.886576 
" clip-path="url(#p3bb7f83a1c)" style="fill: none; stroke: #000000; stroke-width: 1.5; stroke-linecap: square"/>
   </g>
   <g id="line2d_19">
    <path d="M 129.855142 2717.886576 
L 129.855142 385.751323 
L 618.947108 385.751323 
L 618.947108 2717.886576 
" clip-path="url(#p3bb7f83a1c)" style="fill: none; stroke: #000000; stroke-width: 1.5; stroke-linecap: square"/>
   </g>
   <g id="line2d_20">
    <path d="M 374.401125 2717.886576 
L 374.401125 379.3544 
L 618.947108 379.3544 
L 618.947108 2717.886576 
" clip-path="url(#p3bb7f83a1c)" style="fill: none; stroke: #000000; stroke-width: 1.5; stroke-linecap: square"/>
   </g>
   <g id="patch_6">
    <path d="M 100.643063 2685.282264 
L 100.643063 2130.882264 
" style="fill: none; stroke: #000000; stroke-width: 1.25; stroke-linejoin: miter; stroke-linecap: square"/>
   </g>
   <g id="patch_7">
    <path d="M 658.643063 2685.282264 
L 658.643063 2130.882264 
" style="fill: none; stroke: #000000; stroke-width: 1.25; stroke-linejoin: miter; stroke-linecap: square"/>
   </g>
   <g id="patch_8">
    <path d="M 100.643063 2685.282264 
L 658.643063 2685.282264 
" style="fill: none; stroke: #000000; stroke-width: 1.25; stroke-linejoin: miter; stroke-linecap: square"/>
   </g>
   <g id="patch_9">
    <path d="M 100.643063 2130.882264 
L 658.643063 2130.882264 
" style="fill: none; stroke: #000000; stroke-width: 1.25; stroke-linejoin: miter; stroke-linecap: square"/>
   </g>
   <g id="PathCollection_4">
    <defs>
     <path id="m97c573abe8" d="M 0 1.5 
C 0.397805 1.5 0.77937 1.341951 1.06066 1.06066 
C 1.341951 0.77937 1.5 0.397805 1.5 0 
C 1.5 -0.397805 1.341951 -0.77937 1.06066 -1.06066 
C 0.77937 -1.341951 0.397805 -1.5 0 -1.5 
C -0.397805 -1.5 -0.77937 -1.341951 -1.06066 -1.06066 
C -1.341951 -0.77937 -1.5 -0.397805 -1.5 0 
C -1.5 0.397805 -1.341951 0.77937 -1.06066 1.06066 
C -0.77937 1.341951 -0.397805 1.5 0 1.5 
z
" style="stroke: #7a7a7a"/>
    </defs>
    <g clip-path="url(#p3bb7f83a1c)">
     <use xlink:href="#m97c573abe8" x="129.855142" y="2615.23792" style="fill: #ffffff; stroke: #7a7a7a"/>
    </g>
   </g>
   <g id="PathCollection_5">
    <g clip-path="url(#p3bb7f83a1c)">
     <use xlink:href="#m97c573abe8" x="374.401125" y="2638.40026" style="fill: #ffffff; stroke: #7a7a7a"/>
    </g>
   </g>
   <g id="PathCollection_6">
    <g clip-path="url(#p3bb7f83a1c)">
     <use xlink:href="#m97c573abe8" x="618.947108" y="2221.081046" style="fill: #ffffff; stroke: #7a7a7a"/>
    </g>
   </g>
   <g id="text_13">
    <!-- **** -->
    <g transform="translate(240.128134 29.111971) scale(0.12 -0.12)">
     <defs>
      <path id="DejaVuSans-2a" d="M 3009 3897 
L 1888 3291 
L 3009 2681 
L 2828 2375 
L 1778 3009 
L 1778 1831 
L 1422 1831 
L 1422 3009 
L 372 2375 
L 191 2681 
L 1313 3291 
L 191 3897 
L 372 4206 
L 1422 3572 
L 1422 4750 
L 1778 4750 
L 1778 3572 
L 2828 4206 
L 3009 3897 
z
" transform="scale(0.015625)"/>
     </defs>
     <use xlink:href="#DejaVuSans-2a"/>
     <use xlink:href="#DejaVuSans-2a" x="50"/>
     <use xlink:href="#DejaVuSans-2a" x="100"/>
     <use xlink:href="#DejaVuSans-2a" x="150"/>
    </g>
   </g>
   <g id="text_14">
    <!-- **** -->
    <g transform="translate(362.401125 22.715048) scale(0.12 -0.12)">
     <use xlink:href="#DejaVuSans-2a"/>
     <use xlink:href="#DejaVuSans-2a" x="50"/>
     <use xlink:href="#DejaVuSans-2a" x="100"/>
     <use xlink:href="#DejaVuSans-2a" x="150"/>
    </g>
   </g>
   <g id="text_15">
    <!-- *** -->
    <g transform="translate(487.674116 16.318125) scale(0.12 -0.12)">
     <use xlink:href="#DejaVuSans-2a"/>
     <use xlink:href="#DejaVuSans-2a" x="50"/>
     <use xlink:href="#DejaVuSans-2a" x="100"/>
    </g>
   </g>
   <g id="text_16">
    <!-- FDT I(tmax, 0) Parcells -->
    <g transform="translate(284.633813 2124.882264) scale(0.168 -0.168)">
     <defs>
      <path id="DejaVuSans-46" d="M 628 4666 
L 3309 4666 
L 3309 4134 
L 1259 4134 
L 1259 2759 
L 3109 2759 
L 3109 2228 
L 1259 2228 
L 1259 0 
L 628 0 
L 628 4666 
z
" transform="scale(0.015625)"/>
      <path id="DejaVuSans-44" d="M 1259 4147 
L 1259 519 
L 2022 519 
Q 2988 519 3436 956 
Q 3884 1394 3884 2338 
Q 3884 3275 3436 3711 
Q 2988 4147 2022 4147 
L 1259 4147 
z
M 628 4666 
L 1925 4666 
Q 3281 4666 3915 4102 
Q 4550 3538 4550 2338 
Q 4550 1131 3912 565 
Q 3275 0 1925 0 
L 628 0 
L 628 4666 
z
" transform="scale(0.015625)"/>
      <path id="DejaVuSans-54" d="M -19 4666 
L 3928 4666 
L 3928 4134 
L 2272 4134 
L 2272 0 
L 1638 0 
L 1638 4134 
L -19 4134 
L -19 4666 
z
" transform="scale(0.015625)"/>
     </defs>
     <use xlink:href="#DejaVuSans-46"/>
     <use xlink:href="#DejaVuSans-44" x="57.519531"/>
     <use xlink:href="#DejaVuSans-54" x="134.521484"/>
     <use xlink:href="#DejaVuSans-20" x="195.605469"/>
     <use xlink:href="#DejaVuSans-49" x="227.392578"/>
     <use xlink:href="#DejaVuSans-28" x="256.884766"/>
     <use xlink:href="#DejaVuSans-74" x="295.898438"/>
     <use xlink:href="#DejaVuSans-6d" x="335.107422"/>
     <use xlink:href="#DejaVuSans-61" x="432.519531"/>
     <use xlink:href="#DejaVuSans-78" x="493.798828"/>
     <use xlink:href="#DejaVuSans-2c" x="552.978516"/>
     <use xlink:href="#DejaVuSans-20" x="584.765625"/>
     <use xlink:href="#DejaVuSans-30" x="616.552734"/>
     <use xlink:href="#DejaVuSans-29" x="680.175781"/>
     <use xlink:href="#DejaVuSans-20" x="719.189453"/>
     <use xlink:href="#DejaVuSans-50" x="750.976562"/>
     <use xlink:href="#DejaVuSans-61" x="806.779297"/>
     <use xlink:href="#DejaVuSans-72" x="868.058594"/>
     <use xlink:href="#DejaVuSans-63" x="906.921875"/>
     <use xlink:href="#DejaVuSans-65" x="961.902344"/>
     <use xlink:href="#DejaVuSans-6c" x="1023.425781"/>
     <use xlink:href="#DejaVuSans-6c" x="1051.208984"/>
     <use xlink:href="#DejaVuSans-73" x="1078.992188"/>
    </g>
   </g>
   <g id="legend_1">
    <g id="patch_10">
     <path d="M 111.423063 2234.974451 
L 189.286906 2234.974451 
Q 192.366906 2234.974451 192.366906 2231.894451 
L 192.366906 2141.662264 
Q 192.366906 2138.582264 189.286906 2138.582264 
L 111.423063 2138.582264 
Q 108.343063 2138.582264 108.343063 2141.662264 
L 108.343063 2231.894451 
Q 108.343063 2234.974451 111.423063 2234.974451 
z
" style="fill: #ffffff; opacity: 0.8; stroke: #cccccc; stroke-linejoin: miter"/>
    </g>
    <g id="text_17">
     <!-- cond -->
     <g transform="translate(129.940359 2157.507639) scale(0.168 -0.168)">
      <defs>
       <path id="DejaVuSans-64" d="M 2906 2969 
L 2906 4863 
L 3481 4863 
L 3481 0 
L 2906 0 
L 2906 525 
Q 2725 213 2448 61 
Q 2172 -91 1784 -91 
Q 1150 -91 751 415 
Q 353 922 353 1747 
Q 353 2572 751 3078 
Q 1150 3584 1784 3584 
Q 2172 3584 2448 3432 
Q 2725 3281 2906 2969 
z
M 947 1747 
Q 947 1113 1208 752 
Q 1469 391 1925 391 
Q 2381 391 2643 752 
Q 2906 1113 2906 1747 
Q 2906 2381 2643 2742 
Q 2381 3103 1925 3103 
Q 1469 3103 1208 2742 
Q 947 2381 947 1747 
z
" transform="scale(0.015625)"/>
      </defs>
      <use xlink:href="#DejaVuSans-63"/>
      <use xlink:href="#DejaVuSans-6f" x="54.980469"/>
      <use xlink:href="#DejaVuSans-6e" x="116.162109"/>
      <use xlink:href="#DejaVuSans-64" x="179.541016"/>
     </g>
    </g>
    <g id="patch_11">
     <path d="M 114.503063 2180.403108 
L 145.303063 2180.403108 
L 145.303063 2169.623108 
L 114.503063 2169.623108 
z
" style="fill: #cbd5e8; stroke: #7a7a7a; stroke-width: 0.75; stroke-linejoin: miter"/>
    </g>
    <g id="text_18">
     <!-- AD -->
     <g transform="translate(157.623063 2180.403108) scale(0.154 -0.154)">
      <use xlink:href="#DejaVuSans-41"/>
      <use xlink:href="#DejaVuSans-44" x="68.408203"/>
     </g>
    </g>
    <g id="patch_12">
     <path d="M 114.503063 2203.00742 
L 145.303063 2203.00742 
L 145.303063 2192.22742 
L 114.503063 2192.22742 
z
" style="fill: #fdcdac; stroke: #7a7a7a; stroke-width: 0.75; stroke-linejoin: miter"/>
    </g>
    <g id="text_19">
     <!-- MCI -->
     <g transform="translate(157.623063 2203.00742) scale(0.154 -0.154)">
      <use xlink:href="#DejaVuSans-4d"/>
      <use xlink:href="#DejaVuSans-43" x="86.279297"/>
      <use xlink:href="#DejaVuSans-49" x="156.103516"/>
     </g>
    </g>
    <g id="patch_13">
     <path d="M 114.503063 2225.611733 
L 145.303063 2225.611733 
L 145.303063 2214.831733 
L 114.503063 2214.831733 
z
" style="fill: #b3e2cd; stroke: #7a7a7a; stroke-width: 0.75; stroke-linejoin: miter"/>
    </g>
    <g id="text_20">
     <!-- HC -->
     <g transform="translate(157.623063 2225.611733) scale(0.154 -0.154)">
      <use xlink:href="#DejaVuSans-48"/>
      <use xlink:href="#DejaVuSans-43" x="75.195312"/>
     </g>
    </g>
   </g>
  </g>
 </g>
 <defs>
  <clipPath id="p3bb7f83a1c">
   <rect x="100.643063" y="2130.882264" width="558" height="554.4"/>
  </clipPath>
 </defs>
</svg>
