<?xml version="1.0" encoding="utf-8" standalone="no"?>
<!DOCTYPE svg PUBLIC "-//W3C//DTD SVG 1.1//EN"
  "http://www.w3.org/Graphics/SVG/1.1/DTD/svg11.dtd">
<svg xmlns:xlink="http://www.w3.org/1999/xlink" width="377.044812pt" height="334.769688pt" viewBox="0 0 377.044812 334.769688" xmlns="http://www.w3.org/2000/svg" version="1.1">
 <metadata>
  <rdf:RDF xmlns:dc="http://purl.org/dc/elements/1.1/" xmlns:cc="http://creativecommons.org/ns#" xmlns:rdf="http://www.w3.org/1999/02/22-rdf-syntax-ns#">
   <cc:Work>
    <dc:type rdf:resource="http://purl.org/dc/dcmitype/StillImage"/>
    <dc:date>2025-04-04T15:32:38.416554</dc:date>
    <dc:format>image/svg+xml</dc:format>
    <dc:creator>
     <cc:Agent>
      <dc:title>Matplotlib v3.7.2, https://matplotlib.org/</dc:title>
     </cc:Agent>
    </dc:creator>
   </cc:Work>
  </rdf:RDF>
 </metadata>
 <defs>
  <style type="text/css">*{stroke-linejoin: round; stroke-linecap: butt}</style>
 </defs>
 <g id="figure_1">
  <g id="patch_1">
   <path d="M 0 334.769688 
L 377.044812 334.769688 
L 377.044812 0 
L 0 0 
z
" style="fill: #ffffff"/>
  </g>
  <g id="axes_1">
   <g id="patch_2">
    <path d="M 90.844812 303.165375 
L 369.844812 303.165375 
L 369.844812 25.965375 
L 90.844812 25.965375 
z
" style="fill: #ffffff"/>
   </g>
   <g id="patch_3">
    <path d="M 138.97441 703.754654 
L 138.97441 703.754654 
L 138.97441 703.754654 
L 138.97441 703.754654 
z
" clip-path="url(#p7a120e2222)" style="fill: #ffe994; stroke: #797979; stroke-width: 0.75; stroke-linejoin: miter"/>
   </g>
   <g id="PolyCollection_1">
    <defs>
     <path id="m821f8eebf8" d="M 104.402806 -107.380357 
L 102.650456 -107.380357 
L 102.277253 -109.305715 
L 101.778614 -111.231074 
L 101.126647 -113.156432 
L 100.29259 -115.08179 
L 99.248803 -117.007149 
L 97.971293 -118.932507 
L 96.442628 -120.857865 
L 94.655 -122.783223 
L 92.613128 -124.708582 
L 90.33662 -126.63394 
L 87.861427 -128.559298 
L 85.240041 -130.484657 
L 82.540231 -132.410015 
L 79.84224 -134.335373 
L 77.234572 -136.260732 
L 74.808671 -138.18609 
L 72.652978 -140.111448 
L 70.846922 -142.036806 
L 69.455452 -143.962165 
L 68.524652 -145.887523 
L 68.078852 -147.812881 
L 68.119451 -149.73824 
L 68.625511 -151.663598 
L 69.555942 -153.588956 
L 70.852996 -155.514314 
L 72.446668 -157.439673 
L 74.259577 -159.365031 
L 76.21193 -161.290389 
L 78.226182 -163.215748 
L 80.231142 -165.141106 
L 82.165277 -167.066464 
L 83.979094 -168.991822 
L 85.63653 -170.917181 
L 87.115312 -172.842539 
L 88.406365 -174.767897 
L 89.512351 -176.693256 
L 90.445522 -178.618614 
L 91.2251 -180.543972 
L 91.874438 -182.46933 
L 92.418238 -184.394689 
L 92.880081 -186.320047 
L 93.280474 -188.245405 
L 93.635561 -190.170764 
L 93.95655 -192.096122 
L 94.249825 -194.02148 
L 94.517639 -195.946838 
L 94.759211 -197.872197 
L 94.972042 -199.797555 
L 95.153249 -201.722913 
L 95.300753 -203.648272 
L 95.414197 -205.57363 
L 95.495515 -207.498988 
L 95.549147 -209.424346 
L 95.581912 -211.349705 
L 95.602608 -213.275063 
L 95.621404 -215.200421 
L 95.649111 -217.12578 
L 95.696412 -219.051138 
L 95.773104 -220.976496 
L 95.887442 -222.901854 
L 96.045596 -224.827213 
L 96.251278 -226.752571 
L 96.50556 -228.677929 
L 96.806877 -230.603288 
L 97.15121 -232.528646 
L 97.532423 -234.454004 
L 97.942717 -236.379362 
L 98.373144 -238.304721 
L 98.81414 -240.230079 
L 99.25604 -242.155437 
L 99.689536 -244.080796 
L 100.10607 -246.006154 
L 100.498158 -247.931512 
L 100.859645 -249.85687 
L 101.185902 -251.782229 
L 101.47397 -253.707587 
L 101.722627 -255.632945 
L 101.932394 -257.558304 
L 102.105447 -259.483662 
L 102.24542 -261.40902 
L 102.357119 -263.334378 
L 102.44613 -265.259737 
L 102.518378 -267.185095 
L 102.579656 -269.110453 
L 102.635186 -271.035812 
L 102.689251 -272.96117 
L 102.744959 -274.886528 
L 102.80413 -276.811886 
L 102.867339 -278.737245 
L 102.934083 -280.662603 
L 103.003043 -282.587961 
L 103.072394 -284.51332 
L 103.140121 -286.438678 
L 103.204306 -288.364036 
L 103.263335 -290.289394 
L 103.316044 -292.214753 
L 103.361766 -294.140111 
L 103.400319 -296.065469 
L 103.431941 -297.990828 
L 103.62132 -297.990828 
L 103.62132 -297.990828 
L 103.652942 -296.065469 
L 103.691496 -294.140111 
L 103.737217 -292.214753 
L 103.789926 -290.289394 
L 103.848955 -288.364036 
L 103.91314 -286.438678 
L 103.980868 -284.51332 
L 104.050218 -282.587961 
L 104.119178 -280.662603 
L 104.185922 -278.737245 
L 104.249131 -276.811886 
L 104.308302 -274.886528 
L 104.36401 -272.96117 
L 104.418076 -271.035812 
L 104.473605 -269.110453 
L 104.534883 -267.185095 
L 104.607132 -265.259737 
L 104.696143 -263.334378 
L 104.807841 -261.40902 
L 104.947814 -259.483662 
L 105.120867 -257.558304 
L 105.330635 -255.632945 
L 105.579291 -253.707587 
L 105.867359 -251.782229 
L 106.193617 -249.85687 
L 106.555103 -247.931512 
L 106.947191 -246.006154 
L 107.363725 -244.080796 
L 107.797221 -242.155437 
L 108.239121 -240.230079 
L 108.680117 -238.304721 
L 109.110544 -236.379362 
L 109.520838 -234.454004 
L 109.902052 -232.528646 
L 110.246384 -230.603288 
L 110.547701 -228.677929 
L 110.801984 -226.752571 
L 111.007666 -224.827213 
L 111.165819 -222.901854 
L 111.280157 -220.976496 
L 111.35685 -219.051138 
L 111.40415 -217.12578 
L 111.431858 -215.200421 
L 111.450654 -213.275063 
L 111.47135 -211.349705 
L 111.504115 -209.424346 
L 111.557746 -207.498988 
L 111.639064 -205.57363 
L 111.752508 -203.648272 
L 111.900013 -201.722913 
L 112.08122 -199.797555 
L 112.294051 -197.872197 
L 112.535623 -195.946838 
L 112.803437 -194.02148 
L 113.096712 -192.096122 
L 113.4177 -190.170764 
L 113.772787 -188.245405 
L 114.173181 -186.320047 
L 114.635024 -184.394689 
L 115.178824 -182.46933 
L 115.828161 -180.543972 
L 116.607739 -178.618614 
L 117.54091 -176.693256 
L 118.646896 -174.767897 
L 119.937949 -172.842539 
L 121.416731 -170.917181 
L 123.074167 -168.991822 
L 124.887985 -167.066464 
L 126.822119 -165.141106 
L 128.827079 -163.215748 
L 130.841332 -161.290389 
L 132.793684 -159.365031 
L 134.606594 -157.439673 
L 136.200265 -155.514314 
L 137.497319 -153.588956 
L 138.42775 -151.663598 
L 138.933811 -149.73824 
L 138.97441 -147.812881 
L 138.528609 -145.887523 
L 137.59781 -143.962165 
L 136.206339 -142.036806 
L 134.400283 -140.111448 
L 132.24459 -138.18609 
L 129.81869 -136.260732 
L 127.211021 -134.335373 
L 124.51303 -132.410015 
L 121.81322 -130.484657 
L 119.191834 -128.559298 
L 116.716641 -126.63394 
L 114.440134 -124.708582 
L 112.398261 -122.783223 
L 110.610633 -120.857865 
L 109.081969 -118.932507 
L 107.804459 -117.007149 
L 106.760671 -115.08179 
L 105.926614 -113.156432 
L 105.274647 -111.231074 
L 104.776008 -109.305715 
L 104.402806 -107.380357 
z
" style="stroke: #797979; stroke-width: 1.5"/>
    </defs>
    <g clip-path="url(#p7a120e2222)">
     <use xlink:href="#m821f8eebf8" x="0" y="334.769688" style="fill: #ffe994; stroke: #797979; stroke-width: 1.5"/>
    </g>
   </g>
   <g id="patch_4">
    <path d="M 138.97441 703.754654 
L 138.97441 703.754654 
L 138.97441 703.754654 
L 138.97441 703.754654 
z
" clip-path="url(#p7a120e2222)" style="fill: #9bddf9; stroke: #797979; stroke-width: 0.75; stroke-linejoin: miter"/>
   </g>
   <g id="PolyCollection_2">
    <defs>
     <path id="mb59de74b80" d="M 352.454663 -17.694975 
L 350.867506 -17.694975 
L 350.422325 -20.014443 
L 349.781677 -22.33391 
L 348.889207 -24.653378 
L 347.686205 -26.972845 
L 346.118113 -29.292313 
L 344.143202 -31.61178 
L 341.742701 -33.931248 
L 338.931039 -36.250716 
L 335.764374 -38.570183 
L 332.345308 -40.889651 
L 328.821883 -43.209118 
L 325.379593 -45.528586 
L 322.226278 -47.848053 
L 319.571209 -50.167521 
L 317.601055 -52.486988 
L 316.456459 -54.806456 
L 316.213305 -57.125923 
L 316.872166 -59.445391 
L 318.358078 -61.764859 
L 320.530803 -64.084326 
L 323.203736 -66.403794 
L 326.167947 -68.723261 
L 329.217085 -71.042729 
L 332.168998 -73.362196 
L 334.881014 -75.681664 
L 337.257428 -78.001131 
L 339.249418 -80.320599 
L 340.849019 -82.640067 
L 342.079499 -84.959534 
L 342.984599 -87.279002 
L 343.618636 -89.598469 
L 344.038693 -91.917937 
L 344.299316 -94.237404 
L 344.44951 -96.556872 
L 344.531451 -98.876339 
L 344.580264 -101.195807 
L 344.624301 -103.515275 
L 344.685612 -105.834742 
L 344.780452 -108.15421 
L 344.919835 -110.473677 
L 345.110167 -112.793145 
L 345.353947 -115.112612 
L 345.650505 -117.43208 
L 345.996647 -119.751547 
L 346.387157 -122.071015 
L 346.81509 -124.390482 
L 347.271928 -126.70995 
L 347.747687 -129.029418 
L 348.231143 -131.348885 
L 348.710259 -133.668353 
L 349.172867 -135.98782 
L 349.607546 -138.307288 
L 350.004542 -140.626755 
L 350.356579 -142.946223 
L 350.659374 -145.26569 
L 350.911791 -147.585158 
L 351.115591 -149.904626 
L 351.274872 -152.224093 
L 351.395314 -154.543561 
L 351.483379 -156.863028 
L 351.545581 -159.182496 
L 351.587924 -161.501963 
L 351.61553 -163.821431 
L 351.632455 -166.140898 
L 351.641651 -168.460366 
L 351.645022 -170.779834 
L 351.64353 -173.099301 
L 351.637333 -175.418769 
L 351.625914 -177.738236 
L 351.608242 -180.057704 
L 351.582942 -182.377171 
L 351.548515 -184.696639 
L 351.503599 -187.016106 
L 351.447254 -189.335574 
L 351.379258 -191.655041 
L 351.300349 -193.974509 
L 351.212382 -196.293977 
L 351.11834 -198.613444 
L 351.022204 -200.932912 
L 350.928665 -203.252379 
L 350.84274 -205.571847 
L 350.769327 -207.891314 
L 350.712779 -210.210782 
L 350.676525 -212.530249 
L 350.662794 -214.849717 
L 350.672433 -217.169185 
L 350.704846 -219.488652 
L 350.758039 -221.80812 
L 350.828778 -224.127587 
L 350.912846 -226.447055 
L 351.005411 -228.766522 
L 351.101445 -231.08599 
L 351.19617 -233.405457 
L 351.285456 -235.724925 
L 351.366131 -238.044393 
L 351.436144 -240.36386 
L 351.494576 -242.683328 
L 351.541514 -245.002795 
L 351.577827 -247.322263 
L 351.744342 -247.322263 
L 351.744342 -247.322263 
L 351.780655 -245.002795 
L 351.827593 -242.683328 
L 351.886025 -240.36386 
L 351.956038 -238.044393 
L 352.036713 -235.724925 
L 352.125999 -233.405457 
L 352.220723 -231.08599 
L 352.316757 -228.766522 
L 352.409323 -226.447055 
L 352.493391 -224.127587 
L 352.564129 -221.80812 
L 352.617323 -219.488652 
L 352.649736 -217.169185 
L 352.659375 -214.849717 
L 352.645643 -212.530249 
L 352.60939 -210.210782 
L 352.552842 -207.891314 
L 352.479429 -205.571847 
L 352.393503 -203.252379 
L 352.299964 -200.932912 
L 352.203828 -198.613444 
L 352.109787 -196.293977 
L 352.021819 -193.974509 
L 351.942911 -191.655041 
L 351.874915 -189.335574 
L 351.81857 -187.016106 
L 351.773653 -184.696639 
L 351.739227 -182.377171 
L 351.713927 -180.057704 
L 351.696254 -177.738236 
L 351.684836 -175.418769 
L 351.678638 -173.099301 
L 351.677147 -170.779834 
L 351.680517 -168.460366 
L 351.689714 -166.140898 
L 351.706639 -163.821431 
L 351.734245 -161.501963 
L 351.776588 -159.182496 
L 351.83879 -156.863028 
L 351.926854 -154.543561 
L 352.047297 -152.224093 
L 352.206577 -149.904626 
L 352.410377 -147.585158 
L 352.662794 -145.26569 
L 352.96559 -142.946223 
L 353.317626 -140.626755 
L 353.714623 -138.307288 
L 354.149301 -135.98782 
L 354.61191 -133.668353 
L 355.091025 -131.348885 
L 355.574481 -129.029418 
L 356.050241 -126.70995 
L 356.507078 -124.390482 
L 356.935012 -122.071015 
L 357.325522 -119.751547 
L 357.671664 -117.43208 
L 357.968221 -115.112612 
L 358.212002 -112.793145 
L 358.402333 -110.473677 
L 358.541717 -108.15421 
L 358.636557 -105.834742 
L 358.697868 -103.515275 
L 358.741905 -101.195807 
L 358.790717 -98.876339 
L 358.872659 -96.556872 
L 359.022852 -94.237404 
L 359.283475 -91.917937 
L 359.703533 -89.598469 
L 360.33757 -87.279002 
L 361.24267 -84.959534 
L 362.473149 -82.640067 
L 364.072751 -80.320599 
L 366.064741 -78.001131 
L 368.441154 -75.681664 
L 371.15317 -73.362196 
L 374.105083 -71.042729 
L 377.154221 -68.723261 
L 380.118433 -66.403794 
L 382.791365 -64.084326 
L 384.964091 -61.764859 
L 386.450003 -59.445391 
L 387.108863 -57.125923 
L 386.865709 -54.806456 
L 385.721114 -52.486988 
L 383.750959 -50.167521 
L 381.09589 -47.848053 
L 377.942575 -45.528586 
L 374.500285 -43.209118 
L 370.976861 -40.889651 
L 367.557795 -38.570183 
L 364.391129 -36.250716 
L 361.579468 -33.931248 
L 359.178966 -31.61178 
L 357.204055 -29.292313 
L 355.635963 -26.972845 
L 354.432961 -24.653378 
L 353.540492 -22.33391 
L 352.899844 -20.014443 
L 352.454663 -17.694975 
z
" style="stroke: #797979; stroke-width: 1.5"/>
    </defs>
    <g clip-path="url(#p7a120e2222)">
     <use xlink:href="#mb59de74b80" x="0" y="334.769688" style="fill: #9bddf9; stroke: #797979; stroke-width: 1.5"/>
    </g>
   </g>
   <g id="PathCollection_1">
    <defs>
     <path id="C0_0_5910905f26" d="M 0 2 
C 0.530406 2 1.03916 1.789267 1.414214 1.414214 
C 1.789267 1.03916 2 0.530406 2 -0 
C 2 -0.530406 1.789267 -1.03916 1.414214 -1.414214 
C 1.03916 -1.789267 0.530406 -2 0 -2 
C -0.530406 -2 -1.03916 -1.789267 -1.414214 -1.414214 
C -1.789267 -1.03916 -2 -0.530406 -2 0 
C -2 0.530406 -1.789267 1.03916 -1.414214 1.414214 
C -1.03916 1.789267 -0.530406 2 0 2 
z
"/>
    </defs>
    <g clip-path="url(#p7a120e2222)">
     <use xlink:href="#C0_0_5910905f26" x="137.318073" y="190.92105" style="fill: #ff6600"/>
    </g>
    <g clip-path="url(#p7a120e2222)">
     <use xlink:href="#C0_0_5910905f26" x="138.97441" y="170.167191" style="fill: #ff6600"/>
    </g>
    <g clip-path="url(#p7a120e2222)">
     <use xlink:href="#C0_0_5910905f26" x="130.678441" y="186.781793" style="fill: #ff6600"/>
    </g>
    <g clip-path="url(#p7a120e2222)">
     <use xlink:href="#C0_0_5910905f26" x="144.780783" y="191.558694" style="fill: #ff6600"/>
    </g>
    <g clip-path="url(#p7a120e2222)">
     <use xlink:href="#C0_0_5910905f26" x="132.790765" y="191.523538" style="fill: #ff6600"/>
    </g>
    <g clip-path="url(#p7a120e2222)">
     <use xlink:href="#C0_0_5910905f26" x="128.697631" y="190.626958" style="fill: #ff6600"/>
    </g>
    <g clip-path="url(#p7a120e2222)">
     <use xlink:href="#C0_0_5910905f26" x="166.186208" y="188.985806" style="fill: #ff6600"/>
    </g>
    <g clip-path="url(#p7a120e2222)">
     <use xlink:href="#C0_0_5910905f26" x="138.97441" y="109.540452" style="fill: #ff6600"/>
    </g>
    <g clip-path="url(#p7a120e2222)">
     <use xlink:href="#C0_0_5910905f26" x="133.021429" y="104.863494" style="fill: #ff6600"/>
    </g>
    <g clip-path="url(#p7a120e2222)">
     <use xlink:href="#C0_0_5910905f26" x="158.848136" y="184.841994" style="fill: #ff6600"/>
    </g>
    <g clip-path="url(#p7a120e2222)">
     <use xlink:href="#C0_0_5910905f26" x="124.552318" y="189.983568" style="fill: #ff6600"/>
    </g>
    <g clip-path="url(#p7a120e2222)">
     <use xlink:href="#C0_0_5910905f26" x="133.674488" y="177.82614" style="fill: #ff6600"/>
    </g>
    <g clip-path="url(#p7a120e2222)">
     <use xlink:href="#C0_0_5910905f26" x="155.133209" y="186.708105" style="fill: #ff6600"/>
    </g>
    <g clip-path="url(#p7a120e2222)">
     <use xlink:href="#C0_0_5910905f26" x="141.740532" y="179.741724" style="fill: #ff6600"/>
    </g>
    <g clip-path="url(#p7a120e2222)">
     <use xlink:href="#C0_0_5910905f26" x="148.142355" y="195.914547" style="fill: #ff6600"/>
    </g>
    <g clip-path="url(#p7a120e2222)">
     <use xlink:href="#C0_0_5910905f26" x="126.571902" y="185.942652" style="fill: #ff6600"/>
    </g>
    <g clip-path="url(#p7a120e2222)">
     <use xlink:href="#C0_0_5910905f26" x="138.661305" y="186.290687" style="fill: #ff6600"/>
    </g>
    <g clip-path="url(#p7a120e2222)">
     <use xlink:href="#C0_0_5910905f26" x="140.879769" y="193.040889" style="fill: #ff6600"/>
    </g>
    <g clip-path="url(#p7a120e2222)">
     <use xlink:href="#C0_0_5910905f26" x="141.610551" y="189.101903" style="fill: #ff6600"/>
    </g>
    <g clip-path="url(#p7a120e2222)">
     <use xlink:href="#C0_0_5910905f26" x="134.752475" y="187.754086" style="fill: #ff6600"/>
    </g>
    <g clip-path="url(#p7a120e2222)">
     <use xlink:href="#C0_0_5910905f26" x="110.232829" y="188.047273" style="fill: #ff6600"/>
    </g>
    <g clip-path="url(#p7a120e2222)">
     <use xlink:href="#C0_0_5910905f26" x="157.828524" y="189.782222" style="fill: #ff6600"/>
    </g>
    <g clip-path="url(#p7a120e2222)">
     <use xlink:href="#C0_0_5910905f26" x="148.805547" y="173.547651" style="fill: #ff6600"/>
    </g>
    <g clip-path="url(#p7a120e2222)">
     <use xlink:href="#C0_0_5910905f26" x="135.2261" y="140.133116" style="fill: #ff6600"/>
    </g>
    <g clip-path="url(#p7a120e2222)">
     <use xlink:href="#C0_0_5910905f26" x="149.664436" y="180.944202" style="fill: #ff6600"/>
    </g>
    <g clip-path="url(#p7a120e2222)">
     <use xlink:href="#C0_0_5910905f26" x="138.97441" y="156.66898" style="fill: #ff6600"/>
    </g>
    <g clip-path="url(#p7a120e2222)">
     <use xlink:href="#C0_0_5910905f26" x="147.040709" y="199.774496" style="fill: #ff6600"/>
    </g>
    <g clip-path="url(#p7a120e2222)">
     <use xlink:href="#C0_0_5910905f26" x="124.623001" y="194.461312" style="fill: #ff6600"/>
    </g>
    <g clip-path="url(#p7a120e2222)">
     <use xlink:href="#C0_0_5910905f26" x="134.841222" y="200.837637" style="fill: #ff6600"/>
    </g>
    <g clip-path="url(#p7a120e2222)">
     <use xlink:href="#C0_0_5910905f26" x="153.090074" y="178.629896" style="fill: #ff6600"/>
    </g>
    <g clip-path="url(#p7a120e2222)">
     <use xlink:href="#C0_0_5910905f26" x="127.317542" y="173.038869" style="fill: #ff6600"/>
    </g>
    <g clip-path="url(#p7a120e2222)">
     <use xlink:href="#C0_0_5910905f26" x="140.633592" y="174.919779" style="fill: #ff6600"/>
    </g>
    <g clip-path="url(#p7a120e2222)">
     <use xlink:href="#C0_0_5910905f26" x="143.0001" y="169.026789" style="fill: #ff6600"/>
    </g>
    <g clip-path="url(#p7a120e2222)">
     <use xlink:href="#C0_0_5910905f26" x="131.181259" y="174.607176" style="fill: #ff6600"/>
    </g>
    <g clip-path="url(#p7a120e2222)">
     <use xlink:href="#C0_0_5910905f26" x="144.606266" y="173.621652" style="fill: #ff6600"/>
    </g>
    <g clip-path="url(#p7a120e2222)">
     <use xlink:href="#C0_0_5910905f26" x="140.562551" y="116.094711" style="fill: #ff6600"/>
    </g>
    <g clip-path="url(#p7a120e2222)">
     <use xlink:href="#C0_0_5910905f26" x="138.97441" y="147.043318" style="fill: #ff6600"/>
    </g>
    <g clip-path="url(#p7a120e2222)">
     <use xlink:href="#C0_0_5910905f26" x="142.086377" y="183.975621" style="fill: #ff6600"/>
    </g>
    <g clip-path="url(#p7a120e2222)">
     <use xlink:href="#C0_0_5910905f26" x="138.97441" y="132.23717" style="fill: #ff6600"/>
    </g>
    <g clip-path="url(#p7a120e2222)">
     <use xlink:href="#C0_0_5910905f26" x="134.774564" y="109.506206" style="fill: #ff6600"/>
    </g>
    <g clip-path="url(#p7a120e2222)">
     <use xlink:href="#C0_0_5910905f26" x="136.43854" y="116.852162" style="fill: #ff6600"/>
    </g>
    <g clip-path="url(#p7a120e2222)">
     <use xlink:href="#C0_0_5910905f26" x="136.843826" y="128.790049" style="fill: #ff6600"/>
    </g>
    <g clip-path="url(#p7a120e2222)">
     <use xlink:href="#C0_0_5910905f26" x="144.691122" y="138.462561" style="fill: #ff6600"/>
    </g>
    <g clip-path="url(#p7a120e2222)">
     <use xlink:href="#C0_0_5910905f26" x="152.937527" y="172.830678" style="fill: #ff6600"/>
    </g>
    <g clip-path="url(#p7a120e2222)">
     <use xlink:href="#C0_0_5910905f26" x="122.490895" y="177.622756" style="fill: #ff6600"/>
    </g>
    <g clip-path="url(#p7a120e2222)">
     <use xlink:href="#C0_0_5910905f26" x="118.456068" y="189.639226" style="fill: #ff6600"/>
    </g>
    <g clip-path="url(#p7a120e2222)">
     <use xlink:href="#C0_0_5910905f26" x="131.481581" y="149.318461" style="fill: #ff6600"/>
    </g>
    <g clip-path="url(#p7a120e2222)">
     <use xlink:href="#C0_0_5910905f26" x="114.306619" y="189.02049" style="fill: #ff6600"/>
    </g>
    <g clip-path="url(#p7a120e2222)">
     <use xlink:href="#C0_0_5910905f26" x="134.178617" y="181.797221" style="fill: #ff6600"/>
    </g>
    <g clip-path="url(#p7a120e2222)">
     <use xlink:href="#C0_0_5910905f26" x="162.002431" y="189.337047" style="fill: #ff6600"/>
    </g>
    <g clip-path="url(#p7a120e2222)">
     <use xlink:href="#C0_0_5910905f26" x="141.771171" y="106.556272" style="fill: #ff6600"/>
    </g>
    <g clip-path="url(#p7a120e2222)">
     <use xlink:href="#C0_0_5910905f26" x="138.97441" y="120.04077" style="fill: #ff6600"/>
    </g>
    <g clip-path="url(#p7a120e2222)">
     <use xlink:href="#C0_0_5910905f26" x="138.97441" y="98.993382" style="fill: #ff6600"/>
    </g>
    <g clip-path="url(#p7a120e2222)">
     <use xlink:href="#C0_0_5910905f26" x="138.97441" y="87.886578" style="fill: #ff6600"/>
    </g>
    <g clip-path="url(#p7a120e2222)">
     <use xlink:href="#C0_0_5910905f26" x="137.053478" y="105.983335" style="fill: #ff6600"/>
    </g>
    <g clip-path="url(#p7a120e2222)">
     <use xlink:href="#C0_0_5910905f26" x="138.97441" y="124.258216" style="fill: #ff6600"/>
    </g>
    <g clip-path="url(#p7a120e2222)">
     <use xlink:href="#C0_0_5910905f26" x="142.911763" y="150.892853" style="fill: #ff6600"/>
    </g>
    <g clip-path="url(#p7a120e2222)">
     <use xlink:href="#C0_0_5910905f26" x="138.97441" y="62.61992" style="fill: #ff6600"/>
    </g>
    <g clip-path="url(#p7a120e2222)">
     <use xlink:href="#C0_0_5910905f26" x="134.811256" y="151.756494" style="fill: #ff6600"/>
    </g>
    <g clip-path="url(#p7a120e2222)">
     <use xlink:href="#C0_0_5910905f26" x="137.973563" y="143.158548" style="fill: #ff6600"/>
    </g>
    <g clip-path="url(#p7a120e2222)">
     <use xlink:href="#C0_0_5910905f26" x="134.872178" y="123.400177" style="fill: #ff6600"/>
    </g>
    <g clip-path="url(#p7a120e2222)">
     <use xlink:href="#C0_0_5910905f26" x="130.037171" y="181.131626" style="fill: #ff6600"/>
    </g>
    <g clip-path="url(#p7a120e2222)">
     <use xlink:href="#C0_0_5910905f26" x="128.698977" y="195.426189" style="fill: #ff6600"/>
    </g>
    <g clip-path="url(#p7a120e2222)">
     <use xlink:href="#C0_0_5910905f26" x="134.828124" y="164.583371" style="fill: #ff6600"/>
    </g>
    <g clip-path="url(#p7a120e2222)">
     <use xlink:href="#C0_0_5910905f26" x="138.97441" y="152.285171" style="fill: #ff6600"/>
    </g>
    <g clip-path="url(#p7a120e2222)">
     <use xlink:href="#C0_0_5910905f26" x="141.645696" y="141.217129" style="fill: #ff6600"/>
    </g>
    <g clip-path="url(#p7a120e2222)">
     <use xlink:href="#C0_0_5910905f26" x="148.973928" y="191.330242" style="fill: #ff6600"/>
    </g>
    <g clip-path="url(#p7a120e2222)">
     <use xlink:href="#C0_0_5910905f26" x="146.522542" y="177.810285" style="fill: #ff6600"/>
    </g>
    <g clip-path="url(#p7a120e2222)">
     <use xlink:href="#C0_0_5910905f26" x="138.364784" y="182.121596" style="fill: #ff6600"/>
    </g>
    <g clip-path="url(#p7a120e2222)">
     <use xlink:href="#C0_0_5910905f26" x="137.958025" y="178.003103" style="fill: #ff6600"/>
    </g>
    <g clip-path="url(#p7a120e2222)">
     <use xlink:href="#C0_0_5910905f26" x="126.220402" y="179.462301" style="fill: #ff6600"/>
    </g>
    <g clip-path="url(#p7a120e2222)">
     <use xlink:href="#C0_0_5910905f26" x="138.97441" y="165.22105" style="fill: #ff6600"/>
    </g>
    <g clip-path="url(#p7a120e2222)">
     <use xlink:href="#C0_0_5910905f26" x="142.847445" y="200.000951" style="fill: #ff6600"/>
    </g>
    <g clip-path="url(#p7a120e2222)">
     <use xlink:href="#C0_0_5910905f26" x="132.021327" y="197.87327" style="fill: #ff6600"/>
    </g>
    <g clip-path="url(#p7a120e2222)">
     <use xlink:href="#C0_0_5910905f26" x="145.539945" y="181.699278" style="fill: #ff6600"/>
    </g>
    <g clip-path="url(#p7a120e2222)">
     <use xlink:href="#C0_0_5910905f26" x="156.118679" y="193.435746" style="fill: #ff6600"/>
    </g>
    <g clip-path="url(#p7a120e2222)">
     <use xlink:href="#C0_0_5910905f26" x="145.407351" y="187.603455" style="fill: #ff6600"/>
    </g>
    <g clip-path="url(#p7a120e2222)">
     <use xlink:href="#C0_0_5910905f26" x="122.485012" y="185.020596" style="fill: #ff6600"/>
    </g>
    <g clip-path="url(#p7a120e2222)">
     <use xlink:href="#C0_0_5910905f26" x="152.067707" y="194.491826" style="fill: #ff6600"/>
    </g>
    <g clip-path="url(#p7a120e2222)">
     <use xlink:href="#C0_0_5910905f26" x="120.706539" y="193.016539" style="fill: #ff6600"/>
    </g>
    <g clip-path="url(#p7a120e2222)">
     <use xlink:href="#C0_0_5910905f26" x="138.97441" y="201.54827" style="fill: #ff6600"/>
    </g>
    <g clip-path="url(#p7a120e2222)">
     <use xlink:href="#C0_0_5910905f26" x="152.985499" y="190.145573" style="fill: #ff6600"/>
    </g>
    <g clip-path="url(#p7a120e2222)">
     <use xlink:href="#C0_0_5910905f26" x="135.241804" y="194.771759" style="fill: #ff6600"/>
    </g>
    <g clip-path="url(#p7a120e2222)">
     <use xlink:href="#C0_0_5910905f26" x="149.596167" y="187.311731" style="fill: #ff6600"/>
    </g>
    <g clip-path="url(#p7a120e2222)">
     <use xlink:href="#C0_0_5910905f26" x="138.97441" y="196.605594" style="fill: #ff6600"/>
    </g>
    <g clip-path="url(#p7a120e2222)">
     <use xlink:href="#C0_0_5910905f26" x="144.089206" y="196.179775" style="fill: #ff6600"/>
    </g>
    <g clip-path="url(#p7a120e2222)">
     <use xlink:href="#C0_0_5910905f26" x="136.491743" y="174.25646" style="fill: #ff6600"/>
    </g>
    <g clip-path="url(#p7a120e2222)">
     <use xlink:href="#C0_0_5910905f26" x="147.090288" y="150.488873" style="fill: #ff6600"/>
    </g>
    <g clip-path="url(#p7a120e2222)">
     <use xlink:href="#C0_0_5910905f26" x="138.97441" y="94.006888" style="fill: #ff6600"/>
    </g>
    <g clip-path="url(#p7a120e2222)">
     <use xlink:href="#C0_0_5910905f26" x="141.462284" y="161.99833" style="fill: #ff6600"/>
    </g>
   </g>
   <g id="PathCollection_2">
    <defs>
     <path id="C1_0_049c013a2a" d="M 0 2 
C 0.530406 2 1.03916 1.789267 1.414214 1.414214 
C 1.789267 1.03916 2 0.530406 2 -0 
C 2 -0.530406 1.789267 -1.03916 1.414214 -1.414214 
C 1.03916 -1.789267 0.530406 -2 0 -2 
C -0.530406 -2 -1.03916 -1.789267 -1.414214 -1.414214 
C -1.789267 -1.03916 -2 -0.530406 -2 0 
C -2 0.530406 -1.789267 1.03916 -1.414214 1.414214 
C -1.03916 1.789267 -0.530406 2 0 2 
z
"/>
    </defs>
    <g clip-path="url(#p7a120e2222)">
     <use xlink:href="#C1_0_049c013a2a" x="339.135621" y="277.741151" style="fill: #2a7fff"/>
    </g>
    <g clip-path="url(#p7a120e2222)">
     <use xlink:href="#C1_0_049c013a2a" x="302.816437" y="274.258488" style="fill: #2a7fff"/>
    </g>
    <g clip-path="url(#p7a120e2222)">
     <use xlink:href="#C1_0_049c013a2a" x="305.850269" y="269.342946" style="fill: #2a7fff"/>
    </g>
    <g clip-path="url(#p7a120e2222)">
     <use xlink:href="#C1_0_049c013a2a" x="355.861483" y="276.434163" style="fill: #2a7fff"/>
    </g>
    <g clip-path="url(#p7a120e2222)">
     <use xlink:href="#C1_0_049c013a2a" x="304.149957" y="278.051514" style="fill: #2a7fff"/>
    </g>
    <g clip-path="url(#p7a120e2222)">
     <use xlink:href="#C1_0_049c013a2a" x="293.037333" y="277.950314" style="fill: #2a7fff"/>
    </g>
    <g clip-path="url(#p7a120e2222)">
     <use xlink:href="#C1_0_049c013a2a" x="347.525803" y="277.362481" style="fill: #2a7fff"/>
    </g>
    <g clip-path="url(#p7a120e2222)">
     <use xlink:href="#C1_0_049c013a2a" x="316.213305" y="220.700447" style="fill: #2a7fff"/>
    </g>
    <g clip-path="url(#p7a120e2222)">
     <use xlink:href="#C1_0_049c013a2a" x="316.213305" y="208.688488" style="fill: #2a7fff"/>
    </g>
    <g clip-path="url(#p7a120e2222)">
     <use xlink:href="#C1_0_049c013a2a" x="309.981999" y="270.061225" style="fill: #2a7fff"/>
    </g>
    <g clip-path="url(#p7a120e2222)">
     <use xlink:href="#C1_0_049c013a2a" x="272.14406" y="276.097344" style="fill: #2a7fff"/>
    </g>
    <g clip-path="url(#p7a120e2222)">
     <use xlink:href="#C1_0_049c013a2a" x="276.338367" y="276.305531" style="fill: #2a7fff"/>
    </g>
    <g clip-path="url(#p7a120e2222)">
     <use xlink:href="#C1_0_049c013a2a" x="320.381275" y="271.78028" style="fill: #2a7fff"/>
    </g>
    <g clip-path="url(#p7a120e2222)">
     <use xlink:href="#C1_0_049c013a2a" x="316.213305" y="291.71083" style="fill: #2a7fff"/>
    </g>
    <g clip-path="url(#p7a120e2222)">
     <use xlink:href="#C1_0_049c013a2a" x="312.112996" y="290.844497" style="fill: #2a7fff"/>
    </g>
    <g clip-path="url(#p7a120e2222)">
     <use xlink:href="#C1_0_049c013a2a" x="317.004637" y="274.159005" style="fill: #2a7fff"/>
    </g>
    <g clip-path="url(#p7a120e2222)">
     <use xlink:href="#C1_0_049c013a2a" x="364.252083" y="276.056856" style="fill: #2a7fff"/>
    </g>
    <g clip-path="url(#p7a120e2222)">
     <use xlink:href="#C1_0_049c013a2a" x="315.402385" y="277.8565" style="fill: #2a7fff"/>
    </g>
    <g clip-path="url(#p7a120e2222)">
     <use xlink:href="#C1_0_049c013a2a" x="284.666059" y="277.352859" style="fill: #2a7fff"/>
    </g>
    <g clip-path="url(#p7a120e2222)">
     <use xlink:href="#C1_0_049c013a2a" x="280.503175" y="276.822261" style="fill: #2a7fff"/>
    </g>
    <g clip-path="url(#p7a120e2222)">
     <use xlink:href="#C1_0_049c013a2a" x="360.056087" y="276.231473" style="fill: #2a7fff"/>
    </g>
    <g clip-path="url(#p7a120e2222)">
     <use xlink:href="#C1_0_049c013a2a" x="288.862795" y="277.510529" style="fill: #2a7fff"/>
    </g>
    <g clip-path="url(#p7a120e2222)">
     <use xlink:href="#C1_0_049c013a2a" x="324.711871" y="274.509482" style="fill: #2a7fff"/>
    </g>
    <g clip-path="url(#p7a120e2222)">
     <use xlink:href="#C1_0_049c013a2a" x="316.213305" y="230.884197" style="fill: #2a7fff"/>
    </g>
    <g clip-path="url(#p7a120e2222)">
     <use xlink:href="#C1_0_049c013a2a" x="333.620416" y="274.24721" style="fill: #2a7fff"/>
    </g>
    <g clip-path="url(#p7a120e2222)">
     <use xlink:href="#C1_0_049c013a2a" x="313.87797" y="258.898726" style="fill: #2a7fff"/>
    </g>
    <g clip-path="url(#p7a120e2222)">
     <use xlink:href="#C1_0_049c013a2a" x="304.613949" y="282.02703" style="fill: #2a7fff"/>
    </g>
    <g clip-path="url(#p7a120e2222)">
     <use xlink:href="#C1_0_049c013a2a" x="311.452724" y="276.510832" style="fill: #2a7fff"/>
    </g>
    <g clip-path="url(#p7a120e2222)">
     <use xlink:href="#C1_0_049c013a2a" x="318.965251" y="285.429221" style="fill: #2a7fff"/>
    </g>
    <g clip-path="url(#p7a120e2222)">
     <use xlink:href="#C1_0_049c013a2a" x="330.94725" y="285.043851" style="fill: #2a7fff"/>
    </g>
    <g clip-path="url(#p7a120e2222)">
     <use xlink:href="#C1_0_049c013a2a" x="319.749518" y="289.552642" style="fill: #2a7fff"/>
    </g>
    <g clip-path="url(#p7a120e2222)">
     <use xlink:href="#C1_0_049c013a2a" x="335.041256" y="284.150889" style="fill: #2a7fff"/>
    </g>
    <g clip-path="url(#p7a120e2222)">
     <use xlink:href="#C1_0_049c013a2a" x="308.476877" y="279.333535" style="fill: #2a7fff"/>
    </g>
    <g clip-path="url(#p7a120e2222)">
     <use xlink:href="#C1_0_049c013a2a" x="312.430611" y="280.683092" style="fill: #2a7fff"/>
    </g>
    <g clip-path="url(#p7a120e2222)">
     <use xlink:href="#C1_0_049c013a2a" x="309.084184" y="288.073363" style="fill: #2a7fff"/>
    </g>
    <g clip-path="url(#p7a120e2222)">
     <use xlink:href="#C1_0_049c013a2a" x="316.850118" y="203.798644" style="fill: #2a7fff"/>
    </g>
    <g clip-path="url(#p7a120e2222)">
     <use xlink:href="#C1_0_049c013a2a" x="316.213305" y="237.080304" style="fill: #2a7fff"/>
    </g>
    <g clip-path="url(#p7a120e2222)">
     <use xlink:href="#C1_0_049c013a2a" x="334.040711" y="278.672794" style="fill: #2a7fff"/>
    </g>
    <g clip-path="url(#p7a120e2222)">
     <use xlink:href="#C1_0_049c013a2a" x="313.248056" y="205.855687" style="fill: #2a7fff"/>
    </g>
    <g clip-path="url(#p7a120e2222)">
     <use xlink:href="#C1_0_049c013a2a" x="308.890404" y="226.986248" style="fill: #2a7fff"/>
    </g>
    <g clip-path="url(#p7a120e2222)">
     <use xlink:href="#C1_0_049c013a2a" x="312.662047" y="218.564784" style="fill: #2a7fff"/>
    </g>
    <g clip-path="url(#p7a120e2222)">
     <use xlink:href="#C1_0_049c013a2a" x="316.213305" y="254.512275" style="fill: #2a7fff"/>
    </g>
    <g clip-path="url(#p7a120e2222)">
     <use xlink:href="#C1_0_049c013a2a" x="312.249801" y="253.188967" style="fill: #2a7fff"/>
    </g>
    <g clip-path="url(#p7a120e2222)">
     <use xlink:href="#C1_0_049c013a2a" x="324.049753" y="269.832604" style="fill: #2a7fff"/>
    </g>
    <g clip-path="url(#p7a120e2222)">
     <use xlink:href="#C1_0_049c013a2a" x="313.061754" y="272.780954" style="fill: #2a7fff"/>
    </g>
    <g clip-path="url(#p7a120e2222)">
     <use xlink:href="#C1_0_049c013a2a" x="294.465256" y="273.403106" style="fill: #2a7fff"/>
    </g>
    <g clip-path="url(#p7a120e2222)">
     <use xlink:href="#C1_0_049c013a2a" x="312.013428" y="244.417227" style="fill: #2a7fff"/>
    </g>
    <g clip-path="url(#p7a120e2222)">
     <use xlink:href="#C1_0_049c013a2a" x="320.74237" y="275.816383" style="fill: #2a7fff"/>
    </g>
    <g clip-path="url(#p7a120e2222)">
     <use xlink:href="#C1_0_049c013a2a" x="316.213305" y="270.203929" style="fill: #2a7fff"/>
    </g>
    <g clip-path="url(#p7a120e2222)">
     <use xlink:href="#C1_0_049c013a2a" x="337.744506" y="273.490152" style="fill: #2a7fff"/>
    </g>
    <g clip-path="url(#p7a120e2222)">
     <use xlink:href="#C1_0_049c013a2a" x="317.391285" y="216.860997" style="fill: #2a7fff"/>
    </g>
    <g clip-path="url(#p7a120e2222)">
     <use xlink:href="#C1_0_049c013a2a" x="322.873005" y="227.11701" style="fill: #2a7fff"/>
    </g>
    <g clip-path="url(#p7a120e2222)">
     <use xlink:href="#C1_0_049c013a2a" x="315.979986" y="213.093583" style="fill: #2a7fff"/>
    </g>
    <g clip-path="url(#p7a120e2222)">
     <use xlink:href="#C1_0_049c013a2a" x="312.12824" y="236.150942" style="fill: #2a7fff"/>
    </g>
    <g clip-path="url(#p7a120e2222)">
     <use xlink:href="#C1_0_049c013a2a" x="312.447294" y="229.113393" style="fill: #2a7fff"/>
    </g>
    <g clip-path="url(#p7a120e2222)">
     <use xlink:href="#C1_0_049c013a2a" x="320.172235" y="243.112119" style="fill: #2a7fff"/>
    </g>
    <g clip-path="url(#p7a120e2222)">
     <use xlink:href="#C1_0_049c013a2a" x="316.213305" y="262.22337" style="fill: #2a7fff"/>
    </g>
    <g clip-path="url(#p7a120e2222)">
     <use xlink:href="#C1_0_049c013a2a" x="341.913802" y="273.007367" style="fill: #2a7fff"/>
    </g>
    <g clip-path="url(#p7a120e2222)">
     <use xlink:href="#C1_0_049c013a2a" x="318.008935" y="258.176466" style="fill: #2a7fff"/>
    </g>
    <g clip-path="url(#p7a120e2222)">
     <use xlink:href="#C1_0_049c013a2a" x="316.213305" y="244.44779" style="fill: #2a7fff"/>
    </g>
    <g clip-path="url(#p7a120e2222)">
     <use xlink:href="#C1_0_049c013a2a" x="322.406248" y="283.135675" style="fill: #2a7fff"/>
    </g>
    <g clip-path="url(#p7a120e2222)">
     <use xlink:href="#C1_0_049c013a2a" x="323.087748" y="287.125243" style="fill: #2a7fff"/>
    </g>
    <g clip-path="url(#p7a120e2222)">
     <use xlink:href="#C1_0_049c013a2a" x="316.213305" y="282.421344" style="fill: #2a7fff"/>
    </g>
    <g clip-path="url(#p7a120e2222)">
     <use xlink:href="#C1_0_049c013a2a" x="297.561117" y="283.805187" style="fill: #2a7fff"/>
    </g>
    <g clip-path="url(#p7a120e2222)">
     <use xlink:href="#C1_0_049c013a2a" x="318.713338" y="227.670022" style="fill: #2a7fff"/>
    </g>
    <g clip-path="url(#p7a120e2222)">
     <use xlink:href="#C1_0_049c013a2a" x="316.213305" y="126.620373" style="fill: #2a7fff"/>
    </g>
    <g clip-path="url(#p7a120e2222)">
     <use xlink:href="#C1_0_049c013a2a" x="305.415454" y="286.126118" style="fill: #2a7fff"/>
    </g>
    <g clip-path="url(#p7a120e2222)">
     <use xlink:href="#C1_0_049c013a2a" x="301.23464" y="285.744217" style="fill: #2a7fff"/>
    </g>
    <g clip-path="url(#p7a120e2222)">
     <use xlink:href="#C1_0_049c013a2a" x="343.328766" y="277.512704" style="fill: #2a7fff"/>
    </g>
    <g clip-path="url(#p7a120e2222)">
     <use xlink:href="#C1_0_049c013a2a" x="330.345669" y="280.574379" style="fill: #2a7fff"/>
    </g>
    <g clip-path="url(#p7a120e2222)">
     <use xlink:href="#C1_0_049c013a2a" x="327.285802" y="287.00349" style="fill: #2a7fff"/>
    </g>
    <g clip-path="url(#p7a120e2222)">
     <use xlink:href="#C1_0_049c013a2a" x="319.588561" y="252.131771" style="fill: #2a7fff"/>
    </g>
    <g clip-path="url(#p7a120e2222)">
     <use xlink:href="#C1_0_049c013a2a" x="315.552443" y="287.760657" style="fill: #2a7fff"/>
    </g>
    <g clip-path="url(#p7a120e2222)">
     <use xlink:href="#C1_0_049c013a2a" x="327.353936" y="277.755643" style="fill: #2a7fff"/>
    </g>
    <g clip-path="url(#p7a120e2222)">
     <use xlink:href="#C1_0_049c013a2a" x="297.224105" y="278.267533" style="fill: #2a7fff"/>
    </g>
    <g clip-path="url(#p7a120e2222)">
     <use xlink:href="#C1_0_049c013a2a" x="338.333843" y="281.66759" style="fill: #2a7fff"/>
    </g>
    <g clip-path="url(#p7a120e2222)">
     <use xlink:href="#C1_0_049c013a2a" x="290.330851" y="272.698929" style="fill: #2a7fff"/>
    </g>
    <g clip-path="url(#p7a120e2222)">
     <use xlink:href="#C1_0_049c013a2a" x="298.646481" y="273.780904" style="fill: #2a7fff"/>
    </g>
    <g clip-path="url(#p7a120e2222)">
     <use xlink:href="#C1_0_049c013a2a" x="351.714284" y="277.066434" style="fill: #2a7fff"/>
    </g>
    <g clip-path="url(#p7a120e2222)">
     <use xlink:href="#C1_0_049c013a2a" x="329.420506" y="274.273354" style="fill: #2a7fff"/>
    </g>
    <g clip-path="url(#p7a120e2222)">
     <use xlink:href="#C1_0_049c013a2a" x="300.776181" y="280.401962" style="fill: #2a7fff"/>
    </g>
    <g clip-path="url(#p7a120e2222)">
     <use xlink:href="#C1_0_049c013a2a" x="323.464281" y="279.264675" style="fill: #2a7fff"/>
    </g>
    <g clip-path="url(#p7a120e2222)">
     <use xlink:href="#C1_0_049c013a2a" x="312.292208" y="285.238939" style="fill: #2a7fff"/>
    </g>
    <g clip-path="url(#p7a120e2222)">
     <use xlink:href="#C1_0_049c013a2a" x="326.462779" y="282.09913" style="fill: #2a7fff"/>
    </g>
    <g clip-path="url(#p7a120e2222)">
     <use xlink:href="#C1_0_049c013a2a" x="293.363624" y="283.666976" style="fill: #2a7fff"/>
    </g>
    <g clip-path="url(#p7a120e2222)">
     <use xlink:href="#C1_0_049c013a2a" x="308.549628" y="283.423635" style="fill: #2a7fff"/>
    </g>
    <g clip-path="url(#p7a120e2222)">
     <use xlink:href="#C1_0_049c013a2a" x="307.733253" y="274.652947" style="fill: #2a7fff"/>
    </g>
    <g clip-path="url(#p7a120e2222)">
     <use xlink:href="#C1_0_049c013a2a" x="316.213305" y="112.811308" style="fill: #2a7fff"/>
    </g>
    <g clip-path="url(#p7a120e2222)">
     <use xlink:href="#C1_0_049c013a2a" x="319.0625" y="279.482498" style="fill: #2a7fff"/>
    </g>
    <g clip-path="url(#p7a120e2222)">
     <use xlink:href="#C1_0_049c013a2a" x="342.52906" y="281.476743" style="fill: #2a7fff"/>
    </g>
   </g>
   <g id="matplotlib.axis_1">
    <g id="xtick_1">
     <g id="line2d_1">
      <defs>
       <path id="m31cbba190e" d="M 0 0 
L 0 6 
" style="stroke: #000000; stroke-width: 1.25"/>
      </defs>
      <g>
       <use xlink:href="#m31cbba190e" x="138.97441" y="303.165375" style="stroke: #000000; stroke-width: 1.25"/>
      </g>
     </g>
     <g id="text_1">
      <!-- Wakefulness -->
      <g transform="translate(90.8458 324.366969) scale(0.154 -0.154)">
       <defs>
        <path id="DejaVuSans-57" d="M 213 4666 
L 850 4666 
L 1831 722 
L 2809 4666 
L 3519 4666 
L 4500 722 
L 5478 4666 
L 6119 4666 
L 4947 0 
L 4153 0 
L 3169 4050 
L 2175 0 
L 1381 0 
L 213 4666 
z
" transform="scale(0.015625)"/>
        <path id="DejaVuSans-61" d="M 2194 1759 
Q 1497 1759 1228 1600 
Q 959 1441 959 1056 
Q 959 750 1161 570 
Q 1363 391 1709 391 
Q 2188 391 2477 730 
Q 2766 1069 2766 1631 
L 2766 1759 
L 2194 1759 
z
M 3341 1997 
L 3341 0 
L 2766 0 
L 2766 531 
Q 2569 213 2275 61 
Q 1981 -91 1556 -91 
Q 1019 -91 701 211 
Q 384 513 384 1019 
Q 384 1609 779 1909 
Q 1175 2209 1959 2209 
L 2766 2209 
L 2766 2266 
Q 2766 2663 2505 2880 
Q 2244 3097 1772 3097 
Q 1472 3097 1187 3025 
Q 903 2953 641 2809 
L 641 3341 
Q 956 3463 1253 3523 
Q 1550 3584 1831 3584 
Q 2591 3584 2966 3190 
Q 3341 2797 3341 1997 
z
" transform="scale(0.015625)"/>
        <path id="DejaVuSans-6b" d="M 581 4863 
L 1159 4863 
L 1159 1991 
L 2875 3500 
L 3609 3500 
L 1753 1863 
L 3688 0 
L 2938 0 
L 1159 1709 
L 1159 0 
L 581 0 
L 581 4863 
z
" transform="scale(0.015625)"/>
        <path id="DejaVuSans-65" d="M 3597 1894 
L 3597 1613 
L 953 1613 
Q 991 1019 1311 708 
Q 1631 397 2203 397 
Q 2534 397 2845 478 
Q 3156 559 3463 722 
L 3463 178 
Q 3153 47 2828 -22 
Q 2503 -91 2169 -91 
Q 1331 -91 842 396 
Q 353 884 353 1716 
Q 353 2575 817 3079 
Q 1281 3584 2069 3584 
Q 2775 3584 3186 3129 
Q 3597 2675 3597 1894 
z
M 3022 2063 
Q 3016 2534 2758 2815 
Q 2500 3097 2075 3097 
Q 1594 3097 1305 2825 
Q 1016 2553 972 2059 
L 3022 2063 
z
" transform="scale(0.015625)"/>
        <path id="DejaVuSans-66" d="M 2375 4863 
L 2375 4384 
L 1825 4384 
Q 1516 4384 1395 4259 
Q 1275 4134 1275 3809 
L 1275 3500 
L 2222 3500 
L 2222 3053 
L 1275 3053 
L 1275 0 
L 697 0 
L 697 3053 
L 147 3053 
L 147 3500 
L 697 3500 
L 697 3744 
Q 697 4328 969 4595 
Q 1241 4863 1831 4863 
L 2375 4863 
z
" transform="scale(0.015625)"/>
        <path id="DejaVuSans-75" d="M 544 1381 
L 544 3500 
L 1119 3500 
L 1119 1403 
Q 1119 906 1312 657 
Q 1506 409 1894 409 
Q 2359 409 2629 706 
Q 2900 1003 2900 1516 
L 2900 3500 
L 3475 3500 
L 3475 0 
L 2900 0 
L 2900 538 
Q 2691 219 2414 64 
Q 2138 -91 1772 -91 
Q 1169 -91 856 284 
Q 544 659 544 1381 
z
M 1991 3584 
L 1991 3584 
z
" transform="scale(0.015625)"/>
        <path id="DejaVuSans-6c" d="M 603 4863 
L 1178 4863 
L 1178 0 
L 603 0 
L 603 4863 
z
" transform="scale(0.015625)"/>
        <path id="DejaVuSans-6e" d="M 3513 2113 
L 3513 0 
L 2938 0 
L 2938 2094 
Q 2938 2591 2744 2837 
Q 2550 3084 2163 3084 
Q 1697 3084 1428 2787 
Q 1159 2491 1159 1978 
L 1159 0 
L 581 0 
L 581 3500 
L 1159 3500 
L 1159 2956 
Q 1366 3272 1645 3428 
Q 1925 3584 2291 3584 
Q 2894 3584 3203 3211 
Q 3513 2838 3513 2113 
z
" transform="scale(0.015625)"/>
        <path id="DejaVuSans-73" d="M 2834 3397 
L 2834 2853 
Q 2591 2978 2328 3040 
Q 2066 3103 1784 3103 
Q 1356 3103 1142 2972 
Q 928 2841 928 2578 
Q 928 2378 1081 2264 
Q 1234 2150 1697 2047 
L 1894 2003 
Q 2506 1872 2764 1633 
Q 3022 1394 3022 966 
Q 3022 478 2636 193 
Q 2250 -91 1575 -91 
Q 1294 -91 989 -36 
Q 684 19 347 128 
L 347 722 
Q 666 556 975 473 
Q 1284 391 1588 391 
Q 1994 391 2212 530 
Q 2431 669 2431 922 
Q 2431 1156 2273 1281 
Q 2116 1406 1581 1522 
L 1381 1569 
Q 847 1681 609 1914 
Q 372 2147 372 2553 
Q 372 3047 722 3315 
Q 1072 3584 1716 3584 
Q 2034 3584 2315 3537 
Q 2597 3491 2834 3397 
z
" transform="scale(0.015625)"/>
       </defs>
       <use xlink:href="#DejaVuSans-57"/>
       <use xlink:href="#DejaVuSans-61" x="92.501953"/>
       <use xlink:href="#DejaVuSans-6b" x="153.78125"/>
       <use xlink:href="#DejaVuSans-65" x="208.066406"/>
       <use xlink:href="#DejaVuSans-66" x="269.589844"/>
       <use xlink:href="#DejaVuSans-75" x="304.794922"/>
       <use xlink:href="#DejaVuSans-6c" x="368.173828"/>
       <use xlink:href="#DejaVuSans-6e" x="395.957031"/>
       <use xlink:href="#DejaVuSans-65" x="459.335938"/>
       <use xlink:href="#DejaVuSans-73" x="520.859375"/>
       <use xlink:href="#DejaVuSans-73" x="572.958984"/>
      </g>
     </g>
    </g>
    <g id="xtick_2">
     <g id="line2d_2">
      <g>
       <use xlink:href="#m31cbba190e" x="316.213305" y="303.165375" style="stroke: #000000; stroke-width: 1.25"/>
      </g>
     </g>
     <g id="text_2">
      <!-- Deep Sleep -->
      <g transform="translate(272.081477 324.366969) scale(0.154 -0.154)">
       <defs>
        <path id="DejaVuSans-44" d="M 1259 4147 
L 1259 519 
L 2022 519 
Q 2988 519 3436 956 
Q 3884 1394 3884 2338 
Q 3884 3275 3436 3711 
Q 2988 4147 2022 4147 
L 1259 4147 
z
M 628 4666 
L 1925 4666 
Q 3281 4666 3915 4102 
Q 4550 3538 4550 2338 
Q 4550 1131 3912 565 
Q 3275 0 1925 0 
L 628 0 
L 628 4666 
z
" transform="scale(0.015625)"/>
        <path id="DejaVuSans-70" d="M 1159 525 
L 1159 -1331 
L 581 -1331 
L 581 3500 
L 1159 3500 
L 1159 2969 
Q 1341 3281 1617 3432 
Q 1894 3584 2278 3584 
Q 2916 3584 3314 3078 
Q 3713 2572 3713 1747 
Q 3713 922 3314 415 
Q 2916 -91 2278 -91 
Q 1894 -91 1617 61 
Q 1341 213 1159 525 
z
M 3116 1747 
Q 3116 2381 2855 2742 
Q 2594 3103 2138 3103 
Q 1681 3103 1420 2742 
Q 1159 2381 1159 1747 
Q 1159 1113 1420 752 
Q 1681 391 2138 391 
Q 2594 391 2855 752 
Q 3116 1113 3116 1747 
z
" transform="scale(0.015625)"/>
        <path id="DejaVuSans-20" transform="scale(0.015625)"/>
        <path id="DejaVuSans-53" d="M 3425 4513 
L 3425 3897 
Q 3066 4069 2747 4153 
Q 2428 4238 2131 4238 
Q 1616 4238 1336 4038 
Q 1056 3838 1056 3469 
Q 1056 3159 1242 3001 
Q 1428 2844 1947 2747 
L 2328 2669 
Q 3034 2534 3370 2195 
Q 3706 1856 3706 1288 
Q 3706 609 3251 259 
Q 2797 -91 1919 -91 
Q 1588 -91 1214 -16 
Q 841 59 441 206 
L 441 856 
Q 825 641 1194 531 
Q 1563 422 1919 422 
Q 2459 422 2753 634 
Q 3047 847 3047 1241 
Q 3047 1584 2836 1778 
Q 2625 1972 2144 2069 
L 1759 2144 
Q 1053 2284 737 2584 
Q 422 2884 422 3419 
Q 422 4038 858 4394 
Q 1294 4750 2059 4750 
Q 2388 4750 2728 4690 
Q 3069 4631 3425 4513 
z
" transform="scale(0.015625)"/>
       </defs>
       <use xlink:href="#DejaVuSans-44"/>
       <use xlink:href="#DejaVuSans-65" x="77.001953"/>
       <use xlink:href="#DejaVuSans-65" x="138.525391"/>
       <use xlink:href="#DejaVuSans-70" x="200.048828"/>
       <use xlink:href="#DejaVuSans-20" x="263.525391"/>
       <use xlink:href="#DejaVuSans-53" x="295.3125"/>
       <use xlink:href="#DejaVuSans-6c" x="358.789062"/>
       <use xlink:href="#DejaVuSans-65" x="386.572266"/>
       <use xlink:href="#DejaVuSans-65" x="448.095703"/>
       <use xlink:href="#DejaVuSans-70" x="509.619141"/>
      </g>
     </g>
    </g>
   </g>
   <g id="matplotlib.axis_2">
    <g id="ytick_1">
     <g id="line2d_3">
      <defs>
       <path id="m1d558d269f" d="M 0 0 
L -6 0 
" style="stroke: #000000; stroke-width: 1.25"/>
      </defs>
      <g>
       <use xlink:href="#m1d558d269f" x="90.844812" y="285.076899" style="stroke: #000000; stroke-width: 1.25"/>
      </g>
     </g>
     <g id="text_3">
      <!-- 0.0016 -->
      <g transform="translate(27.45925 290.927696) scale(0.154 -0.154)">
       <defs>
        <path id="DejaVuSans-30" d="M 2034 4250 
Q 1547 4250 1301 3770 
Q 1056 3291 1056 2328 
Q 1056 1369 1301 889 
Q 1547 409 2034 409 
Q 2525 409 2770 889 
Q 3016 1369 3016 2328 
Q 3016 3291 2770 3770 
Q 2525 4250 2034 4250 
z
M 2034 4750 
Q 2819 4750 3233 4129 
Q 3647 3509 3647 2328 
Q 3647 1150 3233 529 
Q 2819 -91 2034 -91 
Q 1250 -91 836 529 
Q 422 1150 422 2328 
Q 422 3509 836 4129 
Q 1250 4750 2034 4750 
z
" transform="scale(0.015625)"/>
        <path id="DejaVuSans-2e" d="M 684 794 
L 1344 794 
L 1344 0 
L 684 0 
L 684 794 
z
" transform="scale(0.015625)"/>
        <path id="DejaVuSans-31" d="M 794 531 
L 1825 531 
L 1825 4091 
L 703 3866 
L 703 4441 
L 1819 4666 
L 2450 4666 
L 2450 531 
L 3481 531 
L 3481 0 
L 794 0 
L 794 531 
z
" transform="scale(0.015625)"/>
        <path id="DejaVuSans-36" d="M 2113 2584 
Q 1688 2584 1439 2293 
Q 1191 2003 1191 1497 
Q 1191 994 1439 701 
Q 1688 409 2113 409 
Q 2538 409 2786 701 
Q 3034 994 3034 1497 
Q 3034 2003 2786 2293 
Q 2538 2584 2113 2584 
z
M 3366 4563 
L 3366 3988 
Q 3128 4100 2886 4159 
Q 2644 4219 2406 4219 
Q 1781 4219 1451 3797 
Q 1122 3375 1075 2522 
Q 1259 2794 1537 2939 
Q 1816 3084 2150 3084 
Q 2853 3084 3261 2657 
Q 3669 2231 3669 1497 
Q 3669 778 3244 343 
Q 2819 -91 2113 -91 
Q 1303 -91 875 529 
Q 447 1150 447 2328 
Q 447 3434 972 4092 
Q 1497 4750 2381 4750 
Q 2619 4750 2861 4703 
Q 3103 4656 3366 4563 
z
" transform="scale(0.015625)"/>
       </defs>
       <use xlink:href="#DejaVuSans-30"/>
       <use xlink:href="#DejaVuSans-2e" x="63.623047"/>
       <use xlink:href="#DejaVuSans-30" x="95.410156"/>
       <use xlink:href="#DejaVuSans-30" x="159.033203"/>
       <use xlink:href="#DejaVuSans-31" x="222.65625"/>
       <use xlink:href="#DejaVuSans-36" x="286.279297"/>
      </g>
     </g>
    </g>
    <g id="ytick_2">
     <g id="line2d_4">
      <g>
       <use xlink:href="#m1d558d269f" x="90.844812" y="232.74218" style="stroke: #000000; stroke-width: 1.25"/>
      </g>
     </g>
     <g id="text_4">
      <!-- 0.0018 -->
      <g transform="translate(27.45925 238.592977) scale(0.154 -0.154)">
       <defs>
        <path id="DejaVuSans-38" d="M 2034 2216 
Q 1584 2216 1326 1975 
Q 1069 1734 1069 1313 
Q 1069 891 1326 650 
Q 1584 409 2034 409 
Q 2484 409 2743 651 
Q 3003 894 3003 1313 
Q 3003 1734 2745 1975 
Q 2488 2216 2034 2216 
z
M 1403 2484 
Q 997 2584 770 2862 
Q 544 3141 544 3541 
Q 544 4100 942 4425 
Q 1341 4750 2034 4750 
Q 2731 4750 3128 4425 
Q 3525 4100 3525 3541 
Q 3525 3141 3298 2862 
Q 3072 2584 2669 2484 
Q 3125 2378 3379 2068 
Q 3634 1759 3634 1313 
Q 3634 634 3220 271 
Q 2806 -91 2034 -91 
Q 1263 -91 848 271 
Q 434 634 434 1313 
Q 434 1759 690 2068 
Q 947 2378 1403 2484 
z
M 1172 3481 
Q 1172 3119 1398 2916 
Q 1625 2713 2034 2713 
Q 2441 2713 2670 2916 
Q 2900 3119 2900 3481 
Q 2900 3844 2670 4047 
Q 2441 4250 2034 4250 
Q 1625 4250 1398 4047 
Q 1172 3844 1172 3481 
z
" transform="scale(0.015625)"/>
       </defs>
       <use xlink:href="#DejaVuSans-30"/>
       <use xlink:href="#DejaVuSans-2e" x="63.623047"/>
       <use xlink:href="#DejaVuSans-30" x="95.410156"/>
       <use xlink:href="#DejaVuSans-30" x="159.033203"/>
       <use xlink:href="#DejaVuSans-31" x="222.65625"/>
       <use xlink:href="#DejaVuSans-38" x="286.279297"/>
      </g>
     </g>
    </g>
    <g id="ytick_3">
     <g id="line2d_5">
      <g>
       <use xlink:href="#m1d558d269f" x="90.844812" y="180.40746" style="stroke: #000000; stroke-width: 1.25"/>
      </g>
     </g>
     <g id="text_5">
      <!-- 0.0020 -->
      <g transform="translate(27.45925 186.258257) scale(0.154 -0.154)">
       <defs>
        <path id="DejaVuSans-32" d="M 1228 531 
L 3431 531 
L 3431 0 
L 469 0 
L 469 531 
Q 828 903 1448 1529 
Q 2069 2156 2228 2338 
Q 2531 2678 2651 2914 
Q 2772 3150 2772 3378 
Q 2772 3750 2511 3984 
Q 2250 4219 1831 4219 
Q 1534 4219 1204 4116 
Q 875 4013 500 3803 
L 500 4441 
Q 881 4594 1212 4672 
Q 1544 4750 1819 4750 
Q 2544 4750 2975 4387 
Q 3406 4025 3406 3419 
Q 3406 3131 3298 2873 
Q 3191 2616 2906 2266 
Q 2828 2175 2409 1742 
Q 1991 1309 1228 531 
z
" transform="scale(0.015625)"/>
       </defs>
       <use xlink:href="#DejaVuSans-30"/>
       <use xlink:href="#DejaVuSans-2e" x="63.623047"/>
       <use xlink:href="#DejaVuSans-30" x="95.410156"/>
       <use xlink:href="#DejaVuSans-30" x="159.033203"/>
       <use xlink:href="#DejaVuSans-32" x="222.65625"/>
       <use xlink:href="#DejaVuSans-30" x="286.279297"/>
      </g>
     </g>
    </g>
    <g id="ytick_4">
     <g id="line2d_6">
      <g>
       <use xlink:href="#m1d558d269f" x="90.844812" y="128.072741" style="stroke: #000000; stroke-width: 1.25"/>
      </g>
     </g>
     <g id="text_6">
      <!-- 0.0022 -->
      <g transform="translate(27.45925 133.923538) scale(0.154 -0.154)">
       <use xlink:href="#DejaVuSans-30"/>
       <use xlink:href="#DejaVuSans-2e" x="63.623047"/>
       <use xlink:href="#DejaVuSans-30" x="95.410156"/>
       <use xlink:href="#DejaVuSans-30" x="159.033203"/>
       <use xlink:href="#DejaVuSans-32" x="222.65625"/>
       <use xlink:href="#DejaVuSans-32" x="286.279297"/>
      </g>
     </g>
    </g>
    <g id="ytick_5">
     <g id="line2d_7">
      <g>
       <use xlink:href="#m1d558d269f" x="90.844812" y="75.738022" style="stroke: #000000; stroke-width: 1.25"/>
      </g>
     </g>
     <g id="text_7">
      <!-- 0.0024 -->
      <g transform="translate(27.45925 81.588819) scale(0.154 -0.154)">
       <defs>
        <path id="DejaVuSans-34" d="M 2419 4116 
L 825 1625 
L 2419 1625 
L 2419 4116 
z
M 2253 4666 
L 3047 4666 
L 3047 1625 
L 3713 1625 
L 3713 1100 
L 3047 1100 
L 3047 0 
L 2419 0 
L 2419 1100 
L 313 1100 
L 313 1709 
L 2253 4666 
z
" transform="scale(0.015625)"/>
       </defs>
       <use xlink:href="#DejaVuSans-30"/>
       <use xlink:href="#DejaVuSans-2e" x="63.623047"/>
       <use xlink:href="#DejaVuSans-30" x="95.410156"/>
       <use xlink:href="#DejaVuSans-30" x="159.033203"/>
       <use xlink:href="#DejaVuSans-32" x="222.65625"/>
       <use xlink:href="#DejaVuSans-34" x="286.279297"/>
      </g>
     </g>
    </g>
    <g id="text_8">
     <!-- I(t=tmax,s=0) [Parcells] -->
     <g transform="translate(19.965375 266.106938) rotate(-90) scale(0.168 -0.168)">
      <defs>
       <path id="DejaVuSans-49" d="M 628 4666 
L 1259 4666 
L 1259 0 
L 628 0 
L 628 4666 
z
" transform="scale(0.015625)"/>
       <path id="DejaVuSans-28" d="M 1984 4856 
Q 1566 4138 1362 3434 
Q 1159 2731 1159 2009 
Q 1159 1288 1364 580 
Q 1569 -128 1984 -844 
L 1484 -844 
Q 1016 -109 783 600 
Q 550 1309 550 2009 
Q 550 2706 781 3412 
Q 1013 4119 1484 4856 
L 1984 4856 
z
" transform="scale(0.015625)"/>
       <path id="DejaVuSans-74" d="M 1172 4494 
L 1172 3500 
L 2356 3500 
L 2356 3053 
L 1172 3053 
L 1172 1153 
Q 1172 725 1289 603 
Q 1406 481 1766 481 
L 2356 481 
L 2356 0 
L 1766 0 
Q 1100 0 847 248 
Q 594 497 594 1153 
L 594 3053 
L 172 3053 
L 172 3500 
L 594 3500 
L 594 4494 
L 1172 4494 
z
" transform="scale(0.015625)"/>
       <path id="DejaVuSans-3d" d="M 678 2906 
L 4684 2906 
L 4684 2381 
L 678 2381 
L 678 2906 
z
M 678 1631 
L 4684 1631 
L 4684 1100 
L 678 1100 
L 678 1631 
z
" transform="scale(0.015625)"/>
       <path id="DejaVuSans-6d" d="M 3328 2828 
Q 3544 3216 3844 3400 
Q 4144 3584 4550 3584 
Q 5097 3584 5394 3201 
Q 5691 2819 5691 2113 
L 5691 0 
L 5113 0 
L 5113 2094 
Q 5113 2597 4934 2840 
Q 4756 3084 4391 3084 
Q 3944 3084 3684 2787 
Q 3425 2491 3425 1978 
L 3425 0 
L 2847 0 
L 2847 2094 
Q 2847 2600 2669 2842 
Q 2491 3084 2119 3084 
Q 1678 3084 1418 2786 
Q 1159 2488 1159 1978 
L 1159 0 
L 581 0 
L 581 3500 
L 1159 3500 
L 1159 2956 
Q 1356 3278 1631 3431 
Q 1906 3584 2284 3584 
Q 2666 3584 2933 3390 
Q 3200 3197 3328 2828 
z
" transform="scale(0.015625)"/>
       <path id="DejaVuSans-78" d="M 3513 3500 
L 2247 1797 
L 3578 0 
L 2900 0 
L 1881 1375 
L 863 0 
L 184 0 
L 1544 1831 
L 300 3500 
L 978 3500 
L 1906 2253 
L 2834 3500 
L 3513 3500 
z
" transform="scale(0.015625)"/>
       <path id="DejaVuSans-2c" d="M 750 794 
L 1409 794 
L 1409 256 
L 897 -744 
L 494 -744 
L 750 256 
L 750 794 
z
" transform="scale(0.015625)"/>
       <path id="DejaVuSans-29" d="M 513 4856 
L 1013 4856 
Q 1481 4119 1714 3412 
Q 1947 2706 1947 2009 
Q 1947 1309 1714 600 
Q 1481 -109 1013 -844 
L 513 -844 
Q 928 -128 1133 580 
Q 1338 1288 1338 2009 
Q 1338 2731 1133 3434 
Q 928 4138 513 4856 
z
" transform="scale(0.015625)"/>
       <path id="DejaVuSans-5b" d="M 550 4863 
L 1875 4863 
L 1875 4416 
L 1125 4416 
L 1125 -397 
L 1875 -397 
L 1875 -844 
L 550 -844 
L 550 4863 
z
" transform="scale(0.015625)"/>
       <path id="DejaVuSans-50" d="M 1259 4147 
L 1259 2394 
L 2053 2394 
Q 2494 2394 2734 2622 
Q 2975 2850 2975 3272 
Q 2975 3691 2734 3919 
Q 2494 4147 2053 4147 
L 1259 4147 
z
M 628 4666 
L 2053 4666 
Q 2838 4666 3239 4311 
Q 3641 3956 3641 3272 
Q 3641 2581 3239 2228 
Q 2838 1875 2053 1875 
L 1259 1875 
L 1259 0 
L 628 0 
L 628 4666 
z
" transform="scale(0.015625)"/>
       <path id="DejaVuSans-72" d="M 2631 2963 
Q 2534 3019 2420 3045 
Q 2306 3072 2169 3072 
Q 1681 3072 1420 2755 
Q 1159 2438 1159 1844 
L 1159 0 
L 581 0 
L 581 3500 
L 1159 3500 
L 1159 2956 
Q 1341 3275 1631 3429 
Q 1922 3584 2338 3584 
Q 2397 3584 2469 3576 
Q 2541 3569 2628 3553 
L 2631 2963 
z
" transform="scale(0.015625)"/>
       <path id="DejaVuSans-63" d="M 3122 3366 
L 3122 2828 
Q 2878 2963 2633 3030 
Q 2388 3097 2138 3097 
Q 1578 3097 1268 2742 
Q 959 2388 959 1747 
Q 959 1106 1268 751 
Q 1578 397 2138 397 
Q 2388 397 2633 464 
Q 2878 531 3122 666 
L 3122 134 
Q 2881 22 2623 -34 
Q 2366 -91 2075 -91 
Q 1284 -91 818 406 
Q 353 903 353 1747 
Q 353 2603 823 3093 
Q 1294 3584 2113 3584 
Q 2378 3584 2631 3529 
Q 2884 3475 3122 3366 
z
" transform="scale(0.015625)"/>
       <path id="DejaVuSans-5d" d="M 1947 4863 
L 1947 -844 
L 622 -844 
L 622 -397 
L 1369 -397 
L 1369 4416 
L 622 4416 
L 622 4863 
L 1947 4863 
z
" transform="scale(0.015625)"/>
      </defs>
      <use xlink:href="#DejaVuSans-49"/>
      <use xlink:href="#DejaVuSans-28" x="29.492188"/>
      <use xlink:href="#DejaVuSans-74" x="68.505859"/>
      <use xlink:href="#DejaVuSans-3d" x="107.714844"/>
      <use xlink:href="#DejaVuSans-74" x="191.503906"/>
      <use xlink:href="#DejaVuSans-6d" x="230.712891"/>
      <use xlink:href="#DejaVuSans-61" x="328.125"/>
      <use xlink:href="#DejaVuSans-78" x="389.404297"/>
      <use xlink:href="#DejaVuSans-2c" x="448.583984"/>
      <use xlink:href="#DejaVuSans-73" x="480.371094"/>
      <use xlink:href="#DejaVuSans-3d" x="532.470703"/>
      <use xlink:href="#DejaVuSans-30" x="616.259766"/>
      <use xlink:href="#DejaVuSans-29" x="679.882812"/>
      <use xlink:href="#DejaVuSans-20" x="718.896484"/>
      <use xlink:href="#DejaVuSans-5b" x="750.683594"/>
      <use xlink:href="#DejaVuSans-50" x="789.697266"/>
      <use xlink:href="#DejaVuSans-61" x="845.5"/>
      <use xlink:href="#DejaVuSans-72" x="906.779297"/>
      <use xlink:href="#DejaVuSans-63" x="945.642578"/>
      <use xlink:href="#DejaVuSans-65" x="1000.623047"/>
      <use xlink:href="#DejaVuSans-6c" x="1062.146484"/>
      <use xlink:href="#DejaVuSans-6c" x="1089.929688"/>
      <use xlink:href="#DejaVuSans-73" x="1117.712891"/>
      <use xlink:href="#DejaVuSans-5d" x="1169.8125"/>
     </g>
    </g>
   </g>
   <g id="line2d_8">
    <path d="M 103.526631 201.54827 
L 103.526631 94.006888 
" clip-path="url(#p7a120e2222)" style="fill: none; stroke: #797979; stroke-width: 1.5; stroke-linecap: square"/>
   </g>
   <g id="line2d_9">
    <path d="M 103.526631 189.746473 
L 103.526631 150.589868 
" clip-path="url(#p7a120e2222)" style="fill: none; stroke: #797979; stroke-width: 4.5; stroke-linecap: square"/>
   </g>
   <g id="line2d_10">
    <path d="M 351.661084 291.71083 
L 351.661084 226.986248 
" clip-path="url(#p7a120e2222)" style="fill: none; stroke: #797979; stroke-width: 1.5; stroke-linecap: square"/>
   </g>
   <g id="line2d_11">
    <path d="M 351.661084 280.655914 
L 351.661084 258.357031 
" clip-path="url(#p7a120e2222)" style="fill: none; stroke: #797979; stroke-width: 4.5; stroke-linecap: square"/>
   </g>
   <g id="patch_5">
    <path d="M 90.844812 303.165375 
L 90.844812 25.965375 
" style="fill: none; stroke: #000000; stroke-width: 1.25; stroke-linejoin: miter; stroke-linecap: square"/>
   </g>
   <g id="patch_6">
    <path d="M 369.844812 303.165375 
L 369.844812 25.965375 
" style="fill: none; stroke: #000000; stroke-width: 1.25; stroke-linejoin: miter; stroke-linecap: square"/>
   </g>
   <g id="patch_7">
    <path d="M 90.844812 303.165375 
L 369.844812 303.165375 
" style="fill: none; stroke: #000000; stroke-width: 1.25; stroke-linejoin: miter; stroke-linecap: square"/>
   </g>
   <g id="patch_8">
    <path d="M 90.844812 25.965375 
L 369.844812 25.965375 
" style="fill: none; stroke: #000000; stroke-width: 1.25; stroke-linejoin: miter; stroke-linecap: square"/>
   </g>
   <g id="PathCollection_3">
    <defs>
     <path id="mbc9413c737" d="M 0 1.5 
C 0.397805 1.5 0.77937 1.341951 1.06066 1.06066 
C 1.341951 0.77937 1.5 0.397805 1.5 0 
C 1.5 -0.397805 1.341951 -0.77937 1.06066 -1.06066 
C 0.77937 -1.341951 0.397805 -1.5 0 -1.5 
C -0.397805 -1.5 -0.77937 -1.341951 -1.06066 -1.06066 
C -1.341951 -0.77937 -1.5 -0.397805 -1.5 0 
C -1.5 0.397805 -1.341951 0.77937 -1.06066 1.06066 
C -0.77937 1.341951 -0.397805 1.5 0 1.5 
z
" style="stroke: #797979"/>
    </defs>
    <g clip-path="url(#p7a120e2222)">
     <use xlink:href="#mbc9413c737" x="103.526631" y="179.602013" style="fill: #ffffff; stroke: #797979"/>
    </g>
   </g>
   <g id="PathCollection_4">
    <g clip-path="url(#p7a120e2222)">
     <use xlink:href="#mbc9413c737" x="351.661084" y="276.164408" style="fill: #ffffff; stroke: #797979"/>
    </g>
   </g>
   <g id="text_9">
    <!-- ***** -->
    <g transform="translate(212.593857 48.393375) scale(0.12 -0.12)">
     <defs>
      <path id="DejaVuSans-2a" d="M 3009 3897 
L 1888 3291 
L 3009 2681 
L 2828 2375 
L 1778 3009 
L 1778 1831 
L 1422 1831 
L 1422 3009 
L 372 2375 
L 191 2681 
L 1313 3291 
L 191 3897 
L 372 4206 
L 1422 3572 
L 1422 4750 
L 1778 4750 
L 1778 3572 
L 2828 4206 
L 3009 3897 
z
" transform="scale(0.015625)"/>
     </defs>
     <use xlink:href="#DejaVuSans-2a"/>
     <use xlink:href="#DejaVuSans-2a" x="50"/>
     <use xlink:href="#DejaVuSans-2a" x="100"/>
     <use xlink:href="#DejaVuSans-2a" x="150"/>
     <use xlink:href="#DejaVuSans-2a" x="200"/>
    </g>
   </g>
   <g id="text_10">
    <!-- FDT I(tmax, 0) Parcells -->
    <g transform="translate(135.335562 19.965375) scale(0.168 -0.168)">
     <defs>
      <path id="DejaVuSans-46" d="M 628 4666 
L 3309 4666 
L 3309 4134 
L 1259 4134 
L 1259 2759 
L 3109 2759 
L 3109 2228 
L 1259 2228 
L 1259 0 
L 628 0 
L 628 4666 
z
" transform="scale(0.015625)"/>
      <path id="DejaVuSans-54" d="M -19 4666 
L 3928 4666 
L 3928 4134 
L 2272 4134 
L 2272 0 
L 1638 0 
L 1638 4134 
L -19 4134 
L -19 4666 
z
" transform="scale(0.015625)"/>
     </defs>
     <use xlink:href="#DejaVuSans-46"/>
     <use xlink:href="#DejaVuSans-44" x="57.519531"/>
     <use xlink:href="#DejaVuSans-54" x="134.521484"/>
     <use xlink:href="#DejaVuSans-20" x="195.605469"/>
     <use xlink:href="#DejaVuSans-49" x="227.392578"/>
     <use xlink:href="#DejaVuSans-28" x="256.884766"/>
     <use xlink:href="#DejaVuSans-74" x="295.898438"/>
     <use xlink:href="#DejaVuSans-6d" x="335.107422"/>
     <use xlink:href="#DejaVuSans-61" x="432.519531"/>
     <use xlink:href="#DejaVuSans-78" x="493.798828"/>
     <use xlink:href="#DejaVuSans-2c" x="552.978516"/>
     <use xlink:href="#DejaVuSans-20" x="584.765625"/>
     <use xlink:href="#DejaVuSans-30" x="616.552734"/>
     <use xlink:href="#DejaVuSans-29" x="680.175781"/>
     <use xlink:href="#DejaVuSans-20" x="719.189453"/>
     <use xlink:href="#DejaVuSans-50" x="750.976562"/>
     <use xlink:href="#DejaVuSans-61" x="806.779297"/>
     <use xlink:href="#DejaVuSans-72" x="868.058594"/>
     <use xlink:href="#DejaVuSans-63" x="906.921875"/>
     <use xlink:href="#DejaVuSans-65" x="961.902344"/>
     <use xlink:href="#DejaVuSans-6c" x="1023.425781"/>
     <use xlink:href="#DejaVuSans-6c" x="1051.208984"/>
     <use xlink:href="#DejaVuSans-73" x="1078.992188"/>
    </g>
   </g>
   <g id="legend_1">
    <g id="patch_9">
     <path d="M 101.624812 295.465375 
L 172.224187 295.465375 
Q 175.304188 295.465375 175.304188 292.385375 
L 175.304188 224.7575 
Q 175.304188 221.6775 172.224187 221.6775 
L 101.624812 221.6775 
Q 98.544812 221.6775 98.544812 224.7575 
L 98.544812 292.385375 
Q 98.544812 295.465375 101.624812 295.465375 
z
" style="fill: #ffffff; opacity: 0.8; stroke: #cccccc; stroke-linejoin: miter"/>
    </g>
    <g id="text_11">
     <!-- cond -->
     <g transform="translate(116.509875 240.602875) scale(0.168 -0.168)">
      <defs>
       <path id="DejaVuSans-6f" d="M 1959 3097 
Q 1497 3097 1228 2736 
Q 959 2375 959 1747 
Q 959 1119 1226 758 
Q 1494 397 1959 397 
Q 2419 397 2687 759 
Q 2956 1122 2956 1747 
Q 2956 2369 2687 2733 
Q 2419 3097 1959 3097 
z
M 1959 3584 
Q 2709 3584 3137 3096 
Q 3566 2609 3566 1747 
Q 3566 888 3137 398 
Q 2709 -91 1959 -91 
Q 1206 -91 779 398 
Q 353 888 353 1747 
Q 353 2609 779 3096 
Q 1206 3584 1959 3584 
z
" transform="scale(0.015625)"/>
       <path id="DejaVuSans-64" d="M 2906 2969 
L 2906 4863 
L 3481 4863 
L 3481 0 
L 2906 0 
L 2906 525 
Q 2725 213 2448 61 
Q 2172 -91 1784 -91 
Q 1150 -91 751 415 
Q 353 922 353 1747 
Q 353 2572 751 3078 
Q 1150 3584 1784 3584 
Q 2172 3584 2448 3432 
Q 2725 3281 2906 2969 
z
M 947 1747 
Q 947 1113 1208 752 
Q 1469 391 1925 391 
Q 2381 391 2643 752 
Q 2906 1113 2906 1747 
Q 2906 2381 2643 2742 
Q 2381 3103 1925 3103 
Q 1469 3103 1208 2742 
Q 947 2381 947 1747 
z
" transform="scale(0.015625)"/>
      </defs>
      <use xlink:href="#DejaVuSans-63"/>
      <use xlink:href="#DejaVuSans-6f" x="54.980469"/>
      <use xlink:href="#DejaVuSans-6e" x="116.162109"/>
      <use xlink:href="#DejaVuSans-64" x="179.541016"/>
     </g>
    </g>
    <g id="patch_10">
     <path d="M 104.704812 263.498344 
L 135.504812 263.498344 
L 135.504812 252.718344 
L 104.704812 252.718344 
z
" style="fill: #ffe994; stroke: #797979; stroke-width: 0.75; stroke-linejoin: miter"/>
    </g>
    <g id="text_12">
     <!-- W -->
     <g transform="translate(147.824812 263.498344) scale(0.154 -0.154)">
      <use xlink:href="#DejaVuSans-57"/>
     </g>
    </g>
    <g id="patch_11">
     <path d="M 104.704812 286.102656 
L 135.504812 286.102656 
L 135.504812 275.322656 
L 104.704812 275.322656 
z
" style="fill: #9bddf9; stroke: #797979; stroke-width: 0.75; stroke-linejoin: miter"/>
    </g>
    <g id="text_13">
     <!-- N3 -->
     <g transform="translate(147.824812 286.102656) scale(0.154 -0.154)">
      <defs>
       <path id="DejaVuSans-4e" d="M 628 4666 
L 1478 4666 
L 3547 763 
L 3547 4666 
L 4159 4666 
L 4159 0 
L 3309 0 
L 1241 3903 
L 1241 0 
L 628 0 
L 628 4666 
z
" transform="scale(0.015625)"/>
       <path id="DejaVuSans-33" d="M 2597 2516 
Q 3050 2419 3304 2112 
Q 3559 1806 3559 1356 
Q 3559 666 3084 287 
Q 2609 -91 1734 -91 
Q 1441 -91 1130 -33 
Q 819 25 488 141 
L 488 750 
Q 750 597 1062 519 
Q 1375 441 1716 441 
Q 2309 441 2620 675 
Q 2931 909 2931 1356 
Q 2931 1769 2642 2001 
Q 2353 2234 1838 2234 
L 1294 2234 
L 1294 2753 
L 1863 2753 
Q 2328 2753 2575 2939 
Q 2822 3125 2822 3475 
Q 2822 3834 2567 4026 
Q 2313 4219 1838 4219 
Q 1578 4219 1281 4162 
Q 984 4106 628 3988 
L 628 4550 
Q 988 4650 1302 4700 
Q 1616 4750 1894 4750 
Q 2613 4750 3031 4423 
Q 3450 4097 3450 3541 
Q 3450 3153 3228 2886 
Q 3006 2619 2597 2516 
z
" transform="scale(0.015625)"/>
      </defs>
      <use xlink:href="#DejaVuSans-4e"/>
      <use xlink:href="#DejaVuSans-33" x="74.804688"/>
     </g>
    </g>
   </g>
   <g id="line2d_12">
    <path d="M 138.97441 51.165375 
L 316.213305 51.165375 
" clip-path="url(#p7a120e2222)" style="fill: none; stroke: #000000; stroke-width: 1.5; stroke-linecap: square"/>
   </g>
   <g id="line2d_13">
    <path d="M 138.97441 53.937375 
L 138.97441 48.393375 
" clip-path="url(#p7a120e2222)" style="fill: none; stroke: #000000; stroke-width: 1.5; stroke-linecap: square"/>
   </g>
   <g id="line2d_14">
    <path d="M 316.213305 53.937375 
L 316.213305 48.393375 
" clip-path="url(#p7a120e2222)" style="fill: none; stroke: #000000; stroke-width: 1.5; stroke-linecap: square"/>
   </g>
  </g>
 </g>
 <defs>
  <clipPath id="p7a120e2222">
   <rect x="90.844812" y="25.965375" width="279" height="277.2"/>
  </clipPath>
 </defs>
</svg>
