<?xml version="1.0" encoding="utf-8" standalone="no"?>
<!DOCTYPE svg PUBLIC "-//W3C//DTD SVG 1.1//EN"
  "http://www.w3.org/Graphics/SVG/1.1/DTD/svg11.dtd">
<svg xmlns:xlink="http://www.w3.org/1999/xlink" width="673.281371pt" height="3473.831695pt" viewBox="0 0 673.281371 3473.831695" xmlns="http://www.w3.org/2000/svg" version="1.1">
 <metadata>
  <rdf:RDF xmlns:dc="http://purl.org/dc/elements/1.1/" xmlns:cc="http://creativecommons.org/ns#" xmlns:rdf="http://www.w3.org/1999/02/22-rdf-syntax-ns#">
   <cc:Work>
    <dc:type rdf:resource="http://purl.org/dc/dcmitype/StillImage"/>
    <dc:date>2025-04-24T12:33:23.303049</dc:date>
    <dc:format>image/svg+xml</dc:format>
    <dc:creator>
     <cc:Agent>
      <dc:title>Matplotlib v3.7.2, https://matplotlib.org/</dc:title>
     </cc:Agent>
    </dc:creator>
   </cc:Work>
  </rdf:RDF>
 </metadata>
 <defs>
  <style type="text/css">*{stroke-linejoin: round; stroke-linecap: butt}</style>
 </defs>
 <g id="figure_1">
  <g id="patch_1">
   <path d="M 0 3473.831695 
L 673.281371 3473.831695 
L 673.281371 0 
L 0 0 
z
" style="fill: #ffffff"/>
  </g>
  <g id="axes_1">
   <g id="patch_2">
    <path d="M 100.643063 3442.227382 
L 658.643063 3442.227382 
L 658.643063 2887.827382 
L 100.643063 2887.827382 
z
" style="fill: #ffffff"/>
   </g>
   <g id="patch_3">
    <path d="M 129.664318 3874.613068 
L 129.664318 3874.613068 
L 129.664318 3874.613068 
L 129.664318 3874.613068 
z
" clip-path="url(#p02c24d06e6)" style="fill: #cbd5e8; stroke: #7a7a7a; stroke-width: 0.75; stroke-linejoin: miter"/>
   </g>
   <g id="PolyCollection_1">
    <defs>
     <path id="mc6156f6ea5" d="M 133.975301 -81.387495 
L 125.353335 -81.387495 
L 124.332413 -82.216149 
L 123.123261 -83.044803 
L 121.704597 -83.873457 
L 120.055758 -84.702111 
L 118.157458 -85.530765 
L 115.992637 -86.35942 
L 113.547348 -87.188074 
L 110.81168 -88.016728 
L 107.780645 -88.845382 
L 104.455015 -89.674036 
L 100.842046 -90.50269 
L 96.95605 -91.331344 
L 92.818775 -92.159999 
L 88.459561 -92.988653 
L 83.915238 -93.817307 
L 79.229768 -94.645961 
L 74.453612 -95.474615 
L 69.642845 -96.303269 
L 64.858038 -97.131924 
L 60.162947 -97.960578 
L 55.623042 -98.789232 
L 51.303951 -99.617886 
L 47.269852 -100.44654 
L 43.581883 -101.275194 
L 40.296636 -102.103848 
L 37.464761 -102.932503 
L 35.129754 -103.761157 
L 33.326944 -104.589811 
L 32.082726 -105.418465 
L 31.414031 -106.247119 
L 31.328066 -107.075773 
L 31.822303 -107.904428 
L 32.884713 -108.733082 
L 34.494226 -109.561736 
L 36.621391 -110.39039 
L 39.229209 -111.219044 
L 42.274104 -112.047698 
L 45.70701 -112.876352 
L 49.474526 -113.705007 
L 53.520115 -114.533661 
L 57.785319 -115.362315 
L 62.210948 -116.190969 
L 66.73823 -117.019623 
L 71.309879 -117.848277 
L 75.871075 -118.676932 
L 80.370332 -119.505586 
L 84.760226 -120.33424 
L 88.997992 -121.162894 
L 93.045967 -121.991548 
L 96.871888 -122.820202 
L 100.449042 -123.648856 
L 103.756279 -124.477511 
L 106.777904 -125.306165 
L 109.503464 -126.134819 
L 111.927446 -126.963473 
L 114.048925 -127.792127 
L 115.871163 -128.620781 
L 117.401198 -129.449436 
L 118.649441 -130.27809 
L 119.629287 -131.106744 
L 120.356754 -131.935398 
L 120.850163 -132.764052 
L 121.129843 -133.592706 
L 121.217862 -134.42136 
L 121.137768 -135.250015 
L 120.914332 -136.078669 
L 120.57327 -136.907323 
L 120.140933 -137.735977 
L 119.643952 -138.564631 
L 119.108837 -139.393285 
L 118.561531 -140.22194 
L 118.026912 -141.050594 
L 117.528279 -141.879248 
L 117.086831 -142.707902 
L 116.721159 -143.536556 
L 116.4468 -144.36521 
L 116.275855 -145.193864 
L 116.216717 -146.022519 
L 116.273921 -146.851173 
L 116.448137 -147.679827 
L 116.736298 -148.508481 
L 117.131881 -149.337135 
L 117.625305 -150.165789 
L 118.204449 -150.994444 
L 118.855235 -151.823098 
L 119.562279 -152.651752 
L 120.309538 -153.480406 
L 121.080951 -154.30906 
L 121.861025 -155.137714 
L 122.635345 -155.966368 
L 123.390993 -156.795023 
L 124.116856 -157.623677 
L 124.80382 -158.452331 
L 125.444864 -159.280985 
L 126.035038 -160.109639 
L 126.571366 -160.938293 
L 127.052675 -161.766947 
L 127.479363 -162.595602 
L 127.853149 -163.424256 
L 131.475487 -163.424256 
L 131.475487 -163.424256 
L 131.849273 -162.595602 
L 132.275961 -161.766947 
L 132.757269 -160.938293 
L 133.293598 -160.109639 
L 133.883772 -159.280985 
L 134.524815 -158.452331 
L 135.21178 -157.623677 
L 135.937642 -156.795023 
L 136.69329 -155.966368 
L 137.467611 -155.137714 
L 138.247684 -154.30906 
L 139.019097 -153.480406 
L 139.766356 -152.651752 
L 140.4734 -151.823098 
L 141.124187 -150.994444 
L 141.70333 -150.165789 
L 142.196755 -149.337135 
L 142.592338 -148.508481 
L 142.880499 -147.679827 
L 143.054714 -146.851173 
L 143.111919 -146.022519 
L 143.05278 -145.193864 
L 142.881835 -144.36521 
L 142.607477 -143.536556 
L 142.241805 -142.707902 
L 141.800356 -141.879248 
L 141.301723 -141.050594 
L 140.767104 -140.22194 
L 140.219798 -139.393285 
L 139.684684 -138.564631 
L 139.187703 -137.735977 
L 138.755365 -136.907323 
L 138.414304 -136.078669 
L 138.190868 -135.250015 
L 138.110774 -134.42136 
L 138.198792 -133.592706 
L 138.478472 -132.764052 
L 138.971882 -131.935398 
L 139.699349 -131.106744 
L 140.679194 -130.27809 
L 141.927438 -129.449436 
L 143.457473 -128.620781 
L 145.27971 -127.792127 
L 147.40119 -126.963473 
L 149.825172 -126.134819 
L 152.550732 -125.306165 
L 155.572357 -124.477511 
L 158.879594 -123.648856 
L 162.456748 -122.820202 
L 166.282669 -121.991548 
L 170.330644 -121.162894 
L 174.568409 -120.33424 
L 178.958303 -119.505586 
L 183.45756 -118.676932 
L 188.018757 -117.848277 
L 192.590405 -117.019623 
L 197.117687 -116.190969 
L 201.543317 -115.362315 
L 205.808521 -114.533661 
L 209.85411 -113.705007 
L 213.621626 -112.876352 
L 217.054532 -112.047698 
L 220.099427 -111.219044 
L 222.707244 -110.39039 
L 224.834409 -109.561736 
L 226.443922 -108.733082 
L 227.506332 -107.904428 
L 228.000569 -107.075773 
L 227.914604 -106.247119 
L 227.245909 -105.418465 
L 226.001691 -104.589811 
L 224.198882 -103.761157 
L 221.863874 -102.932503 
L 219.031999 -102.103848 
L 215.746752 -101.275194 
L 212.058784 -100.44654 
L 208.024685 -99.617886 
L 203.705594 -98.789232 
L 199.165689 -97.960578 
L 194.470597 -97.131924 
L 189.685791 -96.303269 
L 184.875024 -95.474615 
L 180.098867 -94.645961 
L 175.413397 -93.817307 
L 170.869075 -92.988653 
L 166.50986 -92.159999 
L 162.372586 -91.331344 
L 158.48659 -90.50269 
L 154.873621 -89.674036 
L 151.547991 -88.845382 
L 148.516955 -88.016728 
L 145.781287 -87.188074 
L 143.335999 -86.35942 
L 141.171178 -85.530765 
L 139.272878 -84.702111 
L 137.624038 -83.873457 
L 136.205375 -83.044803 
L 134.996223 -82.216149 
L 133.975301 -81.387495 
z
" style="stroke: #7a7a7a; stroke-width: 1.5"/>
    </defs>
    <g clip-path="url(#p02c24d06e6)">
     <use xlink:href="#mc6156f6ea5" x="0" y="3473.831695" style="fill: #cbd5e8; stroke: #7a7a7a; stroke-width: 1.5"/>
    </g>
   </g>
   <g id="patch_4">
    <path d="M 129.664318 3874.613068 
L 129.664318 3874.613068 
L 129.664318 3874.613068 
L 129.664318 3874.613068 
z
" clip-path="url(#p02c24d06e6)" style="fill: #fdcdac; stroke: #7a7a7a; stroke-width: 0.75; stroke-linejoin: miter"/>
   </g>
   <g id="patch_5">
    <path d="M 129.664318 3874.613068 
L 129.664318 3874.613068 
L 129.664318 3874.613068 
L 129.664318 3874.613068 
z
" clip-path="url(#p02c24d06e6)" style="fill: #b3e2cd; stroke: #7a7a7a; stroke-width: 0.75; stroke-linejoin: miter"/>
   </g>
   <g id="PolyCollection_2">
    <defs>
     <path id="m40791afeeb" d="M 378.291337 -70.649972 
L 372.718555 -70.649972 
L 372.159147 -70.811521 
L 371.51633 -70.973069 
L 370.783799 -71.134618 
L 369.95591 -71.296167 
L 369.027889 -71.457716 
L 367.996029 -71.619265 
L 366.857861 -71.780814 
L 365.612304 -71.942363 
L 364.259761 -72.103912 
L 362.802178 -72.265461 
L 361.243051 -72.42701 
L 359.587375 -72.588559 
L 357.841556 -72.750108 
L 356.013263 -72.911656 
L 354.111264 -73.073205 
L 352.145221 -73.234754 
L 350.125488 -73.396303 
L 348.062894 -73.557852 
L 345.96855 -73.719401 
L 343.853665 -73.88095 
L 341.729386 -74.042499 
L 339.606664 -74.204048 
L 337.49614 -74.365597 
L 335.408035 -74.527146 
L 333.352057 -74.688695 
L 331.337284 -74.850243 
L 329.372036 -75.011792 
L 327.46371 -75.173341 
L 325.618586 -75.33489 
L 323.84159 -75.496439 
L 322.136027 -75.657988 
L 320.503304 -75.819537 
L 318.942644 -75.981086 
L 317.45084 -76.142635 
L 316.022064 -76.304184 
L 314.647763 -76.465733 
L 313.316689 -76.627282 
L 312.015067 -76.78883 
L 310.726944 -76.950379 
L 309.434712 -77.111928 
L 308.119823 -77.273477 
L 306.763653 -77.435026 
L 305.348522 -77.596575 
L 303.858796 -77.758124 
L 302.282036 -77.919673 
L 300.610124 -78.081222 
L 298.840301 -78.242771 
L 296.97604 -78.40432 
L 295.027702 -78.565869 
L 293.012895 -78.727417 
L 290.956519 -78.888966 
L 288.89044 -79.050515 
L 286.852809 -79.212064 
L 284.887027 -79.373613 
L 283.040392 -79.535162 
L 281.362489 -79.696711 
L 279.903398 -79.85826 
L 278.711794 -80.019809 
L 277.833063 -80.181358 
L 277.307497 -80.342907 
L 277.168695 -80.504456 
L 277.442229 -80.666004 
L 278.144653 -80.827553 
L 279.282905 -80.989102 
L 280.854107 -81.150651 
L 282.845787 -81.3122 
L 285.236475 -81.473749 
L 287.996641 -81.635298 
L 291.089899 -81.796847 
L 294.474415 -81.958396 
L 298.104424 -82.119945 
L 301.931778 -82.281494 
L 305.907455 -82.443043 
L 309.982947 -82.604591 
L 314.11149 -82.76614 
L 318.249083 -82.927689 
L 322.355289 -83.089238 
L 326.393801 -83.250787 
L 330.332795 -83.412336 
L 334.145077 -83.573885 
L 337.808061 -83.735434 
L 341.303615 -83.896983 
L 344.6178 -84.058532 
L 347.740541 -84.220081 
L 350.665265 -84.381629 
L 353.388517 -84.543178 
L 355.90959 -84.704727 
L 358.230164 -84.866276 
L 360.353977 -85.027825 
L 362.286519 -85.189374 
L 364.034752 -85.350923 
L 365.60686 -85.512472 
L 367.012009 -85.674021 
L 368.260136 -85.83557 
L 369.361738 -85.997119 
L 370.327682 -86.158668 
L 371.169024 -86.320216 
L 371.896833 -86.481765 
L 372.522035 -86.643314 
L 378.487857 -86.643314 
L 378.487857 -86.643314 
L 379.11306 -86.481765 
L 379.840868 -86.320216 
L 380.68221 -86.158668 
L 381.648155 -85.997119 
L 382.749757 -85.83557 
L 383.997883 -85.674021 
L 385.403032 -85.512472 
L 386.97514 -85.350923 
L 388.723373 -85.189374 
L 390.655915 -85.027825 
L 392.779728 -84.866276 
L 395.100303 -84.704727 
L 397.621375 -84.543178 
L 400.344628 -84.381629 
L 403.269351 -84.220081 
L 406.392092 -84.058532 
L 409.706277 -83.896983 
L 413.201831 -83.735434 
L 416.864815 -83.573885 
L 420.677097 -83.412336 
L 424.616091 -83.250787 
L 428.654603 -83.089238 
L 432.760809 -82.927689 
L 436.898402 -82.76614 
L 441.026945 -82.604591 
L 445.102438 -82.443043 
L 449.078114 -82.281494 
L 452.905469 -82.119945 
L 456.535477 -81.958396 
L 459.919993 -81.796847 
L 463.013252 -81.635298 
L 465.773417 -81.473749 
L 468.164106 -81.3122 
L 470.155786 -81.150651 
L 471.726987 -80.989102 
L 472.865239 -80.827553 
L 473.567664 -80.666004 
L 473.841198 -80.504456 
L 473.702396 -80.342907 
L 473.17683 -80.181358 
L 472.298098 -80.019809 
L 471.106495 -79.85826 
L 469.647403 -79.696711 
L 467.969501 -79.535162 
L 466.122866 -79.373613 
L 464.157084 -79.212064 
L 462.119453 -79.050515 
L 460.053373 -78.888966 
L 457.996997 -78.727417 
L 455.98219 -78.565869 
L 454.033852 -78.40432 
L 452.169592 -78.242771 
L 450.399768 -78.081222 
L 448.727856 -77.919673 
L 447.151096 -77.758124 
L 445.66137 -77.596575 
L 444.246239 -77.435026 
L 442.89007 -77.273477 
L 441.57518 -77.111928 
L 440.282949 -76.950379 
L 438.994825 -76.78883 
L 437.693203 -76.627282 
L 436.362129 -76.465733 
L 434.987829 -76.304184 
L 433.559052 -76.142635 
L 432.067249 -75.981086 
L 430.506588 -75.819537 
L 428.873865 -75.657988 
L 427.168303 -75.496439 
L 425.391306 -75.33489 
L 423.546183 -75.173341 
L 421.637857 -75.011792 
L 419.672608 -74.850243 
L 417.657835 -74.688695 
L 415.601857 -74.527146 
L 413.513753 -74.365597 
L 411.403228 -74.204048 
L 409.280507 -74.042499 
L 407.156228 -73.88095 
L 405.041343 -73.719401 
L 402.946999 -73.557852 
L 400.884405 -73.396303 
L 398.864671 -73.234754 
L 396.898628 -73.073205 
L 394.996629 -72.911656 
L 393.168336 -72.750108 
L 391.422517 -72.588559 
L 389.766842 -72.42701 
L 388.207714 -72.265461 
L 386.750131 -72.103912 
L 385.397588 -71.942363 
L 384.152031 -71.780814 
L 383.013864 -71.619265 
L 381.982003 -71.457716 
L 381.053983 -71.296167 
L 380.226094 -71.134618 
L 379.493562 -70.973069 
L 378.850745 -70.811521 
L 378.291337 -70.649972 
z
" style="stroke: #7a7a7a; stroke-width: 1.5"/>
    </defs>
    <g clip-path="url(#p02c24d06e6)">
     <use xlink:href="#m40791afeeb" x="0" y="3473.831695" style="fill: #fdcdac; stroke: #7a7a7a; stroke-width: 1.5"/>
    </g>
   </g>
   <g id="PolyCollection_3">
    <defs>
     <path id="mb621f9b4df" d="M 626.785968 -485.453883 
L 615.905181 -485.453883 
L 614.597494 -485.646357 
L 613.056388 -485.838831 
L 611.261302 -486.031304 
L 609.194918 -486.223778 
L 606.844458 -486.416251 
L 604.202986 -486.608725 
L 601.270622 -486.801198 
L 598.055575 -486.993672 
L 594.574913 -487.186145 
L 590.854964 -487.378619 
L 586.931276 -487.571092 
L 582.848091 -487.763566 
L 578.65728 -487.956039 
L 574.416787 -488.148513 
L 570.188587 -488.340986 
L 566.036282 -488.53346 
L 562.022422 -488.725933 
L 558.205737 -488.918407 
L 554.638414 -489.110881 
L 551.363621 -489.303354 
L 548.413434 -489.495828 
L 545.807322 -489.688301 
L 543.551306 -489.880775 
L 541.637857 -490.073248 
L 540.04657 -490.265722 
L 538.745573 -490.458195 
L 537.693591 -490.650669 
L 536.842534 -490.843142 
L 536.140448 -491.035616 
L 535.534629 -491.228089 
L 534.974702 -491.420563 
L 534.415468 -491.613036 
L 533.819338 -491.80551 
L 533.158212 -491.997984 
L 532.414704 -492.190457 
L 531.582648 -492.382931 
L 530.66691 -492.575404 
L 529.682539 -492.767878 
L 528.653369 -492.960351 
L 527.610195 -493.152825 
L 526.588697 -493.345298 
L 525.627261 -493.537772 
L 524.764868 -493.730245 
L 524.039198 -493.922719 
L 523.485047 -494.115192 
L 523.133132 -494.307666 
L 523.009323 -494.500139 
L 523.134276 -494.692613 
L 523.523419 -494.885086 
L 524.187207 -495.07756 
L 525.131559 -495.270034 
L 526.358354 -495.462507 
L 527.865909 -495.654981 
L 529.649345 -495.847454 
L 531.700814 -496.039928 
L 534.009548 -496.232401 
L 536.561773 -496.424875 
L 539.340508 -496.617348 
L 542.325354 -496.809822 
L 545.492318 -497.002295 
L 548.813784 -497.194769 
L 552.258685 -497.387242 
L 555.792932 -497.579716 
L 559.380121 -497.772189 
L 562.982494 -497.964663 
L 566.562124 -498.157136 
L 570.082238 -498.34961 
L 573.508583 -498.542084 
L 576.810739 -498.734557 
L 579.963254 -498.927031 
L 582.946534 -499.119504 
L 585.747383 -499.311978 
L 588.359183 -499.504451 
L 590.781679 -499.696925 
L 593.020398 -499.889398 
L 595.085768 -500.081872 
L 596.99199 -500.274345 
L 598.755783 -500.466819 
L 600.395077 -500.659292 
L 601.927771 -500.851766 
L 603.370632 -501.044239 
L 604.738405 -501.236713 
L 606.043178 -501.429187 
L 607.294017 -501.62166 
L 608.496886 -501.814134 
L 609.654794 -502.006607 
L 610.768155 -502.199081 
L 611.835296 -502.391554 
L 612.853049 -502.584028 
L 613.817374 -502.776501 
L 614.723966 -502.968975 
L 615.568782 -503.161448 
L 616.348489 -503.353922 
L 617.060775 -503.546395 
L 617.704553 -503.738869 
L 618.28004 -503.931342 
L 618.788727 -504.123816 
L 619.233271 -504.316289 
L 619.61732 -504.508763 
L 623.073829 -504.508763 
L 623.073829 -504.508763 
L 623.457878 -504.316289 
L 623.902422 -504.123816 
L 624.41111 -503.931342 
L 624.986596 -503.738869 
L 625.630374 -503.546395 
L 626.34266 -503.353922 
L 627.122367 -503.161448 
L 627.967183 -502.968975 
L 628.873775 -502.776501 
L 629.8381 -502.584028 
L 630.855853 -502.391554 
L 631.922994 -502.199081 
L 633.036355 -502.006607 
L 634.194263 -501.814134 
L 635.397132 -501.62166 
L 636.647971 -501.429187 
L 637.952744 -501.236713 
L 639.320517 -501.044239 
L 640.763378 -500.851766 
L 642.296072 -500.659292 
L 643.935366 -500.466819 
L 645.699159 -500.274345 
L 647.605381 -500.081872 
L 649.670751 -499.889398 
L 651.90947 -499.696925 
L 654.331966 -499.504451 
L 656.943766 -499.311978 
L 659.744615 -499.119504 
L 662.727895 -498.927031 
L 665.880411 -498.734557 
L 669.182566 -498.542084 
L 672.608912 -498.34961 
L 676.129025 -498.157136 
L 679.708655 -497.964663 
L 683.311028 -497.772189 
L 686.898217 -497.579716 
L 690.432464 -497.387242 
L 693.877365 -497.194769 
L 697.198831 -497.002295 
L 700.365795 -496.809822 
L 703.350641 -496.617348 
L 706.129377 -496.424875 
L 708.681601 -496.232401 
L 710.990335 -496.039928 
L 713.041804 -495.847454 
L 714.82524 -495.654981 
L 716.332795 -495.462507 
L 717.55959 -495.270034 
L 718.503942 -495.07756 
L 719.16773 -494.885086 
L 719.556873 -494.692613 
L 719.681826 -494.500139 
L 719.558017 -494.307666 
L 719.206102 -494.115192 
L 718.651951 -493.922719 
L 717.926281 -493.730245 
L 717.063888 -493.537772 
L 716.102452 -493.345298 
L 715.080954 -493.152825 
L 714.03778 -492.960351 
L 713.00861 -492.767878 
L 712.024239 -492.575404 
L 711.108501 -492.382931 
L 710.276445 -492.190457 
L 709.532937 -491.997984 
L 708.871811 -491.80551 
L 708.275681 -491.613036 
L 707.716447 -491.420563 
L 707.15652 -491.228089 
L 706.550701 -491.035616 
L 705.848615 -490.843142 
L 704.997558 -490.650669 
L 703.945576 -490.458195 
L 702.644579 -490.265722 
L 701.053292 -490.073248 
L 699.139843 -489.880775 
L 696.883827 -489.688301 
L 694.277715 -489.495828 
L 691.327528 -489.303354 
L 688.052735 -489.110881 
L 684.485412 -488.918407 
L 680.668727 -488.725933 
L 676.654868 -488.53346 
L 672.502562 -488.340986 
L 668.274362 -488.148513 
L 664.033869 -487.956039 
L 659.843058 -487.763566 
L 655.759873 -487.571092 
L 651.836185 -487.378619 
L 648.116236 -487.186145 
L 644.635574 -486.993672 
L 641.420527 -486.801198 
L 638.488163 -486.608725 
L 635.846692 -486.416251 
L 633.496232 -486.223778 
L 631.429847 -486.031304 
L 629.634761 -485.838831 
L 628.093655 -485.646357 
L 626.785968 -485.453883 
z
" style="stroke: #7a7a7a; stroke-width: 1.5"/>
    </defs>
    <g clip-path="url(#p02c24d06e6)">
     <use xlink:href="#mb621f9b4df" x="0" y="3473.831695" style="fill: #b3e2cd; stroke: #7a7a7a; stroke-width: 1.5"/>
    </g>
   </g>
   <g id="PathCollection_1">
    <defs>
     <path id="C0_0_0e7e81b101" d="M 0 2 
C 0.530406 2 1.03916 1.789267 1.414214 1.414214 
C 1.789267 1.03916 2 0.530406 2 -0 
C 2 -0.530406 1.789267 -1.03916 1.414214 -1.414214 
C 1.03916 -1.789267 0.530406 -2 0 -2 
C -0.530406 -2 -1.03916 -1.789267 -1.414214 -1.414214 
C -1.789267 -1.03916 -2 -0.530406 -2 0 
C -2 0.530406 -1.789267 1.03916 -1.414214 1.414214 
C -1.03916 1.789267 -0.530406 2 0 2 
z
"/>
    </defs>
    <g clip-path="url(#p02c24d06e6)">
     <use xlink:href="#C0_0_0e7e81b101" x="132.497426" y="3363.769268" style="fill: #7570b3"/>
    </g>
    <g clip-path="url(#p02c24d06e6)">
     <use xlink:href="#C0_0_0e7e81b101" x="126.732872" y="3364.687168" style="fill: #7570b3"/>
    </g>
    <g clip-path="url(#p02c24d06e6)">
     <use xlink:href="#C0_0_0e7e81b101" x="130.11261" y="3367.061898" style="fill: #7570b3"/>
    </g>
    <g clip-path="url(#p02c24d06e6)">
     <use xlink:href="#C0_0_0e7e81b101" x="129.664318" y="3371.061198" style="fill: #7570b3"/>
    </g>
    <g clip-path="url(#p02c24d06e6)">
     <use xlink:href="#C0_0_0e7e81b101" x="129.664318" y="3375.202159" style="fill: #7570b3"/>
    </g>
    <g clip-path="url(#p02c24d06e6)">
     <use xlink:href="#C0_0_0e7e81b101" x="125.764864" y="3373.716244" style="fill: #7570b3"/>
    </g>
    <g clip-path="url(#p02c24d06e6)">
     <use xlink:href="#C0_0_0e7e81b101" x="129.664318" y="3360.001615" style="fill: #7570b3"/>
    </g>
    <g clip-path="url(#p02c24d06e6)">
     <use xlink:href="#C0_0_0e7e81b101" x="126.278371" y="3368.694505" style="fill: #7570b3"/>
    </g>
    <g clip-path="url(#p02c24d06e6)">
     <use xlink:href="#C0_0_0e7e81b101" x="127.420946" y="3356.620021" style="fill: #7570b3"/>
    </g>
    <g clip-path="url(#p02c24d06e6)">
     <use xlink:href="#C0_0_0e7e81b101" x="129.664318" y="3327.649481" style="fill: #7570b3"/>
    </g>
   </g>
   <g id="PathCollection_2">
    <defs>
     <path id="C1_0_2f94d22e7d" d="M 0 2 
C 0.530406 2 1.03916 1.789267 1.414214 1.414214 
C 1.789267 1.03916 2 0.530406 2 -0 
C 2 -0.530406 1.789267 -1.03916 1.414214 -1.414214 
C 1.03916 -1.789267 0.530406 -2 0 -2 
C -0.530406 -2 -1.03916 -1.789267 -1.414214 -1.414214 
C -1.789267 -1.03916 -2 -0.530406 -2 0 
C -2 0.530406 -1.789267 1.03916 -1.414214 1.414214 
C -1.03916 1.789267 -0.530406 2 0 2 
z
"/>
    </defs>
    <g clip-path="url(#p02c24d06e6)">
     <use xlink:href="#C1_0_2f94d22e7d" x="378.618105" y="3390.788875" style="fill: #d95f02"/>
    </g>
    <g clip-path="url(#p02c24d06e6)">
     <use xlink:href="#C1_0_2f94d22e7d" x="375.504946" y="3399.581229" style="fill: #d95f02"/>
    </g>
    <g clip-path="url(#p02c24d06e6)">
     <use xlink:href="#C1_0_2f94d22e7d" x="375.504946" y="3393.473887" style="fill: #d95f02"/>
    </g>
    <g clip-path="url(#p02c24d06e6)">
     <use xlink:href="#C1_0_2f94d22e7d" x="385.846279" y="3392.923612" style="fill: #d95f02"/>
    </g>
    <g clip-path="url(#p02c24d06e6)">
     <use xlink:href="#C1_0_2f94d22e7d" x="367.132848" y="3392.978001" style="fill: #d95f02"/>
    </g>
    <g clip-path="url(#p02c24d06e6)">
     <use xlink:href="#C1_0_2f94d22e7d" x="382.395997" y="3395.204472" style="fill: #d95f02"/>
    </g>
    <g clip-path="url(#p02c24d06e6)">
     <use xlink:href="#C1_0_2f94d22e7d" x="371.89779" y="3397.532298" style="fill: #d95f02"/>
    </g>
    <g clip-path="url(#p02c24d06e6)">
     <use xlink:href="#C1_0_2f94d22e7d" x="378.562692" y="3396.839068" style="fill: #d95f02"/>
    </g>
    <g clip-path="url(#p02c24d06e6)">
     <use xlink:href="#C1_0_2f94d22e7d" x="371.332668" y="3393.015068" style="fill: #d95f02"/>
    </g>
   </g>
   <g id="PathCollection_3">
    <defs>
     <path id="C2_0_eb21c1cb14" d="M 0 2 
C 0.530406 2 1.03916 1.789267 1.414214 1.414214 
C 1.789267 1.03916 2 0.530406 2 -0 
C 2 -0.530406 1.789267 -1.03916 1.414214 -1.414214 
C 1.03916 -1.789267 0.530406 -2 0 -2 
C -0.530406 -2 -1.03916 -1.789267 -1.414214 -1.414214 
C -1.789267 -1.03916 -2 -0.530406 -2 0 
C -2 0.530406 -1.789267 1.03916 -1.414214 1.414214 
C -1.03916 1.789267 -0.530406 2 0 2 
z
"/>
    </defs>
    <g clip-path="url(#p02c24d06e6)">
     <use xlink:href="#C2_0_eb21c1cb14" x="626.030948" y="2976.671848" style="fill: #1b9e77"/>
    </g>
    <g clip-path="url(#p02c24d06e6)">
     <use xlink:href="#C2_0_eb21c1cb14" x="633.57066" y="2982.492254" style="fill: #1b9e77"/>
    </g>
    <g clip-path="url(#p02c24d06e6)">
     <use xlink:href="#C2_0_eb21c1cb14" x="625.525085" y="2984.186429" style="fill: #1b9e77"/>
    </g>
    <g clip-path="url(#p02c24d06e6)">
     <use xlink:href="#C2_0_eb21c1cb14" x="616.062135" y="2979.443768" style="fill: #1b9e77"/>
    </g>
    <g clip-path="url(#p02c24d06e6)">
     <use xlink:href="#C2_0_eb21c1cb14" x="621.345575" y="2976.960202" style="fill: #1b9e77"/>
    </g>
    <g clip-path="url(#p02c24d06e6)">
     <use xlink:href="#C2_0_eb21c1cb14" x="611.720896" y="2979.177504" style="fill: #1b9e77"/>
    </g>
    <g clip-path="url(#p02c24d06e6)">
     <use xlink:href="#C2_0_eb21c1cb14" x="617.151979" y="2984.360234" style="fill: #1b9e77"/>
    </g>
    <g clip-path="url(#p02c24d06e6)">
     <use xlink:href="#C2_0_eb21c1cb14" x="607.871802" y="2977.576915" style="fill: #1b9e77"/>
    </g>
    <g clip-path="url(#p02c24d06e6)">
     <use xlink:href="#C2_0_eb21c1cb14" x="620.171419" y="2973.11969" style="fill: #1b9e77"/>
    </g>
    <g clip-path="url(#p02c24d06e6)">
     <use xlink:href="#C2_0_eb21c1cb14" x="628.381248" y="2980.158647" style="fill: #1b9e77"/>
    </g>
    <g clip-path="url(#p02c24d06e6)">
     <use xlink:href="#C2_0_eb21c1cb14" x="621.345575" y="2984.581053" style="fill: #1b9e77"/>
    </g>
    <g clip-path="url(#p02c24d06e6)">
     <use xlink:href="#C2_0_eb21c1cb14" x="630.215149" y="2976.325227" style="fill: #1b9e77"/>
    </g>
    <g clip-path="url(#p02c24d06e6)">
     <use xlink:href="#C2_0_eb21c1cb14" x="613.238933" y="2982.907089" style="fill: #1b9e77"/>
    </g>
    <g clip-path="url(#p02c24d06e6)">
     <use xlink:href="#C2_0_eb21c1cb14" x="635.036681" y="2978.743841" style="fill: #1b9e77"/>
    </g>
    <g clip-path="url(#p02c24d06e6)">
     <use xlink:href="#C2_0_eb21c1cb14" x="624.182697" y="2980.263722" style="fill: #1b9e77"/>
    </g>
    <g clip-path="url(#p02c24d06e6)">
     <use xlink:href="#C2_0_eb21c1cb14" x="620.018643" y="2980.785931" style="fill: #1b9e77"/>
    </g>
    <g clip-path="url(#p02c24d06e6)">
     <use xlink:href="#C2_0_eb21c1cb14" x="629.724065" y="2984.098283" style="fill: #1b9e77"/>
    </g>
   </g>
   <g id="matplotlib.axis_1">
    <g id="xtick_1">
     <g id="line2d_1">
      <defs>
       <path id="m219b63169d" d="M 0 0 
L 0 6 
" style="stroke: #000000; stroke-width: 1.25"/>
      </defs>
      <g>
       <use xlink:href="#m219b63169d" x="129.664318" y="3442.227382" style="stroke: #000000; stroke-width: 1.25"/>
      </g>
     </g>
     <g id="text_1">
      <!-- Healthy Controls -->
      <g transform="translate(65.534146 3463.428976) scale(0.154 -0.154)">
       <defs>
        <path id="DejaVuSans-48" d="M 628 4666 
L 1259 4666 
L 1259 2753 
L 3553 2753 
L 3553 4666 
L 4184 4666 
L 4184 0 
L 3553 0 
L 3553 2222 
L 1259 2222 
L 1259 0 
L 628 0 
L 628 4666 
z
" transform="scale(0.015625)"/>
        <path id="DejaVuSans-65" d="M 3597 1894 
L 3597 1613 
L 953 1613 
Q 991 1019 1311 708 
Q 1631 397 2203 397 
Q 2534 397 2845 478 
Q 3156 559 3463 722 
L 3463 178 
Q 3153 47 2828 -22 
Q 2503 -91 2169 -91 
Q 1331 -91 842 396 
Q 353 884 353 1716 
Q 353 2575 817 3079 
Q 1281 3584 2069 3584 
Q 2775 3584 3186 3129 
Q 3597 2675 3597 1894 
z
M 3022 2063 
Q 3016 2534 2758 2815 
Q 2500 3097 2075 3097 
Q 1594 3097 1305 2825 
Q 1016 2553 972 2059 
L 3022 2063 
z
" transform="scale(0.015625)"/>
        <path id="DejaVuSans-61" d="M 2194 1759 
Q 1497 1759 1228 1600 
Q 959 1441 959 1056 
Q 959 750 1161 570 
Q 1363 391 1709 391 
Q 2188 391 2477 730 
Q 2766 1069 2766 1631 
L 2766 1759 
L 2194 1759 
z
M 3341 1997 
L 3341 0 
L 2766 0 
L 2766 531 
Q 2569 213 2275 61 
Q 1981 -91 1556 -91 
Q 1019 -91 701 211 
Q 384 513 384 1019 
Q 384 1609 779 1909 
Q 1175 2209 1959 2209 
L 2766 2209 
L 2766 2266 
Q 2766 2663 2505 2880 
Q 2244 3097 1772 3097 
Q 1472 3097 1187 3025 
Q 903 2953 641 2809 
L 641 3341 
Q 956 3463 1253 3523 
Q 1550 3584 1831 3584 
Q 2591 3584 2966 3190 
Q 3341 2797 3341 1997 
z
" transform="scale(0.015625)"/>
        <path id="DejaVuSans-6c" d="M 603 4863 
L 1178 4863 
L 1178 0 
L 603 0 
L 603 4863 
z
" transform="scale(0.015625)"/>
        <path id="DejaVuSans-74" d="M 1172 4494 
L 1172 3500 
L 2356 3500 
L 2356 3053 
L 1172 3053 
L 1172 1153 
Q 1172 725 1289 603 
Q 1406 481 1766 481 
L 2356 481 
L 2356 0 
L 1766 0 
Q 1100 0 847 248 
Q 594 497 594 1153 
L 594 3053 
L 172 3053 
L 172 3500 
L 594 3500 
L 594 4494 
L 1172 4494 
z
" transform="scale(0.015625)"/>
        <path id="DejaVuSans-68" d="M 3513 2113 
L 3513 0 
L 2938 0 
L 2938 2094 
Q 2938 2591 2744 2837 
Q 2550 3084 2163 3084 
Q 1697 3084 1428 2787 
Q 1159 2491 1159 1978 
L 1159 0 
L 581 0 
L 581 4863 
L 1159 4863 
L 1159 2956 
Q 1366 3272 1645 3428 
Q 1925 3584 2291 3584 
Q 2894 3584 3203 3211 
Q 3513 2838 3513 2113 
z
" transform="scale(0.015625)"/>
        <path id="DejaVuSans-79" d="M 2059 -325 
Q 1816 -950 1584 -1140 
Q 1353 -1331 966 -1331 
L 506 -1331 
L 506 -850 
L 844 -850 
Q 1081 -850 1212 -737 
Q 1344 -625 1503 -206 
L 1606 56 
L 191 3500 
L 800 3500 
L 1894 763 
L 2988 3500 
L 3597 3500 
L 2059 -325 
z
" transform="scale(0.015625)"/>
        <path id="DejaVuSans-20" transform="scale(0.015625)"/>
        <path id="DejaVuSans-43" d="M 4122 4306 
L 4122 3641 
Q 3803 3938 3442 4084 
Q 3081 4231 2675 4231 
Q 1875 4231 1450 3742 
Q 1025 3253 1025 2328 
Q 1025 1406 1450 917 
Q 1875 428 2675 428 
Q 3081 428 3442 575 
Q 3803 722 4122 1019 
L 4122 359 
Q 3791 134 3420 21 
Q 3050 -91 2638 -91 
Q 1578 -91 968 557 
Q 359 1206 359 2328 
Q 359 3453 968 4101 
Q 1578 4750 2638 4750 
Q 3056 4750 3426 4639 
Q 3797 4528 4122 4306 
z
" transform="scale(0.015625)"/>
        <path id="DejaVuSans-6f" d="M 1959 3097 
Q 1497 3097 1228 2736 
Q 959 2375 959 1747 
Q 959 1119 1226 758 
Q 1494 397 1959 397 
Q 2419 397 2687 759 
Q 2956 1122 2956 1747 
Q 2956 2369 2687 2733 
Q 2419 3097 1959 3097 
z
M 1959 3584 
Q 2709 3584 3137 3096 
Q 3566 2609 3566 1747 
Q 3566 888 3137 398 
Q 2709 -91 1959 -91 
Q 1206 -91 779 398 
Q 353 888 353 1747 
Q 353 2609 779 3096 
Q 1206 3584 1959 3584 
z
" transform="scale(0.015625)"/>
        <path id="DejaVuSans-6e" d="M 3513 2113 
L 3513 0 
L 2938 0 
L 2938 2094 
Q 2938 2591 2744 2837 
Q 2550 3084 2163 3084 
Q 1697 3084 1428 2787 
Q 1159 2491 1159 1978 
L 1159 0 
L 581 0 
L 581 3500 
L 1159 3500 
L 1159 2956 
Q 1366 3272 1645 3428 
Q 1925 3584 2291 3584 
Q 2894 3584 3203 3211 
Q 3513 2838 3513 2113 
z
" transform="scale(0.015625)"/>
        <path id="DejaVuSans-72" d="M 2631 2963 
Q 2534 3019 2420 3045 
Q 2306 3072 2169 3072 
Q 1681 3072 1420 2755 
Q 1159 2438 1159 1844 
L 1159 0 
L 581 0 
L 581 3500 
L 1159 3500 
L 1159 2956 
Q 1341 3275 1631 3429 
Q 1922 3584 2338 3584 
Q 2397 3584 2469 3576 
Q 2541 3569 2628 3553 
L 2631 2963 
z
" transform="scale(0.015625)"/>
        <path id="DejaVuSans-73" d="M 2834 3397 
L 2834 2853 
Q 2591 2978 2328 3040 
Q 2066 3103 1784 3103 
Q 1356 3103 1142 2972 
Q 928 2841 928 2578 
Q 928 2378 1081 2264 
Q 1234 2150 1697 2047 
L 1894 2003 
Q 2506 1872 2764 1633 
Q 3022 1394 3022 966 
Q 3022 478 2636 193 
Q 2250 -91 1575 -91 
Q 1294 -91 989 -36 
Q 684 19 347 128 
L 347 722 
Q 666 556 975 473 
Q 1284 391 1588 391 
Q 1994 391 2212 530 
Q 2431 669 2431 922 
Q 2431 1156 2273 1281 
Q 2116 1406 1581 1522 
L 1381 1569 
Q 847 1681 609 1914 
Q 372 2147 372 2553 
Q 372 3047 722 3315 
Q 1072 3584 1716 3584 
Q 2034 3584 2315 3537 
Q 2597 3491 2834 3397 
z
" transform="scale(0.015625)"/>
       </defs>
       <use xlink:href="#DejaVuSans-48"/>
       <use xlink:href="#DejaVuSans-65" x="75.195312"/>
       <use xlink:href="#DejaVuSans-61" x="136.71875"/>
       <use xlink:href="#DejaVuSans-6c" x="197.998047"/>
       <use xlink:href="#DejaVuSans-74" x="225.78125"/>
       <use xlink:href="#DejaVuSans-68" x="264.990234"/>
       <use xlink:href="#DejaVuSans-79" x="328.369141"/>
       <use xlink:href="#DejaVuSans-20" x="387.548828"/>
       <use xlink:href="#DejaVuSans-43" x="419.335938"/>
       <use xlink:href="#DejaVuSans-6f" x="489.160156"/>
       <use xlink:href="#DejaVuSans-6e" x="550.341797"/>
       <use xlink:href="#DejaVuSans-74" x="613.720703"/>
       <use xlink:href="#DejaVuSans-72" x="652.929688"/>
       <use xlink:href="#DejaVuSans-6f" x="691.792969"/>
       <use xlink:href="#DejaVuSans-6c" x="752.974609"/>
       <use xlink:href="#DejaVuSans-73" x="780.757812"/>
      </g>
     </g>
    </g>
    <g id="xtick_2">
     <g id="line2d_2">
      <g>
       <use xlink:href="#m219b63169d" x="375.504946" y="3442.227382" style="stroke: #000000; stroke-width: 1.25"/>
      </g>
     </g>
     <g id="text_2">
      <!-- MCI -->
      <g transform="translate(361.213024 3463.428976) scale(0.154 -0.154)">
       <defs>
        <path id="DejaVuSans-4d" d="M 628 4666 
L 1569 4666 
L 2759 1491 
L 3956 4666 
L 4897 4666 
L 4897 0 
L 4281 0 
L 4281 4097 
L 3078 897 
L 2444 897 
L 1241 4097 
L 1241 0 
L 628 0 
L 628 4666 
z
" transform="scale(0.015625)"/>
        <path id="DejaVuSans-49" d="M 628 4666 
L 1259 4666 
L 1259 0 
L 628 0 
L 628 4666 
z
" transform="scale(0.015625)"/>
       </defs>
       <use xlink:href="#DejaVuSans-4d"/>
       <use xlink:href="#DejaVuSans-43" x="86.279297"/>
       <use xlink:href="#DejaVuSans-49" x="156.103516"/>
      </g>
     </g>
    </g>
    <g id="xtick_3">
     <g id="line2d_3">
      <g>
       <use xlink:href="#m219b63169d" x="621.345575" y="3442.227382" style="stroke: #000000; stroke-width: 1.25"/>
      </g>
     </g>
     <g id="text_3">
      <!-- Alzheimer's -->
      <g transform="translate(576.609778 3463.428976) scale(0.154 -0.154)">
       <defs>
        <path id="DejaVuSans-41" d="M 2188 4044 
L 1331 1722 
L 3047 1722 
L 2188 4044 
z
M 1831 4666 
L 2547 4666 
L 4325 0 
L 3669 0 
L 3244 1197 
L 1141 1197 
L 716 0 
L 50 0 
L 1831 4666 
z
" transform="scale(0.015625)"/>
        <path id="DejaVuSans-7a" d="M 353 3500 
L 3084 3500 
L 3084 2975 
L 922 459 
L 3084 459 
L 3084 0 
L 275 0 
L 275 525 
L 2438 3041 
L 353 3041 
L 353 3500 
z
" transform="scale(0.015625)"/>
        <path id="DejaVuSans-69" d="M 603 3500 
L 1178 3500 
L 1178 0 
L 603 0 
L 603 3500 
z
M 603 4863 
L 1178 4863 
L 1178 4134 
L 603 4134 
L 603 4863 
z
" transform="scale(0.015625)"/>
        <path id="DejaVuSans-6d" d="M 3328 2828 
Q 3544 3216 3844 3400 
Q 4144 3584 4550 3584 
Q 5097 3584 5394 3201 
Q 5691 2819 5691 2113 
L 5691 0 
L 5113 0 
L 5113 2094 
Q 5113 2597 4934 2840 
Q 4756 3084 4391 3084 
Q 3944 3084 3684 2787 
Q 3425 2491 3425 1978 
L 3425 0 
L 2847 0 
L 2847 2094 
Q 2847 2600 2669 2842 
Q 2491 3084 2119 3084 
Q 1678 3084 1418 2786 
Q 1159 2488 1159 1978 
L 1159 0 
L 581 0 
L 581 3500 
L 1159 3500 
L 1159 2956 
Q 1356 3278 1631 3431 
Q 1906 3584 2284 3584 
Q 2666 3584 2933 3390 
Q 3200 3197 3328 2828 
z
" transform="scale(0.015625)"/>
        <path id="DejaVuSans-27" d="M 1147 4666 
L 1147 2931 
L 616 2931 
L 616 4666 
L 1147 4666 
z
" transform="scale(0.015625)"/>
       </defs>
       <use xlink:href="#DejaVuSans-41"/>
       <use xlink:href="#DejaVuSans-6c" x="68.408203"/>
       <use xlink:href="#DejaVuSans-7a" x="96.191406"/>
       <use xlink:href="#DejaVuSans-68" x="148.681641"/>
       <use xlink:href="#DejaVuSans-65" x="212.060547"/>
       <use xlink:href="#DejaVuSans-69" x="273.583984"/>
       <use xlink:href="#DejaVuSans-6d" x="301.367188"/>
       <use xlink:href="#DejaVuSans-65" x="398.779297"/>
       <use xlink:href="#DejaVuSans-72" x="460.302734"/>
       <use xlink:href="#DejaVuSans-27" x="501.416016"/>
       <use xlink:href="#DejaVuSans-73" x="528.90625"/>
      </g>
     </g>
    </g>
   </g>
   <g id="matplotlib.axis_2">
    <g id="ytick_1">
     <g id="line2d_4">
      <defs>
       <path id="ma16570fae2" d="M 0 0 
L -6 0 
" style="stroke: #000000; stroke-width: 1.25"/>
      </defs>
      <g>
       <use xlink:href="#ma16570fae2" x="100.643063" y="3387.914899" style="stroke: #000000; stroke-width: 1.25"/>
      </g>
     </g>
     <g id="text_4">
      <!-- 0.00010 -->
      <g transform="translate(27.45925 3393.765696) scale(0.154 -0.154)">
       <defs>
        <path id="DejaVuSans-30" d="M 2034 4250 
Q 1547 4250 1301 3770 
Q 1056 3291 1056 2328 
Q 1056 1369 1301 889 
Q 1547 409 2034 409 
Q 2525 409 2770 889 
Q 3016 1369 3016 2328 
Q 3016 3291 2770 3770 
Q 2525 4250 2034 4250 
z
M 2034 4750 
Q 2819 4750 3233 4129 
Q 3647 3509 3647 2328 
Q 3647 1150 3233 529 
Q 2819 -91 2034 -91 
Q 1250 -91 836 529 
Q 422 1150 422 2328 
Q 422 3509 836 4129 
Q 1250 4750 2034 4750 
z
" transform="scale(0.015625)"/>
        <path id="DejaVuSans-2e" d="M 684 794 
L 1344 794 
L 1344 0 
L 684 0 
L 684 794 
z
" transform="scale(0.015625)"/>
        <path id="DejaVuSans-31" d="M 794 531 
L 1825 531 
L 1825 4091 
L 703 3866 
L 703 4441 
L 1819 4666 
L 2450 4666 
L 2450 531 
L 3481 531 
L 3481 0 
L 794 0 
L 794 531 
z
" transform="scale(0.015625)"/>
       </defs>
       <use xlink:href="#DejaVuSans-30"/>
       <use xlink:href="#DejaVuSans-2e" x="63.623047"/>
       <use xlink:href="#DejaVuSans-30" x="95.410156"/>
       <use xlink:href="#DejaVuSans-30" x="159.033203"/>
       <use xlink:href="#DejaVuSans-30" x="222.65625"/>
       <use xlink:href="#DejaVuSans-31" x="286.279297"/>
       <use xlink:href="#DejaVuSans-30" x="349.902344"/>
      </g>
     </g>
    </g>
    <g id="ytick_2">
     <g id="line2d_5">
      <g>
       <use xlink:href="#ma16570fae2" x="100.643063" y="3290.575265" style="stroke: #000000; stroke-width: 1.25"/>
      </g>
     </g>
     <g id="text_5">
      <!-- 0.00012 -->
      <g transform="translate(27.45925 3296.426062) scale(0.154 -0.154)">
       <defs>
        <path id="DejaVuSans-32" d="M 1228 531 
L 3431 531 
L 3431 0 
L 469 0 
L 469 531 
Q 828 903 1448 1529 
Q 2069 2156 2228 2338 
Q 2531 2678 2651 2914 
Q 2772 3150 2772 3378 
Q 2772 3750 2511 3984 
Q 2250 4219 1831 4219 
Q 1534 4219 1204 4116 
Q 875 4013 500 3803 
L 500 4441 
Q 881 4594 1212 4672 
Q 1544 4750 1819 4750 
Q 2544 4750 2975 4387 
Q 3406 4025 3406 3419 
Q 3406 3131 3298 2873 
Q 3191 2616 2906 2266 
Q 2828 2175 2409 1742 
Q 1991 1309 1228 531 
z
" transform="scale(0.015625)"/>
       </defs>
       <use xlink:href="#DejaVuSans-30"/>
       <use xlink:href="#DejaVuSans-2e" x="63.623047"/>
       <use xlink:href="#DejaVuSans-30" x="95.410156"/>
       <use xlink:href="#DejaVuSans-30" x="159.033203"/>
       <use xlink:href="#DejaVuSans-30" x="222.65625"/>
       <use xlink:href="#DejaVuSans-31" x="286.279297"/>
       <use xlink:href="#DejaVuSans-32" x="349.902344"/>
      </g>
     </g>
    </g>
    <g id="ytick_3">
     <g id="line2d_6">
      <g>
       <use xlink:href="#ma16570fae2" x="100.643063" y="3193.235631" style="stroke: #000000; stroke-width: 1.25"/>
      </g>
     </g>
     <g id="text_6">
      <!-- 0.00014 -->
      <g transform="translate(27.45925 3199.086428) scale(0.154 -0.154)">
       <defs>
        <path id="DejaVuSans-34" d="M 2419 4116 
L 825 1625 
L 2419 1625 
L 2419 4116 
z
M 2253 4666 
L 3047 4666 
L 3047 1625 
L 3713 1625 
L 3713 1100 
L 3047 1100 
L 3047 0 
L 2419 0 
L 2419 1100 
L 313 1100 
L 313 1709 
L 2253 4666 
z
" transform="scale(0.015625)"/>
       </defs>
       <use xlink:href="#DejaVuSans-30"/>
       <use xlink:href="#DejaVuSans-2e" x="63.623047"/>
       <use xlink:href="#DejaVuSans-30" x="95.410156"/>
       <use xlink:href="#DejaVuSans-30" x="159.033203"/>
       <use xlink:href="#DejaVuSans-30" x="222.65625"/>
       <use xlink:href="#DejaVuSans-31" x="286.279297"/>
       <use xlink:href="#DejaVuSans-34" x="349.902344"/>
      </g>
     </g>
    </g>
    <g id="ytick_4">
     <g id="line2d_7">
      <g>
       <use xlink:href="#ma16570fae2" x="100.643063" y="3095.895997" style="stroke: #000000; stroke-width: 1.25"/>
      </g>
     </g>
     <g id="text_7">
      <!-- 0.00016 -->
      <g transform="translate(27.45925 3101.746794) scale(0.154 -0.154)">
       <defs>
        <path id="DejaVuSans-36" d="M 2113 2584 
Q 1688 2584 1439 2293 
Q 1191 2003 1191 1497 
Q 1191 994 1439 701 
Q 1688 409 2113 409 
Q 2538 409 2786 701 
Q 3034 994 3034 1497 
Q 3034 2003 2786 2293 
Q 2538 2584 2113 2584 
z
M 3366 4563 
L 3366 3988 
Q 3128 4100 2886 4159 
Q 2644 4219 2406 4219 
Q 1781 4219 1451 3797 
Q 1122 3375 1075 2522 
Q 1259 2794 1537 2939 
Q 1816 3084 2150 3084 
Q 2853 3084 3261 2657 
Q 3669 2231 3669 1497 
Q 3669 778 3244 343 
Q 2819 -91 2113 -91 
Q 1303 -91 875 529 
Q 447 1150 447 2328 
Q 447 3434 972 4092 
Q 1497 4750 2381 4750 
Q 2619 4750 2861 4703 
Q 3103 4656 3366 4563 
z
" transform="scale(0.015625)"/>
       </defs>
       <use xlink:href="#DejaVuSans-30"/>
       <use xlink:href="#DejaVuSans-2e" x="63.623047"/>
       <use xlink:href="#DejaVuSans-30" x="95.410156"/>
       <use xlink:href="#DejaVuSans-30" x="159.033203"/>
       <use xlink:href="#DejaVuSans-30" x="222.65625"/>
       <use xlink:href="#DejaVuSans-31" x="286.279297"/>
       <use xlink:href="#DejaVuSans-36" x="349.902344"/>
      </g>
     </g>
    </g>
    <g id="ytick_5">
     <g id="line2d_8">
      <g>
       <use xlink:href="#ma16570fae2" x="100.643063" y="2998.556363" style="stroke: #000000; stroke-width: 1.25"/>
      </g>
     </g>
     <g id="text_8">
      <!-- 0.00018 -->
      <g transform="translate(27.45925 3004.40716) scale(0.154 -0.154)">
       <defs>
        <path id="DejaVuSans-38" d="M 2034 2216 
Q 1584 2216 1326 1975 
Q 1069 1734 1069 1313 
Q 1069 891 1326 650 
Q 1584 409 2034 409 
Q 2484 409 2743 651 
Q 3003 894 3003 1313 
Q 3003 1734 2745 1975 
Q 2488 2216 2034 2216 
z
M 1403 2484 
Q 997 2584 770 2862 
Q 544 3141 544 3541 
Q 544 4100 942 4425 
Q 1341 4750 2034 4750 
Q 2731 4750 3128 4425 
Q 3525 4100 3525 3541 
Q 3525 3141 3298 2862 
Q 3072 2584 2669 2484 
Q 3125 2378 3379 2068 
Q 3634 1759 3634 1313 
Q 3634 634 3220 271 
Q 2806 -91 2034 -91 
Q 1263 -91 848 271 
Q 434 634 434 1313 
Q 434 1759 690 2068 
Q 947 2378 1403 2484 
z
M 1172 3481 
Q 1172 3119 1398 2916 
Q 1625 2713 2034 2713 
Q 2441 2713 2670 2916 
Q 2900 3119 2900 3481 
Q 2900 3844 2670 4047 
Q 2441 4250 2034 4250 
Q 1625 4250 1398 4047 
Q 1172 3844 1172 3481 
z
" transform="scale(0.015625)"/>
       </defs>
       <use xlink:href="#DejaVuSans-30"/>
       <use xlink:href="#DejaVuSans-2e" x="63.623047"/>
       <use xlink:href="#DejaVuSans-30" x="95.410156"/>
       <use xlink:href="#DejaVuSans-30" x="159.033203"/>
       <use xlink:href="#DejaVuSans-30" x="222.65625"/>
       <use xlink:href="#DejaVuSans-31" x="286.279297"/>
       <use xlink:href="#DejaVuSans-38" x="349.902344"/>
      </g>
     </g>
    </g>
    <g id="ytick_6">
     <g id="line2d_9">
      <g>
       <use xlink:href="#ma16570fae2" x="100.643063" y="2901.216729" style="stroke: #000000; stroke-width: 1.25"/>
      </g>
     </g>
     <g id="text_9">
      <!-- 0.00020 -->
      <g transform="translate(27.45925 2907.067526) scale(0.154 -0.154)">
       <use xlink:href="#DejaVuSans-30"/>
       <use xlink:href="#DejaVuSans-2e" x="63.623047"/>
       <use xlink:href="#DejaVuSans-30" x="95.410156"/>
       <use xlink:href="#DejaVuSans-30" x="159.033203"/>
       <use xlink:href="#DejaVuSans-30" x="222.65625"/>
       <use xlink:href="#DejaVuSans-32" x="286.279297"/>
       <use xlink:href="#DejaVuSans-30" x="349.902344"/>
      </g>
     </g>
    </g>
    <g id="text_10">
     <!-- I(t=tmax,s=0) [Parcells] -->
     <g transform="translate(19.965375 3266.568945) rotate(-90) scale(0.168 -0.168)">
      <defs>
       <path id="DejaVuSans-28" d="M 1984 4856 
Q 1566 4138 1362 3434 
Q 1159 2731 1159 2009 
Q 1159 1288 1364 580 
Q 1569 -128 1984 -844 
L 1484 -844 
Q 1016 -109 783 600 
Q 550 1309 550 2009 
Q 550 2706 781 3412 
Q 1013 4119 1484 4856 
L 1984 4856 
z
" transform="scale(0.015625)"/>
       <path id="DejaVuSans-3d" d="M 678 2906 
L 4684 2906 
L 4684 2381 
L 678 2381 
L 678 2906 
z
M 678 1631 
L 4684 1631 
L 4684 1100 
L 678 1100 
L 678 1631 
z
" transform="scale(0.015625)"/>
       <path id="DejaVuSans-78" d="M 3513 3500 
L 2247 1797 
L 3578 0 
L 2900 0 
L 1881 1375 
L 863 0 
L 184 0 
L 1544 1831 
L 300 3500 
L 978 3500 
L 1906 2253 
L 2834 3500 
L 3513 3500 
z
" transform="scale(0.015625)"/>
       <path id="DejaVuSans-2c" d="M 750 794 
L 1409 794 
L 1409 256 
L 897 -744 
L 494 -744 
L 750 256 
L 750 794 
z
" transform="scale(0.015625)"/>
       <path id="DejaVuSans-29" d="M 513 4856 
L 1013 4856 
Q 1481 4119 1714 3412 
Q 1947 2706 1947 2009 
Q 1947 1309 1714 600 
Q 1481 -109 1013 -844 
L 513 -844 
Q 928 -128 1133 580 
Q 1338 1288 1338 2009 
Q 1338 2731 1133 3434 
Q 928 4138 513 4856 
z
" transform="scale(0.015625)"/>
       <path id="DejaVuSans-5b" d="M 550 4863 
L 1875 4863 
L 1875 4416 
L 1125 4416 
L 1125 -397 
L 1875 -397 
L 1875 -844 
L 550 -844 
L 550 4863 
z
" transform="scale(0.015625)"/>
       <path id="DejaVuSans-50" d="M 1259 4147 
L 1259 2394 
L 2053 2394 
Q 2494 2394 2734 2622 
Q 2975 2850 2975 3272 
Q 2975 3691 2734 3919 
Q 2494 4147 2053 4147 
L 1259 4147 
z
M 628 4666 
L 2053 4666 
Q 2838 4666 3239 4311 
Q 3641 3956 3641 3272 
Q 3641 2581 3239 2228 
Q 2838 1875 2053 1875 
L 1259 1875 
L 1259 0 
L 628 0 
L 628 4666 
z
" transform="scale(0.015625)"/>
       <path id="DejaVuSans-63" d="M 3122 3366 
L 3122 2828 
Q 2878 2963 2633 3030 
Q 2388 3097 2138 3097 
Q 1578 3097 1268 2742 
Q 959 2388 959 1747 
Q 959 1106 1268 751 
Q 1578 397 2138 397 
Q 2388 397 2633 464 
Q 2878 531 3122 666 
L 3122 134 
Q 2881 22 2623 -34 
Q 2366 -91 2075 -91 
Q 1284 -91 818 406 
Q 353 903 353 1747 
Q 353 2603 823 3093 
Q 1294 3584 2113 3584 
Q 2378 3584 2631 3529 
Q 2884 3475 3122 3366 
z
" transform="scale(0.015625)"/>
       <path id="DejaVuSans-5d" d="M 1947 4863 
L 1947 -844 
L 622 -844 
L 622 -397 
L 1369 -397 
L 1369 4416 
L 622 4416 
L 622 4863 
L 1947 4863 
z
" transform="scale(0.015625)"/>
      </defs>
      <use xlink:href="#DejaVuSans-49"/>
      <use xlink:href="#DejaVuSans-28" x="29.492188"/>
      <use xlink:href="#DejaVuSans-74" x="68.505859"/>
      <use xlink:href="#DejaVuSans-3d" x="107.714844"/>
      <use xlink:href="#DejaVuSans-74" x="191.503906"/>
      <use xlink:href="#DejaVuSans-6d" x="230.712891"/>
      <use xlink:href="#DejaVuSans-61" x="328.125"/>
      <use xlink:href="#DejaVuSans-78" x="389.404297"/>
      <use xlink:href="#DejaVuSans-2c" x="448.583984"/>
      <use xlink:href="#DejaVuSans-73" x="480.371094"/>
      <use xlink:href="#DejaVuSans-3d" x="532.470703"/>
      <use xlink:href="#DejaVuSans-30" x="616.259766"/>
      <use xlink:href="#DejaVuSans-29" x="679.882812"/>
      <use xlink:href="#DejaVuSans-20" x="718.896484"/>
      <use xlink:href="#DejaVuSans-5b" x="750.683594"/>
      <use xlink:href="#DejaVuSans-50" x="789.697266"/>
      <use xlink:href="#DejaVuSans-61" x="845.5"/>
      <use xlink:href="#DejaVuSans-72" x="906.779297"/>
      <use xlink:href="#DejaVuSans-63" x="945.642578"/>
      <use xlink:href="#DejaVuSans-65" x="1000.623047"/>
      <use xlink:href="#DejaVuSans-6c" x="1062.146484"/>
      <use xlink:href="#DejaVuSans-6c" x="1089.929688"/>
      <use xlink:href="#DejaVuSans-73" x="1117.712891"/>
      <use xlink:href="#DejaVuSans-5d" x="1169.8125"/>
     </g>
    </g>
   </g>
   <g id="line2d_10">
    <path d="M 129.664318 3375.202159 
L 129.664318 3356.620021 
" clip-path="url(#p02c24d06e6)" style="fill: none; stroke: #7a7a7a; stroke-width: 1.5; stroke-linecap: square"/>
   </g>
   <g id="line2d_11">
    <path d="M 129.664318 3370.469525 
L 129.664318 3360.943528 
" clip-path="url(#p02c24d06e6)" style="fill: none; stroke: #7a7a7a; stroke-width: 4.5; stroke-linecap: square"/>
   </g>
   <g id="line2d_12">
    <path d="M 375.504946 3399.581229 
L 375.504946 3390.788875 
" clip-path="url(#p02c24d06e6)" style="fill: none; stroke: #7a7a7a; stroke-width: 1.5; stroke-linecap: square"/>
   </g>
   <g id="line2d_13">
    <path d="M 375.504946 3396.839068 
L 375.504946 3392.978001 
" clip-path="url(#p02c24d06e6)" style="fill: none; stroke: #7a7a7a; stroke-width: 4.5; stroke-linecap: square"/>
   </g>
   <g id="line2d_14">
    <path d="M 621.345575 2984.581053 
L 621.345575 2973.11969 
" clip-path="url(#p02c24d06e6)" style="fill: none; stroke: #7a7a7a; stroke-width: 1.5; stroke-linecap: square"/>
   </g>
   <g id="line2d_15">
    <path d="M 621.345575 2982.907089 
L 621.345575 2977.576915 
" clip-path="url(#p02c24d06e6)" style="fill: none; stroke: #7a7a7a; stroke-width: 4.5; stroke-linecap: square"/>
   </g>
   <g id="line2d_16">
    <path d="M 129.664318 3474.831695 
L 129.664318 518.305766 
L 375.504946 518.305766 
L 375.504946 3474.831695 
" clip-path="url(#p02c24d06e6)" style="fill: none; stroke: #000000; stroke-width: 1.5; stroke-linecap: square"/>
   </g>
   <g id="line2d_17">
    <path d="M 129.664318 3474.831695 
L 129.664318 511.908843 
L 621.345575 511.908843 
L 621.345575 3474.831695 
" clip-path="url(#p02c24d06e6)" style="fill: none; stroke: #000000; stroke-width: 1.5; stroke-linecap: square"/>
   </g>
   <g id="line2d_18">
    <path d="M 375.504946 3474.831695 
L 375.504946 505.51192 
L 621.345575 505.51192 
L 621.345575 3474.831695 
" clip-path="url(#p02c24d06e6)" style="fill: none; stroke: #000000; stroke-width: 1.5; stroke-linecap: square"/>
   </g>
   <g id="patch_6">
    <path d="M 100.643063 3442.227382 
L 100.643063 2887.827382 
" style="fill: none; stroke: #000000; stroke-width: 1.25; stroke-linejoin: miter; stroke-linecap: square"/>
   </g>
   <g id="patch_7">
    <path d="M 658.643063 3442.227382 
L 658.643063 2887.827382 
" style="fill: none; stroke: #000000; stroke-width: 1.25; stroke-linejoin: miter; stroke-linecap: square"/>
   </g>
   <g id="patch_8">
    <path d="M 100.643063 3442.227382 
L 658.643063 3442.227382 
" style="fill: none; stroke: #000000; stroke-width: 1.25; stroke-linejoin: miter; stroke-linecap: square"/>
   </g>
   <g id="patch_9">
    <path d="M 100.643063 2887.827382 
L 658.643063 2887.827382 
" style="fill: none; stroke: #000000; stroke-width: 1.25; stroke-linejoin: miter; stroke-linecap: square"/>
   </g>
   <g id="PathCollection_4">
    <defs>
     <path id="m802c4ca612" d="M 0 1.5 
C 0.397805 1.5 0.77937 1.341951 1.06066 1.06066 
C 1.341951 0.77937 1.5 0.397805 1.5 0 
C 1.5 -0.397805 1.341951 -0.77937 1.06066 -1.06066 
C 0.77937 -1.341951 0.397805 -1.5 0 -1.5 
C -0.397805 -1.5 -0.77937 -1.341951 -1.06066 -1.06066 
C -1.341951 -0.77937 -1.5 -0.397805 -1.5 0 
C -1.5 0.397805 -1.341951 0.77937 -1.06066 1.06066 
C -0.77937 1.341951 -0.397805 1.5 0 1.5 
z
" style="stroke: #7a7a7a"/>
    </defs>
    <g clip-path="url(#p02c24d06e6)">
     <use xlink:href="#m802c4ca612" x="129.664318" y="3365.874533" style="fill: #ffffff; stroke: #7a7a7a"/>
    </g>
   </g>
   <g id="PathCollection_5">
    <g clip-path="url(#p02c24d06e6)">
     <use xlink:href="#m802c4ca612" x="375.504946" y="3393.473887" style="fill: #ffffff; stroke: #7a7a7a"/>
    </g>
   </g>
   <g id="PathCollection_6">
    <g clip-path="url(#p02c24d06e6)">
     <use xlink:href="#m802c4ca612" x="621.345575" y="2980.158647" style="fill: #ffffff; stroke: #7a7a7a"/>
    </g>
   </g>
   <g id="text_11">
    <!-- **** -->
    <g transform="translate(240.584632 29.111971) scale(0.12 -0.12)">
     <defs>
      <path id="DejaVuSans-2a" d="M 3009 3897 
L 1888 3291 
L 3009 2681 
L 2828 2375 
L 1778 3009 
L 1778 1831 
L 1422 1831 
L 1422 3009 
L 372 2375 
L 191 2681 
L 1313 3291 
L 191 3897 
L 372 4206 
L 1422 3572 
L 1422 4750 
L 1778 4750 
L 1778 3572 
L 2828 4206 
L 3009 3897 
z
" transform="scale(0.015625)"/>
     </defs>
     <use xlink:href="#DejaVuSans-2a"/>
     <use xlink:href="#DejaVuSans-2a" x="50"/>
     <use xlink:href="#DejaVuSans-2a" x="100"/>
     <use xlink:href="#DejaVuSans-2a" x="150"/>
    </g>
   </g>
   <g id="text_12">
    <!-- **** -->
    <g transform="translate(363.504946 22.715048) scale(0.12 -0.12)">
     <use xlink:href="#DejaVuSans-2a"/>
     <use xlink:href="#DejaVuSans-2a" x="50"/>
     <use xlink:href="#DejaVuSans-2a" x="100"/>
     <use xlink:href="#DejaVuSans-2a" x="150"/>
    </g>
   </g>
   <g id="text_13">
    <!-- *** -->
    <g transform="translate(489.42526 16.318125) scale(0.12 -0.12)">
     <use xlink:href="#DejaVuSans-2a"/>
     <use xlink:href="#DejaVuSans-2a" x="50"/>
     <use xlink:href="#DejaVuSans-2a" x="100"/>
    </g>
   </g>
   <g id="text_14">
    <!-- FDT I(tmax, 0) Parcells -->
    <g transform="translate(284.633813 2881.827382) scale(0.168 -0.168)">
     <defs>
      <path id="DejaVuSans-46" d="M 628 4666 
L 3309 4666 
L 3309 4134 
L 1259 4134 
L 1259 2759 
L 3109 2759 
L 3109 2228 
L 1259 2228 
L 1259 0 
L 628 0 
L 628 4666 
z
" transform="scale(0.015625)"/>
      <path id="DejaVuSans-44" d="M 1259 4147 
L 1259 519 
L 2022 519 
Q 2988 519 3436 956 
Q 3884 1394 3884 2338 
Q 3884 3275 3436 3711 
Q 2988 4147 2022 4147 
L 1259 4147 
z
M 628 4666 
L 1925 4666 
Q 3281 4666 3915 4102 
Q 4550 3538 4550 2338 
Q 4550 1131 3912 565 
Q 3275 0 1925 0 
L 628 0 
L 628 4666 
z
" transform="scale(0.015625)"/>
      <path id="DejaVuSans-54" d="M -19 4666 
L 3928 4666 
L 3928 4134 
L 2272 4134 
L 2272 0 
L 1638 0 
L 1638 4134 
L -19 4134 
L -19 4666 
z
" transform="scale(0.015625)"/>
     </defs>
     <use xlink:href="#DejaVuSans-46"/>
     <use xlink:href="#DejaVuSans-44" x="57.519531"/>
     <use xlink:href="#DejaVuSans-54" x="134.521484"/>
     <use xlink:href="#DejaVuSans-20" x="195.605469"/>
     <use xlink:href="#DejaVuSans-49" x="227.392578"/>
     <use xlink:href="#DejaVuSans-28" x="256.884766"/>
     <use xlink:href="#DejaVuSans-74" x="295.898438"/>
     <use xlink:href="#DejaVuSans-6d" x="335.107422"/>
     <use xlink:href="#DejaVuSans-61" x="432.519531"/>
     <use xlink:href="#DejaVuSans-78" x="493.798828"/>
     <use xlink:href="#DejaVuSans-2c" x="552.978516"/>
     <use xlink:href="#DejaVuSans-20" x="584.765625"/>
     <use xlink:href="#DejaVuSans-30" x="616.552734"/>
     <use xlink:href="#DejaVuSans-29" x="680.175781"/>
     <use xlink:href="#DejaVuSans-20" x="719.189453"/>
     <use xlink:href="#DejaVuSans-50" x="750.976562"/>
     <use xlink:href="#DejaVuSans-61" x="806.779297"/>
     <use xlink:href="#DejaVuSans-72" x="868.058594"/>
     <use xlink:href="#DejaVuSans-63" x="906.921875"/>
     <use xlink:href="#DejaVuSans-65" x="961.902344"/>
     <use xlink:href="#DejaVuSans-6c" x="1023.425781"/>
     <use xlink:href="#DejaVuSans-6c" x="1051.208984"/>
     <use xlink:href="#DejaVuSans-73" x="1078.992188"/>
    </g>
   </g>
   <g id="legend_1">
    <g id="patch_10">
     <path d="M 111.423063 2991.91957 
L 189.286906 2991.91957 
Q 192.366906 2991.91957 192.366906 2988.83957 
L 192.366906 2898.607382 
Q 192.366906 2895.527382 189.286906 2895.527382 
L 111.423063 2895.527382 
Q 108.343063 2895.527382 108.343063 2898.607382 
L 108.343063 2988.83957 
Q 108.343063 2991.91957 111.423063 2991.91957 
z
" style="fill: #ffffff; opacity: 0.8; stroke: #cccccc; stroke-linejoin: miter"/>
    </g>
    <g id="text_15">
     <!-- cond -->
     <g transform="translate(129.940359 2914.452757) scale(0.168 -0.168)">
      <defs>
       <path id="DejaVuSans-64" d="M 2906 2969 
L 2906 4863 
L 3481 4863 
L 3481 0 
L 2906 0 
L 2906 525 
Q 2725 213 2448 61 
Q 2172 -91 1784 -91 
Q 1150 -91 751 415 
Q 353 922 353 1747 
Q 353 2572 751 3078 
Q 1150 3584 1784 3584 
Q 2172 3584 2448 3432 
Q 2725 3281 2906 2969 
z
M 947 1747 
Q 947 1113 1208 752 
Q 1469 391 1925 391 
Q 2381 391 2643 752 
Q 2906 1113 2906 1747 
Q 2906 2381 2643 2742 
Q 2381 3103 1925 3103 
Q 1469 3103 1208 2742 
Q 947 2381 947 1747 
z
" transform="scale(0.015625)"/>
      </defs>
      <use xlink:href="#DejaVuSans-63"/>
      <use xlink:href="#DejaVuSans-6f" x="54.980469"/>
      <use xlink:href="#DejaVuSans-6e" x="116.162109"/>
      <use xlink:href="#DejaVuSans-64" x="179.541016"/>
     </g>
    </g>
    <g id="patch_11">
     <path d="M 114.503063 2937.348226 
L 145.303063 2937.348226 
L 145.303063 2926.568226 
L 114.503063 2926.568226 
z
" style="fill: #cbd5e8; stroke: #7a7a7a; stroke-width: 0.75; stroke-linejoin: miter"/>
    </g>
    <g id="text_16">
     <!-- AD -->
     <g transform="translate(157.623063 2937.348226) scale(0.154 -0.154)">
      <use xlink:href="#DejaVuSans-41"/>
      <use xlink:href="#DejaVuSans-44" x="68.408203"/>
     </g>
    </g>
    <g id="patch_12">
     <path d="M 114.503063 2959.952539 
L 145.303063 2959.952539 
L 145.303063 2949.172539 
L 114.503063 2949.172539 
z
" style="fill: #fdcdac; stroke: #7a7a7a; stroke-width: 0.75; stroke-linejoin: miter"/>
    </g>
    <g id="text_17">
     <!-- MCI -->
     <g transform="translate(157.623063 2959.952539) scale(0.154 -0.154)">
      <use xlink:href="#DejaVuSans-4d"/>
      <use xlink:href="#DejaVuSans-43" x="86.279297"/>
      <use xlink:href="#DejaVuSans-49" x="156.103516"/>
     </g>
    </g>
    <g id="patch_13">
     <path d="M 114.503063 2982.556851 
L 145.303063 2982.556851 
L 145.303063 2971.776851 
L 114.503063 2971.776851 
z
" style="fill: #b3e2cd; stroke: #7a7a7a; stroke-width: 0.75; stroke-linejoin: miter"/>
    </g>
    <g id="text_18">
     <!-- HC -->
     <g transform="translate(157.623063 2982.556851) scale(0.154 -0.154)">
      <use xlink:href="#DejaVuSans-48"/>
      <use xlink:href="#DejaVuSans-43" x="75.195312"/>
     </g>
    </g>
   </g>
  </g>
 </g>
 <defs>
  <clipPath id="p02c24d06e6">
   <rect x="100.643063" y="2887.827382" width="558" height="554.4"/>
  </clipPath>
 </defs>
</svg>
