<?xml version="1.0" encoding="utf-8" standalone="no"?>
<!DOCTYPE svg PUBLIC "-//W3C//DTD SVG 1.1//EN"
  "http://www.w3.org/Graphics/SVG/1.1/DTD/svg11.dtd">
<svg xmlns:xlink="http://www.w3.org/1999/xlink" width="652.212984pt" height="611.969687pt" viewBox="0 0 652.212984 611.969687" xmlns="http://www.w3.org/2000/svg" version="1.1">
 <metadata>
  <rdf:RDF xmlns:dc="http://purl.org/dc/elements/1.1/" xmlns:cc="http://creativecommons.org/ns#" xmlns:rdf="http://www.w3.org/1999/02/22-rdf-syntax-ns#">
   <cc:Work>
    <dc:type rdf:resource="http://purl.org/dc/dcmitype/StillImage"/>
    <dc:date>2025-06-03T11:08:13.043251</dc:date>
    <dc:format>image/svg+xml</dc:format>
    <dc:creator>
     <cc:Agent>
      <dc:title>Matplotlib v3.7.2, https://matplotlib.org/</dc:title>
     </cc:Agent>
    </dc:creator>
   </cc:Work>
  </rdf:RDF>
 </metadata>
 <defs>
  <style type="text/css">*{stroke-linejoin: round; stroke-linecap: butt}</style>
 </defs>
 <g id="figure_1">
  <g id="patch_1">
   <path d="M 0 611.969687 
L 652.212984 611.969687 
L 652.212984 -0 
L 0 -0 
z
" style="fill: #ffffff"/>
  </g>
  <g id="axes_1">
   <g id="patch_2">
    <path d="M 71.248313 580.365375 
L 629.248312 580.365375 
L 629.248312 25.965375 
L 71.248313 25.965375 
z
" style="fill: #ffffff"/>
   </g>
   <g id="patch_3">
    <path d="M 100.099416 544.910447 
L 100.099416 544.910447 
L 100.099416 544.910447 
L 100.099416 544.910447 
z
" clip-path="url(#pdbc68b86b0)" style="fill: #b3e2cd; stroke: #7a7a7a; stroke-width: 0.75; stroke-linejoin: miter"/>
   </g>
   <g id="PolyCollection_1">
    <defs>
     <path id="mf9dbf15a8b" d="M 105.998171 -53.261222 
L 94.20066 -53.261222 
L 92.629002 -58.825893 
L 90.738815 -64.390563 
L 88.494154 -69.955234 
L 85.862489 -75.519904 
L 82.81693 -81.084574 
L 79.338615 -86.649245 
L 75.41915 -92.213915 
L 71.062928 -97.778585 
L 66.28917 -103.343256 
L 61.133505 -108.907926 
L 55.6489 -114.472597 
L 49.905802 -120.037267 
L 43.991367 -125.601937 
L 38.00772 -131.166608 
L 32.069236 -136.731278 
L 26.298927 -142.295949 
L 20.824077 -147.860619 
L 15.771328 -153.425289 
L 11.261489 -158.98996 
L 7.404373 -164.55463 
L 4.293962 -170.1193 
L 2.004215 -175.683971 
L 0.585788 -181.248641 
L 0.063861 -186.813312 
L 0.437232 -192.377982 
L 1.678698 -197.942652 
L 3.736715 -203.507323 
L 6.538178 -209.071993 
L 9.99216 -214.636664 
L 13.994313 -220.201334 
L 18.431682 -225.766004 
L 23.187602 -231.330675 
L 28.146402 -236.895345 
L 33.197664 -242.460015 
L 38.239824 -248.024686 
L 43.182984 -253.589356 
L 47.950855 -259.154027 
L 52.481822 -264.718697 
L 56.72919 -270.283367 
L 60.660708 -275.848038 
L 64.257506 -281.412708 
L 67.512614 -286.977379 
L 70.429208 -292.542049 
L 73.018743 -298.106719 
L 75.299104 -303.67139 
L 77.292865 -309.23606 
L 79.025738 -314.80073 
L 80.52524 -320.365401 
L 81.819581 -325.930071 
L 82.936765 -331.494742 
L 83.903872 -337.059412 
L 84.746476 -342.624082 
L 85.488172 -348.188753 
L 86.150183 -353.753423 
L 86.751015 -359.318094 
L 87.306186 -364.882764 
L 87.828009 -370.447434 
L 88.325459 -376.012105 
L 88.804155 -381.576775 
L 89.266468 -387.141445 
L 89.711775 -392.706116 
L 90.136871 -398.270786 
L 90.536531 -403.835457 
L 90.904189 -409.400127 
L 91.232721 -414.964797 
L 91.515259 -420.529468 
L 91.745995 -426.094138 
L 91.920916 -431.658809 
L 92.038405 -437.223479 
L 92.099664 -442.788149 
L 92.108929 -448.35282 
L 92.073443 -453.91749 
L 92.003203 -459.482161 
L 91.910486 -465.046831 
L 91.809193 -470.611501 
L 91.714065 -476.176172 
L 91.639821 -481.740842 
L 91.600296 -487.305512 
L 91.607635 -492.870183 
L 91.671602 -498.434853 
L 91.799058 -503.999524 
L 91.993637 -509.564194 
L 92.255636 -515.128864 
L 92.582121 -520.693535 
L 92.967231 -526.258205 
L 93.402642 -531.822876 
L 93.878155 -537.387546 
L 94.382353 -542.952216 
L 94.903279 -548.516887 
L 95.429084 -554.081557 
L 95.948607 -559.646227 
L 96.45185 -565.210898 
L 96.930331 -570.775568 
L 97.377308 -576.340239 
L 97.78787 -581.904909 
L 98.158916 -587.469579 
L 98.489032 -593.03425 
L 98.778293 -598.59892 
L 99.028021 -604.163591 
L 101.17081 -604.163591 
L 101.17081 -604.163591 
L 101.420538 -598.59892 
L 101.709799 -593.03425 
L 102.039915 -587.469579 
L 102.410961 -581.904909 
L 102.821523 -576.340239 
L 103.2685 -570.775568 
L 103.746981 -565.210898 
L 104.250224 -559.646227 
L 104.769747 -554.081557 
L 105.295552 -548.516887 
L 105.816478 -542.952216 
L 106.320676 -537.387546 
L 106.796189 -531.822876 
L 107.2316 -526.258205 
L 107.61671 -520.693535 
L 107.943195 -515.128864 
L 108.205194 -509.564194 
L 108.399773 -503.999524 
L 108.527229 -498.434853 
L 108.591196 -492.870183 
L 108.598535 -487.305512 
L 108.55901 -481.740842 
L 108.484766 -476.176172 
L 108.389638 -470.611501 
L 108.288345 -465.046831 
L 108.195628 -459.482161 
L 108.125388 -453.91749 
L 108.089902 -448.35282 
L 108.099167 -442.788149 
L 108.160426 -437.223479 
L 108.277915 -431.658809 
L 108.452836 -426.094138 
L 108.683572 -420.529468 
L 108.96611 -414.964797 
L 109.294642 -409.400127 
L 109.6623 -403.835457 
L 110.06196 -398.270786 
L 110.487056 -392.706116 
L 110.932363 -387.141445 
L 111.394676 -381.576775 
L 111.873372 -376.012105 
L 112.370822 -370.447434 
L 112.892645 -364.882764 
L 113.447816 -359.318094 
L 114.048648 -353.753423 
L 114.710659 -348.188753 
L 115.452355 -342.624082 
L 116.29496 -337.059412 
L 117.262066 -331.494742 
L 118.37925 -325.930071 
L 119.673591 -320.365401 
L 121.173093 -314.80073 
L 122.905966 -309.23606 
L 124.899727 -303.67139 
L 127.180088 -298.106719 
L 129.769623 -292.542049 
L 132.686217 -286.977379 
L 135.941325 -281.412708 
L 139.538123 -275.848038 
L 143.469641 -270.283367 
L 147.717009 -264.718697 
L 152.247976 -259.154027 
L 157.015847 -253.589356 
L 161.959007 -248.024686 
L 167.001167 -242.460015 
L 172.052429 -236.895345 
L 177.011229 -231.330675 
L 181.767149 -225.766004 
L 186.204518 -220.201334 
L 190.206671 -214.636664 
L 193.660653 -209.071993 
L 196.462117 -203.507323 
L 198.520133 -197.942652 
L 199.761599 -192.377982 
L 200.13497 -186.813312 
L 199.613043 -181.248641 
L 198.194616 -175.683971 
L 195.904869 -170.1193 
L 192.794458 -164.55463 
L 188.937342 -158.98996 
L 184.427503 -153.425289 
L 179.374754 -147.860619 
L 173.899904 -142.295949 
L 168.129595 -136.731278 
L 162.191111 -131.166608 
L 156.207464 -125.601937 
L 150.293029 -120.037267 
L 144.549931 -114.472597 
L 139.065326 -108.907926 
L 133.909661 -103.343256 
L 129.135903 -97.778585 
L 124.779681 -92.213915 
L 120.860216 -86.649245 
L 117.381901 -81.084574 
L 114.336342 -75.519904 
L 111.704677 -69.955234 
L 109.460016 -64.390563 
L 107.569829 -58.825893 
L 105.998171 -53.261222 
z
" style="stroke: #7a7a7a; stroke-width: 1.5"/>
    </defs>
    <g clip-path="url(#pdbc68b86b0)">
     <use xlink:href="#mf9dbf15a8b" x="0" y="611.969687" style="fill: #b3e2cd; stroke: #7a7a7a; stroke-width: 1.5"/>
    </g>
   </g>
   <g id="patch_4">
    <path d="M 100.099416 544.910447 
L 100.099416 544.910447 
L 100.099416 544.910447 
L 100.099416 544.910447 
z
" clip-path="url(#pdbc68b86b0)" style="fill: #fdcdac; stroke: #7a7a7a; stroke-width: 0.75; stroke-linejoin: miter"/>
   </g>
   <g id="patch_5">
    <path d="M 100.099416 544.910447 
L 100.099416 544.910447 
L 100.099416 544.910447 
L 100.099416 544.910447 
z
" clip-path="url(#pdbc68b86b0)" style="fill: #cbd5e8; stroke: #7a7a7a; stroke-width: 0.75; stroke-linejoin: miter"/>
   </g>
   <g id="PolyCollection_2">
    <defs>
     <path id="m6bb3015350" d="M 356.406499 -54.016172 
L 343.970104 -54.016172 
L 342.746611 -55.772833 
L 341.337666 -57.529493 
L 339.727162 -59.286153 
L 337.900007 -61.042814 
L 335.842691 -62.799474 
L 333.543895 -64.556134 
L 330.995117 -66.312794 
L 328.191313 -68.069455 
L 325.131512 -69.826115 
L 321.819387 -71.582775 
L 318.263747 -73.339436 
L 314.478931 -75.096096 
L 310.485065 -76.852756 
L 306.308172 -78.609417 
L 301.980093 -80.366077 
L 297.538235 -82.122737 
L 293.025107 -83.879398 
L 288.487671 -85.636058 
L 283.976499 -87.392718 
L 279.544773 -89.149378 
L 275.247135 -90.906039 
L 271.138444 -92.662699 
L 267.272458 -94.419359 
L 263.700515 -96.17602 
L 260.470232 -97.93268 
L 257.624294 -99.68934 
L 255.19936 -101.446001 
L 253.225147 -103.202661 
L 251.723704 -104.959321 
L 250.708916 -106.715982 
L 250.186251 -108.472642 
L 250.152747 -110.229302 
L 250.59724 -111.985962 
L 251.500814 -113.742623 
L 252.837448 -115.499283 
L 254.574826 -117.255943 
L 256.675273 -119.012604 
L 259.096785 -120.769264 
L 261.794091 -122.525924 
L 264.719736 -124.282585 
L 267.825123 -126.039245 
L 271.061507 -127.795905 
L 274.380899 -129.552566 
L 277.73688 -131.309226 
L 281.085295 -133.065886 
L 284.384856 -134.822546 
L 287.597619 -136.579207 
L 290.689379 -138.335867 
L 293.629968 -140.092527 
L 296.393482 -141.849188 
L 298.958441 -143.605848 
L 301.3079 -145.362508 
L 303.429515 -147.119169 
L 305.315566 -148.875829 
L 306.962941 -150.632489 
L 308.37308 -152.38915 
L 309.551873 -154.14581 
L 310.509499 -155.90247 
L 311.260204 -157.65913 
L 311.822007 -159.415791 
L 312.21633 -161.172451 
L 312.467546 -162.929111 
L 312.602447 -164.685772 
L 312.649633 -166.442432 
L 312.638841 -168.199092 
L 312.600222 -169.955753 
L 312.563588 -171.712413 
L 312.557649 -173.469073 
L 312.609277 -175.225734 
L 312.742805 -176.982394 
L 312.979412 -178.739054 
L 313.336591 -180.495714 
L 313.827747 -182.252375 
L 314.461923 -184.009035 
L 315.243675 -185.765695 
L 316.173087 -187.522356 
L 317.245944 -189.279016 
L 318.45403 -191.035676 
L 319.785556 -192.792337 
L 321.225678 -194.548997 
L 322.757106 -196.305657 
L 324.360744 -198.062318 
L 326.016369 -199.818978 
L 327.703294 -201.575638 
L 329.401003 -203.332298 
L 331.089733 -205.088959 
L 332.750984 -206.845619 
L 334.367945 -208.602279 
L 335.92582 -210.35894 
L 337.412064 -212.1156 
L 338.816513 -213.87226 
L 340.131429 -215.628921 
L 341.351451 -217.385581 
L 342.473486 -219.142241 
L 343.496528 -220.898901 
L 344.42144 -222.655562 
L 345.250699 -224.412222 
L 345.988126 -226.168882 
L 346.638614 -227.925543 
L 353.737989 -227.925543 
L 353.737989 -227.925543 
L 354.388476 -226.168882 
L 355.125904 -224.412222 
L 355.955163 -222.655562 
L 356.880075 -220.898901 
L 357.903117 -219.142241 
L 359.025152 -217.385581 
L 360.245174 -215.628921 
L 361.560089 -213.87226 
L 362.964539 -212.1156 
L 364.450783 -210.35894 
L 366.008658 -208.602279 
L 367.625619 -206.845619 
L 369.28687 -205.088959 
L 370.9756 -203.332298 
L 372.673309 -201.575638 
L 374.360234 -199.818978 
L 376.015859 -198.062318 
L 377.619497 -196.305657 
L 379.150924 -194.548997 
L 380.591047 -192.792337 
L 381.922573 -191.035676 
L 383.130659 -189.279016 
L 384.203516 -187.522356 
L 385.132928 -185.765695 
L 385.914679 -184.009035 
L 386.548856 -182.252375 
L 387.040012 -180.495714 
L 387.397191 -178.739054 
L 387.633797 -176.982394 
L 387.767326 -175.225734 
L 387.818954 -173.469073 
L 387.813015 -171.712413 
L 387.776381 -169.955753 
L 387.737762 -168.199092 
L 387.72697 -166.442432 
L 387.774156 -164.685772 
L 387.909056 -162.929111 
L 388.160273 -161.172451 
L 388.554596 -159.415791 
L 389.116399 -157.65913 
L 389.867103 -155.90247 
L 390.824729 -154.14581 
L 392.003523 -152.38915 
L 393.413662 -150.632489 
L 395.061037 -148.875829 
L 396.947087 -147.119169 
L 399.068703 -145.362508 
L 401.418162 -143.605848 
L 403.983121 -141.849188 
L 406.746635 -140.092527 
L 409.687224 -138.335867 
L 412.778984 -136.579207 
L 415.991747 -134.822546 
L 419.291307 -133.065886 
L 422.639723 -131.309226 
L 425.995703 -129.552566 
L 429.315096 -127.795905 
L 432.55148 -126.039245 
L 435.656867 -124.282585 
L 438.582511 -122.525924 
L 441.279817 -120.769264 
L 443.701329 -119.012604 
L 445.801777 -117.255943 
L 447.539154 -115.499283 
L 448.875788 -113.742623 
L 449.779363 -111.985962 
L 450.223856 -110.229302 
L 450.190352 -108.472642 
L 449.667687 -106.715982 
L 448.652899 -104.959321 
L 447.151455 -103.202661 
L 445.177243 -101.446001 
L 442.752309 -99.68934 
L 439.90637 -97.93268 
L 436.676088 -96.17602 
L 433.104145 -94.419359 
L 429.238159 -92.662699 
L 425.129467 -90.906039 
L 420.831829 -89.149378 
L 416.400103 -87.392718 
L 411.888932 -85.636058 
L 407.351495 -83.879398 
L 402.838368 -82.122737 
L 398.39651 -80.366077 
L 394.068431 -78.609417 
L 389.891537 -76.852756 
L 385.897672 -75.096096 
L 382.112856 -73.339436 
L 378.557216 -71.582775 
L 375.245091 -69.826115 
L 372.18529 -68.069455 
L 369.381486 -66.312794 
L 366.832708 -64.556134 
L 364.533911 -62.799474 
L 362.476596 -61.042814 
L 360.649441 -59.286153 
L 359.038937 -57.529493 
L 357.629992 -55.772833 
L 356.406499 -54.016172 
z
" style="stroke: #7a7a7a; stroke-width: 1.5"/>
    </defs>
    <g clip-path="url(#pdbc68b86b0)">
     <use xlink:href="#m6bb3015350" x="0" y="611.969687" style="fill: #fdcdac; stroke: #7a7a7a; stroke-width: 1.5"/>
    </g>
   </g>
   <g id="PolyCollection_3">
    <defs>
     <path id="m9a09c806e9" d="M 604.687056 -51.288195 
L 595.867319 -51.288195 
L 594.878443 -52.328638 
L 593.715904 -53.369082 
L 592.360765 -54.409525 
L 590.79455 -55.449968 
L 588.999859 -56.490412 
L 586.961062 -57.530855 
L 584.665032 -58.571299 
L 582.101915 -59.611742 
L 579.265886 -60.652185 
L 576.155872 -61.692629 
L 572.776195 -62.733072 
L 569.137112 -63.773515 
L 565.255195 -64.813959 
L 561.153542 -65.854402 
L 556.861775 -66.894846 
L 552.41582 -67.935289 
L 547.857452 -68.975732 
L 543.23361 -70.016176 
L 538.5955 -71.056619 
L 533.997503 -72.097062 
L 529.495926 -73.137506 
L 525.147645 -74.177949 
L 521.008675 -75.218393 
L 517.132731 -76.258836 
L 513.569832 -77.299279 
L 510.364992 -78.339723 
L 507.557059 -79.380166 
L 505.177725 -80.420609 
L 503.250756 -81.461053 
L 501.791459 -82.501496 
L 500.806399 -83.54194 
L 500.293372 -84.582383 
L 500.241633 -85.622826 
L 500.632365 -86.66327 
L 501.439369 -87.703713 
L 502.629955 -88.744156 
L 504.165988 -89.7846 
L 506.005083 -90.825043 
L 508.101876 -91.865487 
L 510.409356 -92.90593 
L 512.880205 -93.946373 
L 515.468097 -94.986817 
L 518.128922 -96.02726 
L 520.821882 -97.067703 
L 523.510427 -98.108147 
L 526.162995 -99.14859 
L 528.75353 -100.189034 
L 531.261755 -101.229477 
L 533.673202 -102.26992 
L 535.979003 -103.310364 
L 538.175455 -104.350807 
L 540.263396 -105.39125 
L 542.247429 -106.431694 
L 544.135047 -107.472137 
L 545.935711 -108.512581 
L 547.659935 -109.553024 
L 549.318446 -110.593467 
L 550.921445 -111.633911 
L 552.47803 -112.674354 
L 553.995787 -113.714797 
L 555.48058 -114.755241 
L 556.936518 -115.795684 
L 558.366099 -116.836128 
L 559.770486 -117.876571 
L 561.149885 -118.917014 
L 562.503982 -119.957458 
L 563.832384 -120.997901 
L 565.13502 -122.038344 
L 566.412473 -123.078788 
L 567.666203 -124.119231 
L 568.898649 -125.159675 
L 570.113196 -126.200118 
L 571.314024 -127.240561 
L 572.505851 -128.281005 
L 573.693592 -129.321448 
L 574.881977 -130.361892 
L 576.075149 -131.402335 
L 577.276299 -132.442778 
L 578.48734 -133.483222 
L 579.70868 -134.523665 
L 580.939078 -135.564108 
L 582.175625 -136.604552 
L 583.413823 -137.644995 
L 584.647764 -138.685439 
L 585.870405 -139.725882 
L 587.073894 -140.766325 
L 588.249943 -141.806769 
L 589.390209 -142.847212 
L 590.486666 -143.887655 
L 591.531944 -144.928099 
L 592.519616 -145.968542 
L 593.444416 -147.008986 
L 594.302396 -148.049429 
L 595.090996 -149.089872 
L 595.809053 -150.130316 
L 596.456743 -151.170759 
L 597.035475 -152.211202 
L 597.54773 -153.251646 
L 597.996889 -154.292089 
L 602.557485 -154.292089 
L 602.557485 -154.292089 
L 603.006645 -153.251646 
L 603.5189 -152.211202 
L 604.097631 -151.170759 
L 604.745322 -150.130316 
L 605.463378 -149.089872 
L 606.251978 -148.049429 
L 607.109958 -147.008986 
L 608.034759 -145.968542 
L 609.02243 -144.928099 
L 610.067708 -143.887655 
L 611.164165 -142.847212 
L 612.304431 -141.806769 
L 613.48048 -140.766325 
L 614.683969 -139.725882 
L 615.906611 -138.685439 
L 617.140552 -137.644995 
L 618.378749 -136.604552 
L 619.615296 -135.564108 
L 620.845695 -134.523665 
L 622.067034 -133.483222 
L 623.278075 -132.442778 
L 624.479225 -131.402335 
L 625.672398 -130.361892 
L 626.860782 -129.321448 
L 628.048523 -128.281005 
L 629.24035 -127.240561 
L 630.441178 -126.200118 
L 631.655725 -125.159675 
L 632.888171 -124.119231 
L 634.141901 -123.078788 
L 635.419355 -122.038344 
L 636.72199 -120.997901 
L 638.050392 -119.957458 
L 639.40449 -118.917014 
L 640.783889 -117.876571 
L 642.188275 -116.836128 
L 643.617856 -115.795684 
L 645.073794 -114.755241 
L 646.558587 -113.714797 
L 648.076344 -112.674354 
L 649.632929 -111.633911 
L 651.235928 -110.593467 
L 652.894439 -109.553024 
L 654.618664 -108.512581 
L 656.419327 -107.472137 
L 658.306945 -106.431694 
L 660.290979 -105.39125 
L 662.378919 -104.350807 
L 664.575371 -103.310364 
L 666.881172 -102.26992 
L 669.292619 -101.229477 
L 671.800844 -100.189034 
L 674.391379 -99.14859 
L 677.043948 -98.108147 
L 679.732492 -97.067703 
L 682.425452 -96.02726 
L 685.086277 -94.986817 
L 687.674169 -93.946373 
L 690.145018 -92.90593 
L 692.452498 -91.865487 
L 694.549291 -90.825043 
L 696.388386 -89.7846 
L 697.92442 -88.744156 
L 699.115005 -87.703713 
L 699.92201 -86.66327 
L 700.312741 -85.622826 
L 700.261002 -84.582383 
L 699.747975 -83.54194 
L 698.762915 -82.501496 
L 697.303618 -81.461053 
L 695.37665 -80.420609 
L 692.997315 -79.380166 
L 690.189382 -78.339723 
L 686.984542 -77.299279 
L 683.421643 -76.258836 
L 679.545699 -75.218393 
L 675.406729 -74.177949 
L 671.058448 -73.137506 
L 666.556872 -72.097062 
L 661.958874 -71.056619 
L 657.320764 -70.016176 
L 652.696922 -68.975732 
L 648.138554 -67.935289 
L 643.692599 -66.894846 
L 639.400832 -65.854402 
L 635.299179 -64.813959 
L 631.417262 -63.773515 
L 627.778179 -62.733072 
L 624.398502 -61.692629 
L 621.288488 -60.652185 
L 618.452459 -59.611742 
L 615.889342 -58.571299 
L 613.593313 -57.530855 
L 611.554515 -56.490412 
L 609.759824 -55.449968 
L 608.193609 -54.409525 
L 606.83847 -53.369082 
L 605.675931 -52.328638 
L 604.687056 -51.288195 
z
" style="stroke: #7a7a7a; stroke-width: 1.5"/>
    </defs>
    <g clip-path="url(#pdbc68b86b0)">
     <use xlink:href="#m9a09c806e9" x="0" y="611.969687" style="fill: #cbd5e8; stroke: #7a7a7a; stroke-width: 1.5"/>
    </g>
   </g>
   <g id="PathCollection_1">
    <defs>
     <path id="C0_0_2ef6c9b2ae" d="M 0 2.5 
C 0.663008 2.5 1.29895 2.236584 1.767767 1.767767 
C 2.236584 1.29895 2.5 0.663008 2.5 -0 
C 2.5 -0.663008 2.236584 -1.29895 1.767767 -1.767767 
C 1.29895 -2.236584 0.663008 -2.5 0 -2.5 
C -0.663008 -2.5 -1.29895 -2.236584 -1.767767 -1.767767 
C -2.236584 -1.29895 -2.5 -0.663008 -2.5 0 
C -2.5 0.663008 -2.236584 1.29895 -1.767767 1.767767 
C -1.29895 2.236584 -0.663008 2.5 0 2.5 
z
"/>
    </defs>
    <g clip-path="url(#pdbc68b86b0)">
     <use xlink:href="#C0_0_2ef6c9b2ae" x="100.099416" y="419.693231" style="fill: #1b9e77"/>
    </g>
    <g clip-path="url(#pdbc68b86b0)">
     <use xlink:href="#C0_0_2ef6c9b2ae" x="97.259896" y="426.089403" style="fill: #1b9e77"/>
    </g>
    <g clip-path="url(#pdbc68b86b0)">
     <use xlink:href="#C0_0_2ef6c9b2ae" x="100.099416" y="111.257683" style="fill: #1b9e77"/>
    </g>
    <g clip-path="url(#pdbc68b86b0)">
     <use xlink:href="#C0_0_2ef6c9b2ae" x="100.099416" y="442.296623" style="fill: #1b9e77"/>
    </g>
    <g clip-path="url(#pdbc68b86b0)">
     <use xlink:href="#C0_0_2ef6c9b2ae" x="100.099416" y="311.048199" style="fill: #1b9e77"/>
    </g>
    <g clip-path="url(#pdbc68b86b0)">
     <use xlink:href="#C0_0_2ef6c9b2ae" x="101.002947" y="449.483556" style="fill: #1b9e77"/>
    </g>
    <g clip-path="url(#pdbc68b86b0)">
     <use xlink:href="#C0_0_2ef6c9b2ae" x="100.099416" y="398.264331" style="fill: #1b9e77"/>
    </g>
    <g clip-path="url(#pdbc68b86b0)">
     <use xlink:href="#C0_0_2ef6c9b2ae" x="102.442302" y="425.289643" style="fill: #1b9e77"/>
    </g>
    <g clip-path="url(#pdbc68b86b0)">
     <use xlink:href="#C0_0_2ef6c9b2ae" x="100.099416" y="430.294963" style="fill: #1b9e77"/>
    </g>
    <g clip-path="url(#pdbc68b86b0)">
     <use xlink:href="#C0_0_2ef6c9b2ae" x="106.250702" y="449.337352" style="fill: #1b9e77"/>
    </g>
    <g clip-path="url(#pdbc68b86b0)">
     <use xlink:href="#C0_0_2ef6c9b2ae" x="100.099416" y="455.256879" style="fill: #1b9e77"/>
    </g>
    <g clip-path="url(#pdbc68b86b0)">
     <use xlink:href="#C0_0_2ef6c9b2ae" x="96.334955" y="451.77172" style="fill: #1b9e77"/>
    </g>
    <g clip-path="url(#pdbc68b86b0)">
     <use xlink:href="#C0_0_2ef6c9b2ae" x="100.099416" y="234.343513" style="fill: #1b9e77"/>
    </g>
    <g clip-path="url(#pdbc68b86b0)">
     <use xlink:href="#C0_0_2ef6c9b2ae" x="100.099416" y="414.272477" style="fill: #1b9e77"/>
    </g>
    <g clip-path="url(#pdbc68b86b0)">
     <use xlink:href="#C0_0_2ef6c9b2ae" x="100.099416" y="359.804752" style="fill: #1b9e77"/>
    </g>
    <g clip-path="url(#pdbc68b86b0)">
     <use xlink:href="#C0_0_2ef6c9b2ae" x="97.107131" y="410.164111" style="fill: #1b9e77"/>
    </g>
    <g clip-path="url(#pdbc68b86b0)">
     <use xlink:href="#C0_0_2ef6c9b2ae" x="96.00244" y="395.137779" style="fill: #1b9e77"/>
    </g>
   </g>
   <g id="PathCollection_2">
    <defs>
     <path id="C1_0_bdb3fe33c2" d="M 0 2.5 
C 0.663008 2.5 1.29895 2.236584 1.767767 1.767767 
C 2.236584 1.29895 2.5 0.663008 2.5 -0 
C 2.5 -0.663008 2.236584 -1.29895 1.767767 -1.767767 
C 1.29895 -2.236584 0.663008 -2.5 0 -2.5 
C -0.663008 -2.5 -1.29895 -2.236584 -1.767767 -1.767767 
C -2.236584 -1.29895 -2.5 -0.663008 -2.5 0 
C -2.5 0.663008 -2.236584 1.29895 -1.767767 1.767767 
C -1.29895 2.236584 -0.663008 2.5 0 2.5 
z
"/>
    </defs>
    <g clip-path="url(#pdbc68b86b0)">
     <use xlink:href="#C1_0_bdb3fe33c2" x="352.412738" y="508.50865" style="fill: #d95f02"/>
    </g>
    <g clip-path="url(#pdbc68b86b0)">
     <use xlink:href="#C1_0_bdb3fe33c2" x="350.188301" y="514.925046" style="fill: #d95f02"/>
    </g>
    <g clip-path="url(#pdbc68b86b0)">
     <use xlink:href="#C1_0_bdb3fe33c2" x="350.188301" y="472.008355" style="fill: #d95f02"/>
    </g>
    <g clip-path="url(#pdbc68b86b0)">
     <use xlink:href="#C1_0_bdb3fe33c2" x="344.938429" y="501.939219" style="fill: #d95f02"/>
    </g>
    <g clip-path="url(#pdbc68b86b0)">
     <use xlink:href="#C1_0_bdb3fe33c2" x="347.625516" y="510.561246" style="fill: #d95f02"/>
    </g>
    <g clip-path="url(#pdbc68b86b0)">
     <use xlink:href="#C1_0_bdb3fe33c2" x="350.188301" y="501.974063" style="fill: #d95f02"/>
    </g>
    <g clip-path="url(#pdbc68b86b0)">
     <use xlink:href="#C1_0_bdb3fe33c2" x="350.188301" y="433.007761" style="fill: #d95f02"/>
    </g>
    <g clip-path="url(#pdbc68b86b0)">
     <use xlink:href="#C1_0_bdb3fe33c2" x="350.188301" y="427.072614" style="fill: #d95f02"/>
    </g>
    <g clip-path="url(#pdbc68b86b0)">
     <use xlink:href="#C1_0_bdb3fe33c2" x="350.188301" y="489.133209" style="fill: #d95f02"/>
    </g>
   </g>
   <g id="PathCollection_3">
    <defs>
     <path id="C2_0_53823b220a" d="M 0 2.5 
C 0.663008 2.5 1.29895 2.236584 1.767767 1.767767 
C 2.236584 1.29895 2.5 0.663008 2.5 -0 
C 2.5 -0.663008 2.236584 -1.29895 1.767767 -1.767767 
C 1.29895 -2.236584 0.663008 -2.5 0 -2.5 
C -0.663008 -2.5 -1.29895 -2.236584 -1.767767 -1.767767 
C -2.236584 -1.29895 -2.5 -0.663008 -2.5 0 
C -2.5 0.663008 -2.236584 1.29895 -1.767767 1.767767 
C -1.29895 2.236584 -0.663008 2.5 0 2.5 
z
"/>
    </defs>
    <g clip-path="url(#pdbc68b86b0)">
     <use xlink:href="#C2_0_53823b220a" x="597.509771" y="533.470288" style="fill: #7570b3"/>
    </g>
    <g clip-path="url(#pdbc68b86b0)">
     <use xlink:href="#C2_0_53823b220a" x="601.745958" y="530.516799" style="fill: #7570b3"/>
    </g>
    <g clip-path="url(#pdbc68b86b0)">
     <use xlink:href="#C2_0_53823b220a" x="600.277187" y="503.093008" style="fill: #7570b3"/>
    </g>
    <g clip-path="url(#pdbc68b86b0)">
     <use xlink:href="#C2_0_53823b220a" x="606.995274" y="530.436064" style="fill: #7570b3"/>
    </g>
    <g clip-path="url(#pdbc68b86b0)">
     <use xlink:href="#C2_0_53823b220a" x="598.893387" y="498.269822" style="fill: #7570b3"/>
    </g>
    <g clip-path="url(#pdbc68b86b0)">
     <use xlink:href="#C2_0_53823b220a" x="595.708507" y="520.713611" style="fill: #7570b3"/>
    </g>
    <g clip-path="url(#pdbc68b86b0)">
     <use xlink:href="#C2_0_53823b220a" x="600.277187" y="537.719221" style="fill: #7570b3"/>
    </g>
    <g clip-path="url(#pdbc68b86b0)">
     <use xlink:href="#C2_0_53823b220a" x="600.277187" y="516.632448" style="fill: #7570b3"/>
    </g>
    <g clip-path="url(#pdbc68b86b0)">
     <use xlink:href="#C2_0_53823b220a" x="600.277187" y="523.176886" style="fill: #7570b3"/>
    </g>
    <g clip-path="url(#pdbc68b86b0)">
     <use xlink:href="#C2_0_53823b220a" x="600.277187" y="480.63987" style="fill: #7570b3"/>
    </g>
   </g>
   <g id="matplotlib.axis_1">
    <g id="xtick_1">
     <g id="line2d_1">
      <defs>
       <path id="m2eedea03e0" d="M 0 0 
L 0 6 
" style="stroke: #000000; stroke-width: 1.25"/>
      </defs>
      <g>
       <use xlink:href="#m2eedea03e0" x="100.099416" y="580.365375" style="stroke: #000000; stroke-width: 1.25"/>
      </g>
     </g>
     <g id="text_1">
      <!-- Healthy Controls -->
      <g transform="translate(35.969244 601.566969) scale(0.154 -0.154)">
       <defs>
        <path id="DejaVuSans-48" d="M 628 4666 
L 1259 4666 
L 1259 2753 
L 3553 2753 
L 3553 4666 
L 4184 4666 
L 4184 0 
L 3553 0 
L 3553 2222 
L 1259 2222 
L 1259 0 
L 628 0 
L 628 4666 
z
" transform="scale(0.015625)"/>
        <path id="DejaVuSans-65" d="M 3597 1894 
L 3597 1613 
L 953 1613 
Q 991 1019 1311 708 
Q 1631 397 2203 397 
Q 2534 397 2845 478 
Q 3156 559 3463 722 
L 3463 178 
Q 3153 47 2828 -22 
Q 2503 -91 2169 -91 
Q 1331 -91 842 396 
Q 353 884 353 1716 
Q 353 2575 817 3079 
Q 1281 3584 2069 3584 
Q 2775 3584 3186 3129 
Q 3597 2675 3597 1894 
z
M 3022 2063 
Q 3016 2534 2758 2815 
Q 2500 3097 2075 3097 
Q 1594 3097 1305 2825 
Q 1016 2553 972 2059 
L 3022 2063 
z
" transform="scale(0.015625)"/>
        <path id="DejaVuSans-61" d="M 2194 1759 
Q 1497 1759 1228 1600 
Q 959 1441 959 1056 
Q 959 750 1161 570 
Q 1363 391 1709 391 
Q 2188 391 2477 730 
Q 2766 1069 2766 1631 
L 2766 1759 
L 2194 1759 
z
M 3341 1997 
L 3341 0 
L 2766 0 
L 2766 531 
Q 2569 213 2275 61 
Q 1981 -91 1556 -91 
Q 1019 -91 701 211 
Q 384 513 384 1019 
Q 384 1609 779 1909 
Q 1175 2209 1959 2209 
L 2766 2209 
L 2766 2266 
Q 2766 2663 2505 2880 
Q 2244 3097 1772 3097 
Q 1472 3097 1187 3025 
Q 903 2953 641 2809 
L 641 3341 
Q 956 3463 1253 3523 
Q 1550 3584 1831 3584 
Q 2591 3584 2966 3190 
Q 3341 2797 3341 1997 
z
" transform="scale(0.015625)"/>
        <path id="DejaVuSans-6c" d="M 603 4863 
L 1178 4863 
L 1178 0 
L 603 0 
L 603 4863 
z
" transform="scale(0.015625)"/>
        <path id="DejaVuSans-74" d="M 1172 4494 
L 1172 3500 
L 2356 3500 
L 2356 3053 
L 1172 3053 
L 1172 1153 
Q 1172 725 1289 603 
Q 1406 481 1766 481 
L 2356 481 
L 2356 0 
L 1766 0 
Q 1100 0 847 248 
Q 594 497 594 1153 
L 594 3053 
L 172 3053 
L 172 3500 
L 594 3500 
L 594 4494 
L 1172 4494 
z
" transform="scale(0.015625)"/>
        <path id="DejaVuSans-68" d="M 3513 2113 
L 3513 0 
L 2938 0 
L 2938 2094 
Q 2938 2591 2744 2837 
Q 2550 3084 2163 3084 
Q 1697 3084 1428 2787 
Q 1159 2491 1159 1978 
L 1159 0 
L 581 0 
L 581 4863 
L 1159 4863 
L 1159 2956 
Q 1366 3272 1645 3428 
Q 1925 3584 2291 3584 
Q 2894 3584 3203 3211 
Q 3513 2838 3513 2113 
z
" transform="scale(0.015625)"/>
        <path id="DejaVuSans-79" d="M 2059 -325 
Q 1816 -950 1584 -1140 
Q 1353 -1331 966 -1331 
L 506 -1331 
L 506 -850 
L 844 -850 
Q 1081 -850 1212 -737 
Q 1344 -625 1503 -206 
L 1606 56 
L 191 3500 
L 800 3500 
L 1894 763 
L 2988 3500 
L 3597 3500 
L 2059 -325 
z
" transform="scale(0.015625)"/>
        <path id="DejaVuSans-20" transform="scale(0.015625)"/>
        <path id="DejaVuSans-43" d="M 4122 4306 
L 4122 3641 
Q 3803 3938 3442 4084 
Q 3081 4231 2675 4231 
Q 1875 4231 1450 3742 
Q 1025 3253 1025 2328 
Q 1025 1406 1450 917 
Q 1875 428 2675 428 
Q 3081 428 3442 575 
Q 3803 722 4122 1019 
L 4122 359 
Q 3791 134 3420 21 
Q 3050 -91 2638 -91 
Q 1578 -91 968 557 
Q 359 1206 359 2328 
Q 359 3453 968 4101 
Q 1578 4750 2638 4750 
Q 3056 4750 3426 4639 
Q 3797 4528 4122 4306 
z
" transform="scale(0.015625)"/>
        <path id="DejaVuSans-6f" d="M 1959 3097 
Q 1497 3097 1228 2736 
Q 959 2375 959 1747 
Q 959 1119 1226 758 
Q 1494 397 1959 397 
Q 2419 397 2687 759 
Q 2956 1122 2956 1747 
Q 2956 2369 2687 2733 
Q 2419 3097 1959 3097 
z
M 1959 3584 
Q 2709 3584 3137 3096 
Q 3566 2609 3566 1747 
Q 3566 888 3137 398 
Q 2709 -91 1959 -91 
Q 1206 -91 779 398 
Q 353 888 353 1747 
Q 353 2609 779 3096 
Q 1206 3584 1959 3584 
z
" transform="scale(0.015625)"/>
        <path id="DejaVuSans-6e" d="M 3513 2113 
L 3513 0 
L 2938 0 
L 2938 2094 
Q 2938 2591 2744 2837 
Q 2550 3084 2163 3084 
Q 1697 3084 1428 2787 
Q 1159 2491 1159 1978 
L 1159 0 
L 581 0 
L 581 3500 
L 1159 3500 
L 1159 2956 
Q 1366 3272 1645 3428 
Q 1925 3584 2291 3584 
Q 2894 3584 3203 3211 
Q 3513 2838 3513 2113 
z
" transform="scale(0.015625)"/>
        <path id="DejaVuSans-72" d="M 2631 2963 
Q 2534 3019 2420 3045 
Q 2306 3072 2169 3072 
Q 1681 3072 1420 2755 
Q 1159 2438 1159 1844 
L 1159 0 
L 581 0 
L 581 3500 
L 1159 3500 
L 1159 2956 
Q 1341 3275 1631 3429 
Q 1922 3584 2338 3584 
Q 2397 3584 2469 3576 
Q 2541 3569 2628 3553 
L 2631 2963 
z
" transform="scale(0.015625)"/>
        <path id="DejaVuSans-73" d="M 2834 3397 
L 2834 2853 
Q 2591 2978 2328 3040 
Q 2066 3103 1784 3103 
Q 1356 3103 1142 2972 
Q 928 2841 928 2578 
Q 928 2378 1081 2264 
Q 1234 2150 1697 2047 
L 1894 2003 
Q 2506 1872 2764 1633 
Q 3022 1394 3022 966 
Q 3022 478 2636 193 
Q 2250 -91 1575 -91 
Q 1294 -91 989 -36 
Q 684 19 347 128 
L 347 722 
Q 666 556 975 473 
Q 1284 391 1588 391 
Q 1994 391 2212 530 
Q 2431 669 2431 922 
Q 2431 1156 2273 1281 
Q 2116 1406 1581 1522 
L 1381 1569 
Q 847 1681 609 1914 
Q 372 2147 372 2553 
Q 372 3047 722 3315 
Q 1072 3584 1716 3584 
Q 2034 3584 2315 3537 
Q 2597 3491 2834 3397 
z
" transform="scale(0.015625)"/>
       </defs>
       <use xlink:href="#DejaVuSans-48"/>
       <use xlink:href="#DejaVuSans-65" x="75.195312"/>
       <use xlink:href="#DejaVuSans-61" x="136.71875"/>
       <use xlink:href="#DejaVuSans-6c" x="197.998047"/>
       <use xlink:href="#DejaVuSans-74" x="225.78125"/>
       <use xlink:href="#DejaVuSans-68" x="264.990234"/>
       <use xlink:href="#DejaVuSans-79" x="328.369141"/>
       <use xlink:href="#DejaVuSans-20" x="387.548828"/>
       <use xlink:href="#DejaVuSans-43" x="419.335938"/>
       <use xlink:href="#DejaVuSans-6f" x="489.160156"/>
       <use xlink:href="#DejaVuSans-6e" x="550.341797"/>
       <use xlink:href="#DejaVuSans-74" x="613.720703"/>
       <use xlink:href="#DejaVuSans-72" x="652.929688"/>
       <use xlink:href="#DejaVuSans-6f" x="691.792969"/>
       <use xlink:href="#DejaVuSans-6c" x="752.974609"/>
       <use xlink:href="#DejaVuSans-73" x="780.757812"/>
      </g>
     </g>
    </g>
    <g id="xtick_2">
     <g id="line2d_2">
      <g>
       <use xlink:href="#m2eedea03e0" x="350.188301" y="580.365375" style="stroke: #000000; stroke-width: 1.25"/>
      </g>
     </g>
     <g id="text_2">
      <!-- MCI -->
      <g transform="translate(335.896379 601.566969) scale(0.154 -0.154)">
       <defs>
        <path id="DejaVuSans-4d" d="M 628 4666 
L 1569 4666 
L 2759 1491 
L 3956 4666 
L 4897 4666 
L 4897 0 
L 4281 0 
L 4281 4097 
L 3078 897 
L 2444 897 
L 1241 4097 
L 1241 0 
L 628 0 
L 628 4666 
z
" transform="scale(0.015625)"/>
        <path id="DejaVuSans-49" d="M 628 4666 
L 1259 4666 
L 1259 0 
L 628 0 
L 628 4666 
z
" transform="scale(0.015625)"/>
       </defs>
       <use xlink:href="#DejaVuSans-4d"/>
       <use xlink:href="#DejaVuSans-43" x="86.279297"/>
       <use xlink:href="#DejaVuSans-49" x="156.103516"/>
      </g>
     </g>
    </g>
    <g id="xtick_3">
     <g id="line2d_3">
      <g>
       <use xlink:href="#m2eedea03e0" x="600.277187" y="580.365375" style="stroke: #000000; stroke-width: 1.25"/>
      </g>
     </g>
     <g id="text_3">
      <!-- Alzheimer's -->
      <g transform="translate(555.54139 601.566969) scale(0.154 -0.154)">
       <defs>
        <path id="DejaVuSans-41" d="M 2188 4044 
L 1331 1722 
L 3047 1722 
L 2188 4044 
z
M 1831 4666 
L 2547 4666 
L 4325 0 
L 3669 0 
L 3244 1197 
L 1141 1197 
L 716 0 
L 50 0 
L 1831 4666 
z
" transform="scale(0.015625)"/>
        <path id="DejaVuSans-7a" d="M 353 3500 
L 3084 3500 
L 3084 2975 
L 922 459 
L 3084 459 
L 3084 0 
L 275 0 
L 275 525 
L 2438 3041 
L 353 3041 
L 353 3500 
z
" transform="scale(0.015625)"/>
        <path id="DejaVuSans-69" d="M 603 3500 
L 1178 3500 
L 1178 0 
L 603 0 
L 603 3500 
z
M 603 4863 
L 1178 4863 
L 1178 4134 
L 603 4134 
L 603 4863 
z
" transform="scale(0.015625)"/>
        <path id="DejaVuSans-6d" d="M 3328 2828 
Q 3544 3216 3844 3400 
Q 4144 3584 4550 3584 
Q 5097 3584 5394 3201 
Q 5691 2819 5691 2113 
L 5691 0 
L 5113 0 
L 5113 2094 
Q 5113 2597 4934 2840 
Q 4756 3084 4391 3084 
Q 3944 3084 3684 2787 
Q 3425 2491 3425 1978 
L 3425 0 
L 2847 0 
L 2847 2094 
Q 2847 2600 2669 2842 
Q 2491 3084 2119 3084 
Q 1678 3084 1418 2786 
Q 1159 2488 1159 1978 
L 1159 0 
L 581 0 
L 581 3500 
L 1159 3500 
L 1159 2956 
Q 1356 3278 1631 3431 
Q 1906 3584 2284 3584 
Q 2666 3584 2933 3390 
Q 3200 3197 3328 2828 
z
" transform="scale(0.015625)"/>
        <path id="DejaVuSans-27" d="M 1147 4666 
L 1147 2931 
L 616 2931 
L 616 4666 
L 1147 4666 
z
" transform="scale(0.015625)"/>
       </defs>
       <use xlink:href="#DejaVuSans-41"/>
       <use xlink:href="#DejaVuSans-6c" x="68.408203"/>
       <use xlink:href="#DejaVuSans-7a" x="96.191406"/>
       <use xlink:href="#DejaVuSans-68" x="148.681641"/>
       <use xlink:href="#DejaVuSans-65" x="212.060547"/>
       <use xlink:href="#DejaVuSans-69" x="273.583984"/>
       <use xlink:href="#DejaVuSans-6d" x="301.367188"/>
       <use xlink:href="#DejaVuSans-65" x="398.779297"/>
       <use xlink:href="#DejaVuSans-72" x="460.302734"/>
       <use xlink:href="#DejaVuSans-27" x="501.416016"/>
       <use xlink:href="#DejaVuSans-73" x="528.90625"/>
      </g>
     </g>
    </g>
   </g>
   <g id="matplotlib.axis_2">
    <g id="ytick_1">
     <g id="line2d_4">
      <defs>
       <path id="m61dc1ee18d" d="M 0 0 
L -6 0 
" style="stroke: #000000; stroke-width: 1.25"/>
      </defs>
      <g>
       <use xlink:href="#m61dc1ee18d" x="71.248313" y="544.910447" style="stroke: #000000; stroke-width: 1.25"/>
      </g>
     </g>
     <g id="text_4">
      <!-- 0.00 -->
      <g transform="translate(27.45925 550.761243) scale(0.154 -0.154)">
       <defs>
        <path id="DejaVuSans-30" d="M 2034 4250 
Q 1547 4250 1301 3770 
Q 1056 3291 1056 2328 
Q 1056 1369 1301 889 
Q 1547 409 2034 409 
Q 2525 409 2770 889 
Q 3016 1369 3016 2328 
Q 3016 3291 2770 3770 
Q 2525 4250 2034 4250 
z
M 2034 4750 
Q 2819 4750 3233 4129 
Q 3647 3509 3647 2328 
Q 3647 1150 3233 529 
Q 2819 -91 2034 -91 
Q 1250 -91 836 529 
Q 422 1150 422 2328 
Q 422 3509 836 4129 
Q 1250 4750 2034 4750 
z
" transform="scale(0.015625)"/>
        <path id="DejaVuSans-2e" d="M 684 794 
L 1344 794 
L 1344 0 
L 684 0 
L 684 794 
z
" transform="scale(0.015625)"/>
       </defs>
       <use xlink:href="#DejaVuSans-30"/>
       <use xlink:href="#DejaVuSans-2e" x="63.623047"/>
       <use xlink:href="#DejaVuSans-30" x="95.410156"/>
       <use xlink:href="#DejaVuSans-30" x="159.033203"/>
      </g>
     </g>
    </g>
    <g id="ytick_2">
     <g id="line2d_5">
      <g>
       <use xlink:href="#m61dc1ee18d" x="71.248313" y="454.170866" style="stroke: #000000; stroke-width: 1.25"/>
      </g>
     </g>
     <g id="text_5">
      <!-- 0.02 -->
      <g transform="translate(27.45925 460.021663) scale(0.154 -0.154)">
       <defs>
        <path id="DejaVuSans-32" d="M 1228 531 
L 3431 531 
L 3431 0 
L 469 0 
L 469 531 
Q 828 903 1448 1529 
Q 2069 2156 2228 2338 
Q 2531 2678 2651 2914 
Q 2772 3150 2772 3378 
Q 2772 3750 2511 3984 
Q 2250 4219 1831 4219 
Q 1534 4219 1204 4116 
Q 875 4013 500 3803 
L 500 4441 
Q 881 4594 1212 4672 
Q 1544 4750 1819 4750 
Q 2544 4750 2975 4387 
Q 3406 4025 3406 3419 
Q 3406 3131 3298 2873 
Q 3191 2616 2906 2266 
Q 2828 2175 2409 1742 
Q 1991 1309 1228 531 
z
" transform="scale(0.015625)"/>
       </defs>
       <use xlink:href="#DejaVuSans-30"/>
       <use xlink:href="#DejaVuSans-2e" x="63.623047"/>
       <use xlink:href="#DejaVuSans-30" x="95.410156"/>
       <use xlink:href="#DejaVuSans-32" x="159.033203"/>
      </g>
     </g>
    </g>
    <g id="ytick_3">
     <g id="line2d_6">
      <g>
       <use xlink:href="#m61dc1ee18d" x="71.248313" y="363.431285" style="stroke: #000000; stroke-width: 1.25"/>
      </g>
     </g>
     <g id="text_6">
      <!-- 0.04 -->
      <g transform="translate(27.45925 369.282082) scale(0.154 -0.154)">
       <defs>
        <path id="DejaVuSans-34" d="M 2419 4116 
L 825 1625 
L 2419 1625 
L 2419 4116 
z
M 2253 4666 
L 3047 4666 
L 3047 1625 
L 3713 1625 
L 3713 1100 
L 3047 1100 
L 3047 0 
L 2419 0 
L 2419 1100 
L 313 1100 
L 313 1709 
L 2253 4666 
z
" transform="scale(0.015625)"/>
       </defs>
       <use xlink:href="#DejaVuSans-30"/>
       <use xlink:href="#DejaVuSans-2e" x="63.623047"/>
       <use xlink:href="#DejaVuSans-30" x="95.410156"/>
       <use xlink:href="#DejaVuSans-34" x="159.033203"/>
      </g>
     </g>
    </g>
    <g id="ytick_4">
     <g id="line2d_7">
      <g>
       <use xlink:href="#m61dc1ee18d" x="71.248313" y="272.691705" style="stroke: #000000; stroke-width: 1.25"/>
      </g>
     </g>
     <g id="text_7">
      <!-- 0.06 -->
      <g transform="translate(27.45925 278.542501) scale(0.154 -0.154)">
       <defs>
        <path id="DejaVuSans-36" d="M 2113 2584 
Q 1688 2584 1439 2293 
Q 1191 2003 1191 1497 
Q 1191 994 1439 701 
Q 1688 409 2113 409 
Q 2538 409 2786 701 
Q 3034 994 3034 1497 
Q 3034 2003 2786 2293 
Q 2538 2584 2113 2584 
z
M 3366 4563 
L 3366 3988 
Q 3128 4100 2886 4159 
Q 2644 4219 2406 4219 
Q 1781 4219 1451 3797 
Q 1122 3375 1075 2522 
Q 1259 2794 1537 2939 
Q 1816 3084 2150 3084 
Q 2853 3084 3261 2657 
Q 3669 2231 3669 1497 
Q 3669 778 3244 343 
Q 2819 -91 2113 -91 
Q 1303 -91 875 529 
Q 447 1150 447 2328 
Q 447 3434 972 4092 
Q 1497 4750 2381 4750 
Q 2619 4750 2861 4703 
Q 3103 4656 3366 4563 
z
" transform="scale(0.015625)"/>
       </defs>
       <use xlink:href="#DejaVuSans-30"/>
       <use xlink:href="#DejaVuSans-2e" x="63.623047"/>
       <use xlink:href="#DejaVuSans-30" x="95.410156"/>
       <use xlink:href="#DejaVuSans-36" x="159.033203"/>
      </g>
     </g>
    </g>
    <g id="ytick_5">
     <g id="line2d_8">
      <g>
       <use xlink:href="#m61dc1ee18d" x="71.248313" y="181.952124" style="stroke: #000000; stroke-width: 1.25"/>
      </g>
     </g>
     <g id="text_8">
      <!-- 0.08 -->
      <g transform="translate(27.45925 187.802921) scale(0.154 -0.154)">
       <defs>
        <path id="DejaVuSans-38" d="M 2034 2216 
Q 1584 2216 1326 1975 
Q 1069 1734 1069 1313 
Q 1069 891 1326 650 
Q 1584 409 2034 409 
Q 2484 409 2743 651 
Q 3003 894 3003 1313 
Q 3003 1734 2745 1975 
Q 2488 2216 2034 2216 
z
M 1403 2484 
Q 997 2584 770 2862 
Q 544 3141 544 3541 
Q 544 4100 942 4425 
Q 1341 4750 2034 4750 
Q 2731 4750 3128 4425 
Q 3525 4100 3525 3541 
Q 3525 3141 3298 2862 
Q 3072 2584 2669 2484 
Q 3125 2378 3379 2068 
Q 3634 1759 3634 1313 
Q 3634 634 3220 271 
Q 2806 -91 2034 -91 
Q 1263 -91 848 271 
Q 434 634 434 1313 
Q 434 1759 690 2068 
Q 947 2378 1403 2484 
z
M 1172 3481 
Q 1172 3119 1398 2916 
Q 1625 2713 2034 2713 
Q 2441 2713 2670 2916 
Q 2900 3119 2900 3481 
Q 2900 3844 2670 4047 
Q 2441 4250 2034 4250 
Q 1625 4250 1398 4047 
Q 1172 3844 1172 3481 
z
" transform="scale(0.015625)"/>
       </defs>
       <use xlink:href="#DejaVuSans-30"/>
       <use xlink:href="#DejaVuSans-2e" x="63.623047"/>
       <use xlink:href="#DejaVuSans-30" x="95.410156"/>
       <use xlink:href="#DejaVuSans-38" x="159.033203"/>
      </g>
     </g>
    </g>
    <g id="ytick_6">
     <g id="line2d_9">
      <g>
       <use xlink:href="#m61dc1ee18d" x="71.248313" y="91.212543" style="stroke: #000000; stroke-width: 1.25"/>
      </g>
     </g>
     <g id="text_9">
      <!-- 0.10 -->
      <g transform="translate(27.45925 97.06334) scale(0.154 -0.154)">
       <defs>
        <path id="DejaVuSans-31" d="M 794 531 
L 1825 531 
L 1825 4091 
L 703 3866 
L 703 4441 
L 1819 4666 
L 2450 4666 
L 2450 531 
L 3481 531 
L 3481 0 
L 794 0 
L 794 531 
z
" transform="scale(0.015625)"/>
       </defs>
       <use xlink:href="#DejaVuSans-30"/>
       <use xlink:href="#DejaVuSans-2e" x="63.623047"/>
       <use xlink:href="#DejaVuSans-31" x="95.410156"/>
       <use xlink:href="#DejaVuSans-30" x="159.033203"/>
      </g>
     </g>
    </g>
    <g id="text_10">
     <!-- I(t=tmax,s=0) [Subject mean] -->
     <g transform="translate(19.965375 430.672125) rotate(-90) scale(0.168 -0.168)">
      <defs>
       <path id="DejaVuSans-28" d="M 1984 4856 
Q 1566 4138 1362 3434 
Q 1159 2731 1159 2009 
Q 1159 1288 1364 580 
Q 1569 -128 1984 -844 
L 1484 -844 
Q 1016 -109 783 600 
Q 550 1309 550 2009 
Q 550 2706 781 3412 
Q 1013 4119 1484 4856 
L 1984 4856 
z
" transform="scale(0.015625)"/>
       <path id="DejaVuSans-3d" d="M 678 2906 
L 4684 2906 
L 4684 2381 
L 678 2381 
L 678 2906 
z
M 678 1631 
L 4684 1631 
L 4684 1100 
L 678 1100 
L 678 1631 
z
" transform="scale(0.015625)"/>
       <path id="DejaVuSans-78" d="M 3513 3500 
L 2247 1797 
L 3578 0 
L 2900 0 
L 1881 1375 
L 863 0 
L 184 0 
L 1544 1831 
L 300 3500 
L 978 3500 
L 1906 2253 
L 2834 3500 
L 3513 3500 
z
" transform="scale(0.015625)"/>
       <path id="DejaVuSans-2c" d="M 750 794 
L 1409 794 
L 1409 256 
L 897 -744 
L 494 -744 
L 750 256 
L 750 794 
z
" transform="scale(0.015625)"/>
       <path id="DejaVuSans-29" d="M 513 4856 
L 1013 4856 
Q 1481 4119 1714 3412 
Q 1947 2706 1947 2009 
Q 1947 1309 1714 600 
Q 1481 -109 1013 -844 
L 513 -844 
Q 928 -128 1133 580 
Q 1338 1288 1338 2009 
Q 1338 2731 1133 3434 
Q 928 4138 513 4856 
z
" transform="scale(0.015625)"/>
       <path id="DejaVuSans-5b" d="M 550 4863 
L 1875 4863 
L 1875 4416 
L 1125 4416 
L 1125 -397 
L 1875 -397 
L 1875 -844 
L 550 -844 
L 550 4863 
z
" transform="scale(0.015625)"/>
       <path id="DejaVuSans-53" d="M 3425 4513 
L 3425 3897 
Q 3066 4069 2747 4153 
Q 2428 4238 2131 4238 
Q 1616 4238 1336 4038 
Q 1056 3838 1056 3469 
Q 1056 3159 1242 3001 
Q 1428 2844 1947 2747 
L 2328 2669 
Q 3034 2534 3370 2195 
Q 3706 1856 3706 1288 
Q 3706 609 3251 259 
Q 2797 -91 1919 -91 
Q 1588 -91 1214 -16 
Q 841 59 441 206 
L 441 856 
Q 825 641 1194 531 
Q 1563 422 1919 422 
Q 2459 422 2753 634 
Q 3047 847 3047 1241 
Q 3047 1584 2836 1778 
Q 2625 1972 2144 2069 
L 1759 2144 
Q 1053 2284 737 2584 
Q 422 2884 422 3419 
Q 422 4038 858 4394 
Q 1294 4750 2059 4750 
Q 2388 4750 2728 4690 
Q 3069 4631 3425 4513 
z
" transform="scale(0.015625)"/>
       <path id="DejaVuSans-75" d="M 544 1381 
L 544 3500 
L 1119 3500 
L 1119 1403 
Q 1119 906 1312 657 
Q 1506 409 1894 409 
Q 2359 409 2629 706 
Q 2900 1003 2900 1516 
L 2900 3500 
L 3475 3500 
L 3475 0 
L 2900 0 
L 2900 538 
Q 2691 219 2414 64 
Q 2138 -91 1772 -91 
Q 1169 -91 856 284 
Q 544 659 544 1381 
z
M 1991 3584 
L 1991 3584 
z
" transform="scale(0.015625)"/>
       <path id="DejaVuSans-62" d="M 3116 1747 
Q 3116 2381 2855 2742 
Q 2594 3103 2138 3103 
Q 1681 3103 1420 2742 
Q 1159 2381 1159 1747 
Q 1159 1113 1420 752 
Q 1681 391 2138 391 
Q 2594 391 2855 752 
Q 3116 1113 3116 1747 
z
M 1159 2969 
Q 1341 3281 1617 3432 
Q 1894 3584 2278 3584 
Q 2916 3584 3314 3078 
Q 3713 2572 3713 1747 
Q 3713 922 3314 415 
Q 2916 -91 2278 -91 
Q 1894 -91 1617 61 
Q 1341 213 1159 525 
L 1159 0 
L 581 0 
L 581 4863 
L 1159 4863 
L 1159 2969 
z
" transform="scale(0.015625)"/>
       <path id="DejaVuSans-6a" d="M 603 3500 
L 1178 3500 
L 1178 -63 
Q 1178 -731 923 -1031 
Q 669 -1331 103 -1331 
L -116 -1331 
L -116 -844 
L 38 -844 
Q 366 -844 484 -692 
Q 603 -541 603 -63 
L 603 3500 
z
M 603 4863 
L 1178 4863 
L 1178 4134 
L 603 4134 
L 603 4863 
z
" transform="scale(0.015625)"/>
       <path id="DejaVuSans-63" d="M 3122 3366 
L 3122 2828 
Q 2878 2963 2633 3030 
Q 2388 3097 2138 3097 
Q 1578 3097 1268 2742 
Q 959 2388 959 1747 
Q 959 1106 1268 751 
Q 1578 397 2138 397 
Q 2388 397 2633 464 
Q 2878 531 3122 666 
L 3122 134 
Q 2881 22 2623 -34 
Q 2366 -91 2075 -91 
Q 1284 -91 818 406 
Q 353 903 353 1747 
Q 353 2603 823 3093 
Q 1294 3584 2113 3584 
Q 2378 3584 2631 3529 
Q 2884 3475 3122 3366 
z
" transform="scale(0.015625)"/>
       <path id="DejaVuSans-5d" d="M 1947 4863 
L 1947 -844 
L 622 -844 
L 622 -397 
L 1369 -397 
L 1369 4416 
L 622 4416 
L 622 4863 
L 1947 4863 
z
" transform="scale(0.015625)"/>
      </defs>
      <use xlink:href="#DejaVuSans-49"/>
      <use xlink:href="#DejaVuSans-28" x="29.492188"/>
      <use xlink:href="#DejaVuSans-74" x="68.505859"/>
      <use xlink:href="#DejaVuSans-3d" x="107.714844"/>
      <use xlink:href="#DejaVuSans-74" x="191.503906"/>
      <use xlink:href="#DejaVuSans-6d" x="230.712891"/>
      <use xlink:href="#DejaVuSans-61" x="328.125"/>
      <use xlink:href="#DejaVuSans-78" x="389.404297"/>
      <use xlink:href="#DejaVuSans-2c" x="448.583984"/>
      <use xlink:href="#DejaVuSans-73" x="480.371094"/>
      <use xlink:href="#DejaVuSans-3d" x="532.470703"/>
      <use xlink:href="#DejaVuSans-30" x="616.259766"/>
      <use xlink:href="#DejaVuSans-29" x="679.882812"/>
      <use xlink:href="#DejaVuSans-20" x="718.896484"/>
      <use xlink:href="#DejaVuSans-5b" x="750.683594"/>
      <use xlink:href="#DejaVuSans-53" x="789.697266"/>
      <use xlink:href="#DejaVuSans-75" x="853.173828"/>
      <use xlink:href="#DejaVuSans-62" x="916.552734"/>
      <use xlink:href="#DejaVuSans-6a" x="980.029297"/>
      <use xlink:href="#DejaVuSans-65" x="1007.8125"/>
      <use xlink:href="#DejaVuSans-63" x="1069.335938"/>
      <use xlink:href="#DejaVuSans-74" x="1124.316406"/>
      <use xlink:href="#DejaVuSans-20" x="1163.525391"/>
      <use xlink:href="#DejaVuSans-6d" x="1195.3125"/>
      <use xlink:href="#DejaVuSans-65" x="1292.724609"/>
      <use xlink:href="#DejaVuSans-61" x="1354.248047"/>
      <use xlink:href="#DejaVuSans-6e" x="1415.527344"/>
      <use xlink:href="#DejaVuSans-5d" x="1478.90625"/>
     </g>
    </g>
   </g>
   <g id="line2d_10">
    <path d="M 100.099416 455.256879 
L 100.099416 359.804752 
" clip-path="url(#pdbc68b86b0)" style="fill: none; stroke: #7a7a7a; stroke-width: 1.5; stroke-linecap: square"/>
   </g>
   <g id="line2d_11">
    <path d="M 100.099416 442.296623 
L 100.099416 395.137779 
" clip-path="url(#pdbc68b86b0)" style="fill: none; stroke: #7a7a7a; stroke-width: 4.5; stroke-linecap: square"/>
   </g>
   <g id="line2d_12">
    <path d="M 350.188301 514.925046 
L 350.188301 427.072614 
" clip-path="url(#pdbc68b86b0)" style="fill: none; stroke: #7a7a7a; stroke-width: 1.5; stroke-linecap: square"/>
   </g>
   <g id="line2d_13">
    <path d="M 350.188301 508.50865 
L 350.188301 472.008355 
" clip-path="url(#pdbc68b86b0)" style="fill: none; stroke: #7a7a7a; stroke-width: 4.5; stroke-linecap: square"/>
   </g>
   <g id="line2d_14">
    <path d="M 600.277187 537.719221 
L 600.277187 480.63987 
" clip-path="url(#pdbc68b86b0)" style="fill: none; stroke: #7a7a7a; stroke-width: 1.5; stroke-linecap: square"/>
   </g>
   <g id="line2d_15">
    <path d="M 600.277187 530.496616 
L 600.277187 506.477868 
" clip-path="url(#pdbc68b86b0)" style="fill: none; stroke: #7a7a7a; stroke-width: 4.5; stroke-linecap: square"/>
   </g>
   <g id="line2d_16">
    <path d="M 100.099416 90.842002 
L 100.099416 87.666116 
L 350.188301 87.666116 
L 350.188301 90.842002 
" clip-path="url(#pdbc68b86b0)" style="fill: none; stroke: #000000; stroke-width: 1.5; stroke-linecap: square"/>
   </g>
   <g id="line2d_17">
    <path d="M 100.099416 84.445078 
L 100.099416 81.269193 
L 600.277187 81.269193 
L 600.277187 84.445078 
" clip-path="url(#pdbc68b86b0)" style="fill: none; stroke: #000000; stroke-width: 1.5; stroke-linecap: square"/>
   </g>
   <g id="line2d_18">
    <path d="M 350.188301 78.048155 
L 350.188301 74.87227 
L 600.277187 74.87227 
L 600.277187 78.048155 
" clip-path="url(#pdbc68b86b0)" style="fill: none; stroke: #000000; stroke-width: 1.5; stroke-linecap: square"/>
   </g>
   <g id="patch_6">
    <path d="M 71.248313 580.365375 
L 71.248313 25.965375 
" style="fill: none; stroke: #000000; stroke-width: 1.25; stroke-linejoin: miter; stroke-linecap: square"/>
   </g>
   <g id="patch_7">
    <path d="M 629.248312 580.365375 
L 629.248312 25.965375 
" style="fill: none; stroke: #000000; stroke-width: 1.25; stroke-linejoin: miter; stroke-linecap: square"/>
   </g>
   <g id="patch_8">
    <path d="M 71.248313 580.365375 
L 629.248312 580.365375 
" style="fill: none; stroke: #000000; stroke-width: 1.25; stroke-linejoin: miter; stroke-linecap: square"/>
   </g>
   <g id="patch_9">
    <path d="M 71.248313 25.965375 
L 629.248312 25.965375 
" style="fill: none; stroke: #000000; stroke-width: 1.25; stroke-linejoin: miter; stroke-linecap: square"/>
   </g>
   <g id="PathCollection_4">
    <defs>
     <path id="mab57dbe5dd" d="M 0 1.5 
C 0.397805 1.5 0.77937 1.341951 1.06066 1.06066 
C 1.341951 0.77937 1.5 0.397805 1.5 0 
C 1.5 -0.397805 1.341951 -0.77937 1.06066 -1.06066 
C 0.77937 -1.341951 0.397805 -1.5 0 -1.5 
C -0.397805 -1.5 -0.77937 -1.341951 -1.06066 -1.06066 
C -1.341951 -0.77937 -1.5 -0.397805 -1.5 0 
C -1.5 0.397805 -1.341951 0.77937 -1.06066 1.06066 
C -0.77937 1.341951 -0.397805 1.5 0 1.5 
z
" style="stroke: #7a7a7a"/>
    </defs>
    <g clip-path="url(#pdbc68b86b0)">
     <use xlink:href="#mab57dbe5dd" x="100.099416" y="419.693231" style="fill: #ffffff; stroke: #7a7a7a"/>
    </g>
   </g>
   <g id="PathCollection_5">
    <g clip-path="url(#pdbc68b86b0)">
     <use xlink:href="#mab57dbe5dd" x="350.188301" y="501.939219" style="fill: #ffffff; stroke: #7a7a7a"/>
    </g>
   </g>
   <g id="PathCollection_6">
    <g clip-path="url(#pdbc68b86b0)">
     <use xlink:href="#mab57dbe5dd" x="600.277187" y="521.945249" style="fill: #ffffff; stroke: #7a7a7a"/>
    </g>
   </g>
   <g id="text_11">
    <!-- *** -->
    <g transform="translate(216.143858 84.716793) scale(0.12 -0.12)">
     <defs>
      <path id="DejaVuSans-2a" d="M 3009 3897 
L 1888 3291 
L 3009 2681 
L 2828 2375 
L 1778 3009 
L 1778 1831 
L 1422 1831 
L 1422 3009 
L 372 2375 
L 191 2681 
L 1313 3291 
L 191 3897 
L 372 4206 
L 1422 3572 
L 1422 4750 
L 1778 4750 
L 1778 3572 
L 2828 4206 
L 3009 3897 
z
" transform="scale(0.015625)"/>
     </defs>
     <use xlink:href="#DejaVuSans-2a"/>
     <use xlink:href="#DejaVuSans-2a" x="50"/>
     <use xlink:href="#DejaVuSans-2a" x="100"/>
    </g>
   </g>
   <g id="text_12">
    <!-- **** -->
    <g transform="translate(338.188301 78.31987) scale(0.12 -0.12)">
     <use xlink:href="#DejaVuSans-2a"/>
     <use xlink:href="#DejaVuSans-2a" x="50"/>
     <use xlink:href="#DejaVuSans-2a" x="100"/>
     <use xlink:href="#DejaVuSans-2a" x="150"/>
    </g>
   </g>
   <g id="text_13">
    <!-- * -->
    <g transform="translate(472.232744 71.922947) scale(0.12 -0.12)">
     <use xlink:href="#DejaVuSans-2a"/>
    </g>
   </g>
   <g id="text_14">
    <!-- FDT I(tmax, 0)  Mean per subject per group -->
    <g transform="translate(159.784875 19.965375) scale(0.168 -0.168)">
     <defs>
      <path id="DejaVuSans-46" d="M 628 4666 
L 3309 4666 
L 3309 4134 
L 1259 4134 
L 1259 2759 
L 3109 2759 
L 3109 2228 
L 1259 2228 
L 1259 0 
L 628 0 
L 628 4666 
z
" transform="scale(0.015625)"/>
      <path id="DejaVuSans-44" d="M 1259 4147 
L 1259 519 
L 2022 519 
Q 2988 519 3436 956 
Q 3884 1394 3884 2338 
Q 3884 3275 3436 3711 
Q 2988 4147 2022 4147 
L 1259 4147 
z
M 628 4666 
L 1925 4666 
Q 3281 4666 3915 4102 
Q 4550 3538 4550 2338 
Q 4550 1131 3912 565 
Q 3275 0 1925 0 
L 628 0 
L 628 4666 
z
" transform="scale(0.015625)"/>
      <path id="DejaVuSans-54" d="M -19 4666 
L 3928 4666 
L 3928 4134 
L 2272 4134 
L 2272 0 
L 1638 0 
L 1638 4134 
L -19 4134 
L -19 4666 
z
" transform="scale(0.015625)"/>
      <path id="DejaVuSans-2014" d="M 313 1978 
L 6088 1978 
L 6088 1528 
L 313 1528 
L 313 1978 
z
" transform="scale(0.015625)"/>
      <path id="DejaVuSans-70" d="M 1159 525 
L 1159 -1331 
L 581 -1331 
L 581 3500 
L 1159 3500 
L 1159 2969 
Q 1341 3281 1617 3432 
Q 1894 3584 2278 3584 
Q 2916 3584 3314 3078 
Q 3713 2572 3713 1747 
Q 3713 922 3314 415 
Q 2916 -91 2278 -91 
Q 1894 -91 1617 61 
Q 1341 213 1159 525 
z
M 3116 1747 
Q 3116 2381 2855 2742 
Q 2594 3103 2138 3103 
Q 1681 3103 1420 2742 
Q 1159 2381 1159 1747 
Q 1159 1113 1420 752 
Q 1681 391 2138 391 
Q 2594 391 2855 752 
Q 3116 1113 3116 1747 
z
" transform="scale(0.015625)"/>
      <path id="DejaVuSans-67" d="M 2906 1791 
Q 2906 2416 2648 2759 
Q 2391 3103 1925 3103 
Q 1463 3103 1205 2759 
Q 947 2416 947 1791 
Q 947 1169 1205 825 
Q 1463 481 1925 481 
Q 2391 481 2648 825 
Q 2906 1169 2906 1791 
z
M 3481 434 
Q 3481 -459 3084 -895 
Q 2688 -1331 1869 -1331 
Q 1566 -1331 1297 -1286 
Q 1028 -1241 775 -1147 
L 775 -588 
Q 1028 -725 1275 -790 
Q 1522 -856 1778 -856 
Q 2344 -856 2625 -561 
Q 2906 -266 2906 331 
L 2906 616 
Q 2728 306 2450 153 
Q 2172 0 1784 0 
Q 1141 0 747 490 
Q 353 981 353 1791 
Q 353 2603 747 3093 
Q 1141 3584 1784 3584 
Q 2172 3584 2450 3431 
Q 2728 3278 2906 2969 
L 2906 3500 
L 3481 3500 
L 3481 434 
z
" transform="scale(0.015625)"/>
     </defs>
     <use xlink:href="#DejaVuSans-46"/>
     <use xlink:href="#DejaVuSans-44" x="57.519531"/>
     <use xlink:href="#DejaVuSans-54" x="134.521484"/>
     <use xlink:href="#DejaVuSans-20" x="195.605469"/>
     <use xlink:href="#DejaVuSans-49" x="227.392578"/>
     <use xlink:href="#DejaVuSans-28" x="256.884766"/>
     <use xlink:href="#DejaVuSans-74" x="295.898438"/>
     <use xlink:href="#DejaVuSans-6d" x="335.107422"/>
     <use xlink:href="#DejaVuSans-61" x="432.519531"/>
     <use xlink:href="#DejaVuSans-78" x="493.798828"/>
     <use xlink:href="#DejaVuSans-2c" x="552.978516"/>
     <use xlink:href="#DejaVuSans-20" x="584.765625"/>
     <use xlink:href="#DejaVuSans-30" x="616.552734"/>
     <use xlink:href="#DejaVuSans-29" x="680.175781"/>
     <use xlink:href="#DejaVuSans-20" x="719.189453"/>
     <use xlink:href="#DejaVuSans-2014" x="750.976562"/>
     <use xlink:href="#DejaVuSans-20" x="850.976562"/>
     <use xlink:href="#DejaVuSans-4d" x="882.763672"/>
     <use xlink:href="#DejaVuSans-65" x="969.042969"/>
     <use xlink:href="#DejaVuSans-61" x="1030.566406"/>
     <use xlink:href="#DejaVuSans-6e" x="1091.845703"/>
     <use xlink:href="#DejaVuSans-20" x="1155.224609"/>
     <use xlink:href="#DejaVuSans-70" x="1187.011719"/>
     <use xlink:href="#DejaVuSans-65" x="1250.488281"/>
     <use xlink:href="#DejaVuSans-72" x="1312.011719"/>
     <use xlink:href="#DejaVuSans-20" x="1353.125"/>
     <use xlink:href="#DejaVuSans-73" x="1384.912109"/>
     <use xlink:href="#DejaVuSans-75" x="1437.011719"/>
     <use xlink:href="#DejaVuSans-62" x="1500.390625"/>
     <use xlink:href="#DejaVuSans-6a" x="1563.867188"/>
     <use xlink:href="#DejaVuSans-65" x="1591.650391"/>
     <use xlink:href="#DejaVuSans-63" x="1653.173828"/>
     <use xlink:href="#DejaVuSans-74" x="1708.154297"/>
     <use xlink:href="#DejaVuSans-20" x="1747.363281"/>
     <use xlink:href="#DejaVuSans-70" x="1779.150391"/>
     <use xlink:href="#DejaVuSans-65" x="1842.626953"/>
     <use xlink:href="#DejaVuSans-72" x="1904.150391"/>
     <use xlink:href="#DejaVuSans-20" x="1945.263672"/>
     <use xlink:href="#DejaVuSans-67" x="1977.050781"/>
     <use xlink:href="#DejaVuSans-72" x="2040.527344"/>
     <use xlink:href="#DejaVuSans-6f" x="2079.390625"/>
     <use xlink:href="#DejaVuSans-75" x="2140.572266"/>
     <use xlink:href="#DejaVuSans-70" x="2203.951172"/>
    </g>
   </g>
   <g id="legend_1">
    <g id="patch_10">
     <path d="M 540.604469 351.361469 
L 618.468312 351.361469 
Q 621.548312 351.361469 621.548312 348.281469 
L 621.548312 258.049281 
Q 621.548312 254.969281 618.468312 254.969281 
L 540.604469 254.969281 
Q 537.524469 254.969281 537.524469 258.049281 
L 537.524469 348.281469 
Q 537.524469 351.361469 540.604469 351.361469 
z
" style="fill: #ffffff; opacity: 0.8; stroke: #cccccc; stroke-linejoin: miter"/>
    </g>
    <g id="text_15">
     <!-- cond -->
     <g transform="translate(559.121766 273.894656) scale(0.168 -0.168)">
      <defs>
       <path id="DejaVuSans-64" d="M 2906 2969 
L 2906 4863 
L 3481 4863 
L 3481 0 
L 2906 0 
L 2906 525 
Q 2725 213 2448 61 
Q 2172 -91 1784 -91 
Q 1150 -91 751 415 
Q 353 922 353 1747 
Q 353 2572 751 3078 
Q 1150 3584 1784 3584 
Q 2172 3584 2448 3432 
Q 2725 3281 2906 2969 
z
M 947 1747 
Q 947 1113 1208 752 
Q 1469 391 1925 391 
Q 2381 391 2643 752 
Q 2906 1113 2906 1747 
Q 2906 2381 2643 2742 
Q 2381 3103 1925 3103 
Q 1469 3103 1208 2742 
Q 947 2381 947 1747 
z
" transform="scale(0.015625)"/>
      </defs>
      <use xlink:href="#DejaVuSans-63"/>
      <use xlink:href="#DejaVuSans-6f" x="54.980469"/>
      <use xlink:href="#DejaVuSans-6e" x="116.162109"/>
      <use xlink:href="#DejaVuSans-64" x="179.541016"/>
     </g>
    </g>
    <g id="patch_11">
     <path d="M 543.684469 296.790125 
L 574.484469 296.790125 
L 574.484469 286.010125 
L 543.684469 286.010125 
z
" style="fill: #b3e2cd; stroke: #7a7a7a; stroke-width: 0.75; stroke-linejoin: miter"/>
    </g>
    <g id="text_16">
     <!-- HC -->
     <g transform="translate(586.804469 296.790125) scale(0.154 -0.154)">
      <use xlink:href="#DejaVuSans-48"/>
      <use xlink:href="#DejaVuSans-43" x="75.195312"/>
     </g>
    </g>
    <g id="patch_12">
     <path d="M 543.684469 319.394437 
L 574.484469 319.394437 
L 574.484469 308.614438 
L 543.684469 308.614438 
z
" style="fill: #fdcdac; stroke: #7a7a7a; stroke-width: 0.75; stroke-linejoin: miter"/>
    </g>
    <g id="text_17">
     <!-- MCI -->
     <g transform="translate(586.804469 319.394437) scale(0.154 -0.154)">
      <use xlink:href="#DejaVuSans-4d"/>
      <use xlink:href="#DejaVuSans-43" x="86.279297"/>
      <use xlink:href="#DejaVuSans-49" x="156.103516"/>
     </g>
    </g>
    <g id="patch_13">
     <path d="M 543.684469 341.99875 
L 574.484469 341.99875 
L 574.484469 331.21875 
L 543.684469 331.21875 
z
" style="fill: #cbd5e8; stroke: #7a7a7a; stroke-width: 0.75; stroke-linejoin: miter"/>
    </g>
    <g id="text_18">
     <!-- AD -->
     <g transform="translate(586.804469 341.99875) scale(0.154 -0.154)">
      <use xlink:href="#DejaVuSans-41"/>
      <use xlink:href="#DejaVuSans-44" x="68.408203"/>
     </g>
    </g>
   </g>
  </g>
 </g>
 <defs>
  <clipPath id="pdbc68b86b0">
   <rect x="71.248313" y="25.965375" width="558" height="554.4"/>
  </clipPath>
 </defs>
</svg>
