<?xml version="1.0" encoding="utf-8" standalone="no"?>
<!DOCTYPE svg PUBLIC "-//W3C//DTD SVG 1.1//EN"
  "http://www.w3.org/Graphics/SVG/1.1/DTD/svg11.dtd">
<svg xmlns:xlink="http://www.w3.org/1999/xlink" width="601.4965pt" height="611.969687pt" viewBox="0 0 601.4965 611.969687" xmlns="http://www.w3.org/2000/svg" version="1.1">
 <metadata>
  <rdf:RDF xmlns:dc="http://purl.org/dc/elements/1.1/" xmlns:cc="http://creativecommons.org/ns#" xmlns:rdf="http://www.w3.org/1999/02/22-rdf-syntax-ns#">
   <cc:Work>
    <dc:type rdf:resource="http://purl.org/dc/dcmitype/StillImage"/>
    <dc:date>2025-07-15T16:58:43.503709</dc:date>
    <dc:format>image/svg+xml</dc:format>
    <dc:creator>
     <cc:Agent>
      <dc:title>Matplotlib v3.10.0, https://matplotlib.org/</dc:title>
     </cc:Agent>
    </dc:creator>
   </cc:Work>
  </rdf:RDF>
 </metadata>
 <defs>
  <style type="text/css">*{stroke-linejoin: round; stroke-linecap: butt}</style>
 </defs>
 <g id="figure_1">
  <g id="patch_1">
   <path d="M -0 611.969687 
L 601.4965 611.969687 
L 601.4965 -0 
L -0 -0 
z
" style="fill: #ffffff"/>
  </g>
  <g id="axes_1">
   <g id="patch_2">
    <path d="M 36.2965 580.365375 
L 594.2965 580.365375 
L 594.2965 25.965375 
L 36.2965 25.965375 
z
" style="fill: #ffffff"/>
   </g>
   <g id="line2d_1">
    <path d="M 36.2965 524.925375 
L 594.2965 524.925375 
" clip-path="url(#p06764c4c19)" style="fill: none; stroke: #808080; stroke-opacity: 0.5; stroke-width: 2; stroke-linecap: square"/>
   </g>
   <g id="FillBetweenPolyCollection_1">
    <defs>
     <path id="m5ff88d71d4" d="M 135.53639 -143.489927 
L 132.718947 -143.489927 
L 132.373155 -144.754062 
L 131.962493 -146.018196 
L 131.479683 -147.282331 
L 130.917606 -148.546465 
L 130.269478 -149.8106 
L 129.529015 -151.074734 
L 128.690573 -152.338868 
L 127.749265 -153.603003 
L 126.701038 -154.867137 
L 125.542705 -156.131272 
L 124.271956 -157.395406 
L 122.887325 -158.65954 
L 121.388159 -159.923675 
L 119.774581 -161.187809 
L 118.047483 -162.451944 
L 116.208563 -163.716078 
L 114.260419 -164.980212 
L 112.206716 -166.244347 
L 110.052428 -167.508481 
L 107.804136 -168.772616 
L 105.470371 -170.03675 
L 103.061967 -171.300884 
L 100.592373 -172.565019 
L 98.077896 -173.829153 
L 95.5378 -175.093288 
L 92.994242 -176.357422 
L 90.47198 -177.621556 
L 87.997859 -178.885691 
L 85.600041 -180.149825 
L 83.307028 -181.41396 
L 81.146484 -182.678094 
L 79.143947 -183.942228 
L 77.321489 -185.206363 
L 75.696419 -186.470497 
L 74.280144 -187.734632 
L 73.07725 -188.998766 
L 72.084927 -190.2629 
L 71.292778 -191.527035 
L 70.68306 -192.791169 
L 70.231384 -194.055304 
L 69.907837 -195.319438 
L 69.678488 -196.583572 
L 69.507185 -197.847707 
L 69.357554 -199.111841 
L 69.195059 -200.375976 
L 68.989005 -201.64011 
L 68.714357 -202.904245 
L 68.353251 -204.168379 
L 67.896107 -205.432513 
L 67.342267 -206.696648 
L 66.700141 -207.960782 
L 65.98683 -209.224917 
L 65.227284 -210.489051 
L 64.453039 -211.753185 
L 63.700627 -213.01732 
L 63.00976 -214.281454 
L 62.421402 -215.545589 
L 61.975839 -216.809723 
L 61.710861 -218.073857 
L 61.660136 -219.337992 
L 61.851871 -220.602126 
L 62.307782 -221.866261 
L 63.042439 -223.130395 
L 64.062955 -224.394529 
L 65.369033 -225.658664 
L 66.953316 -226.922798 
L 68.802008 -228.186933 
L 70.895695 -229.451067 
L 73.210322 -230.715201 
L 75.718241 -231.979336 
L 78.389286 -233.24347 
L 81.191817 -234.507605 
L 84.093686 -235.771739 
L 87.063092 -237.035873 
L 90.069304 -238.300008 
L 93.083239 -239.564142 
L 96.077896 -240.828277 
L 99.028651 -242.092411 
L 101.913436 -243.356545 
L 104.71281 -244.62068 
L 107.409969 -245.884814 
L 109.990682 -247.148949 
L 112.44321 -248.413083 
L 114.758201 -249.677217 
L 116.92858 -250.941352 
L 118.949443 -252.205486 
L 120.81795 -253.469621 
L 122.533219 -254.733755 
L 124.096222 -255.99789 
L 125.509657 -257.262024 
L 126.777814 -258.526158 
L 127.906417 -259.790293 
L 128.902437 -261.054427 
L 129.77389 -262.318562 
L 130.529613 -263.582696 
L 131.179027 -264.84683 
L 131.731902 -266.110965 
L 132.198117 -267.375099 
L 132.587449 -268.639234 
L 135.667889 -268.639234 
L 135.667889 -268.639234 
L 136.057221 -267.375099 
L 136.523436 -266.110965 
L 137.07631 -264.84683 
L 137.725725 -263.582696 
L 138.481448 -262.318562 
L 139.352901 -261.054427 
L 140.348921 -259.790293 
L 141.477523 -258.526158 
L 142.745681 -257.262024 
L 144.159116 -255.99789 
L 145.722118 -254.733755 
L 147.437388 -253.469621 
L 149.305894 -252.205486 
L 151.326757 -250.941352 
L 153.497137 -249.677217 
L 155.812128 -248.413083 
L 158.264656 -247.148949 
L 160.845369 -245.884814 
L 163.542527 -244.62068 
L 166.341902 -243.356545 
L 169.226686 -242.092411 
L 172.177442 -240.828277 
L 175.172099 -239.564142 
L 178.186034 -238.300008 
L 181.192246 -237.035873 
L 184.161652 -235.771739 
L 187.063521 -234.507605 
L 189.866052 -233.24347 
L 192.537097 -231.979336 
L 195.045016 -230.715201 
L 197.359643 -229.451067 
L 199.45333 -228.186933 
L 201.302021 -226.922798 
L 202.886305 -225.658664 
L 204.192383 -224.394529 
L 205.212899 -223.130395 
L 205.947556 -221.866261 
L 206.403467 -220.602126 
L 206.595201 -219.337992 
L 206.544477 -218.073857 
L 206.279499 -216.809723 
L 205.833936 -215.545589 
L 205.245578 -214.281454 
L 204.554711 -213.01732 
L 203.802298 -211.753185 
L 203.028053 -210.489051 
L 202.268507 -209.224917 
L 201.555197 -207.960782 
L 200.91307 -206.696648 
L 200.359231 -205.432513 
L 199.902086 -204.168379 
L 199.540981 -202.904245 
L 199.266333 -201.64011 
L 199.060279 -200.375976 
L 198.897783 -199.111841 
L 198.748153 -197.847707 
L 198.57685 -196.583572 
L 198.3475 -195.319438 
L 198.023953 -194.055304 
L 197.572277 -192.791169 
L 196.962559 -191.527035 
L 196.17041 -190.2629 
L 195.178088 -188.998766 
L 193.975194 -187.734632 
L 192.558918 -186.470497 
L 190.933849 -185.206363 
L 189.11139 -183.942228 
L 187.108854 -182.678094 
L 184.94831 -181.41396 
L 182.655297 -180.149825 
L 180.257479 -178.885691 
L 177.783357 -177.621556 
L 175.261096 -176.357422 
L 172.717537 -175.093288 
L 170.177442 -173.829153 
L 167.662965 -172.565019 
L 165.193371 -171.300884 
L 162.784966 -170.03675 
L 160.451202 -168.772616 
L 158.20291 -167.508481 
L 156.048622 -166.244347 
L 153.994919 -164.980212 
L 152.046774 -163.716078 
L 150.207854 -162.451944 
L 148.480757 -161.187809 
L 146.867179 -159.923675 
L 145.368013 -158.65954 
L 143.983382 -157.395406 
L 142.712632 -156.131272 
L 141.5543 -154.867137 
L 140.506072 -153.603003 
L 139.564765 -152.338868 
L 138.726323 -151.074734 
L 137.985859 -149.8106 
L 137.337731 -148.546465 
L 136.775654 -147.282331 
L 136.292845 -146.018196 
L 135.882183 -144.754062 
L 135.53639 -143.489927 
z
" style="stroke: #4c4c4c; stroke-opacity: 0.6; stroke-width: 1.5"/>
    </defs>
    <g clip-path="url(#p06764c4c19)">
     <use xlink:href="#m5ff88d71d4" x="0" y="611.969687" style="fill: #4c72b0; fill-opacity: 0.6; stroke: #4c4c4c; stroke-opacity: 0.6; stroke-width: 1.5"/>
    </g>
   </g>
   <g id="FillBetweenPolyCollection_2">
    <defs>
     <path id="mbbdeebc859" d="M 317.631535 -163.687749 
L 312.961465 -163.687749 
L 312.411627 -165.545063 
L 311.763389 -167.402377 
L 311.006691 -169.259691 
L 310.132024 -171.117005 
L 309.130763 -172.974319 
L 307.995497 -174.831633 
L 306.72034 -176.688947 
L 305.301209 -178.546261 
L 303.736036 -180.403575 
L 302.024923 -182.260889 
L 300.170213 -184.118203 
L 298.176494 -185.975517 
L 296.050524 -187.832831 
L 293.801097 -189.690145 
L 291.438875 -191.547459 
L 288.976182 -193.404773 
L 286.426813 -195.262087 
L 283.805844 -197.119401 
L 281.12948 -198.976715 
L 278.414933 -200.834029 
L 275.680336 -202.691343 
L 272.944673 -204.548657 
L 270.227712 -206.405971 
L 267.549911 -208.263285 
L 264.93227 -210.120599 
L 262.396107 -211.977913 
L 259.962734 -213.835227 
L 257.653019 -215.692541 
L 255.486857 -217.549855 
L 253.482539 -219.407169 
L 251.656077 -221.264483 
L 250.020512 -223.121797 
L 248.585261 -224.979111 
L 247.355568 -226.836425 
L 246.33209 -228.693739 
L 245.510679 -230.551053 
L 244.882382 -232.408367 
L 244.433675 -234.265681 
L 244.146921 -236.122995 
L 244.00103 -237.980309 
L 243.972291 -239.837623 
L 244.035311 -241.694937 
L 244.164013 -243.552251 
L 244.33264 -245.409565 
L 244.516704 -247.266879 
L 244.693848 -249.124193 
L 244.844579 -250.981507 
L 244.952866 -252.838821 
L 245.006593 -254.696135 
L 244.997877 -256.553449 
L 244.92325 -258.410763 
L 244.783747 -260.268077 
L 244.584877 -262.125391 
L 244.336526 -263.982705 
L 244.052758 -265.840019 
L 243.751541 -267.697333 
L 243.45437 -269.554647 
L 243.185781 -271.411961 
L 242.972749 -273.269275 
L 242.843961 -275.126589 
L 242.828968 -276.983903 
L 242.957222 -278.841217 
L 243.257048 -280.698531 
L 243.754558 -282.555845 
L 244.472587 -284.413159 
L 245.429686 -286.270473 
L 246.639243 -288.127787 
L 248.108787 -289.985101 
L 249.839508 -291.842415 
L 251.826048 -293.699729 
L 254.056561 -295.557043 
L 256.513047 -297.414357 
L 259.171951 -299.271671 
L 262.004971 -301.128985 
L 264.980041 -302.986299 
L 268.062431 -304.843613 
L 271.215897 -306.700927 
L 274.403828 -308.558241 
L 277.590331 -310.415555 
L 280.741208 -312.272869 
L 283.8248 -314.130183 
L 286.812659 -315.987497 
L 289.680051 -317.844811 
L 292.406281 -319.702125 
L 294.97485 -321.559439 
L 297.373469 -323.416752 
L 299.593928 -325.274066 
L 301.631865 -327.13138 
L 303.486448 -328.988694 
L 305.159989 -330.846008 
L 306.657526 -332.703322 
L 307.98637 -334.560636 
L 309.155656 -336.41795 
L 310.175906 -338.275264 
L 311.0586 -340.132578 
L 311.815793 -341.989892 
L 312.459766 -343.847206 
L 313.002715 -345.70452 
L 313.456494 -347.561834 
L 317.136506 -347.561834 
L 317.136506 -347.561834 
L 317.590285 -345.70452 
L 318.133234 -343.847206 
L 318.777207 -341.989892 
L 319.5344 -340.132578 
L 320.417094 -338.275264 
L 321.437344 -336.41795 
L 322.60663 -334.560636 
L 323.935474 -332.703322 
L 325.433011 -330.846008 
L 327.106552 -328.988694 
L 328.961135 -327.13138 
L 330.999072 -325.274066 
L 333.219531 -323.416752 
L 335.61815 -321.559439 
L 338.186719 -319.702125 
L 340.912949 -317.844811 
L 343.780341 -315.987497 
L 346.7682 -314.130183 
L 349.851792 -312.272869 
L 353.002669 -310.415555 
L 356.189172 -308.558241 
L 359.377103 -306.700927 
L 362.530569 -304.843613 
L 365.612959 -302.986299 
L 368.588029 -301.128985 
L 371.421049 -299.271671 
L 374.079953 -297.414357 
L 376.536439 -295.557043 
L 378.766952 -293.699729 
L 380.753492 -291.842415 
L 382.484213 -289.985101 
L 383.953757 -288.127787 
L 385.163314 -286.270473 
L 386.120413 -284.413159 
L 386.838442 -282.555845 
L 387.335952 -280.698531 
L 387.635778 -278.841217 
L 387.764032 -276.983903 
L 387.749039 -275.126589 
L 387.620251 -273.269275 
L 387.407219 -271.411961 
L 387.13863 -269.554647 
L 386.841459 -267.697333 
L 386.540242 -265.840019 
L 386.256474 -263.982705 
L 386.008123 -262.125391 
L 385.809253 -260.268077 
L 385.66975 -258.410763 
L 385.595123 -256.553449 
L 385.586407 -254.696135 
L 385.640134 -252.838821 
L 385.748421 -250.981507 
L 385.899152 -249.124193 
L 386.076296 -247.266879 
L 386.26036 -245.409565 
L 386.428987 -243.552251 
L 386.557689 -241.694937 
L 386.620709 -239.837623 
L 386.59197 -237.980309 
L 386.446079 -236.122995 
L 386.159325 -234.265681 
L 385.710618 -232.408367 
L 385.082321 -230.551053 
L 384.26091 -228.693739 
L 383.237432 -226.836425 
L 382.007739 -224.979111 
L 380.572488 -223.121797 
L 378.936923 -221.264483 
L 377.110461 -219.407169 
L 375.106143 -217.549855 
L 372.939981 -215.692541 
L 370.630266 -213.835227 
L 368.196893 -211.977913 
L 365.66073 -210.120599 
L 363.043089 -208.263285 
L 360.365288 -206.405971 
L 357.648327 -204.548657 
L 354.912664 -202.691343 
L 352.178067 -200.834029 
L 349.46352 -198.976715 
L 346.787156 -197.119401 
L 344.166187 -195.262087 
L 341.616818 -193.404773 
L 339.154125 -191.547459 
L 336.791903 -189.690145 
L 334.542476 -187.832831 
L 332.416506 -185.975517 
L 330.422787 -184.118203 
L 328.568077 -182.260889 
L 326.856964 -180.403575 
L 325.291791 -178.546261 
L 323.87266 -176.688947 
L 322.597503 -174.831633 
L 321.462237 -172.974319 
L 320.460976 -171.117005 
L 319.586309 -169.259691 
L 318.829611 -167.402377 
L 318.181373 -165.545063 
L 317.631535 -163.687749 
z
" style="stroke: #4c4c4c; stroke-opacity: 0.6; stroke-width: 1.5"/>
    </defs>
    <g clip-path="url(#p06764c4c19)">
     <use xlink:href="#mbbdeebc859" x="0" y="611.969687" style="fill: #dd8452; fill-opacity: 0.6; stroke: #4c4c4c; stroke-opacity: 0.6; stroke-width: 1.5"/>
    </g>
   </g>
   <g id="FillBetweenPolyCollection_3">
    <defs>
     <path id="m4034c3c86f" d="M 497.887193 -187.203299 
L 495.04347 -187.203299 
L 494.717871 -188.422114 
L 494.335578 -189.64093 
L 493.890954 -190.859745 
L 493.378661 -192.078561 
L 492.793825 -193.297376 
L 492.132202 -194.516192 
L 491.390314 -195.735007 
L 490.565568 -196.953822 
L 489.656328 -198.172638 
L 488.66194 -199.391453 
L 487.582713 -200.610269 
L 486.419843 -201.829084 
L 485.175304 -203.0479 
L 483.851702 -204.266715 
L 482.452126 -205.485531 
L 480.980002 -206.704346 
L 479.438983 -207.923161 
L 477.832899 -209.141977 
L 476.165774 -210.360792 
L 474.44194 -211.579608 
L 472.666243 -212.798423 
L 470.844334 -214.017239 
L 468.983029 -215.236054 
L 467.090708 -216.45487 
L 465.177713 -217.673685 
L 463.256686 -218.8925 
L 461.342816 -220.111316 
L 459.453922 -221.330131 
L 457.610339 -222.548947 
L 455.834581 -223.767762 
L 454.150752 -224.986578 
L 452.583724 -226.205393 
L 451.158097 -227.424209 
L 449.897 -228.643024 
L 448.82079 -229.861839 
L 447.945735 -231.080655 
L 447.28276 -232.29947 
L 446.836362 -233.518286 
L 446.603759 -234.737101 
L 446.574346 -235.955917 
L 446.729525 -237.174732 
L 447.042914 -238.393548 
L 447.480965 -239.612363 
L 448.003949 -240.831178 
L 448.567292 -242.049994 
L 449.123181 -243.268809 
L 449.622388 -244.487625 
L 450.016213 -245.70644 
L 450.258487 -246.925256 
L 450.307521 -248.144071 
L 450.127951 -249.362887 
L 449.692386 -250.581702 
L 448.98281 -251.800517 
L 447.991671 -253.019333 
L 446.722618 -254.238148 
L 445.190847 -255.456964 
L 443.423039 -256.675779 
L 441.456862 -257.894595 
L 439.34005 -259.11341 
L 437.129074 -260.332226 
L 434.887426 -261.551041 
L 432.683577 -262.769856 
L 430.588666 -263.988672 
L 428.674021 -265.207487 
L 427.008589 -266.426303 
L 425.656406 -267.645118 
L 424.674208 -268.863934 
L 424.109302 -270.082749 
L 423.997799 -271.301565 
L 424.363299 -272.52038 
L 425.216094 -273.739195 
L 426.55292 -274.958011 
L 428.357277 -276.176826 
L 430.600281 -277.395642 
L 433.242009 -278.614457 
L 436.233237 -279.833273 
L 439.517497 -281.052088 
L 443.033309 -282.270904 
L 446.716507 -283.489719 
L 450.502506 -284.708534 
L 454.328438 -285.92735 
L 458.135039 -287.146165 
L 461.868243 -288.364981 
L 465.480414 -289.583796 
L 468.931212 -290.802612 
L 472.188078 -292.021427 
L 475.22637 -293.240243 
L 478.029177 -294.459058 
L 480.586862 -295.677873 
L 482.896398 -296.896689 
L 484.960545 -298.115504 
L 486.786931 -299.33432 
L 488.387098 -300.553135 
L 489.775554 -301.771951 
L 490.968869 -302.990766 
L 491.984858 -304.209582 
L 492.841855 -305.428397 
L 493.558107 -306.647212 
L 494.151279 -307.866028 
L 498.779383 -307.866028 
L 498.779383 -307.866028 
L 499.372555 -306.647212 
L 500.088807 -305.428397 
L 500.945804 -304.209582 
L 501.961793 -302.990766 
L 503.155109 -301.771951 
L 504.543564 -300.553135 
L 506.143731 -299.33432 
L 507.970117 -298.115504 
L 510.034264 -296.896689 
L 512.343801 -295.677873 
L 514.901486 -294.459058 
L 517.704292 -293.240243 
L 520.742584 -292.021427 
L 523.999451 -290.802612 
L 527.450248 -289.583796 
L 531.062419 -288.364981 
L 534.795623 -287.146165 
L 538.602224 -285.92735 
L 542.428156 -284.708534 
L 546.214155 -283.489719 
L 549.897353 -282.270904 
L 553.413165 -281.052088 
L 556.697425 -279.833273 
L 559.688654 -278.614457 
L 562.330381 -277.395642 
L 564.573386 -276.176826 
L 566.377742 -274.958011 
L 567.714568 -273.739195 
L 568.567363 -272.52038 
L 568.932864 -271.301565 
L 568.821361 -270.082749 
L 568.256454 -268.863934 
L 567.274256 -267.645118 
L 565.922073 -266.426303 
L 564.256641 -265.207487 
L 562.341996 -263.988672 
L 560.247085 -262.769856 
L 558.043236 -261.551041 
L 555.801588 -260.332226 
L 553.590613 -259.11341 
L 551.473801 -257.894595 
L 549.507623 -256.675779 
L 547.739815 -255.456964 
L 546.208045 -254.238148 
L 544.938991 -253.019333 
L 543.947853 -251.800517 
L 543.238277 -250.581702 
L 542.802712 -249.362887 
L 542.623141 -248.144071 
L 542.672175 -246.925256 
L 542.914449 -245.70644 
L 543.308275 -244.487625 
L 543.807481 -243.268809 
L 544.36337 -242.049994 
L 544.926713 -240.831178 
L 545.449698 -239.612363 
L 545.887748 -238.393548 
L 546.201138 -237.174732 
L 546.356316 -235.955917 
L 546.326903 -234.737101 
L 546.0943 -233.518286 
L 545.647903 -232.29947 
L 544.984928 -231.080655 
L 544.109872 -229.861839 
L 543.033662 -228.643024 
L 541.772566 -227.424209 
L 540.346939 -226.205393 
L 538.77991 -224.986578 
L 537.096082 -223.767762 
L 535.320324 -222.548947 
L 533.476741 -221.330131 
L 531.587846 -220.111316 
L 529.673976 -218.8925 
L 527.75295 -217.673685 
L 525.839954 -216.45487 
L 523.947633 -215.236054 
L 522.086328 -214.017239 
L 520.264419 -212.798423 
L 518.488722 -211.579608 
L 516.764888 -210.360792 
L 515.097763 -209.141977 
L 513.491679 -207.923161 
L 511.950661 -206.704346 
L 510.478537 -205.485531 
L 509.078961 -204.266715 
L 507.755359 -203.0479 
L 506.510819 -201.829084 
L 505.347949 -200.610269 
L 504.268722 -199.391453 
L 503.274335 -198.172638 
L 502.365095 -196.953822 
L 501.540349 -195.735007 
L 500.798461 -194.516192 
L 500.136837 -193.297376 
L 499.552002 -192.078561 
L 499.039709 -190.859745 
L 498.595085 -189.64093 
L 498.212791 -188.422114 
L 497.887193 -187.203299 
z
" style="stroke: #4c4c4c; stroke-opacity: 0.6; stroke-width: 1.5"/>
    </defs>
    <g clip-path="url(#p06764c4c19)">
     <use xlink:href="#m4034c3c86f" x="0" y="611.969687" style="fill: #55a868; fill-opacity: 0.6; stroke: #4c4c4c; stroke-opacity: 0.6; stroke-width: 1.5"/>
    </g>
   </g>
   <g id="PathCollection_1">
    <defs>
     <path id="C0_0_12866fc02f" d="M 0 2 
C 0.530406 2 1.03916 1.789267 1.414214 1.414214 
C 1.789267 1.03916 2 0.530406 2 -0 
C 2 -0.530406 1.789267 -1.03916 1.414214 -1.414214 
C 1.03916 -1.789267 0.530406 -2 0 -2 
C -0.530406 -2 -1.03916 -1.789267 -1.414214 -1.414214 
C -1.789267 -1.03916 -2 -0.530406 -2 0 
C -2 0.530406 -1.789267 1.03916 -1.414214 1.414214 
C -1.03916 1.789267 -0.530406 2 0 2 
z
"/>
    </defs>
    <g clip-path="url(#p06764c4c19)">
     <use xlink:href="#C0_0_12866fc02f" x="134.127669" y="381.136909" style="fill: #4c72b0"/>
    </g>
    <g clip-path="url(#p06764c4c19)">
     <use xlink:href="#C0_0_12866fc02f" x="134.127669" y="386.784265" style="fill: #4c72b0"/>
    </g>
    <g clip-path="url(#p06764c4c19)">
     <use xlink:href="#C0_0_12866fc02f" x="129.939529" y="393.889329" style="fill: #4c72b0"/>
    </g>
    <g clip-path="url(#p06764c4c19)">
     <use xlink:href="#C0_0_12866fc02f" x="134.127669" y="367.500001" style="fill: #4c72b0"/>
    </g>
    <g clip-path="url(#p06764c4c19)">
     <use xlink:href="#C0_0_12866fc02f" x="134.127669" y="376.506895" style="fill: #4c72b0"/>
    </g>
    <g clip-path="url(#p06764c4c19)">
     <use xlink:href="#C0_0_12866fc02f" x="130.660393" y="384.526901" style="fill: #4c72b0"/>
    </g>
    <g clip-path="url(#p06764c4c19)">
     <use xlink:href="#C0_0_12866fc02f" x="134.127669" y="394.189722" style="fill: #4c72b0"/>
    </g>
    <g clip-path="url(#p06764c4c19)">
     <use xlink:href="#C0_0_12866fc02f" x="134.127669" y="414.963023" style="fill: #4c72b0"/>
    </g>
    <g clip-path="url(#p06764c4c19)">
     <use xlink:href="#C0_0_12866fc02f" x="133.277958" y="423.991466" style="fill: #4c72b0"/>
    </g>
    <g clip-path="url(#p06764c4c19)">
     <use xlink:href="#C0_0_12866fc02f" x="130.220801" y="400.146651" style="fill: #4c72b0"/>
    </g>
    <g clip-path="url(#p06764c4c19)">
     <use xlink:href="#C0_0_12866fc02f" x="137.07893" y="391.343702" style="fill: #4c72b0"/>
    </g>
    <g clip-path="url(#p06764c4c19)">
     <use xlink:href="#C0_0_12866fc02f" x="134.127669" y="401.614797" style="fill: #4c72b0"/>
    </g>
    <g clip-path="url(#p06764c4c19)">
     <use xlink:href="#C0_0_12866fc02f" x="136.423229" y="421.340616" style="fill: #4c72b0"/>
    </g>
    <g clip-path="url(#p06764c4c19)">
     <use xlink:href="#C0_0_12866fc02f" x="131.241684" y="412.05692" style="fill: #4c72b0"/>
    </g>
    <g clip-path="url(#p06764c4c19)">
     <use xlink:href="#C0_0_12866fc02f" x="131.684006" y="420.290719" style="fill: #4c72b0"/>
    </g>
    <g clip-path="url(#p06764c4c19)">
     <use xlink:href="#C0_0_12866fc02f" x="134.127669" y="433.617237" style="fill: #4c72b0"/>
    </g>
    <g clip-path="url(#p06764c4c19)">
     <use xlink:href="#C0_0_12866fc02f" x="134.127669" y="427.90875" style="fill: #4c72b0"/>
    </g>
    <g clip-path="url(#p06764c4c19)">
     <use xlink:href="#C0_0_12866fc02f" x="134.127669" y="444.310212" style="fill: #4c72b0"/>
    </g>
   </g>
   <g id="PathCollection_2">
    <defs>
     <path id="C1_0_af239b790d" d="M 0 2 
C 0.530406 2 1.03916 1.789267 1.414214 1.414214 
C 1.789267 1.03916 2 0.530406 2 -0 
C 2 -0.530406 1.789267 -1.03916 1.414214 -1.414214 
C 1.03916 -1.789267 0.530406 -2 0 -2 
C -0.530406 -2 -1.03916 -1.789267 -1.414214 -1.414214 
C -1.789267 -1.03916 -2 -0.530406 -2 0 
C -2 0.530406 -1.789267 1.03916 -1.414214 1.414214 
C -1.03916 1.789267 -0.530406 2 0 2 
z
"/>
    </defs>
    <g clip-path="url(#p06764c4c19)">
     <use xlink:href="#C1_0_af239b790d" x="317.52486" y="323.190231" style="fill: #dd8452"/>
    </g>
    <g clip-path="url(#p06764c4c19)">
     <use xlink:href="#C1_0_af239b790d" x="311.258438" y="325.480804" style="fill: #dd8452"/>
    </g>
    <g clip-path="url(#p06764c4c19)">
     <use xlink:href="#C1_0_af239b790d" x="315.2965" y="326.580816" style="fill: #dd8452"/>
    </g>
    <g clip-path="url(#p06764c4c19)">
     <use xlink:href="#C1_0_af239b790d" x="315.2965" y="301.6895" style="fill: #dd8452"/>
    </g>
    <g clip-path="url(#p06764c4c19)">
     <use xlink:href="#C1_0_af239b790d" x="315.2965" y="313.433239" style="fill: #dd8452"/>
    </g>
    <g clip-path="url(#p06764c4c19)">
     <use xlink:href="#C1_0_af239b790d" x="321.684529" y="322.637235" style="fill: #dd8452"/>
    </g>
    <g clip-path="url(#p06764c4c19)">
     <use xlink:href="#C1_0_af239b790d" x="315.2965" y="344.424239" style="fill: #dd8452"/>
    </g>
    <g clip-path="url(#p06764c4c19)">
     <use xlink:href="#C1_0_af239b790d" x="315.2965" y="365.449881" style="fill: #dd8452"/>
    </g>
    <g clip-path="url(#p06764c4c19)">
     <use xlink:href="#C1_0_af239b790d" x="311.096701" y="381.506665" style="fill: #dd8452"/>
    </g>
    <g clip-path="url(#p06764c4c19)">
     <use xlink:href="#C1_0_af239b790d" x="315.2965" y="352.195225" style="fill: #dd8452"/>
    </g>
    <g clip-path="url(#p06764c4c19)">
     <use xlink:href="#C1_0_af239b790d" x="311.574023" y="342.571823" style="fill: #dd8452"/>
    </g>
    <g clip-path="url(#p06764c4c19)">
     <use xlink:href="#C1_0_af239b790d" x="315.2965" y="358.402684" style="fill: #dd8452"/>
    </g>
    <g clip-path="url(#p06764c4c19)">
     <use xlink:href="#C1_0_af239b790d" x="315.2965" y="381.545802" style="fill: #dd8452"/>
    </g>
    <g clip-path="url(#p06764c4c19)">
     <use xlink:href="#C1_0_af239b790d" x="315.2965" y="376.909775" style="fill: #dd8452"/>
    </g>
    <g clip-path="url(#p06764c4c19)">
     <use xlink:href="#C1_0_af239b790d" x="315.2965" y="390.941994" style="fill: #dd8452"/>
    </g>
    <g clip-path="url(#p06764c4c19)">
     <use xlink:href="#C1_0_af239b790d" x="313.971523" y="407.20455" style="fill: #dd8452"/>
    </g>
    <g clip-path="url(#p06764c4c19)">
     <use xlink:href="#C1_0_af239b790d" x="313.161817" y="387.497174" style="fill: #dd8452"/>
    </g>
    <g clip-path="url(#p06764c4c19)">
     <use xlink:href="#C1_0_af239b790d" x="315.2965" y="411.000291" style="fill: #dd8452"/>
    </g>
   </g>
   <g id="PathCollection_3">
    <defs>
     <path id="C2_0_f94eb3d483" d="M 0 2 
C 0.530406 2 1.03916 1.789267 1.414214 1.414214 
C 1.789267 1.03916 2 0.530406 2 -0 
C 2 -0.530406 1.789267 -1.03916 1.414214 -1.414214 
C 1.03916 -1.789267 0.530406 -2 0 -2 
C -0.530406 -2 -1.03916 -1.789267 -1.414214 -1.414214 
C -1.789267 -1.03916 -2 -0.530406 -2 0 
C -2 0.530406 -1.789267 1.03916 -1.414214 1.414214 
C -1.03916 1.789267 -0.530406 2 0 2 
z
"/>
    </defs>
    <g clip-path="url(#p06764c4c19)">
     <use xlink:href="#C2_0_f94eb3d483" x="492.267766" y="342.853655" style="fill: #55a868"/>
    </g>
    <g clip-path="url(#p06764c4c19)">
     <use xlink:href="#C2_0_f94eb3d483" x="497.125549" y="334.776249" style="fill: #55a868"/>
    </g>
    <g clip-path="url(#p06764c4c19)">
     <use xlink:href="#C2_0_f94eb3d483" x="500.441361" y="341.70106" style="fill: #55a868"/>
    </g>
    <g clip-path="url(#p06764c4c19)">
     <use xlink:href="#C2_0_f94eb3d483" x="496.465331" y="329.145489" style="fill: #55a868"/>
    </g>
    <g clip-path="url(#p06764c4c19)">
     <use xlink:href="#C2_0_f94eb3d483" x="496.465331" y="353.734893" style="fill: #55a868"/>
    </g>
    <g clip-path="url(#p06764c4c19)">
     <use xlink:href="#C2_0_f94eb3d483" x="488.549738" y="340.993153" style="fill: #55a868"/>
    </g>
    <g clip-path="url(#p06764c4c19)">
     <use xlink:href="#C2_0_f94eb3d483" x="504.559246" y="340.913967" style="fill: #55a868"/>
    </g>
    <g clip-path="url(#p06764c4c19)">
     <use xlink:href="#C2_0_f94eb3d483" x="504.550036" y="377.189243" style="fill: #55a868"/>
    </g>
    <g clip-path="url(#p06764c4c19)">
     <use xlink:href="#C2_0_f94eb3d483" x="489.114712" y="375.613707" style="fill: #55a868"/>
    </g>
    <g clip-path="url(#p06764c4c19)">
     <use xlink:href="#C2_0_f94eb3d483" x="496.465331" y="342.989836" style="fill: #55a868"/>
    </g>
    <g clip-path="url(#p06764c4c19)">
     <use xlink:href="#C2_0_f94eb3d483" x="493.239438" y="336.293539" style="fill: #55a868"/>
    </g>
    <g clip-path="url(#p06764c4c19)">
     <use xlink:href="#C2_0_f94eb3d483" x="496.465331" y="338.855004" style="fill: #55a868"/>
    </g>
    <g clip-path="url(#p06764c4c19)">
     <use xlink:href="#C2_0_f94eb3d483" x="500.423314" y="377.933177" style="fill: #55a868"/>
    </g>
    <g clip-path="url(#p06764c4c19)">
     <use xlink:href="#C2_0_f94eb3d483" x="496.465331" y="379.271389" style="fill: #55a868"/>
    </g>
    <g clip-path="url(#p06764c4c19)">
     <use xlink:href="#C2_0_f94eb3d483" x="492.481241" y="378.005393" style="fill: #55a868"/>
    </g>
    <g clip-path="url(#p06764c4c19)">
     <use xlink:href="#C2_0_f94eb3d483" x="496.465331" y="399.724559" style="fill: #55a868"/>
    </g>
    <g clip-path="url(#p06764c4c19)">
     <use xlink:href="#C2_0_f94eb3d483" x="496.465331" y="362.641469" style="fill: #55a868"/>
    </g>
    <g clip-path="url(#p06764c4c19)">
     <use xlink:href="#C2_0_f94eb3d483" x="496.465331" y="393.339066" style="fill: #55a868"/>
    </g>
   </g>
   <g id="matplotlib.axis_1">
    <g id="xtick_1">
     <g id="line2d_2">
      <defs>
       <path id="m3ab99705a5" d="M 0 0 
L 0 6 
" style="stroke: #000000; stroke-width: 1.25"/>
      </defs>
      <g>
       <use xlink:href="#m3ab99705a5" x="134.127669" y="580.365375" style="stroke: #000000; stroke-width: 1.25"/>
      </g>
     </g>
     <g id="text_1">
      <!-- HC -->
      <g transform="translate(122.960263 601.566969) scale(0.154 -0.154)">
       <defs>
        <path id="DejaVuSans-48" d="M 628 4666 
L 1259 4666 
L 1259 2753 
L 3553 2753 
L 3553 4666 
L 4184 4666 
L 4184 0 
L 3553 0 
L 3553 2222 
L 1259 2222 
L 1259 0 
L 628 0 
L 628 4666 
z
" transform="scale(0.015625)"/>
        <path id="DejaVuSans-43" d="M 4122 4306 
L 4122 3641 
Q 3803 3938 3442 4084 
Q 3081 4231 2675 4231 
Q 1875 4231 1450 3742 
Q 1025 3253 1025 2328 
Q 1025 1406 1450 917 
Q 1875 428 2675 428 
Q 3081 428 3442 575 
Q 3803 722 4122 1019 
L 4122 359 
Q 3791 134 3420 21 
Q 3050 -91 2638 -91 
Q 1578 -91 968 557 
Q 359 1206 359 2328 
Q 359 3453 968 4101 
Q 1578 4750 2638 4750 
Q 3056 4750 3426 4639 
Q 3797 4528 4122 4306 
z
" transform="scale(0.015625)"/>
       </defs>
       <use xlink:href="#DejaVuSans-48"/>
       <use xlink:href="#DejaVuSans-43" transform="translate(75.195312 0)"/>
      </g>
     </g>
    </g>
    <g id="xtick_2">
     <g id="line2d_3">
      <g>
       <use xlink:href="#m3ab99705a5" x="315.2965" y="580.365375" style="stroke: #000000; stroke-width: 1.25"/>
      </g>
     </g>
     <g id="text_2">
      <!-- MCI -->
      <g transform="translate(301.004578 601.566969) scale(0.154 -0.154)">
       <defs>
        <path id="DejaVuSans-4d" d="M 628 4666 
L 1569 4666 
L 2759 1491 
L 3956 4666 
L 4897 4666 
L 4897 0 
L 4281 0 
L 4281 4097 
L 3078 897 
L 2444 897 
L 1241 4097 
L 1241 0 
L 628 0 
L 628 4666 
z
" transform="scale(0.015625)"/>
        <path id="DejaVuSans-49" d="M 628 4666 
L 1259 4666 
L 1259 0 
L 628 0 
L 628 4666 
z
" transform="scale(0.015625)"/>
       </defs>
       <use xlink:href="#DejaVuSans-4d"/>
       <use xlink:href="#DejaVuSans-43" transform="translate(86.279297 0)"/>
       <use xlink:href="#DejaVuSans-49" transform="translate(156.103516 0)"/>
      </g>
     </g>
    </g>
    <g id="xtick_3">
     <g id="line2d_4">
      <g>
       <use xlink:href="#m3ab99705a5" x="496.465331" y="580.365375" style="stroke: #000000; stroke-width: 1.25"/>
      </g>
     </g>
     <g id="text_3">
      <!-- AD -->
      <g transform="translate(485.26905 601.566969) scale(0.154 -0.154)">
       <defs>
        <path id="DejaVuSans-41" d="M 2188 4044 
L 1331 1722 
L 3047 1722 
L 2188 4044 
z
M 1831 4666 
L 2547 4666 
L 4325 0 
L 3669 0 
L 3244 1197 
L 1141 1197 
L 716 0 
L 50 0 
L 1831 4666 
z
" transform="scale(0.015625)"/>
        <path id="DejaVuSans-44" d="M 1259 4147 
L 1259 519 
L 2022 519 
Q 2988 519 3436 956 
Q 3884 1394 3884 2338 
Q 3884 3275 3436 3711 
Q 2988 4147 2022 4147 
L 1259 4147 
z
M 628 4666 
L 1925 4666 
Q 3281 4666 3915 4102 
Q 4550 3538 4550 2338 
Q 4550 1131 3912 565 
Q 3275 0 1925 0 
L 628 0 
L 628 4666 
z
" transform="scale(0.015625)"/>
       </defs>
       <use xlink:href="#DejaVuSans-41"/>
       <use xlink:href="#DejaVuSans-44" transform="translate(68.408203 0)"/>
      </g>
     </g>
    </g>
   </g>
   <g id="matplotlib.axis_2">
    <g id="ytick_1">
     <g id="line2d_5">
      <defs>
       <path id="m190d18b10a" d="M 0 0 
L -6 0 
" style="stroke: #000000; stroke-width: 1.25"/>
      </defs>
      <g>
       <use xlink:href="#m190d18b10a" x="36.2965" y="580.365375" style="stroke: #000000; stroke-width: 1.25"/>
      </g>
     </g>
     <g id="text_4">
      <!-- 0 -->
      <g transform="translate(16.99825 586.216172) scale(0.154 -0.154)">
       <defs>
        <path id="DejaVuSans-30" d="M 2034 4250 
Q 1547 4250 1301 3770 
Q 1056 3291 1056 2328 
Q 1056 1369 1301 889 
Q 1547 409 2034 409 
Q 2525 409 2770 889 
Q 3016 1369 3016 2328 
Q 3016 3291 2770 3770 
Q 2525 4250 2034 4250 
z
M 2034 4750 
Q 2819 4750 3233 4129 
Q 3647 3509 3647 2328 
Q 3647 1150 3233 529 
Q 2819 -91 2034 -91 
Q 1250 -91 836 529 
Q 422 1150 422 2328 
Q 422 3509 836 4129 
Q 1250 4750 2034 4750 
z
" transform="scale(0.015625)"/>
       </defs>
       <use xlink:href="#DejaVuSans-30"/>
      </g>
     </g>
    </g>
    <g id="ytick_2">
     <g id="line2d_6">
      <g>
       <use xlink:href="#m190d18b10a" x="36.2965" y="469.485375" style="stroke: #000000; stroke-width: 1.25"/>
      </g>
     </g>
     <g id="text_5">
      <!-- 2 -->
      <g transform="translate(16.99825 475.336172) scale(0.154 -0.154)">
       <defs>
        <path id="DejaVuSans-32" d="M 1228 531 
L 3431 531 
L 3431 0 
L 469 0 
L 469 531 
Q 828 903 1448 1529 
Q 2069 2156 2228 2338 
Q 2531 2678 2651 2914 
Q 2772 3150 2772 3378 
Q 2772 3750 2511 3984 
Q 2250 4219 1831 4219 
Q 1534 4219 1204 4116 
Q 875 4013 500 3803 
L 500 4441 
Q 881 4594 1212 4672 
Q 1544 4750 1819 4750 
Q 2544 4750 2975 4387 
Q 3406 4025 3406 3419 
Q 3406 3131 3298 2873 
Q 3191 2616 2906 2266 
Q 2828 2175 2409 1742 
Q 1991 1309 1228 531 
z
" transform="scale(0.015625)"/>
       </defs>
       <use xlink:href="#DejaVuSans-32"/>
      </g>
     </g>
    </g>
    <g id="ytick_3">
     <g id="line2d_7">
      <g>
       <use xlink:href="#m190d18b10a" x="36.2965" y="358.605375" style="stroke: #000000; stroke-width: 1.25"/>
      </g>
     </g>
     <g id="text_6">
      <!-- 4 -->
      <g transform="translate(16.99825 364.456172) scale(0.154 -0.154)">
       <defs>
        <path id="DejaVuSans-34" d="M 2419 4116 
L 825 1625 
L 2419 1625 
L 2419 4116 
z
M 2253 4666 
L 3047 4666 
L 3047 1625 
L 3713 1625 
L 3713 1100 
L 3047 1100 
L 3047 0 
L 2419 0 
L 2419 1100 
L 313 1100 
L 313 1709 
L 2253 4666 
z
" transform="scale(0.015625)"/>
       </defs>
       <use xlink:href="#DejaVuSans-34"/>
      </g>
     </g>
    </g>
    <g id="ytick_4">
     <g id="line2d_8">
      <g>
       <use xlink:href="#m190d18b10a" x="36.2965" y="247.725375" style="stroke: #000000; stroke-width: 1.25"/>
      </g>
     </g>
     <g id="text_7">
      <!-- 6 -->
      <g transform="translate(16.99825 253.576172) scale(0.154 -0.154)">
       <defs>
        <path id="DejaVuSans-36" d="M 2113 2584 
Q 1688 2584 1439 2293 
Q 1191 2003 1191 1497 
Q 1191 994 1439 701 
Q 1688 409 2113 409 
Q 2538 409 2786 701 
Q 3034 994 3034 1497 
Q 3034 2003 2786 2293 
Q 2538 2584 2113 2584 
z
M 3366 4563 
L 3366 3988 
Q 3128 4100 2886 4159 
Q 2644 4219 2406 4219 
Q 1781 4219 1451 3797 
Q 1122 3375 1075 2522 
Q 1259 2794 1537 2939 
Q 1816 3084 2150 3084 
Q 2853 3084 3261 2657 
Q 3669 2231 3669 1497 
Q 3669 778 3244 343 
Q 2819 -91 2113 -91 
Q 1303 -91 875 529 
Q 447 1150 447 2328 
Q 447 3434 972 4092 
Q 1497 4750 2381 4750 
Q 2619 4750 2861 4703 
Q 3103 4656 3366 4563 
z
" transform="scale(0.015625)"/>
       </defs>
       <use xlink:href="#DejaVuSans-36"/>
      </g>
     </g>
    </g>
    <g id="ytick_5">
     <g id="line2d_9">
      <g>
       <use xlink:href="#m190d18b10a" x="36.2965" y="136.845375" style="stroke: #000000; stroke-width: 1.25"/>
      </g>
     </g>
     <g id="text_8">
      <!-- 8 -->
      <g transform="translate(16.99825 142.696172) scale(0.154 -0.154)">
       <defs>
        <path id="DejaVuSans-38" d="M 2034 2216 
Q 1584 2216 1326 1975 
Q 1069 1734 1069 1313 
Q 1069 891 1326 650 
Q 1584 409 2034 409 
Q 2484 409 2743 651 
Q 3003 894 3003 1313 
Q 3003 1734 2745 1975 
Q 2488 2216 2034 2216 
z
M 1403 2484 
Q 997 2584 770 2862 
Q 544 3141 544 3541 
Q 544 4100 942 4425 
Q 1341 4750 2034 4750 
Q 2731 4750 3128 4425 
Q 3525 4100 3525 3541 
Q 3525 3141 3298 2862 
Q 3072 2584 2669 2484 
Q 3125 2378 3379 2068 
Q 3634 1759 3634 1313 
Q 3634 634 3220 271 
Q 2806 -91 2034 -91 
Q 1263 -91 848 271 
Q 434 634 434 1313 
Q 434 1759 690 2068 
Q 947 2378 1403 2484 
z
M 1172 3481 
Q 1172 3119 1398 2916 
Q 1625 2713 2034 2713 
Q 2441 2713 2670 2916 
Q 2900 3119 2900 3481 
Q 2900 3844 2670 4047 
Q 2441 4250 2034 4250 
Q 1625 4250 1398 4047 
Q 1172 3844 1172 3481 
z
" transform="scale(0.015625)"/>
       </defs>
       <use xlink:href="#DejaVuSans-38"/>
      </g>
     </g>
    </g>
    <g id="ytick_6">
     <g id="line2d_10">
      <g>
       <use xlink:href="#m190d18b10a" x="36.2965" y="25.965375" style="stroke: #000000; stroke-width: 1.25"/>
      </g>
     </g>
     <g id="text_9">
      <!-- 10 -->
      <g transform="translate(7.2 31.816172) scale(0.154 -0.154)">
       <defs>
        <path id="DejaVuSans-31" d="M 794 531 
L 1825 531 
L 1825 4091 
L 703 3866 
L 703 4441 
L 1819 4666 
L 2450 4666 
L 2450 531 
L 3481 531 
L 3481 0 
L 794 0 
L 794 531 
z
" transform="scale(0.015625)"/>
       </defs>
       <use xlink:href="#DejaVuSans-31"/>
       <use xlink:href="#DejaVuSans-30" transform="translate(63.623047 0)"/>
      </g>
     </g>
    </g>
   </g>
   <g id="line2d_11">
    <path d="M 134.127669 444.310212 
L 134.127669 367.500001 
" clip-path="url(#p06764c4c19)" style="fill: none; stroke: #4c4c4c; stroke-width: 2.25; stroke-linecap: square"/>
   </g>
   <g id="line2d_12">
    <path d="M 134.127669 421.078141 
L 134.127669 387.924124 
" clip-path="url(#p06764c4c19)" style="fill: none; stroke: #4c4c4c; stroke-width: 6.75; stroke-linecap: square"/>
   </g>
   <g id="line2d_13">
    <path d="M 134.127669 400.880724 
" clip-path="url(#p06764c4c19)" style="fill: none; stroke: #4c4c4c; stroke-width: 1.5; stroke-linecap: square"/>
    <defs>
     <path id="m7e5718bc4c" d="M 2.8125 0 
L -2.8125 -0 
" style="stroke: #ffffff; stroke-width: 1.35"/>
    </defs>
    <g clip-path="url(#p06764c4c19)">
     <use xlink:href="#m7e5718bc4c" x="134.127669" y="400.880724" style="fill: #ffffff; stroke: #ffffff; stroke-width: 1.35"/>
    </g>
   </g>
   <g id="line2d_14">
    <path d="M 315.2965 411.000291 
L 315.2965 301.6895 
" clip-path="url(#p06764c4c19)" style="fill: none; stroke: #4c4c4c; stroke-width: 2.25; stroke-linecap: square"/>
   </g>
   <g id="line2d_15">
    <path d="M 315.2965 381.536017 
L 315.2965 325.755807 
" clip-path="url(#p06764c4c19)" style="fill: none; stroke: #4c4c4c; stroke-width: 6.75; stroke-linecap: square"/>
   </g>
   <g id="line2d_16">
    <path d="M 315.2965 355.298955 
" clip-path="url(#p06764c4c19)" style="fill: none; stroke: #4c4c4c; stroke-width: 1.5; stroke-linecap: square"/>
    <g clip-path="url(#p06764c4c19)">
     <use xlink:href="#m7e5718bc4c" x="315.2965" y="355.298955" style="fill: #ffffff; stroke: #ffffff; stroke-width: 1.35"/>
    </g>
   </g>
   <g id="line2d_17">
    <path d="M 496.465331 399.724559 
L 496.465331 329.145489 
" clip-path="url(#p06764c4c19)" style="fill: none; stroke: #4c4c4c; stroke-width: 2.25; stroke-linecap: square"/>
   </g>
   <g id="line2d_18">
    <path d="M 496.465331 377.747193 
L 496.465331 340.933763 
" clip-path="url(#p06764c4c19)" style="fill: none; stroke: #4c4c4c; stroke-width: 6.75; stroke-linecap: square"/>
   </g>
   <g id="line2d_19">
    <path d="M 496.465331 348.362364 
" clip-path="url(#p06764c4c19)" style="fill: none; stroke: #4c4c4c; stroke-width: 1.5; stroke-linecap: square"/>
    <g clip-path="url(#p06764c4c19)">
     <use xlink:href="#m7e5718bc4c" x="496.465331" y="348.362364" style="fill: #ffffff; stroke: #ffffff; stroke-width: 1.35"/>
    </g>
   </g>
   <g id="patch_3">
    <path d="M 36.2965 580.365375 
L 36.2965 25.965375 
" style="fill: none; stroke: #000000; stroke-width: 1.25; stroke-linejoin: miter; stroke-linecap: square"/>
   </g>
   <g id="patch_4">
    <path d="M 594.2965 580.365375 
L 594.2965 25.965375 
" style="fill: none; stroke: #000000; stroke-width: 1.25; stroke-linejoin: miter; stroke-linecap: square"/>
   </g>
   <g id="patch_5">
    <path d="M 36.2965 580.365375 
L 594.2965 580.365375 
" style="fill: none; stroke: #000000; stroke-width: 1.25; stroke-linejoin: miter; stroke-linecap: square"/>
   </g>
   <g id="patch_6">
    <path d="M 36.2965 25.965375 
L 594.2965 25.965375 
" style="fill: none; stroke: #000000; stroke-width: 1.25; stroke-linejoin: miter; stroke-linecap: square"/>
   </g>
   <g id="text_10">
    <!-- **** -->
    <g transform="translate(212.712084 249.714676) scale(0.12 -0.12)">
     <defs>
      <path id="DejaVuSans-2a" d="M 3009 3897 
L 1888 3291 
L 3009 2681 
L 2828 2375 
L 1778 3009 
L 1778 1831 
L 1422 1831 
L 1422 3009 
L 372 2375 
L 191 2681 
L 1313 3291 
L 191 3897 
L 372 4206 
L 1422 3572 
L 1422 4750 
L 1778 4750 
L 1778 3572 
L 2828 4206 
L 3009 3897 
z
" transform="scale(0.015625)"/>
     </defs>
     <use xlink:href="#DejaVuSans-2a"/>
     <use xlink:href="#DejaVuSans-2a" transform="translate(50 0)"/>
     <use xlink:href="#DejaVuSans-2a" transform="translate(100 0)"/>
     <use xlink:href="#DejaVuSans-2a" transform="translate(150 0)"/>
    </g>
   </g>
   <g id="text_11">
    <!-- **** -->
    <g transform="translate(303.2965 227.266766) scale(0.12 -0.12)">
     <use xlink:href="#DejaVuSans-2a"/>
     <use xlink:href="#DejaVuSans-2a" transform="translate(50 0)"/>
     <use xlink:href="#DejaVuSans-2a" transform="translate(100 0)"/>
     <use xlink:href="#DejaVuSans-2a" transform="translate(150 0)"/>
    </g>
   </g>
   <g id="text_12">
    <!-- (n.s.) -->
    <g transform="translate(390.457166 204.818856) scale(0.12 -0.12)">
     <defs>
      <path id="DejaVuSans-28" d="M 1984 4856 
Q 1566 4138 1362 3434 
Q 1159 2731 1159 2009 
Q 1159 1288 1364 580 
Q 1569 -128 1984 -844 
L 1484 -844 
Q 1016 -109 783 600 
Q 550 1309 550 2009 
Q 550 2706 781 3412 
Q 1013 4119 1484 4856 
L 1984 4856 
z
" transform="scale(0.015625)"/>
      <path id="DejaVuSans-6e" d="M 3513 2113 
L 3513 0 
L 2938 0 
L 2938 2094 
Q 2938 2591 2744 2837 
Q 2550 3084 2163 3084 
Q 1697 3084 1428 2787 
Q 1159 2491 1159 1978 
L 1159 0 
L 581 0 
L 581 3500 
L 1159 3500 
L 1159 2956 
Q 1366 3272 1645 3428 
Q 1925 3584 2291 3584 
Q 2894 3584 3203 3211 
Q 3513 2838 3513 2113 
z
" transform="scale(0.015625)"/>
      <path id="DejaVuSans-2e" d="M 684 794 
L 1344 794 
L 1344 0 
L 684 0 
L 684 794 
z
" transform="scale(0.015625)"/>
      <path id="DejaVuSans-73" d="M 2834 3397 
L 2834 2853 
Q 2591 2978 2328 3040 
Q 2066 3103 1784 3103 
Q 1356 3103 1142 2972 
Q 928 2841 928 2578 
Q 928 2378 1081 2264 
Q 1234 2150 1697 2047 
L 1894 2003 
Q 2506 1872 2764 1633 
Q 3022 1394 3022 966 
Q 3022 478 2636 193 
Q 2250 -91 1575 -91 
Q 1294 -91 989 -36 
Q 684 19 347 128 
L 347 722 
Q 666 556 975 473 
Q 1284 391 1588 391 
Q 1994 391 2212 530 
Q 2431 669 2431 922 
Q 2431 1156 2273 1281 
Q 2116 1406 1581 1522 
L 1381 1569 
Q 847 1681 609 1914 
Q 372 2147 372 2553 
Q 372 3047 722 3315 
Q 1072 3584 1716 3584 
Q 2034 3584 2315 3537 
Q 2597 3491 2834 3397 
z
" transform="scale(0.015625)"/>
      <path id="DejaVuSans-29" d="M 513 4856 
L 1013 4856 
Q 1481 4119 1714 3412 
Q 1947 2706 1947 2009 
Q 1947 1309 1714 600 
Q 1481 -109 1013 -844 
L 513 -844 
Q 928 -128 1133 580 
Q 1338 1288 1338 2009 
Q 1338 2731 1133 3434 
Q 928 4138 513 4856 
z
" transform="scale(0.015625)"/>
     </defs>
     <use xlink:href="#DejaVuSans-28"/>
     <use xlink:href="#DejaVuSans-6e" transform="translate(39.013672 0)"/>
     <use xlink:href="#DejaVuSans-2e" transform="translate(102.392578 0)"/>
     <use xlink:href="#DejaVuSans-73" transform="translate(134.179688 0)"/>
     <use xlink:href="#DejaVuSans-2e" transform="translate(186.279297 0)"/>
     <use xlink:href="#DejaVuSans-29" transform="translate(218.066406 0)"/>
    </g>
   </g>
   <g id="text_13">
    <!-- Inorm1 sub -->
    <g transform="translate(267.82075 19.965375) scale(0.168 -0.168)">
     <defs>
      <path id="DejaVuSans-6f" d="M 1959 3097 
Q 1497 3097 1228 2736 
Q 959 2375 959 1747 
Q 959 1119 1226 758 
Q 1494 397 1959 397 
Q 2419 397 2687 759 
Q 2956 1122 2956 1747 
Q 2956 2369 2687 2733 
Q 2419 3097 1959 3097 
z
M 1959 3584 
Q 2709 3584 3137 3096 
Q 3566 2609 3566 1747 
Q 3566 888 3137 398 
Q 2709 -91 1959 -91 
Q 1206 -91 779 398 
Q 353 888 353 1747 
Q 353 2609 779 3096 
Q 1206 3584 1959 3584 
z
" transform="scale(0.015625)"/>
      <path id="DejaVuSans-72" d="M 2631 2963 
Q 2534 3019 2420 3045 
Q 2306 3072 2169 3072 
Q 1681 3072 1420 2755 
Q 1159 2438 1159 1844 
L 1159 0 
L 581 0 
L 581 3500 
L 1159 3500 
L 1159 2956 
Q 1341 3275 1631 3429 
Q 1922 3584 2338 3584 
Q 2397 3584 2469 3576 
Q 2541 3569 2628 3553 
L 2631 2963 
z
" transform="scale(0.015625)"/>
      <path id="DejaVuSans-6d" d="M 3328 2828 
Q 3544 3216 3844 3400 
Q 4144 3584 4550 3584 
Q 5097 3584 5394 3201 
Q 5691 2819 5691 2113 
L 5691 0 
L 5113 0 
L 5113 2094 
Q 5113 2597 4934 2840 
Q 4756 3084 4391 3084 
Q 3944 3084 3684 2787 
Q 3425 2491 3425 1978 
L 3425 0 
L 2847 0 
L 2847 2094 
Q 2847 2600 2669 2842 
Q 2491 3084 2119 3084 
Q 1678 3084 1418 2786 
Q 1159 2488 1159 1978 
L 1159 0 
L 581 0 
L 581 3500 
L 1159 3500 
L 1159 2956 
Q 1356 3278 1631 3431 
Q 1906 3584 2284 3584 
Q 2666 3584 2933 3390 
Q 3200 3197 3328 2828 
z
" transform="scale(0.015625)"/>
      <path id="DejaVuSans-20" transform="scale(0.015625)"/>
      <path id="DejaVuSans-75" d="M 544 1381 
L 544 3500 
L 1119 3500 
L 1119 1403 
Q 1119 906 1312 657 
Q 1506 409 1894 409 
Q 2359 409 2629 706 
Q 2900 1003 2900 1516 
L 2900 3500 
L 3475 3500 
L 3475 0 
L 2900 0 
L 2900 538 
Q 2691 219 2414 64 
Q 2138 -91 1772 -91 
Q 1169 -91 856 284 
Q 544 659 544 1381 
z
M 1991 3584 
L 1991 3584 
z
" transform="scale(0.015625)"/>
      <path id="DejaVuSans-62" d="M 3116 1747 
Q 3116 2381 2855 2742 
Q 2594 3103 2138 3103 
Q 1681 3103 1420 2742 
Q 1159 2381 1159 1747 
Q 1159 1113 1420 752 
Q 1681 391 2138 391 
Q 2594 391 2855 752 
Q 3116 1113 3116 1747 
z
M 1159 2969 
Q 1341 3281 1617 3432 
Q 1894 3584 2278 3584 
Q 2916 3584 3314 3078 
Q 3713 2572 3713 1747 
Q 3713 922 3314 415 
Q 2916 -91 2278 -91 
Q 1894 -91 1617 61 
Q 1341 213 1159 525 
L 1159 0 
L 581 0 
L 581 4863 
L 1159 4863 
L 1159 2969 
z
" transform="scale(0.015625)"/>
     </defs>
     <use xlink:href="#DejaVuSans-49"/>
     <use xlink:href="#DejaVuSans-6e" transform="translate(29.492188 0)"/>
     <use xlink:href="#DejaVuSans-6f" transform="translate(92.871094 0)"/>
     <use xlink:href="#DejaVuSans-72" transform="translate(154.052734 0)"/>
     <use xlink:href="#DejaVuSans-6d" transform="translate(193.416016 0)"/>
     <use xlink:href="#DejaVuSans-31" transform="translate(290.828125 0)"/>
     <use xlink:href="#DejaVuSans-20" transform="translate(354.451172 0)"/>
     <use xlink:href="#DejaVuSans-73" transform="translate(386.238281 0)"/>
     <use xlink:href="#DejaVuSans-75" transform="translate(438.337891 0)"/>
     <use xlink:href="#DejaVuSans-62" transform="translate(501.716797 0)"/>
    </g>
   </g>
   <g id="line2d_20">
    <path d="M 134.127669 254.204258 
L 315.2965 254.204258 
" clip-path="url(#p06764c4c19)" style="fill: none; stroke: #000000; stroke-width: 1.5; stroke-linecap: square"/>
   </g>
   <g id="line2d_21">
    <path d="M 134.127669 231.756348 
L 496.465331 231.756348 
" clip-path="url(#p06764c4c19)" style="fill: none; stroke: #000000; stroke-width: 1.5; stroke-linecap: square"/>
   </g>
   <g id="line2d_22">
    <path d="M 315.2965 209.308438 
L 496.465331 209.308438 
" clip-path="url(#p06764c4c19)" style="fill: none; stroke: #000000; stroke-width: 1.5; stroke-linecap: square"/>
   </g>
  </g>
 </g>
 <defs>
  <clipPath id="p06764c4c19">
   <rect x="36.2965" y="25.965375" width="558" height="554.4"/>
  </clipPath>
 </defs>
</svg>
