<?xml version="1.0" encoding="utf-8" standalone="no"?>
<!DOCTYPE svg PUBLIC "-//W3C//DTD SVG 1.1//EN"
  "http://www.w3.org/Graphics/SVG/1.1/DTD/svg11.dtd">
<svg xmlns:xlink="http://www.w3.org/1999/xlink" width="606.390812pt" height="611.969687pt" viewBox="0 0 606.390812 611.969687" xmlns="http://www.w3.org/2000/svg" version="1.1">
 <metadata>
  <rdf:RDF xmlns:dc="http://purl.org/dc/elements/1.1/" xmlns:cc="http://creativecommons.org/ns#" xmlns:rdf="http://www.w3.org/1999/02/22-rdf-syntax-ns#">
   <cc:Work>
    <dc:type rdf:resource="http://purl.org/dc/dcmitype/StillImage"/>
    <dc:date>2025-07-15T16:58:35.864105</dc:date>
    <dc:format>image/svg+xml</dc:format>
    <dc:creator>
     <cc:Agent>
      <dc:title>Matplotlib v3.10.0, https://matplotlib.org/</dc:title>
     </cc:Agent>
    </dc:creator>
   </cc:Work>
  </rdf:RDF>
 </metadata>
 <defs>
  <style type="text/css">*{stroke-linejoin: round; stroke-linecap: butt}</style>
 </defs>
 <g id="figure_1">
  <g id="patch_1">
   <path d="M 0 611.969687 
L 606.390812 611.969687 
L 606.390812 -0 
L 0 -0 
z
" style="fill: #ffffff"/>
  </g>
  <g id="axes_1">
   <g id="patch_2">
    <path d="M 41.190813 580.365375 
L 599.190812 580.365375 
L 599.190812 25.965375 
L 41.190813 25.965375 
z
" style="fill: #ffffff"/>
   </g>
   <g id="line2d_1">
    <path d="M 41.190813 52.365375 
L 599.190812 52.365375 
" clip-path="url(#pff68a4b1c1)" style="fill: none; stroke: #808080; stroke-opacity: 0.5; stroke-width: 2; stroke-linecap: square"/>
   </g>
   <g id="FillBetweenPolyCollection_1">
    <defs>
     <path id="m7403cd564b" d="M 141.167728 -250.702219 
L 136.876234 -250.702219 
L 136.351375 -252.933394 
L 135.727067 -255.164569 
L 134.991941 -257.395744 
L 134.135035 -259.626919 
L 133.14622 -261.858094 
L 132.016642 -264.089269 
L 130.739176 -266.320444 
L 129.308852 -268.551619 
L 127.723233 -270.782794 
L 125.982706 -273.013969 
L 124.090677 -275.245144 
L 122.053627 -277.476319 
L 119.881029 -279.707494 
L 117.585122 -281.938669 
L 115.180544 -284.169844 
L 112.683851 -286.401019 
L 110.112947 -288.632194 
L 107.486475 -290.863369 
L 104.8232 -293.094544 
L 102.141459 -295.325719 
L 99.458695 -297.556894 
L 96.791136 -299.788069 
L 94.153638 -302.019244 
L 91.5597 -304.250419 
L 89.02165 -306.481594 
L 86.55098 -308.712769 
L 84.158782 -310.943944 
L 81.856237 -313.175118 
L 79.65511 -315.406293 
L 77.568162 -317.637468 
L 75.609455 -319.868643 
L 73.794484 -322.099818 
L 72.140109 -324.330993 
L 70.66429 -326.562168 
L 69.385613 -328.793343 
L 68.322652 -331.024518 
L 67.493202 -333.255693 
L 66.913434 -335.486868 
L 66.597046 -337.718043 
L 66.554449 -339.949218 
L 66.792064 -342.180393 
L 67.311761 -344.411568 
L 68.110475 -346.642743 
L 69.18002 -348.873918 
L 70.507101 -351.105093 
L 72.073517 -353.336268 
L 73.856537 -355.567443 
L 75.829412 -357.798618 
L 77.962015 -360.029793 
L 80.221559 -362.260968 
L 82.573374 -364.492143 
L 84.981716 -366.723318 
L 87.410596 -368.954493 
L 89.824593 -371.185668 
L 92.189659 -373.416843 
L 94.473893 -375.648018 
L 96.648279 -377.879193 
L 98.687365 -380.110368 
L 100.569884 -382.341543 
L 102.279295 -384.572718 
L 103.804226 -386.803893 
L 105.138794 -389.035068 
L 106.282791 -391.266243 
L 107.241712 -393.497418 
L 108.026607 -395.728593 
L 108.653746 -397.959768 
L 109.144097 -400.190943 
L 109.522612 -402.422118 
L 109.817352 -404.653293 
L 110.058457 -406.884468 
L 110.277017 -409.115643 
L 110.503871 -411.346818 
L 110.76841 -413.577993 
L 111.09742 -415.809168 
L 111.514039 -418.040343 
L 112.036872 -420.271518 
L 112.679324 -422.502693 
L 113.449175 -424.733868 
L 114.348422 -426.965043 
L 115.373403 -429.196218 
L 116.515177 -431.427393 
L 117.76014 -433.658568 
L 119.090841 -435.889743 
L 120.486926 -438.120918 
L 121.926182 -440.352092 
L 123.385582 -442.583267 
L 124.842307 -444.814442 
L 126.274664 -447.045617 
L 127.662879 -449.276792 
L 128.989716 -451.507967 
L 130.240917 -453.739142 
L 131.405451 -455.970317 
L 132.475588 -458.201492 
L 133.446801 -460.432667 
L 134.317544 -462.663842 
L 135.088915 -464.895017 
L 135.764253 -467.126192 
L 136.348696 -469.357367 
L 136.848722 -471.588542 
L 141.195241 -471.588542 
L 141.195241 -471.588542 
L 141.695267 -469.357367 
L 142.279709 -467.126192 
L 142.955048 -464.895017 
L 143.726419 -462.663842 
L 144.597162 -460.432667 
L 145.568375 -458.201492 
L 146.638511 -455.970317 
L 147.803046 -453.739142 
L 149.054247 -451.507967 
L 150.381084 -449.276792 
L 151.769299 -447.045617 
L 153.201656 -444.814442 
L 154.65838 -442.583267 
L 156.117781 -440.352092 
L 157.557036 -438.120918 
L 158.953122 -435.889743 
L 160.283822 -433.658568 
L 161.528786 -431.427393 
L 162.67056 -429.196218 
L 163.695541 -426.965043 
L 164.594788 -424.733868 
L 165.364638 -422.502693 
L 166.007091 -420.271518 
L 166.529924 -418.040343 
L 166.946543 -415.809168 
L 167.275553 -413.577993 
L 167.540092 -411.346818 
L 167.766946 -409.115643 
L 167.985505 -406.884468 
L 168.226611 -404.653293 
L 168.521351 -402.422118 
L 168.899866 -400.190943 
L 169.390216 -397.959768 
L 170.017355 -395.728593 
L 170.80225 -393.497418 
L 171.761172 -391.266243 
L 172.905169 -389.035068 
L 174.239736 -386.803893 
L 175.764667 -384.572718 
L 177.474079 -382.341543 
L 179.356598 -380.110368 
L 181.395683 -377.879193 
L 183.570069 -375.648018 
L 185.854304 -373.416843 
L 188.21937 -371.185668 
L 190.633366 -368.954493 
L 193.062246 -366.723318 
L 195.470589 -364.492143 
L 197.822404 -362.260968 
L 200.081948 -360.029793 
L 202.214551 -357.798618 
L 204.187426 -355.567443 
L 205.970445 -353.336268 
L 207.536862 -351.105093 
L 208.863943 -348.873918 
L 209.933488 -346.642743 
L 210.732201 -344.411568 
L 211.251898 -342.180393 
L 211.489514 -339.949218 
L 211.446917 -337.718043 
L 211.130529 -335.486868 
L 210.550761 -333.255693 
L 209.721311 -331.024518 
L 208.65835 -328.793343 
L 207.379672 -326.562168 
L 205.903853 -324.330993 
L 204.249479 -322.099818 
L 202.434507 -319.868643 
L 200.475801 -317.637468 
L 198.388853 -315.406293 
L 196.187726 -313.175118 
L 193.885181 -310.943944 
L 191.492982 -308.712769 
L 189.022313 -306.481594 
L 186.484263 -304.250419 
L 183.890325 -302.019244 
L 181.252827 -299.788069 
L 178.585268 -297.556894 
L 175.902503 -295.325719 
L 173.220762 -293.094544 
L 170.557488 -290.863369 
L 167.931015 -288.632194 
L 165.360112 -286.401019 
L 162.863419 -284.169844 
L 160.458841 -281.938669 
L 158.162934 -279.707494 
L 155.990335 -277.476319 
L 153.953285 -275.245144 
L 152.061257 -273.013969 
L 150.32073 -270.782794 
L 148.73511 -268.551619 
L 147.304787 -266.320444 
L 146.027321 -264.089269 
L 144.897743 -261.858094 
L 143.908928 -259.626919 
L 143.052022 -257.395744 
L 142.316895 -255.164569 
L 141.692588 -252.933394 
L 141.167728 -250.702219 
z
" style="stroke: #4c4c4c; stroke-opacity: 0.6; stroke-width: 1.5"/>
    </defs>
    <g clip-path="url(#pff68a4b1c1)">
     <use xlink:href="#m7403cd564b" x="0" y="611.969687" style="fill: #4c72b0; fill-opacity: 0.6; stroke: #4c4c4c; stroke-opacity: 0.6; stroke-width: 1.5"/>
    </g>
   </g>
   <g id="FillBetweenPolyCollection_2">
    <defs>
     <path id="mfc1224db9b" d="M 323.308861 -274.737483 
L 317.072764 -274.737483 
L 316.250142 -276.80633 
L 315.264126 -278.875177 
L 314.0972 -280.944025 
L 312.733677 -283.012872 
L 311.160695 -285.08172 
L 309.369208 -287.150567 
L 307.354934 -289.219414 
L 305.119147 -291.288262 
L 302.66927 -293.357109 
L 300.01917 -295.425957 
L 297.189112 -297.494804 
L 294.205351 -299.563652 
L 291.099333 -301.632499 
L 287.90657 -303.701346 
L 284.665229 -305.770194 
L 281.414552 -307.839041 
L 278.193209 -309.907889 
L 275.037725 -311.976736 
L 271.981112 -314.045583 
L 269.051815 -316.114431 
L 266.273062 -318.183278 
L 263.662664 -320.252126 
L 261.233273 -322.320973 
L 258.993047 -324.389821 
L 256.946642 -326.458668 
L 255.096413 -328.527515 
L 253.443681 -330.596363 
L 251.989923 -332.66521 
L 250.737755 -334.734058 
L 249.691598 -336.802905 
L 248.857964 -338.871752 
L 248.245323 -340.9406 
L 247.86359 -343.009447 
L 247.72328 -345.078295 
L 247.834429 -347.147142 
L 248.205409 -349.215989 
L 248.841745 -351.284837 
L 249.745074 -353.353684 
L 250.91233 -355.422532 
L 252.335245 -357.491379 
L 254.000193 -359.560227 
L 255.888394 -361.629074 
L 257.976449 -363.697921 
L 260.237146 -365.766769 
L 262.64047 -367.835616 
L 265.154727 -369.904464 
L 267.747701 -371.973311 
L 270.387756 -374.042158 
L 273.044819 -376.111006 
L 275.691195 -378.179853 
L 278.302176 -380.248701 
L 280.856428 -382.317548 
L 283.336171 -384.386396 
L 285.727147 -386.455243 
L 288.01843 -388.52409 
L 290.202084 -390.592938 
L 292.272739 -392.661785 
L 294.227102 -394.730633 
L 296.063459 -396.79948 
L 297.781203 -398.868327 
L 299.380426 -400.937175 
L 300.861601 -403.006022 
L 302.225382 -405.07487 
L 303.47253 -407.143717 
L 304.603963 -409.212565 
L 305.620933 -411.281412 
L 306.525288 -413.350259 
L 307.319797 -415.419107 
L 308.008494 -417.487954 
L 308.596995 -419.556802 
L 309.092728 -421.625649 
L 309.505055 -423.694496 
L 309.845236 -425.763344 
L 310.12623 -427.832191 
L 310.362326 -429.901039 
L 310.56862 -431.969886 
L 310.760379 -434.038733 
L 310.952343 -436.107581 
L 311.158005 -438.176428 
L 311.388951 -440.245276 
L 311.654302 -442.314123 
L 311.960306 -444.382971 
L 312.310121 -446.451818 
L 312.703795 -448.520665 
L 313.138449 -450.589513 
L 313.608627 -452.65836 
L 314.106801 -454.727208 
L 314.623966 -456.796055 
L 315.150279 -458.864902 
L 315.675701 -460.93375 
L 316.190582 -463.002597 
L 316.686159 -465.071445 
L 317.154942 -467.140292 
L 317.590972 -469.20914 
L 317.989952 -471.277987 
L 318.349251 -473.346834 
L 318.66781 -475.415682 
L 318.945975 -477.484529 
L 319.185259 -479.553377 
L 321.196366 -479.553377 
L 321.196366 -479.553377 
L 321.43565 -477.484529 
L 321.713815 -475.415682 
L 322.032374 -473.346834 
L 322.391673 -471.277987 
L 322.790653 -469.20914 
L 323.226683 -467.140292 
L 323.695466 -465.071445 
L 324.191043 -463.002597 
L 324.705924 -460.93375 
L 325.231346 -458.864902 
L 325.757659 -456.796055 
L 326.274824 -454.727208 
L 326.772998 -452.65836 
L 327.243176 -450.589513 
L 327.67783 -448.520665 
L 328.071504 -446.451818 
L 328.421319 -444.382971 
L 328.727323 -442.314123 
L 328.992674 -440.245276 
L 329.22362 -438.176428 
L 329.429282 -436.107581 
L 329.621246 -434.038733 
L 329.813005 -431.969886 
L 330.019299 -429.901039 
L 330.255395 -427.832191 
L 330.536389 -425.763344 
L 330.87657 -423.694496 
L 331.288897 -421.625649 
L 331.78463 -419.556802 
L 332.373131 -417.487954 
L 333.061828 -415.419107 
L 333.856337 -413.350259 
L 334.760692 -411.281412 
L 335.777662 -409.212565 
L 336.909095 -407.143717 
L 338.156243 -405.07487 
L 339.520024 -403.006022 
L 341.001199 -400.937175 
L 342.600422 -398.868327 
L 344.318166 -396.79948 
L 346.154523 -394.730633 
L 348.108886 -392.661785 
L 350.179541 -390.592938 
L 352.363195 -388.52409 
L 354.654478 -386.455243 
L 357.045454 -384.386396 
L 359.525197 -382.317548 
L 362.079449 -380.248701 
L 364.69043 -378.179853 
L 367.336806 -376.111006 
L 369.993869 -374.042158 
L 372.633924 -371.973311 
L 375.226898 -369.904464 
L 377.741155 -367.835616 
L 380.144479 -365.766769 
L 382.405176 -363.697921 
L 384.493231 -361.629074 
L 386.381432 -359.560227 
L 388.04638 -357.491379 
L 389.469295 -355.422532 
L 390.636551 -353.353684 
L 391.53988 -351.284837 
L 392.176216 -349.215989 
L 392.547196 -347.147142 
L 392.658345 -345.078295 
L 392.518035 -343.009447 
L 392.136302 -340.9406 
L 391.523661 -338.871752 
L 390.690027 -336.802905 
L 389.64387 -334.734058 
L 388.391702 -332.66521 
L 386.937944 -330.596363 
L 385.285212 -328.527515 
L 383.434983 -326.458668 
L 381.388578 -324.389821 
L 379.148352 -322.320973 
L 376.718961 -320.252126 
L 374.108563 -318.183278 
L 371.32981 -316.114431 
L 368.400513 -314.045583 
L 365.3439 -311.976736 
L 362.188416 -309.907889 
L 358.967073 -307.839041 
L 355.716396 -305.770194 
L 352.475055 -303.701346 
L 349.282292 -301.632499 
L 346.176274 -299.563652 
L 343.192513 -297.494804 
L 340.362455 -295.425957 
L 337.712355 -293.357109 
L 335.262478 -291.288262 
L 333.026691 -289.219414 
L 331.012417 -287.150567 
L 329.22093 -285.08172 
L 327.647948 -283.012872 
L 326.284425 -280.944025 
L 325.117499 -278.875177 
L 324.131483 -276.80633 
L 323.308861 -274.737483 
z
" style="stroke: #4c4c4c; stroke-opacity: 0.6; stroke-width: 1.5"/>
    </defs>
    <g clip-path="url(#pff68a4b1c1)">
     <use xlink:href="#mfc1224db9b" x="0" y="611.969687" style="fill: #dd8452; fill-opacity: 0.6; stroke: #4c4c4c; stroke-opacity: 0.6; stroke-width: 1.5"/>
    </g>
   </g>
   <g id="FillBetweenPolyCollection_3">
    <defs>
     <path id="m63daaf88b8" d="M 502.892321 -339.55836 
L 499.826966 -339.55836 
L 499.453984 -341.527193 
L 499.012702 -343.496026 
L 498.496249 -345.46486 
L 497.898262 -347.433693 
L 497.213125 -349.402526 
L 496.436176 -351.37136 
L 495.563878 -353.340193 
L 494.593913 -355.309026 
L 493.525188 -357.27786 
L 492.357745 -359.246693 
L 491.09256 -361.215526 
L 489.731243 -363.18436 
L 488.275663 -365.153193 
L 486.727515 -367.122026 
L 485.087888 -369.09086 
L 483.356876 -371.059693 
L 481.533303 -373.028526 
L 479.6146 -374.99736 
L 477.596905 -376.966193 
L 475.475412 -378.935026 
L 473.244989 -380.90386 
L 470.901051 -382.872693 
L 468.440651 -384.841526 
L 465.863717 -386.81036 
L 463.174347 -388.779193 
L 460.382022 -390.748026 
L 457.50263 -392.71686 
L 454.559156 -394.685693 
L 451.581923 -396.654526 
L 448.608301 -398.62336 
L 445.681818 -400.592193 
L 442.850694 -402.561026 
L 440.16582 -404.52986 
L 437.67831 -406.498693 
L 435.436765 -408.467526 
L 433.484439 -410.436359 
L 431.85652 -412.405193 
L 430.577732 -414.374026 
L 429.660469 -416.342859 
L 429.103604 -418.311693 
L 428.892111 -420.280526 
L 428.997532 -422.249359 
L 429.379295 -424.218193 
L 429.986792 -426.187026 
L 430.762097 -428.155859 
L 431.643133 -430.124693 
L 432.567073 -432.093526 
L 433.473762 -434.062359 
L 434.308934 -436.031193 
L 435.027018 -438.000026 
L 435.593382 -439.968859 
L 435.985891 -441.937693 
L 436.19571 -443.906526 
L 436.227343 -445.875359 
L 436.097942 -447.844193 
L 435.835962 -449.813026 
L 435.479283 -451.781859 
L 435.072926 -453.750693 
L 434.666524 -455.719526 
L 434.3117 -457.688359 
L 434.059493 -459.657193 
L 433.957974 -461.626026 
L 434.050158 -463.594859 
L 434.372291 -465.563693 
L 434.952577 -467.532526 
L 435.810375 -469.501359 
L 436.955845 -471.470193 
L 438.390047 -473.439026 
L 440.10542 -475.407859 
L 442.086588 -477.376693 
L 444.311422 -479.345526 
L 446.752276 -481.314359 
L 449.377305 -483.283193 
L 452.151814 -485.252026 
L 455.039547 -487.220859 
L 458.003889 -489.189693 
L 461.008917 -491.158526 
L 464.020288 -493.127359 
L 467.005961 -495.096193 
L 469.936731 -497.065026 
L 472.78661 -499.033859 
L 475.533059 -501.002693 
L 478.15709 -502.971526 
L 480.643274 -504.940359 
L 482.979662 -506.909193 
L 485.157645 -508.878026 
L 487.171769 -510.846859 
L 489.019508 -512.815693 
L 490.70102 -514.784526 
L 492.218872 -516.753359 
L 493.577752 -518.722193 
L 494.784169 -520.691026 
L 495.846143 -522.659859 
L 496.772888 -524.628693 
L 497.574498 -526.597526 
L 498.261647 -528.566359 
L 498.845292 -530.535193 
L 499.336411 -532.504026 
L 499.745763 -534.472859 
L 502.973525 -534.472859 
L 502.973525 -534.472859 
L 503.382876 -532.504026 
L 503.873995 -530.535193 
L 504.45764 -528.566359 
L 505.144789 -526.597526 
L 505.946399 -524.628693 
L 506.873144 -522.659859 
L 507.935118 -520.691026 
L 509.141536 -518.722193 
L 510.500416 -516.753359 
L 512.018267 -514.784526 
L 513.699779 -512.815693 
L 515.547519 -510.846859 
L 517.561642 -508.878026 
L 519.739625 -506.909193 
L 522.076013 -504.940359 
L 524.562197 -502.971526 
L 527.186228 -501.002693 
L 529.932677 -499.033859 
L 532.782556 -497.065026 
L 535.713326 -495.096193 
L 538.698999 -493.127359 
L 541.710371 -491.158526 
L 544.715398 -489.189693 
L 547.67974 -487.220859 
L 550.567474 -485.252026 
L 553.341982 -483.283193 
L 555.967011 -481.314359 
L 558.407865 -479.345526 
L 560.6327 -477.376693 
L 562.613867 -475.407859 
L 564.32924 -473.439026 
L 565.763442 -471.470193 
L 566.908913 -469.501359 
L 567.76671 -467.532526 
L 568.346997 -465.563693 
L 568.669129 -463.594859 
L 568.761313 -461.626026 
L 568.659795 -459.657193 
L 568.407588 -457.688359 
L 568.052763 -455.719526 
L 567.646361 -453.750693 
L 567.240004 -451.781859 
L 566.883325 -449.813026 
L 566.621345 -447.844193 
L 566.491944 -445.875359 
L 566.523577 -443.906526 
L 566.733396 -441.937693 
L 567.125905 -439.968859 
L 567.69227 -438.000026 
L 568.410354 -436.031193 
L 569.245526 -434.062359 
L 570.152215 -432.093526 
L 571.076154 -430.124693 
L 571.95719 -428.155859 
L 572.732496 -426.187026 
L 573.339993 -424.218193 
L 573.721755 -422.249359 
L 573.827176 -420.280526 
L 573.615683 -418.311693 
L 573.058819 -416.342859 
L 572.141555 -414.374026 
L 570.862768 -412.405193 
L 569.234848 -410.436359 
L 567.282522 -408.467526 
L 565.040977 -406.498693 
L 562.553467 -404.52986 
L 559.868593 -402.561026 
L 557.037469 -400.592193 
L 554.110987 -398.62336 
L 551.137364 -396.654526 
L 548.160131 -394.685693 
L 545.216657 -392.71686 
L 542.337265 -390.748026 
L 539.54494 -388.779193 
L 536.85557 -386.81036 
L 534.278637 -384.841526 
L 531.818236 -382.872693 
L 529.474298 -380.90386 
L 527.243875 -378.935026 
L 525.122383 -376.966193 
L 523.104687 -374.99736 
L 521.185984 -373.028526 
L 519.362411 -371.059693 
L 517.6314 -369.09086 
L 515.991772 -367.122026 
L 514.443624 -365.153193 
L 512.988044 -363.18436 
L 511.626728 -361.215526 
L 510.361542 -359.246693 
L 509.194099 -357.27786 
L 508.125374 -355.309026 
L 507.155409 -353.340193 
L 506.283111 -351.37136 
L 505.506162 -349.402526 
L 504.821025 -347.433693 
L 504.223039 -345.46486 
L 503.706586 -343.496026 
L 503.265303 -341.527193 
L 502.892321 -339.55836 
z
" style="stroke: #4c4c4c; stroke-opacity: 0.6; stroke-width: 1.5"/>
    </defs>
    <g clip-path="url(#pff68a4b1c1)">
     <use xlink:href="#m63daaf88b8" x="0" y="611.969687" style="fill: #55a868; fill-opacity: 0.6; stroke: #4c4c4c; stroke-opacity: 0.6; stroke-width: 1.5"/>
    </g>
   </g>
   <g id="PathCollection_1">
    <defs>
     <path id="C0_0_3076b51d00" d="M 0 2 
C 0.530406 2 1.03916 1.789267 1.414214 1.414214 
C 1.789267 1.03916 2 0.530406 2 -0 
C 2 -0.530406 1.789267 -1.03916 1.414214 -1.414214 
C 1.03916 -1.789267 0.530406 -2 0 -2 
C -0.530406 -2 -1.03916 -1.789267 -1.414214 -1.414214 
C -1.789267 -1.03916 -2 -0.530406 -2 0 
C -2 0.530406 -1.789267 1.03916 -1.414214 1.414214 
C -1.03916 1.789267 -0.530406 2 0 2 
z
"/>
    </defs>
    <g clip-path="url(#pff68a4b1c1)">
     <use xlink:href="#C0_0_3076b51d00" x="139.021981" y="269.328243" style="fill: #4c72b0"/>
    </g>
    <g clip-path="url(#pff68a4b1c1)">
     <use xlink:href="#C0_0_3076b51d00" x="139.021981" y="281.549621" style="fill: #4c72b0"/>
    </g>
    <g clip-path="url(#pff68a4b1c1)">
     <use xlink:href="#C0_0_3076b51d00" x="139.021981" y="302.198559" style="fill: #4c72b0"/>
    </g>
    <g clip-path="url(#pff68a4b1c1)">
     <use xlink:href="#C0_0_3076b51d00" x="139.021981" y="245.677674" style="fill: #4c72b0"/>
    </g>
    <g clip-path="url(#pff68a4b1c1)">
     <use xlink:href="#C0_0_3076b51d00" x="136.004553" y="253.759229" style="fill: #4c72b0"/>
    </g>
    <g clip-path="url(#pff68a4b1c1)">
     <use xlink:href="#C0_0_3076b51d00" x="135.156008" y="279.986368" style="fill: #4c72b0"/>
    </g>
    <g clip-path="url(#pff68a4b1c1)">
     <use xlink:href="#C0_0_3076b51d00" x="134.931117" y="306.300014" style="fill: #4c72b0"/>
    </g>
    <g clip-path="url(#pff68a4b1c1)">
     <use xlink:href="#C0_0_3076b51d00" x="139.021981" y="194.525277" style="fill: #4c72b0"/>
    </g>
    <g clip-path="url(#pff68a4b1c1)">
     <use xlink:href="#C0_0_3076b51d00" x="139.021981" y="185.611636" style="fill: #4c72b0"/>
    </g>
    <g clip-path="url(#pff68a4b1c1)">
     <use xlink:href="#C0_0_3076b51d00" x="135.398825" y="243.654511" style="fill: #4c72b0"/>
    </g>
    <g clip-path="url(#pff68a4b1c1)">
     <use xlink:href="#C0_0_3076b51d00" x="139.021981" y="274.180481" style="fill: #4c72b0"/>
    </g>
    <g clip-path="url(#pff68a4b1c1)">
     <use xlink:href="#C0_0_3076b51d00" x="139.021981" y="189.672382" style="fill: #4c72b0"/>
    </g>
    <g clip-path="url(#pff68a4b1c1)">
     <use xlink:href="#C0_0_3076b51d00" x="134.840729" y="273.802967" style="fill: #4c72b0"/>
    </g>
    <g clip-path="url(#pff68a4b1c1)">
     <use xlink:href="#C0_0_3076b51d00" x="139.021981" y="220.863379" style="fill: #4c72b0"/>
    </g>
    <g clip-path="url(#pff68a4b1c1)">
     <use xlink:href="#C0_0_3076b51d00" x="139.021981" y="256.541605" style="fill: #4c72b0"/>
    </g>
    <g clip-path="url(#pff68a4b1c1)">
     <use xlink:href="#C0_0_3076b51d00" x="143.089446" y="273.183558" style="fill: #4c72b0"/>
    </g>
    <g clip-path="url(#pff68a4b1c1)">
     <use xlink:href="#C0_0_3076b51d00" x="139.021981" y="316.036978" style="fill: #4c72b0"/>
    </g>
    <g clip-path="url(#pff68a4b1c1)">
     <use xlink:href="#C0_0_3076b51d00" x="139.021981" y="307.205941" style="fill: #4c72b0"/>
    </g>
   </g>
   <g id="PathCollection_2">
    <defs>
     <path id="C1_0_212f507db2" d="M 0 2 
C 0.530406 2 1.03916 1.789267 1.414214 1.414214 
C 1.789267 1.03916 2 0.530406 2 -0 
C 2 -0.530406 1.789267 -1.03916 1.414214 -1.414214 
C 1.03916 -1.789267 0.530406 -2 0 -2 
C -0.530406 -2 -1.03916 -1.789267 -1.414214 -1.414214 
C -1.789267 -1.03916 -2 -0.530406 -2 0 
C -2 0.530406 -1.789267 1.03916 -1.414214 1.414214 
C -1.03916 1.789267 -0.530406 2 0 2 
z
"/>
    </defs>
    <g clip-path="url(#pff68a4b1c1)">
     <use xlink:href="#C1_0_212f507db2" x="321.637776" y="246.734289" style="fill: #dd8452"/>
    </g>
    <g clip-path="url(#pff68a4b1c1)">
     <use xlink:href="#C1_0_212f507db2" x="320.190812" y="271.682827" style="fill: #dd8452"/>
    </g>
    <g clip-path="url(#pff68a4b1c1)">
     <use xlink:href="#C1_0_212f507db2" x="320.190812" y="276.625691" style="fill: #dd8452"/>
    </g>
    <g clip-path="url(#pff68a4b1c1)">
     <use xlink:href="#C1_0_212f507db2" x="320.190812" y="227.253781" style="fill: #dd8452"/>
    </g>
    <g clip-path="url(#pff68a4b1c1)">
     <use xlink:href="#C1_0_212f507db2" x="317.72886" y="248.197483" style="fill: #dd8452"/>
    </g>
    <g clip-path="url(#pff68a4b1c1)">
     <use xlink:href="#C1_0_212f507db2" x="320.190812" y="232.881713" style="fill: #dd8452"/>
    </g>
    <g clip-path="url(#pff68a4b1c1)">
     <use xlink:href="#C1_0_212f507db2" x="315.991757" y="299.314084" style="fill: #dd8452"/>
    </g>
    <g clip-path="url(#pff68a4b1c1)">
     <use xlink:href="#C1_0_212f507db2" x="320.190812" y="207.246278" style="fill: #dd8452"/>
    </g>
    <g clip-path="url(#pff68a4b1c1)">
     <use xlink:href="#C1_0_212f507db2" x="320.190812" y="170.249617" style="fill: #dd8452"/>
    </g>
    <g clip-path="url(#pff68a4b1c1)">
     <use xlink:href="#C1_0_212f507db2" x="322.556232" y="259.650669" style="fill: #dd8452"/>
    </g>
    <g clip-path="url(#pff68a4b1c1)">
     <use xlink:href="#C1_0_212f507db2" x="320.190812" y="267.547138" style="fill: #dd8452"/>
    </g>
    <g clip-path="url(#pff68a4b1c1)">
     <use xlink:href="#C1_0_212f507db2" x="320.190812" y="251.438209" style="fill: #dd8452"/>
    </g>
    <g clip-path="url(#pff68a4b1c1)">
     <use xlink:href="#C1_0_212f507db2" x="320.190812" y="287.645698" style="fill: #dd8452"/>
    </g>
    <g clip-path="url(#pff68a4b1c1)">
     <use xlink:href="#C1_0_212f507db2" x="320.190812" y="262.955965" style="fill: #dd8452"/>
    </g>
    <g clip-path="url(#pff68a4b1c1)">
     <use xlink:href="#C1_0_212f507db2" x="316.393026" y="261.247823" style="fill: #dd8452"/>
    </g>
    <g clip-path="url(#pff68a4b1c1)">
     <use xlink:href="#C1_0_212f507db2" x="316.058211" y="291.214063" style="fill: #dd8452"/>
    </g>
    <g clip-path="url(#pff68a4b1c1)">
     <use xlink:href="#C1_0_212f507db2" x="320.190812" y="299.398899" style="fill: #dd8452"/>
    </g>
    <g clip-path="url(#pff68a4b1c1)">
     <use xlink:href="#C1_0_212f507db2" x="320.190812" y="291.927782" style="fill: #dd8452"/>
    </g>
   </g>
   <g id="PathCollection_3">
    <defs>
     <path id="C2_0_1bc5dba53c" d="M 0 2 
C 0.530406 2 1.03916 1.789267 1.414214 1.414214 
C 1.789267 1.03916 2 0.530406 2 -0 
C 2 -0.530406 1.789267 -1.03916 1.414214 -1.414214 
C 1.03916 -1.789267 0.530406 -2 0 -2 
C -0.530406 -2 -1.03916 -1.789267 -1.414214 -1.414214 
C -1.789267 -1.03916 -2 -0.530406 -2 0 
C -2 0.530406 -1.789267 1.03916 -1.414214 1.414214 
C -1.03916 1.789267 -0.530406 2 0 2 
z
"/>
    </defs>
    <g clip-path="url(#pff68a4b1c1)">
     <use xlink:href="#C2_0_1bc5dba53c" x="501.359644" y="201.151135" style="fill: #55a868"/>
    </g>
    <g clip-path="url(#pff68a4b1c1)">
     <use xlink:href="#C2_0_1bc5dba53c" x="501.359644" y="182.68214" style="fill: #55a868"/>
    </g>
    <g clip-path="url(#pff68a4b1c1)">
     <use xlink:href="#C2_0_1bc5dba53c" x="497.18558" y="192.055394" style="fill: #55a868"/>
    </g>
    <g clip-path="url(#pff68a4b1c1)">
     <use xlink:href="#C2_0_1bc5dba53c" x="501.359644" y="192.499238" style="fill: #55a868"/>
    </g>
    <g clip-path="url(#pff68a4b1c1)">
     <use xlink:href="#C2_0_1bc5dba53c" x="501.359644" y="222.311624" style="fill: #55a868"/>
    </g>
    <g clip-path="url(#pff68a4b1c1)">
     <use xlink:href="#C2_0_1bc5dba53c" x="501.359644" y="234.50488" style="fill: #55a868"/>
    </g>
    <g clip-path="url(#pff68a4b1c1)">
     <use xlink:href="#C2_0_1bc5dba53c" x="501.359644" y="167.77761" style="fill: #55a868"/>
    </g>
    <g clip-path="url(#pff68a4b1c1)">
     <use xlink:href="#C2_0_1bc5dba53c" x="506.528596" y="196.901868" style="fill: #55a868"/>
    </g>
    <g clip-path="url(#pff68a4b1c1)">
     <use xlink:href="#C2_0_1bc5dba53c" x="501.359644" y="129.101361" style="fill: #55a868"/>
    </g>
    <g clip-path="url(#pff68a4b1c1)">
     <use xlink:href="#C2_0_1bc5dba53c" x="500.867542" y="148.344958" style="fill: #55a868"/>
    </g>
    <g clip-path="url(#pff68a4b1c1)">
     <use xlink:href="#C2_0_1bc5dba53c" x="501.359644" y="158.989762" style="fill: #55a868"/>
    </g>
    <g clip-path="url(#pff68a4b1c1)">
     <use xlink:href="#C2_0_1bc5dba53c" x="501.359644" y="139.854093" style="fill: #55a868"/>
    </g>
    <g clip-path="url(#pff68a4b1c1)">
     <use xlink:href="#C2_0_1bc5dba53c" x="498.352194" y="198.358978" style="fill: #55a868"/>
    </g>
    <g clip-path="url(#pff68a4b1c1)">
     <use xlink:href="#C2_0_1bc5dba53c" x="501.359644" y="152.317407" style="fill: #55a868"/>
    </g>
    <g clip-path="url(#pff68a4b1c1)">
     <use xlink:href="#C2_0_1bc5dba53c" x="501.359644" y="115.403276" style="fill: #55a868"/>
    </g>
    <g clip-path="url(#pff68a4b1c1)">
     <use xlink:href="#C2_0_1bc5dba53c" x="502.332926" y="197.083438" style="fill: #55a868"/>
    </g>
    <g clip-path="url(#pff68a4b1c1)">
     <use xlink:href="#C2_0_1bc5dba53c" x="504.12092" y="145.81522" style="fill: #55a868"/>
    </g>
    <g clip-path="url(#pff68a4b1c1)">
     <use xlink:href="#C2_0_1bc5dba53c" x="501.359644" y="135.231998" style="fill: #55a868"/>
    </g>
   </g>
   <g id="matplotlib.axis_1">
    <g id="xtick_1">
     <g id="line2d_2">
      <defs>
       <path id="mbe0c1b40b0" d="M 0 0 
L 0 6 
" style="stroke: #000000; stroke-width: 1.25"/>
      </defs>
      <g>
       <use xlink:href="#mbe0c1b40b0" x="139.021981" y="580.365375" style="stroke: #000000; stroke-width: 1.25"/>
      </g>
     </g>
     <g id="text_1">
      <!-- HC -->
      <g transform="translate(127.854575 601.566969) scale(0.154 -0.154)">
       <defs>
        <path id="DejaVuSans-48" d="M 628 4666 
L 1259 4666 
L 1259 2753 
L 3553 2753 
L 3553 4666 
L 4184 4666 
L 4184 0 
L 3553 0 
L 3553 2222 
L 1259 2222 
L 1259 0 
L 628 0 
L 628 4666 
z
" transform="scale(0.015625)"/>
        <path id="DejaVuSans-43" d="M 4122 4306 
L 4122 3641 
Q 3803 3938 3442 4084 
Q 3081 4231 2675 4231 
Q 1875 4231 1450 3742 
Q 1025 3253 1025 2328 
Q 1025 1406 1450 917 
Q 1875 428 2675 428 
Q 3081 428 3442 575 
Q 3803 722 4122 1019 
L 4122 359 
Q 3791 134 3420 21 
Q 3050 -91 2638 -91 
Q 1578 -91 968 557 
Q 359 1206 359 2328 
Q 359 3453 968 4101 
Q 1578 4750 2638 4750 
Q 3056 4750 3426 4639 
Q 3797 4528 4122 4306 
z
" transform="scale(0.015625)"/>
       </defs>
       <use xlink:href="#DejaVuSans-48"/>
       <use xlink:href="#DejaVuSans-43" transform="translate(75.195312 0)"/>
      </g>
     </g>
    </g>
    <g id="xtick_2">
     <g id="line2d_3">
      <g>
       <use xlink:href="#mbe0c1b40b0" x="320.190812" y="580.365375" style="stroke: #000000; stroke-width: 1.25"/>
      </g>
     </g>
     <g id="text_2">
      <!-- MCI -->
      <g transform="translate(305.898891 601.566969) scale(0.154 -0.154)">
       <defs>
        <path id="DejaVuSans-4d" d="M 628 4666 
L 1569 4666 
L 2759 1491 
L 3956 4666 
L 4897 4666 
L 4897 0 
L 4281 0 
L 4281 4097 
L 3078 897 
L 2444 897 
L 1241 4097 
L 1241 0 
L 628 0 
L 628 4666 
z
" transform="scale(0.015625)"/>
        <path id="DejaVuSans-49" d="M 628 4666 
L 1259 4666 
L 1259 0 
L 628 0 
L 628 4666 
z
" transform="scale(0.015625)"/>
       </defs>
       <use xlink:href="#DejaVuSans-4d"/>
       <use xlink:href="#DejaVuSans-43" transform="translate(86.279297 0)"/>
       <use xlink:href="#DejaVuSans-49" transform="translate(156.103516 0)"/>
      </g>
     </g>
    </g>
    <g id="xtick_3">
     <g id="line2d_4">
      <g>
       <use xlink:href="#mbe0c1b40b0" x="501.359644" y="580.365375" style="stroke: #000000; stroke-width: 1.25"/>
      </g>
     </g>
     <g id="text_3">
      <!-- AD -->
      <g transform="translate(490.163362 601.566969) scale(0.154 -0.154)">
       <defs>
        <path id="DejaVuSans-41" d="M 2188 4044 
L 1331 1722 
L 3047 1722 
L 2188 4044 
z
M 1831 4666 
L 2547 4666 
L 4325 0 
L 3669 0 
L 3244 1197 
L 1141 1197 
L 716 0 
L 50 0 
L 1831 4666 
z
" transform="scale(0.015625)"/>
        <path id="DejaVuSans-44" d="M 1259 4147 
L 1259 519 
L 2022 519 
Q 2988 519 3436 956 
Q 3884 1394 3884 2338 
Q 3884 3275 3436 3711 
Q 2988 4147 2022 4147 
L 1259 4147 
z
M 628 4666 
L 1925 4666 
Q 3281 4666 3915 4102 
Q 4550 3538 4550 2338 
Q 4550 1131 3912 565 
Q 3275 0 1925 0 
L 628 0 
L 628 4666 
z
" transform="scale(0.015625)"/>
       </defs>
       <use xlink:href="#DejaVuSans-41"/>
       <use xlink:href="#DejaVuSans-44" transform="translate(68.408203 0)"/>
      </g>
     </g>
    </g>
   </g>
   <g id="matplotlib.axis_2">
    <g id="ytick_1">
     <g id="line2d_5">
      <defs>
       <path id="mc2610d1b63" d="M 0 0 
L -6 0 
" style="stroke: #000000; stroke-width: 1.25"/>
      </defs>
      <g>
       <use xlink:href="#mc2610d1b63" x="41.190813" y="580.365375" style="stroke: #000000; stroke-width: 1.25"/>
      </g>
     </g>
     <g id="text_4">
      <!-- 0.0 -->
      <g transform="translate(7.2 586.216172) scale(0.154 -0.154)">
       <defs>
        <path id="DejaVuSans-30" d="M 2034 4250 
Q 1547 4250 1301 3770 
Q 1056 3291 1056 2328 
Q 1056 1369 1301 889 
Q 1547 409 2034 409 
Q 2525 409 2770 889 
Q 3016 1369 3016 2328 
Q 3016 3291 2770 3770 
Q 2525 4250 2034 4250 
z
M 2034 4750 
Q 2819 4750 3233 4129 
Q 3647 3509 3647 2328 
Q 3647 1150 3233 529 
Q 2819 -91 2034 -91 
Q 1250 -91 836 529 
Q 422 1150 422 2328 
Q 422 3509 836 4129 
Q 1250 4750 2034 4750 
z
" transform="scale(0.015625)"/>
        <path id="DejaVuSans-2e" d="M 684 794 
L 1344 794 
L 1344 0 
L 684 0 
L 684 794 
z
" transform="scale(0.015625)"/>
       </defs>
       <use xlink:href="#DejaVuSans-30"/>
       <use xlink:href="#DejaVuSans-2e" transform="translate(63.623047 0)"/>
       <use xlink:href="#DejaVuSans-30" transform="translate(95.410156 0)"/>
      </g>
     </g>
    </g>
    <g id="ytick_2">
     <g id="line2d_6">
      <g>
       <use xlink:href="#mc2610d1b63" x="41.190813" y="474.765375" style="stroke: #000000; stroke-width: 1.25"/>
      </g>
     </g>
     <g id="text_5">
      <!-- 0.2 -->
      <g transform="translate(7.2 480.616172) scale(0.154 -0.154)">
       <defs>
        <path id="DejaVuSans-32" d="M 1228 531 
L 3431 531 
L 3431 0 
L 469 0 
L 469 531 
Q 828 903 1448 1529 
Q 2069 2156 2228 2338 
Q 2531 2678 2651 2914 
Q 2772 3150 2772 3378 
Q 2772 3750 2511 3984 
Q 2250 4219 1831 4219 
Q 1534 4219 1204 4116 
Q 875 4013 500 3803 
L 500 4441 
Q 881 4594 1212 4672 
Q 1544 4750 1819 4750 
Q 2544 4750 2975 4387 
Q 3406 4025 3406 3419 
Q 3406 3131 3298 2873 
Q 3191 2616 2906 2266 
Q 2828 2175 2409 1742 
Q 1991 1309 1228 531 
z
" transform="scale(0.015625)"/>
       </defs>
       <use xlink:href="#DejaVuSans-30"/>
       <use xlink:href="#DejaVuSans-2e" transform="translate(63.623047 0)"/>
       <use xlink:href="#DejaVuSans-32" transform="translate(95.410156 0)"/>
      </g>
     </g>
    </g>
    <g id="ytick_3">
     <g id="line2d_7">
      <g>
       <use xlink:href="#mc2610d1b63" x="41.190813" y="369.165375" style="stroke: #000000; stroke-width: 1.25"/>
      </g>
     </g>
     <g id="text_6">
      <!-- 0.4 -->
      <g transform="translate(7.2 375.016172) scale(0.154 -0.154)">
       <defs>
        <path id="DejaVuSans-34" d="M 2419 4116 
L 825 1625 
L 2419 1625 
L 2419 4116 
z
M 2253 4666 
L 3047 4666 
L 3047 1625 
L 3713 1625 
L 3713 1100 
L 3047 1100 
L 3047 0 
L 2419 0 
L 2419 1100 
L 313 1100 
L 313 1709 
L 2253 4666 
z
" transform="scale(0.015625)"/>
       </defs>
       <use xlink:href="#DejaVuSans-30"/>
       <use xlink:href="#DejaVuSans-2e" transform="translate(63.623047 0)"/>
       <use xlink:href="#DejaVuSans-34" transform="translate(95.410156 0)"/>
      </g>
     </g>
    </g>
    <g id="ytick_4">
     <g id="line2d_8">
      <g>
       <use xlink:href="#mc2610d1b63" x="41.190813" y="263.565375" style="stroke: #000000; stroke-width: 1.25"/>
      </g>
     </g>
     <g id="text_7">
      <!-- 0.6 -->
      <g transform="translate(7.2 269.416172) scale(0.154 -0.154)">
       <defs>
        <path id="DejaVuSans-36" d="M 2113 2584 
Q 1688 2584 1439 2293 
Q 1191 2003 1191 1497 
Q 1191 994 1439 701 
Q 1688 409 2113 409 
Q 2538 409 2786 701 
Q 3034 994 3034 1497 
Q 3034 2003 2786 2293 
Q 2538 2584 2113 2584 
z
M 3366 4563 
L 3366 3988 
Q 3128 4100 2886 4159 
Q 2644 4219 2406 4219 
Q 1781 4219 1451 3797 
Q 1122 3375 1075 2522 
Q 1259 2794 1537 2939 
Q 1816 3084 2150 3084 
Q 2853 3084 3261 2657 
Q 3669 2231 3669 1497 
Q 3669 778 3244 343 
Q 2819 -91 2113 -91 
Q 1303 -91 875 529 
Q 447 1150 447 2328 
Q 447 3434 972 4092 
Q 1497 4750 2381 4750 
Q 2619 4750 2861 4703 
Q 3103 4656 3366 4563 
z
" transform="scale(0.015625)"/>
       </defs>
       <use xlink:href="#DejaVuSans-30"/>
       <use xlink:href="#DejaVuSans-2e" transform="translate(63.623047 0)"/>
       <use xlink:href="#DejaVuSans-36" transform="translate(95.410156 0)"/>
      </g>
     </g>
    </g>
    <g id="ytick_5">
     <g id="line2d_9">
      <g>
       <use xlink:href="#mc2610d1b63" x="41.190813" y="157.965375" style="stroke: #000000; stroke-width: 1.25"/>
      </g>
     </g>
     <g id="text_8">
      <!-- 0.8 -->
      <g transform="translate(7.2 163.816172) scale(0.154 -0.154)">
       <defs>
        <path id="DejaVuSans-38" d="M 2034 2216 
Q 1584 2216 1326 1975 
Q 1069 1734 1069 1313 
Q 1069 891 1326 650 
Q 1584 409 2034 409 
Q 2484 409 2743 651 
Q 3003 894 3003 1313 
Q 3003 1734 2745 1975 
Q 2488 2216 2034 2216 
z
M 1403 2484 
Q 997 2584 770 2862 
Q 544 3141 544 3541 
Q 544 4100 942 4425 
Q 1341 4750 2034 4750 
Q 2731 4750 3128 4425 
Q 3525 4100 3525 3541 
Q 3525 3141 3298 2862 
Q 3072 2584 2669 2484 
Q 3125 2378 3379 2068 
Q 3634 1759 3634 1313 
Q 3634 634 3220 271 
Q 2806 -91 2034 -91 
Q 1263 -91 848 271 
Q 434 634 434 1313 
Q 434 1759 690 2068 
Q 947 2378 1403 2484 
z
M 1172 3481 
Q 1172 3119 1398 2916 
Q 1625 2713 2034 2713 
Q 2441 2713 2670 2916 
Q 2900 3119 2900 3481 
Q 2900 3844 2670 4047 
Q 2441 4250 2034 4250 
Q 1625 4250 1398 4047 
Q 1172 3844 1172 3481 
z
" transform="scale(0.015625)"/>
       </defs>
       <use xlink:href="#DejaVuSans-30"/>
       <use xlink:href="#DejaVuSans-2e" transform="translate(63.623047 0)"/>
       <use xlink:href="#DejaVuSans-38" transform="translate(95.410156 0)"/>
      </g>
     </g>
    </g>
    <g id="ytick_6">
     <g id="line2d_10">
      <g>
       <use xlink:href="#mc2610d1b63" x="41.190813" y="52.365375" style="stroke: #000000; stroke-width: 1.25"/>
      </g>
     </g>
     <g id="text_9">
      <!-- 1.0 -->
      <g transform="translate(7.2 58.216172) scale(0.154 -0.154)">
       <defs>
        <path id="DejaVuSans-31" d="M 794 531 
L 1825 531 
L 1825 4091 
L 703 3866 
L 703 4441 
L 1819 4666 
L 2450 4666 
L 2450 531 
L 3481 531 
L 3481 0 
L 794 0 
L 794 531 
z
" transform="scale(0.015625)"/>
       </defs>
       <use xlink:href="#DejaVuSans-31"/>
       <use xlink:href="#DejaVuSans-2e" transform="translate(63.623047 0)"/>
       <use xlink:href="#DejaVuSans-30" transform="translate(95.410156 0)"/>
      </g>
     </g>
    </g>
   </g>
   <g id="line2d_11">
    <path d="M 139.021981 316.036978 
L 139.021981 189.672382 
" clip-path="url(#pff68a4b1c1)" style="fill: none; stroke: #4c4c4c; stroke-width: 2.25; stroke-linecap: square"/>
   </g>
   <g id="line2d_12">
    <path d="M 139.021981 281.158808 
L 139.021981 244.160302 
" clip-path="url(#pff68a4b1c1)" style="fill: none; stroke: #4c4c4c; stroke-width: 6.75; stroke-linecap: square"/>
   </g>
   <g id="line2d_13">
    <path d="M 139.021981 271.2559 
" clip-path="url(#pff68a4b1c1)" style="fill: none; stroke: #4c4c4c; stroke-width: 1.5; stroke-linecap: square"/>
    <defs>
     <path id="m0b45320b83" d="M 2.8125 0 
L -2.8125 -0 
" style="stroke: #ffffff; stroke-width: 1.35"/>
    </defs>
    <g clip-path="url(#pff68a4b1c1)">
     <use xlink:href="#m0b45320b83" x="139.021981" y="271.2559" style="fill: #ffffff; stroke: #ffffff; stroke-width: 1.35"/>
    </g>
   </g>
   <g id="line2d_14">
    <path d="M 320.190812 299.398899 
L 320.190812 207.246278 
" clip-path="url(#pff68a4b1c1)" style="fill: none; stroke: #4c4c4c; stroke-width: 2.25; stroke-linecap: square"/>
   </g>
   <g id="line2d_15">
    <path d="M 320.190812 284.890696 
L 320.190812 247.100088 
" clip-path="url(#pff68a4b1c1)" style="fill: none; stroke: #4c4c4c; stroke-width: 6.75; stroke-linecap: square"/>
   </g>
   <g id="line2d_16">
    <path d="M 320.190812 262.101894 
" clip-path="url(#pff68a4b1c1)" style="fill: none; stroke: #4c4c4c; stroke-width: 1.5; stroke-linecap: square"/>
    <g clip-path="url(#pff68a4b1c1)">
     <use xlink:href="#m0b45320b83" x="320.190812" y="262.101894" style="fill: #ffffff; stroke: #ffffff; stroke-width: 1.35"/>
    </g>
   </g>
   <g id="line2d_17">
    <path d="M 501.359644 234.50488 
L 501.359644 115.403276 
" clip-path="url(#pff68a4b1c1)" style="fill: none; stroke: #4c4c4c; stroke-width: 2.25; stroke-linecap: square"/>
   </g>
   <g id="line2d_18">
    <path d="M 501.359644 197.038045 
L 501.359644 146.447655 
" clip-path="url(#pff68a4b1c1)" style="fill: none; stroke: #4c4c4c; stroke-width: 6.75; stroke-linecap: square"/>
   </g>
   <g id="line2d_19">
    <path d="M 501.359644 175.229875 
" clip-path="url(#pff68a4b1c1)" style="fill: none; stroke: #4c4c4c; stroke-width: 1.5; stroke-linecap: square"/>
    <g clip-path="url(#pff68a4b1c1)">
     <use xlink:href="#m0b45320b83" x="501.359644" y="175.229875" style="fill: #ffffff; stroke: #ffffff; stroke-width: 1.35"/>
    </g>
   </g>
   <g id="patch_3">
    <path d="M 41.190813 580.365375 
L 41.190813 25.965375 
" style="fill: none; stroke: #000000; stroke-width: 1.25; stroke-linejoin: miter; stroke-linecap: square"/>
   </g>
   <g id="patch_4">
    <path d="M 599.190812 580.365375 
L 599.190812 25.965375 
" style="fill: none; stroke: #000000; stroke-width: 1.25; stroke-linejoin: miter; stroke-linecap: square"/>
   </g>
   <g id="patch_5">
    <path d="M 41.190812 580.365375 
L 599.190812 580.365375 
" style="fill: none; stroke: #000000; stroke-width: 1.25; stroke-linejoin: miter; stroke-linecap: square"/>
   </g>
   <g id="patch_6">
    <path d="M 41.190812 25.965375 
L 599.190812 25.965375 
" style="fill: none; stroke: #000000; stroke-width: 1.25; stroke-linejoin: miter; stroke-linecap: square"/>
   </g>
   <g id="text_10">
    <!-- (n.s.) -->
    <g transform="translate(214.182647 57.065342) scale(0.12 -0.12)">
     <defs>
      <path id="DejaVuSans-28" d="M 1984 4856 
Q 1566 4138 1362 3434 
Q 1159 2731 1159 2009 
Q 1159 1288 1364 580 
Q 1569 -128 1984 -844 
L 1484 -844 
Q 1016 -109 783 600 
Q 550 1309 550 2009 
Q 550 2706 781 3412 
Q 1013 4119 1484 4856 
L 1984 4856 
z
" transform="scale(0.015625)"/>
      <path id="DejaVuSans-6e" d="M 3513 2113 
L 3513 0 
L 2938 0 
L 2938 2094 
Q 2938 2591 2744 2837 
Q 2550 3084 2163 3084 
Q 1697 3084 1428 2787 
Q 1159 2491 1159 1978 
L 1159 0 
L 581 0 
L 581 3500 
L 1159 3500 
L 1159 2956 
Q 1366 3272 1645 3428 
Q 1925 3584 2291 3584 
Q 2894 3584 3203 3211 
Q 3513 2838 3513 2113 
z
" transform="scale(0.015625)"/>
      <path id="DejaVuSans-73" d="M 2834 3397 
L 2834 2853 
Q 2591 2978 2328 3040 
Q 2066 3103 1784 3103 
Q 1356 3103 1142 2972 
Q 928 2841 928 2578 
Q 928 2378 1081 2264 
Q 1234 2150 1697 2047 
L 1894 2003 
Q 2506 1872 2764 1633 
Q 3022 1394 3022 966 
Q 3022 478 2636 193 
Q 2250 -91 1575 -91 
Q 1294 -91 989 -36 
Q 684 19 347 128 
L 347 722 
Q 666 556 975 473 
Q 1284 391 1588 391 
Q 1994 391 2212 530 
Q 2431 669 2431 922 
Q 2431 1156 2273 1281 
Q 2116 1406 1581 1522 
L 1381 1569 
Q 847 1681 609 1914 
Q 372 2147 372 2553 
Q 372 3047 722 3315 
Q 1072 3584 1716 3584 
Q 2034 3584 2315 3537 
Q 2597 3491 2834 3397 
z
" transform="scale(0.015625)"/>
      <path id="DejaVuSans-29" d="M 513 4856 
L 1013 4856 
Q 1481 4119 1714 3412 
Q 1947 2706 1947 2009 
Q 1947 1309 1714 600 
Q 1481 -109 1013 -844 
L 513 -844 
Q 928 -128 1133 580 
Q 1338 1288 1338 2009 
Q 1338 2731 1133 3434 
Q 928 4138 513 4856 
z
" transform="scale(0.015625)"/>
     </defs>
     <use xlink:href="#DejaVuSans-28"/>
     <use xlink:href="#DejaVuSans-6e" transform="translate(39.013672 0)"/>
     <use xlink:href="#DejaVuSans-2e" transform="translate(102.392578 0)"/>
     <use xlink:href="#DejaVuSans-73" transform="translate(134.179688 0)"/>
     <use xlink:href="#DejaVuSans-2e" transform="translate(186.279297 0)"/>
     <use xlink:href="#DejaVuSans-29" transform="translate(218.066406 0)"/>
    </g>
   </g>
   <g id="text_11">
    <!-- **** -->
    <g transform="translate(308.190812 25.850572) scale(0.12 -0.12)">
     <defs>
      <path id="DejaVuSans-2a" d="M 3009 3897 
L 1888 3291 
L 3009 2681 
L 2828 2375 
L 1778 3009 
L 1778 1831 
L 1422 1831 
L 1422 3009 
L 372 2375 
L 191 2681 
L 1313 3291 
L 191 3897 
L 372 4206 
L 1422 3572 
L 1422 4750 
L 1778 4750 
L 1778 3572 
L 2828 4206 
L 3009 3897 
z
" transform="scale(0.015625)"/>
     </defs>
     <use xlink:href="#DejaVuSans-2a"/>
     <use xlink:href="#DejaVuSans-2a" transform="translate(50 0)"/>
     <use xlink:href="#DejaVuSans-2a" transform="translate(100 0)"/>
     <use xlink:href="#DejaVuSans-2a" transform="translate(150 0)"/>
    </g>
   </g>
   <g id="text_12">
    <!-- Inorm2 group -->
    <g transform="translate(263.354312 19.965375) scale(0.168 -0.168)">
     <defs>
      <path id="DejaVuSans-6f" d="M 1959 3097 
Q 1497 3097 1228 2736 
Q 959 2375 959 1747 
Q 959 1119 1226 758 
Q 1494 397 1959 397 
Q 2419 397 2687 759 
Q 2956 1122 2956 1747 
Q 2956 2369 2687 2733 
Q 2419 3097 1959 3097 
z
M 1959 3584 
Q 2709 3584 3137 3096 
Q 3566 2609 3566 1747 
Q 3566 888 3137 398 
Q 2709 -91 1959 -91 
Q 1206 -91 779 398 
Q 353 888 353 1747 
Q 353 2609 779 3096 
Q 1206 3584 1959 3584 
z
" transform="scale(0.015625)"/>
      <path id="DejaVuSans-72" d="M 2631 2963 
Q 2534 3019 2420 3045 
Q 2306 3072 2169 3072 
Q 1681 3072 1420 2755 
Q 1159 2438 1159 1844 
L 1159 0 
L 581 0 
L 581 3500 
L 1159 3500 
L 1159 2956 
Q 1341 3275 1631 3429 
Q 1922 3584 2338 3584 
Q 2397 3584 2469 3576 
Q 2541 3569 2628 3553 
L 2631 2963 
z
" transform="scale(0.015625)"/>
      <path id="DejaVuSans-6d" d="M 3328 2828 
Q 3544 3216 3844 3400 
Q 4144 3584 4550 3584 
Q 5097 3584 5394 3201 
Q 5691 2819 5691 2113 
L 5691 0 
L 5113 0 
L 5113 2094 
Q 5113 2597 4934 2840 
Q 4756 3084 4391 3084 
Q 3944 3084 3684 2787 
Q 3425 2491 3425 1978 
L 3425 0 
L 2847 0 
L 2847 2094 
Q 2847 2600 2669 2842 
Q 2491 3084 2119 3084 
Q 1678 3084 1418 2786 
Q 1159 2488 1159 1978 
L 1159 0 
L 581 0 
L 581 3500 
L 1159 3500 
L 1159 2956 
Q 1356 3278 1631 3431 
Q 1906 3584 2284 3584 
Q 2666 3584 2933 3390 
Q 3200 3197 3328 2828 
z
" transform="scale(0.015625)"/>
      <path id="DejaVuSans-20" transform="scale(0.015625)"/>
      <path id="DejaVuSans-67" d="M 2906 1791 
Q 2906 2416 2648 2759 
Q 2391 3103 1925 3103 
Q 1463 3103 1205 2759 
Q 947 2416 947 1791 
Q 947 1169 1205 825 
Q 1463 481 1925 481 
Q 2391 481 2648 825 
Q 2906 1169 2906 1791 
z
M 3481 434 
Q 3481 -459 3084 -895 
Q 2688 -1331 1869 -1331 
Q 1566 -1331 1297 -1286 
Q 1028 -1241 775 -1147 
L 775 -588 
Q 1028 -725 1275 -790 
Q 1522 -856 1778 -856 
Q 2344 -856 2625 -561 
Q 2906 -266 2906 331 
L 2906 616 
Q 2728 306 2450 153 
Q 2172 0 1784 0 
Q 1141 0 747 490 
Q 353 981 353 1791 
Q 353 2603 747 3093 
Q 1141 3584 1784 3584 
Q 2172 3584 2450 3431 
Q 2728 3278 2906 2969 
L 2906 3500 
L 3481 3500 
L 3481 434 
z
" transform="scale(0.015625)"/>
      <path id="DejaVuSans-75" d="M 544 1381 
L 544 3500 
L 1119 3500 
L 1119 1403 
Q 1119 906 1312 657 
Q 1506 409 1894 409 
Q 2359 409 2629 706 
Q 2900 1003 2900 1516 
L 2900 3500 
L 3475 3500 
L 3475 0 
L 2900 0 
L 2900 538 
Q 2691 219 2414 64 
Q 2138 -91 1772 -91 
Q 1169 -91 856 284 
Q 544 659 544 1381 
z
M 1991 3584 
L 1991 3584 
z
" transform="scale(0.015625)"/>
      <path id="DejaVuSans-70" d="M 1159 525 
L 1159 -1331 
L 581 -1331 
L 581 3500 
L 1159 3500 
L 1159 2969 
Q 1341 3281 1617 3432 
Q 1894 3584 2278 3584 
Q 2916 3584 3314 3078 
Q 3713 2572 3713 1747 
Q 3713 922 3314 415 
Q 2916 -91 2278 -91 
Q 1894 -91 1617 61 
Q 1341 213 1159 525 
z
M 3116 1747 
Q 3116 2381 2855 2742 
Q 2594 3103 2138 3103 
Q 1681 3103 1420 2742 
Q 1159 2381 1159 1747 
Q 1159 1113 1420 752 
Q 1681 391 2138 391 
Q 2594 391 2855 752 
Q 3116 1113 3116 1747 
z
" transform="scale(0.015625)"/>
     </defs>
     <use xlink:href="#DejaVuSans-49"/>
     <use xlink:href="#DejaVuSans-6e" transform="translate(29.492188 0)"/>
     <use xlink:href="#DejaVuSans-6f" transform="translate(92.871094 0)"/>
     <use xlink:href="#DejaVuSans-72" transform="translate(154.052734 0)"/>
     <use xlink:href="#DejaVuSans-6d" transform="translate(193.416016 0)"/>
     <use xlink:href="#DejaVuSans-32" transform="translate(290.828125 0)"/>
     <use xlink:href="#DejaVuSans-20" transform="translate(354.451172 0)"/>
     <use xlink:href="#DejaVuSans-67" transform="translate(386.238281 0)"/>
     <use xlink:href="#DejaVuSans-72" transform="translate(449.714844 0)"/>
     <use xlink:href="#DejaVuSans-6f" transform="translate(488.578125 0)"/>
     <use xlink:href="#DejaVuSans-75" transform="translate(549.759766 0)"/>
     <use xlink:href="#DejaVuSans-70" transform="translate(613.138672 0)"/>
    </g>
   </g>
   <g id="line2d_20">
    <path d="M 139.021981 63.308296 
L 320.190812 63.308296 
" clip-path="url(#pff68a4b1c1)" style="fill: none; stroke: #000000; stroke-width: 1.5; stroke-linecap: square"/>
   </g>
   <g id="line2d_21">
    <path d="M 139.021981 32.093526 
L 501.359644 32.093526 
" clip-path="url(#pff68a4b1c1)" style="fill: none; stroke: #000000; stroke-width: 1.5; stroke-linecap: square"/>
   </g>
   <g id="line2d_22">
    <path d="M 320.190812 0.878755 
L 501.359644 0.878755 
" clip-path="url(#pff68a4b1c1)" style="fill: none; stroke: #000000; stroke-width: 1.5; stroke-linecap: square"/>
   </g>
  </g>
 </g>
 <defs>
  <clipPath id="pff68a4b1c1">
   <rect x="41.190813" y="25.965375" width="558" height="554.4"/>
  </clipPath>
 </defs>
</svg>
