<?xml version="1.0" encoding="utf-8" standalone="no"?>
<!DOCTYPE svg PUBLIC "-//W3C//DTD SVG 1.1//EN"
  "http://www.w3.org/Graphics/SVG/1.1/DTD/svg11.dtd">
<svg xmlns:xlink="http://www.w3.org/1999/xlink" width="606.390812pt" height="611.969687pt" viewBox="0 0 606.390812 611.969687" xmlns="http://www.w3.org/2000/svg" version="1.1">
 <metadata>
  <rdf:RDF xmlns:dc="http://purl.org/dc/elements/1.1/" xmlns:cc="http://creativecommons.org/ns#" xmlns:rdf="http://www.w3.org/1999/02/22-rdf-syntax-ns#">
   <cc:Work>
    <dc:type rdf:resource="http://purl.org/dc/dcmitype/StillImage"/>
    <dc:date>2025-07-15T16:58:52.760995</dc:date>
    <dc:format>image/svg+xml</dc:format>
    <dc:creator>
     <cc:Agent>
      <dc:title>Matplotlib v3.10.0, https://matplotlib.org/</dc:title>
     </cc:Agent>
    </dc:creator>
   </cc:Work>
  </rdf:RDF>
 </metadata>
 <defs>
  <style type="text/css">*{stroke-linejoin: round; stroke-linecap: butt}</style>
 </defs>
 <g id="figure_1">
  <g id="patch_1">
   <path d="M 0 611.969687 
L 606.390812 611.969687 
L 606.390812 -0 
L 0 -0 
z
" style="fill: #ffffff"/>
  </g>
  <g id="axes_1">
   <g id="patch_2">
    <path d="M 41.190813 580.365375 
L 599.190812 580.365375 
L 599.190812 25.965375 
L 41.190813 25.965375 
z
" style="fill: #ffffff"/>
   </g>
   <g id="line2d_1">
    <path d="M 41.190813 52.365375 
L 599.190812 52.365375 
" clip-path="url(#p9bedf9576e)" style="fill: none; stroke: #808080; stroke-opacity: 0.5; stroke-width: 2; stroke-linecap: square"/>
   </g>
   <g id="FillBetweenPolyCollection_1">
    <defs>
     <path id="m984ead4f19" d="M 140.194235 -358.578364 
L 137.849728 -358.578364 
L 137.57174 -359.15905 
L 137.246311 -359.739736 
L 136.869912 -360.320422 
L 136.439714 -360.901108 
L 135.953746 -361.481793 
L 135.411003 -362.062479 
L 134.811506 -362.643165 
L 134.156268 -363.223851 
L 133.44718 -363.804537 
L 132.686814 -364.385223 
L 131.878126 -364.965908 
L 131.024107 -365.546594 
L 130.127385 -366.12728 
L 129.189812 -366.707966 
L 128.212096 -367.288652 
L 127.193489 -367.869338 
L 126.131594 -368.450023 
L 125.022314 -369.030709 
L 123.859967 -369.611395 
L 122.637581 -370.192081 
L 121.347355 -370.772767 
L 119.981282 -371.353453 
L 118.53187 -371.934138 
L 116.992942 -372.514824 
L 115.360438 -373.09551 
L 113.633154 -373.676196 
L 111.813379 -374.256882 
L 109.907341 -374.837567 
L 107.92545 -375.418253 
L 105.882273 -375.998939 
L 103.796247 -376.579625 
L 101.689127 -377.160311 
L 99.585171 -377.740997 
L 97.51012 -378.321682 
L 95.490009 -378.902368 
L 93.549871 -379.483054 
L 91.712422 -380.06374 
L 89.996785 -380.644426 
L 88.417353 -381.225112 
L 86.982858 -381.805797 
L 85.695728 -382.386483 
L 84.551778 -382.967169 
L 83.540294 -383.547855 
L 82.644516 -384.128541 
L 81.842522 -384.709227 
L 81.108485 -385.289912 
L 80.414235 -385.870598 
L 79.731054 -386.451284 
L 79.031584 -387.03197 
L 78.291748 -387.612656 
L 77.492542 -388.193341 
L 76.621582 -388.774027 
L 75.674304 -389.354713 
L 74.654712 -389.935399 
L 73.575629 -390.516085 
L 72.45843 -391.096771 
L 71.332245 -391.677456 
L 70.232712 -392.258142 
L 69.200341 -392.838828 
L 68.278592 -393.419514 
L 67.511805 -394.0002 
L 66.943095 -394.580886 
L 66.612353 -395.161571 
L 66.554449 -395.742257 
L 66.797741 -396.322943 
L 67.362957 -396.903629 
L 68.262481 -397.484315 
L 69.50005 -398.065001 
L 71.070852 -398.645686 
L 72.961975 -399.226372 
L 75.153151 -399.807058 
L 77.617732 -400.387744 
L 80.32381 -400.96843 
L 83.235437 -401.549115 
L 86.313853 -402.129801 
L 89.518685 -402.710487 
L 92.809076 -403.291173 
L 96.144708 -403.871859 
L 99.486698 -404.452545 
L 102.798376 -405.03323 
L 106.045915 -405.613916 
L 109.198842 -406.194602 
L 112.230423 -406.775288 
L 115.117932 -407.355974 
L 117.842803 -407.93666 
L 120.390688 -408.517345 
L 122.75141 -409.098031 
L 124.918827 -409.678717 
L 126.890613 -410.259403 
L 128.667955 -410.840089 
L 130.255194 -411.420775 
L 131.659407 -412.00146 
L 132.889951 -412.582146 
L 133.95799 -413.162832 
L 134.87601 -413.743518 
L 135.657353 -414.324204 
L 136.315778 -414.904889 
L 136.865063 -415.485575 
L 137.318656 -416.066261 
L 140.725307 -416.066261 
L 140.725307 -416.066261 
L 141.1789 -415.485575 
L 141.728184 -414.904889 
L 142.38661 -414.324204 
L 143.167953 -413.743518 
L 144.085973 -413.162832 
L 145.154012 -412.582146 
L 146.384556 -412.00146 
L 147.788769 -411.420775 
L 149.376008 -410.840089 
L 151.153349 -410.259403 
L 153.125135 -409.678717 
L 155.292553 -409.098031 
L 157.653275 -408.517345 
L 160.20116 -407.93666 
L 162.926031 -407.355974 
L 165.813539 -406.775288 
L 168.845121 -406.194602 
L 171.998048 -405.613916 
L 175.245586 -405.03323 
L 178.557264 -404.452545 
L 181.899255 -403.871859 
L 185.234887 -403.291173 
L 188.525278 -402.710487 
L 191.73011 -402.129801 
L 194.808525 -401.549115 
L 197.720153 -400.96843 
L 200.426231 -400.387744 
L 202.890811 -399.807058 
L 205.081988 -399.226372 
L 206.97311 -398.645686 
L 208.543912 -398.065001 
L 209.781481 -397.484315 
L 210.681005 -396.903629 
L 211.246222 -396.322943 
L 211.489514 -395.742257 
L 211.431609 -395.161571 
L 211.100867 -394.580886 
L 210.532158 -394.0002 
L 209.76537 -393.419514 
L 208.843621 -392.838828 
L 207.81125 -392.258142 
L 206.711718 -391.677456 
L 205.585533 -391.096771 
L 204.468333 -390.516085 
L 203.389251 -389.935399 
L 202.369658 -389.354713 
L 201.42238 -388.774027 
L 200.551421 -388.193341 
L 199.752215 -387.612656 
L 199.012379 -387.03197 
L 198.312909 -386.451284 
L 197.629728 -385.870598 
L 196.935478 -385.289912 
L 196.201441 -384.709227 
L 195.399447 -384.128541 
L 194.503669 -383.547855 
L 193.492185 -382.967169 
L 192.348235 -382.386483 
L 191.061105 -381.805797 
L 189.62661 -381.225112 
L 188.047178 -380.644426 
L 186.331541 -380.06374 
L 184.494092 -379.483054 
L 182.553954 -378.902368 
L 180.533842 -378.321682 
L 178.458792 -377.740997 
L 176.354836 -377.160311 
L 174.247715 -376.579625 
L 172.16169 -375.998939 
L 170.118513 -375.418253 
L 168.136621 -374.837567 
L 166.230584 -374.256882 
L 164.410808 -373.676196 
L 162.683525 -373.09551 
L 161.05102 -372.514824 
L 159.512093 -371.934138 
L 158.062681 -371.353453 
L 156.696608 -370.772767 
L 155.406382 -370.192081 
L 154.183995 -369.611395 
L 153.021648 -369.030709 
L 151.912368 -368.450023 
L 150.850474 -367.869338 
L 149.831867 -367.288652 
L 148.854151 -366.707966 
L 147.916578 -366.12728 
L 147.019855 -365.546594 
L 146.165837 -364.965908 
L 145.357149 -364.385223 
L 144.596782 -363.804537 
L 143.887695 -363.223851 
L 143.232456 -362.643165 
L 142.632959 -362.062479 
L 142.090217 -361.481793 
L 141.604248 -360.901108 
L 141.174051 -360.320422 
L 140.797652 -359.739736 
L 140.472223 -359.15905 
L 140.194235 -358.578364 
z
" style="stroke: #4c4c4c; stroke-opacity: 0.6; stroke-width: 1.5"/>
    </defs>
    <g clip-path="url(#p9bedf9576e)">
     <use xlink:href="#m984ead4f19" x="0" y="611.969687" style="fill: #4c72b0; fill-opacity: 0.6; stroke: #4c4c4c; stroke-opacity: 0.6; stroke-width: 1.5"/>
    </g>
   </g>
   <g id="FillBetweenPolyCollection_2">
    <defs>
     <path id="mb8d0437c4a" d="M 322.019852 -419.173818 
L 318.361773 -419.173818 
L 317.936922 -419.923175 
L 317.438869 -420.672531 
L 316.861298 -421.421888 
L 316.19872 -422.171245 
L 315.446775 -422.920601 
L 314.602497 -423.669958 
L 313.664555 -424.419315 
L 312.633412 -425.168671 
L 311.511399 -425.918028 
L 310.30269 -426.667385 
L 309.013156 -427.416741 
L 307.650105 -428.166098 
L 306.221918 -428.915455 
L 304.737592 -429.664811 
L 303.206234 -430.414168 
L 301.636532 -431.163525 
L 300.036255 -431.912882 
L 298.411829 -432.662238 
L 296.768031 -433.411595 
L 295.107836 -434.160952 
L 293.43245 -434.910308 
L 291.741537 -435.659665 
L 290.03362 -436.409022 
L 288.306649 -437.158378 
L 286.558677 -437.907735 
L 284.788595 -438.657092 
L 282.996843 -439.406448 
L 281.186048 -440.155805 
L 279.361497 -440.905162 
L 277.531406 -441.654518 
L 275.706931 -442.403875 
L 273.901907 -443.153232 
L 272.132325 -443.902588 
L 270.41556 -444.651945 
L 268.769427 -445.401302 
L 267.211105 -446.150658 
L 265.756048 -446.900015 
L 264.416928 -447.649372 
L 263.202737 -448.398728 
L 262.118089 -449.148085 
L 261.162794 -449.897442 
L 260.331734 -450.646798 
L 259.615054 -451.396155 
L 258.998646 -452.145512 
L 258.464907 -452.894868 
L 257.993696 -453.644225 
L 257.563445 -454.393582 
L 257.152339 -455.142938 
L 256.739505 -455.892295 
L 256.306137 -456.641652 
L 255.836505 -457.391008 
L 255.318809 -458.140365 
L 254.745854 -458.889722 
L 254.115509 -459.639078 
L 253.430982 -460.388435 
L 252.700878 -461.137792 
L 251.939074 -461.887149 
L 251.164416 -462.636505 
L 250.400244 -463.385862 
L 249.673769 -464.135219 
L 249.015304 -464.884575 
L 248.457372 -465.633932 
L 248.033691 -466.383289 
L 247.778078 -467.132645 
L 247.72328 -467.882002 
L 247.899771 -468.631359 
L 248.334563 -469.380715 
L 249.050072 -470.130072 
L 250.063096 -470.879429 
L 251.383956 -471.628785 
L 253.015847 -472.378142 
L 254.954457 -473.127499 
L 257.187861 -473.876855 
L 259.696732 -474.626212 
L 262.454841 -475.375569 
L 265.429855 -476.124925 
L 268.584374 -476.874282 
L 271.877166 -477.623639 
L 275.264531 -478.372995 
L 278.701742 -479.122352 
L 282.144457 -479.871709 
L 285.550078 -480.621065 
L 288.878952 -481.370422 
L 292.095404 -482.119779 
L 295.168529 -482.869135 
L 298.072757 -483.618492 
L 300.788159 -484.367849 
L 303.300513 -485.117205 
L 305.601154 -485.866562 
L 307.686627 -486.615919 
L 309.558195 -487.365275 
L 311.221227 -488.114632 
L 312.684521 -488.863989 
L 313.959589 -489.613345 
L 315.059949 -490.362702 
L 316.000451 -491.112059 
L 316.796662 -491.861416 
L 317.46432 -492.610772 
L 318.01888 -493.360129 
L 322.362745 -493.360129 
L 322.362745 -493.360129 
L 322.917305 -492.610772 
L 323.584963 -491.861416 
L 324.381174 -491.112059 
L 325.321676 -490.362702 
L 326.422036 -489.613345 
L 327.697104 -488.863989 
L 329.160398 -488.114632 
L 330.82343 -487.365275 
L 332.694998 -486.615919 
L 334.780471 -485.866562 
L 337.081112 -485.117205 
L 339.593466 -484.367849 
L 342.308868 -483.618492 
L 345.213096 -482.869135 
L 348.286221 -482.119779 
L 351.502673 -481.370422 
L 354.831547 -480.621065 
L 358.237168 -479.871709 
L 361.679883 -479.122352 
L 365.117094 -478.372995 
L 368.504459 -477.623639 
L 371.797251 -476.874282 
L 374.95177 -476.124925 
L 377.926784 -475.375569 
L 380.684893 -474.626212 
L 383.193764 -473.876855 
L 385.427168 -473.127499 
L 387.365778 -472.378142 
L 388.997669 -471.628785 
L 390.318529 -470.879429 
L 391.331553 -470.130072 
L 392.047062 -469.380715 
L 392.481854 -468.631359 
L 392.658345 -467.882002 
L 392.603547 -467.132645 
L 392.347934 -466.383289 
L 391.924253 -465.633932 
L 391.366321 -464.884575 
L 390.707856 -464.135219 
L 389.981381 -463.385862 
L 389.217209 -462.636505 
L 388.442551 -461.887149 
L 387.680747 -461.137792 
L 386.950643 -460.388435 
L 386.266116 -459.639078 
L 385.635771 -458.889722 
L 385.062816 -458.140365 
L 384.54512 -457.391008 
L 384.075488 -456.641652 
L 383.64212 -455.892295 
L 383.229286 -455.142938 
L 382.81818 -454.393582 
L 382.387929 -453.644225 
L 381.916718 -452.894868 
L 381.382979 -452.145512 
L 380.766571 -451.396155 
L 380.049891 -450.646798 
L 379.218831 -449.897442 
L 378.263536 -449.148085 
L 377.178888 -448.398728 
L 375.964697 -447.649372 
L 374.625577 -446.900015 
L 373.17052 -446.150658 
L 371.612198 -445.401302 
L 369.966065 -444.651945 
L 368.2493 -443.902588 
L 366.479718 -443.153232 
L 364.674694 -442.403875 
L 362.850219 -441.654518 
L 361.020128 -440.905162 
L 359.195577 -440.155805 
L 357.384782 -439.406448 
L 355.59303 -438.657092 
L 353.822948 -437.907735 
L 352.074976 -437.158378 
L 350.348005 -436.409022 
L 348.640088 -435.659665 
L 346.949175 -434.910308 
L 345.273789 -434.160952 
L 343.613594 -433.411595 
L 341.969796 -432.662238 
L 340.34537 -431.912882 
L 338.745093 -431.163525 
L 337.175391 -430.414168 
L 335.644033 -429.664811 
L 334.159707 -428.915455 
L 332.73152 -428.166098 
L 331.368469 -427.416741 
L 330.078935 -426.667385 
L 328.870226 -425.918028 
L 327.748213 -425.168671 
L 326.71707 -424.419315 
L 325.779128 -423.669958 
L 324.93485 -422.920601 
L 324.182905 -422.171245 
L 323.520327 -421.421888 
L 322.942756 -420.672531 
L 322.444703 -419.923175 
L 322.019852 -419.173818 
z
" style="stroke: #4c4c4c; stroke-opacity: 0.6; stroke-width: 1.5"/>
    </defs>
    <g clip-path="url(#p9bedf9576e)">
     <use xlink:href="#mb8d0437c4a" x="0" y="611.969687" style="fill: #dd8452; fill-opacity: 0.6; stroke: #4c4c4c; stroke-opacity: 0.6; stroke-width: 1.5"/>
    </g>
   </g>
   <g id="FillBetweenPolyCollection_3">
    <defs>
     <path id="mc51c86b9fc" d="M 502.568891 -411.072272 
L 500.150396 -411.072272 
L 499.876177 -411.517945 
L 499.555559 -411.963619 
L 499.184477 -412.409292 
L 498.759316 -412.854966 
L 498.277067 -413.300639 
L 497.735496 -413.746313 
L 497.133268 -414.191986 
L 496.470051 -414.63766 
L 495.746561 -415.083333 
L 494.96455 -415.529007 
L 494.126724 -415.97468 
L 493.236595 -416.420354 
L 492.298258 -416.866027 
L 491.31611 -417.311701 
L 490.294529 -417.757374 
L 489.237522 -418.203048 
L 488.148386 -418.648721 
L 487.029398 -419.094395 
L 485.881583 -419.540068 
L 484.704576 -419.985742 
L 483.496617 -420.431415 
L 482.254694 -420.877089 
L 480.974854 -421.322762 
L 479.652656 -421.768436 
L 478.283778 -422.214109 
L 476.864721 -422.659783 
L 475.393578 -423.105456 
L 473.870799 -423.55113 
L 472.299897 -423.996803 
L 470.68801 -424.442477 
L 469.046271 -424.88815 
L 467.389914 -425.333824 
L 465.73808 -425.779497 
L 464.113301 -426.225171 
L 462.540671 -426.670844 
L 461.046714 -427.116518 
L 459.658029 -427.562191 
L 458.399765 -428.007865 
L 457.294033 -428.453538 
L 456.35836 -428.899212 
L 455.604281 -429.344885 
L 455.03618 -429.790559 
L 454.650475 -430.236232 
L 454.435189 -430.681906 
L 454.369983 -431.127579 
L 454.426636 -431.573253 
L 454.569972 -432.018926 
L 454.759197 -432.4646 
L 454.949567 -432.910273 
L 455.094322 -433.355947 
L 455.146782 -433.80162 
L 455.062515 -434.247294 
L 454.801473 -434.692967 
L 454.330001 -435.138641 
L 453.622646 -435.584314 
L 452.663667 -436.029988 
L 451.448203 -436.475661 
L 449.983038 -436.921335 
L 448.286918 -437.367008 
L 446.390407 -437.812682 
L 444.335259 -438.258355 
L 442.173319 -438.704029 
L 439.964971 -439.149702 
L 437.77718 -439.595376 
L 435.681179 -440.041049 
L 433.749901 -440.486723 
L 432.055247 -440.932396 
L 430.665296 -441.37807 
L 429.641612 -441.823743 
L 429.036751 -442.269417 
L 428.892111 -442.71509 
L 429.236229 -443.160764 
L 430.083625 -443.606437 
L 431.434251 -444.052111 
L 433.273574 -444.497784 
L 435.573293 -444.943458 
L 438.292639 -445.389131 
L 441.380176 -445.834805 
L 444.776017 -446.280478 
L 448.414294 -446.726152 
L 452.225781 -447.171825 
L 456.140501 -447.617499 
L 460.090198 -448.063172 
L 464.010557 -448.508846 
L 467.843077 -448.954519 
L 471.536536 -449.400193 
L 475.048011 -449.845866 
L 478.343441 -450.29154 
L 481.397765 -450.737213 
L 484.194677 -451.182887 
L 486.72604 -451.62856 
L 488.991056 -452.074234 
L 490.995258 -452.519907 
L 492.74938 -452.965581 
L 494.268216 -453.411254 
L 495.569486 -453.856928 
L 496.672783 -454.302601 
L 497.59864 -454.748275 
L 498.367717 -455.193948 
L 504.351571 -455.193948 
L 504.351571 -455.193948 
L 505.120647 -454.748275 
L 506.046504 -454.302601 
L 507.149802 -453.856928 
L 508.451071 -453.411254 
L 509.969907 -452.965581 
L 511.72403 -452.519907 
L 513.728231 -452.074234 
L 515.993248 -451.62856 
L 518.52461 -451.182887 
L 521.321522 -450.737213 
L 524.375847 -450.29154 
L 527.671276 -449.845866 
L 531.182751 -449.400193 
L 534.87621 -448.954519 
L 538.70873 -448.508846 
L 542.629089 -448.063172 
L 546.578786 -447.617499 
L 550.493506 -447.171825 
L 554.304994 -446.726152 
L 557.943271 -446.280478 
L 561.339111 -445.834805 
L 564.426649 -445.389131 
L 567.145994 -444.943458 
L 569.445714 -444.497784 
L 571.285037 -444.052111 
L 572.635662 -443.606437 
L 573.483058 -443.160764 
L 573.827176 -442.71509 
L 573.682536 -442.269417 
L 573.077676 -441.823743 
L 572.053992 -441.37807 
L 570.664041 -440.932396 
L 568.969386 -440.486723 
L 567.038109 -440.041049 
L 564.942108 -439.595376 
L 562.754316 -439.149702 
L 560.545969 -438.704029 
L 558.384029 -438.258355 
L 556.328881 -437.812682 
L 554.432369 -437.367008 
L 552.736249 -436.921335 
L 551.271084 -436.475661 
L 550.05562 -436.029988 
L 549.096641 -435.584314 
L 548.389286 -435.138641 
L 547.917815 -434.692967 
L 547.656772 -434.247294 
L 547.572505 -433.80162 
L 547.624965 -433.355947 
L 547.76972 -432.910273 
L 547.96009 -432.4646 
L 548.149315 -432.018926 
L 548.292652 -431.573253 
L 548.349304 -431.127579 
L 548.284098 -430.681906 
L 548.068813 -430.236232 
L 547.683107 -429.790559 
L 547.115007 -429.344885 
L 546.360927 -428.899212 
L 545.425254 -428.453538 
L 544.319523 -428.007865 
L 543.061258 -427.562191 
L 541.672573 -427.116518 
L 540.178616 -426.670844 
L 538.605986 -426.225171 
L 536.981208 -425.779497 
L 535.329373 -425.333824 
L 533.673016 -424.88815 
L 532.031278 -424.442477 
L 530.419391 -423.996803 
L 528.848488 -423.55113 
L 527.32571 -423.105456 
L 525.854566 -422.659783 
L 524.43551 -422.214109 
L 523.066631 -421.768436 
L 521.744433 -421.322762 
L 520.464593 -420.877089 
L 519.222671 -420.431415 
L 518.014711 -419.985742 
L 516.837704 -419.540068 
L 515.689889 -419.094395 
L 514.570901 -418.648721 
L 513.481765 -418.203048 
L 512.424758 -417.757374 
L 511.403177 -417.311701 
L 510.421029 -416.866027 
L 509.482692 -416.420354 
L 508.592563 -415.97468 
L 507.754738 -415.529007 
L 506.972726 -415.083333 
L 506.249236 -414.63766 
L 505.586019 -414.191986 
L 504.983791 -413.746313 
L 504.44222 -413.300639 
L 503.959972 -412.854966 
L 503.53481 -412.409292 
L 503.163729 -411.963619 
L 502.84311 -411.517945 
L 502.568891 -411.072272 
z
" style="stroke: #4c4c4c; stroke-opacity: 0.6; stroke-width: 1.5"/>
    </defs>
    <g clip-path="url(#p9bedf9576e)">
     <use xlink:href="#mc51c86b9fc" x="0" y="611.969687" style="fill: #55a868; fill-opacity: 0.6; stroke: #4c4c4c; stroke-opacity: 0.6; stroke-width: 1.5"/>
    </g>
   </g>
   <g id="PathCollection_1">
    <defs>
     <path id="C0_0_5c75b60385" d="M 0 2 
C 0.530406 2 1.03916 1.789267 1.414214 1.414214 
C 1.789267 1.03916 2 0.530406 2 -0 
C 2 -0.530406 1.789267 -1.03916 1.414214 -1.414214 
C 1.03916 -1.789267 0.530406 -2 0 -2 
C -0.530406 -2 -1.03916 -1.789267 -1.414214 -1.414214 
C -1.789267 -1.03916 -2 -0.530406 -2 0 
C -2 0.530406 -1.789267 1.03916 -1.414214 1.414214 
C -1.03916 1.789267 -0.530406 2 0 2 
z
"/>
    </defs>
    <g clip-path="url(#p9bedf9576e)">
     <use xlink:href="#C0_0_5c75b60385" x="139.021981" y="211.417982" style="fill: #4c72b0"/>
    </g>
    <g clip-path="url(#p9bedf9576e)">
     <use xlink:href="#C0_0_5c75b60385" x="134.428033" y="214.085195" style="fill: #4c72b0"/>
    </g>
    <g clip-path="url(#p9bedf9576e)">
     <use xlink:href="#C0_0_5c75b60385" x="146.296173" y="216.720617" style="fill: #4c72b0"/>
    </g>
    <g clip-path="url(#p9bedf9576e)">
     <use xlink:href="#C0_0_5c75b60385" x="139.021981" y="206.825479" style="fill: #4c72b0"/>
    </g>
    <g clip-path="url(#p9bedf9576e)">
     <use xlink:href="#C0_0_5c75b60385" x="135.137155" y="209.897711" style="fill: #4c72b0"/>
    </g>
    <g clip-path="url(#p9bedf9576e)">
     <use xlink:href="#C0_0_5c75b60385" x="143.608372" y="213.229428" style="fill: #4c72b0"/>
    </g>
    <g clip-path="url(#p9bedf9576e)">
     <use xlink:href="#C0_0_5c75b60385" x="142.103956" y="216.964016" style="fill: #4c72b0"/>
    </g>
    <g clip-path="url(#p9bedf9576e)">
     <use xlink:href="#C0_0_5c75b60385" x="139.220211" y="226.007006" style="fill: #4c72b0"/>
    </g>
    <g clip-path="url(#p9bedf9576e)">
     <use xlink:href="#C0_0_5c75b60385" x="139.021981" y="230.215244" style="fill: #4c72b0"/>
    </g>
    <g clip-path="url(#p9bedf9576e)">
     <use xlink:href="#C0_0_5c75b60385" x="134.85901" y="219.151482" style="fill: #4c72b0"/>
    </g>
    <g clip-path="url(#p9bedf9576e)">
     <use xlink:href="#C0_0_5c75b60385" x="138.246898" y="215.750166" style="fill: #4c72b0"/>
    </g>
    <g clip-path="url(#p9bedf9576e)">
     <use xlink:href="#C0_0_5c75b60385" x="139.021981" y="219.681464" style="fill: #4c72b0"/>
    </g>
    <g clip-path="url(#p9bedf9576e)">
     <use xlink:href="#C0_0_5c75b60385" x="142.974713" y="228.863028" style="fill: #4c72b0"/>
    </g>
    <g clip-path="url(#p9bedf9576e)">
     <use xlink:href="#C0_0_5c75b60385" x="135.696103" y="223.830933" style="fill: #4c72b0"/>
    </g>
    <g clip-path="url(#p9bedf9576e)">
     <use xlink:href="#C0_0_5c75b60385" x="135.554101" y="227.958722" style="fill: #4c72b0"/>
    </g>
    <g clip-path="url(#p9bedf9576e)">
     <use xlink:href="#C0_0_5c75b60385" x="139.021981" y="235.223635" style="fill: #4c72b0"/>
    </g>
    <g clip-path="url(#p9bedf9576e)">
     <use xlink:href="#C0_0_5c75b60385" x="135.743269" y="232.723741" style="fill: #4c72b0"/>
    </g>
    <g clip-path="url(#p9bedf9576e)">
     <use xlink:href="#C0_0_5c75b60385" x="139.021981" y="242.46927" style="fill: #4c72b0"/>
    </g>
   </g>
   <g id="PathCollection_2">
    <defs>
     <path id="C1_0_25a4f6bc39" d="M 0 2 
C 0.530406 2 1.03916 1.789267 1.414214 1.414214 
C 1.789267 1.03916 2 0.530406 2 -0 
C 2 -0.530406 1.789267 -1.03916 1.414214 -1.414214 
C 1.03916 -1.789267 0.530406 -2 0 -2 
C -0.530406 -2 -1.03916 -1.789267 -1.414214 -1.414214 
C -1.789267 -1.03916 -2 -0.530406 -2 0 
C -2 0.530406 -1.789267 1.03916 -1.414214 1.414214 
C -1.03916 1.789267 -0.530406 2 0 2 
z
"/>
    </defs>
    <g clip-path="url(#p9bedf9576e)">
     <use xlink:href="#C1_0_25a4f6bc39" x="324.198876" y="140.001331" style="fill: #dd8452"/>
    </g>
    <g clip-path="url(#p9bedf9576e)">
     <use xlink:href="#C1_0_25a4f6bc39" x="316.007217" y="140.843532" style="fill: #dd8452"/>
    </g>
    <g clip-path="url(#p9bedf9576e)">
     <use xlink:href="#C1_0_25a4f6bc39" x="320.190812" y="141.196721" style="fill: #dd8452"/>
    </g>
    <g clip-path="url(#p9bedf9576e)">
     <use xlink:href="#C1_0_25a4f6bc39" x="317.841377" y="133.613368" style="fill: #dd8452"/>
    </g>
    <g clip-path="url(#p9bedf9576e)">
     <use xlink:href="#C1_0_25a4f6bc39" x="320.190812" y="136.928988" style="fill: #dd8452"/>
    </g>
    <g clip-path="url(#p9bedf9576e)">
     <use xlink:href="#C1_0_25a4f6bc39" x="328.388407" y="139.719078" style="fill: #dd8452"/>
    </g>
    <g clip-path="url(#p9bedf9576e)">
     <use xlink:href="#C1_0_25a4f6bc39" x="317.664382" y="147.156824" style="fill: #dd8452"/>
    </g>
    <g clip-path="url(#p9bedf9576e)">
     <use xlink:href="#C1_0_25a4f6bc39" x="320.190812" y="155.2753" style="fill: #dd8452"/>
    </g>
    <g clip-path="url(#p9bedf9576e)">
     <use xlink:href="#C1_0_25a4f6bc39" x="320.190812" y="162.412286" style="fill: #dd8452"/>
    </g>
    <g clip-path="url(#p9bedf9576e)">
     <use xlink:href="#C1_0_25a4f6bc39" x="320.547015" y="150.065943" style="fill: #dd8452"/>
    </g>
    <g clip-path="url(#p9bedf9576e)">
     <use xlink:href="#C1_0_25a4f6bc39" x="322.503183" y="146.526286" style="fill: #dd8452"/>
    </g>
    <g clip-path="url(#p9bedf9576e)">
     <use xlink:href="#C1_0_25a4f6bc39" x="317.193105" y="152.473656" style="fill: #dd8452"/>
    </g>
    <g clip-path="url(#p9bedf9576e)">
     <use xlink:href="#C1_0_25a4f6bc39" x="324.373672" y="162.051279" style="fill: #dd8452"/>
    </g>
    <g clip-path="url(#p9bedf9576e)">
     <use xlink:href="#C1_0_25a4f6bc39" x="316.632139" y="160.287848" style="fill: #dd8452"/>
    </g>
    <g clip-path="url(#p9bedf9576e)">
     <use xlink:href="#C1_0_25a4f6bc39" x="320.190812" y="167.018892" style="fill: #dd8452"/>
    </g>
    <g clip-path="url(#p9bedf9576e)">
     <use xlink:href="#C1_0_25a4f6bc39" x="316.804353" y="175.426032" style="fill: #dd8452"/>
    </g>
    <g clip-path="url(#p9bedf9576e)">
     <use xlink:href="#C1_0_25a4f6bc39" x="316.520686" y="165.074035" style="fill: #dd8452"/>
    </g>
    <g clip-path="url(#p9bedf9576e)">
     <use xlink:href="#C1_0_25a4f6bc39" x="320.190812" y="177.79206" style="fill: #dd8452"/>
    </g>
   </g>
   <g id="PathCollection_3">
    <defs>
     <path id="C2_0_e9f411efee" d="M 0 2 
C 0.530406 2 1.03916 1.789267 1.414214 1.414214 
C 1.789267 1.03916 2 0.530406 2 -0 
C 2 -0.530406 1.789267 -1.03916 1.414214 -1.414214 
C 1.03916 -1.789267 0.530406 -2 0 -2 
C -0.530406 -2 -1.03916 -1.789267 -1.414214 -1.414214 
C -1.789267 -1.03916 -2 -0.530406 -2 0 
C -2 0.530406 -1.789267 1.03916 -1.414214 1.414214 
C -1.03916 1.789267 -0.530406 2 0 2 
z
"/>
    </defs>
    <g clip-path="url(#p9bedf9576e)">
     <use xlink:href="#C2_0_e9f411efee" x="501.359644" y="169.858537" style="fill: #55a868"/>
    </g>
    <g clip-path="url(#p9bedf9576e)">
     <use xlink:href="#C2_0_e9f411efee" x="484.915667" y="167.388487" style="fill: #55a868"/>
    </g>
    <g clip-path="url(#p9bedf9576e)">
     <use xlink:href="#C2_0_e9f411efee" x="505.539481" y="169.467066" style="fill: #55a868"/>
    </g>
    <g clip-path="url(#p9bedf9576e)">
     <use xlink:href="#C2_0_e9f411efee" x="501.359644" y="165.835042" style="fill: #55a868"/>
    </g>
    <g clip-path="url(#p9bedf9576e)">
     <use xlink:href="#C2_0_e9f411efee" x="497.818407" y="173.840154" style="fill: #55a868"/>
    </g>
    <g clip-path="url(#p9bedf9576e)">
     <use xlink:href="#C2_0_e9f411efee" x="509.739325" y="169.432539" style="fill: #55a868"/>
    </g>
    <g clip-path="url(#p9bedf9576e)">
     <use xlink:href="#C2_0_e9f411efee" x="492.992111" y="169.159322" style="fill: #55a868"/>
    </g>
    <g clip-path="url(#p9bedf9576e)">
     <use xlink:href="#C2_0_e9f411efee" x="505.499986" y="182.061416" style="fill: #55a868"/>
    </g>
    <g clip-path="url(#p9bedf9576e)">
     <use xlink:href="#C2_0_e9f411efee" x="493.189906" y="181.033469" style="fill: #55a868"/>
    </g>
    <g clip-path="url(#p9bedf9576e)">
     <use xlink:href="#C2_0_e9f411efee" x="497.17267" y="169.543747" style="fill: #55a868"/>
    </g>
    <g clip-path="url(#p9bedf9576e)">
     <use xlink:href="#C2_0_e9f411efee" x="489.107443" y="167.638684" style="fill: #55a868"/>
    </g>
    <g clip-path="url(#p9bedf9576e)">
     <use xlink:href="#C2_0_e9f411efee" x="513.737515" y="168.207526" style="fill: #55a868"/>
    </g>
    <g clip-path="url(#p9bedf9576e)">
     <use xlink:href="#C2_0_e9f411efee" x="497.190066" y="182.252635" style="fill: #55a868"/>
    </g>
    <g clip-path="url(#p9bedf9576e)">
     <use xlink:href="#C2_0_e9f411efee" x="501.359644" y="182.733211" style="fill: #55a868"/>
    </g>
    <g clip-path="url(#p9bedf9576e)">
     <use xlink:href="#C2_0_e9f411efee" x="509.699902" y="182.036091" style="fill: #55a868"/>
    </g>
    <g clip-path="url(#p9bedf9576e)">
     <use xlink:href="#C2_0_e9f411efee" x="501.359644" y="191.838113" style="fill: #55a868"/>
    </g>
    <g clip-path="url(#p9bedf9576e)">
     <use xlink:href="#C2_0_e9f411efee" x="501.359644" y="175.990857" style="fill: #55a868"/>
    </g>
    <g clip-path="url(#p9bedf9576e)">
     <use xlink:href="#C2_0_e9f411efee" x="499.015821" y="188.518892" style="fill: #55a868"/>
    </g>
   </g>
   <g id="matplotlib.axis_1">
    <g id="xtick_1">
     <g id="line2d_2">
      <defs>
       <path id="m27727111fe" d="M 0 0 
L 0 6 
" style="stroke: #000000; stroke-width: 1.25"/>
      </defs>
      <g>
       <use xlink:href="#m27727111fe" x="139.021981" y="580.365375" style="stroke: #000000; stroke-width: 1.25"/>
      </g>
     </g>
     <g id="text_1">
      <!-- HC -->
      <g transform="translate(127.854575 601.566969) scale(0.154 -0.154)">
       <defs>
        <path id="DejaVuSans-48" d="M 628 4666 
L 1259 4666 
L 1259 2753 
L 3553 2753 
L 3553 4666 
L 4184 4666 
L 4184 0 
L 3553 0 
L 3553 2222 
L 1259 2222 
L 1259 0 
L 628 0 
L 628 4666 
z
" transform="scale(0.015625)"/>
        <path id="DejaVuSans-43" d="M 4122 4306 
L 4122 3641 
Q 3803 3938 3442 4084 
Q 3081 4231 2675 4231 
Q 1875 4231 1450 3742 
Q 1025 3253 1025 2328 
Q 1025 1406 1450 917 
Q 1875 428 2675 428 
Q 3081 428 3442 575 
Q 3803 722 4122 1019 
L 4122 359 
Q 3791 134 3420 21 
Q 3050 -91 2638 -91 
Q 1578 -91 968 557 
Q 359 1206 359 2328 
Q 359 3453 968 4101 
Q 1578 4750 2638 4750 
Q 3056 4750 3426 4639 
Q 3797 4528 4122 4306 
z
" transform="scale(0.015625)"/>
       </defs>
       <use xlink:href="#DejaVuSans-48"/>
       <use xlink:href="#DejaVuSans-43" transform="translate(75.195312 0)"/>
      </g>
     </g>
    </g>
    <g id="xtick_2">
     <g id="line2d_3">
      <g>
       <use xlink:href="#m27727111fe" x="320.190812" y="580.365375" style="stroke: #000000; stroke-width: 1.25"/>
      </g>
     </g>
     <g id="text_2">
      <!-- MCI -->
      <g transform="translate(305.898891 601.566969) scale(0.154 -0.154)">
       <defs>
        <path id="DejaVuSans-4d" d="M 628 4666 
L 1569 4666 
L 2759 1491 
L 3956 4666 
L 4897 4666 
L 4897 0 
L 4281 0 
L 4281 4097 
L 3078 897 
L 2444 897 
L 1241 4097 
L 1241 0 
L 628 0 
L 628 4666 
z
" transform="scale(0.015625)"/>
        <path id="DejaVuSans-49" d="M 628 4666 
L 1259 4666 
L 1259 0 
L 628 0 
L 628 4666 
z
" transform="scale(0.015625)"/>
       </defs>
       <use xlink:href="#DejaVuSans-4d"/>
       <use xlink:href="#DejaVuSans-43" transform="translate(86.279297 0)"/>
       <use xlink:href="#DejaVuSans-49" transform="translate(156.103516 0)"/>
      </g>
     </g>
    </g>
    <g id="xtick_3">
     <g id="line2d_4">
      <g>
       <use xlink:href="#m27727111fe" x="501.359644" y="580.365375" style="stroke: #000000; stroke-width: 1.25"/>
      </g>
     </g>
     <g id="text_3">
      <!-- AD -->
      <g transform="translate(490.163362 601.566969) scale(0.154 -0.154)">
       <defs>
        <path id="DejaVuSans-41" d="M 2188 4044 
L 1331 1722 
L 3047 1722 
L 2188 4044 
z
M 1831 4666 
L 2547 4666 
L 4325 0 
L 3669 0 
L 3244 1197 
L 1141 1197 
L 716 0 
L 50 0 
L 1831 4666 
z
" transform="scale(0.015625)"/>
        <path id="DejaVuSans-44" d="M 1259 4147 
L 1259 519 
L 2022 519 
Q 2988 519 3436 956 
Q 3884 1394 3884 2338 
Q 3884 3275 3436 3711 
Q 2988 4147 2022 4147 
L 1259 4147 
z
M 628 4666 
L 1925 4666 
Q 3281 4666 3915 4102 
Q 4550 3538 4550 2338 
Q 4550 1131 3912 565 
Q 3275 0 1925 0 
L 628 0 
L 628 4666 
z
" transform="scale(0.015625)"/>
       </defs>
       <use xlink:href="#DejaVuSans-41"/>
       <use xlink:href="#DejaVuSans-44" transform="translate(68.408203 0)"/>
      </g>
     </g>
    </g>
   </g>
   <g id="matplotlib.axis_2">
    <g id="ytick_1">
     <g id="line2d_5">
      <defs>
       <path id="m8c79c9942b" d="M 0 0 
L -6 0 
" style="stroke: #000000; stroke-width: 1.25"/>
      </defs>
      <g>
       <use xlink:href="#m8c79c9942b" x="41.190813" y="580.365375" style="stroke: #000000; stroke-width: 1.25"/>
      </g>
     </g>
     <g id="text_4">
      <!-- 0.0 -->
      <g transform="translate(7.2 586.216172) scale(0.154 -0.154)">
       <defs>
        <path id="DejaVuSans-30" d="M 2034 4250 
Q 1547 4250 1301 3770 
Q 1056 3291 1056 2328 
Q 1056 1369 1301 889 
Q 1547 409 2034 409 
Q 2525 409 2770 889 
Q 3016 1369 3016 2328 
Q 3016 3291 2770 3770 
Q 2525 4250 2034 4250 
z
M 2034 4750 
Q 2819 4750 3233 4129 
Q 3647 3509 3647 2328 
Q 3647 1150 3233 529 
Q 2819 -91 2034 -91 
Q 1250 -91 836 529 
Q 422 1150 422 2328 
Q 422 3509 836 4129 
Q 1250 4750 2034 4750 
z
" transform="scale(0.015625)"/>
        <path id="DejaVuSans-2e" d="M 684 794 
L 1344 794 
L 1344 0 
L 684 0 
L 684 794 
z
" transform="scale(0.015625)"/>
       </defs>
       <use xlink:href="#DejaVuSans-30"/>
       <use xlink:href="#DejaVuSans-2e" transform="translate(63.623047 0)"/>
       <use xlink:href="#DejaVuSans-30" transform="translate(95.410156 0)"/>
      </g>
     </g>
    </g>
    <g id="ytick_2">
     <g id="line2d_6">
      <g>
       <use xlink:href="#m8c79c9942b" x="41.190813" y="474.765375" style="stroke: #000000; stroke-width: 1.25"/>
      </g>
     </g>
     <g id="text_5">
      <!-- 0.2 -->
      <g transform="translate(7.2 480.616172) scale(0.154 -0.154)">
       <defs>
        <path id="DejaVuSans-32" d="M 1228 531 
L 3431 531 
L 3431 0 
L 469 0 
L 469 531 
Q 828 903 1448 1529 
Q 2069 2156 2228 2338 
Q 2531 2678 2651 2914 
Q 2772 3150 2772 3378 
Q 2772 3750 2511 3984 
Q 2250 4219 1831 4219 
Q 1534 4219 1204 4116 
Q 875 4013 500 3803 
L 500 4441 
Q 881 4594 1212 4672 
Q 1544 4750 1819 4750 
Q 2544 4750 2975 4387 
Q 3406 4025 3406 3419 
Q 3406 3131 3298 2873 
Q 3191 2616 2906 2266 
Q 2828 2175 2409 1742 
Q 1991 1309 1228 531 
z
" transform="scale(0.015625)"/>
       </defs>
       <use xlink:href="#DejaVuSans-30"/>
       <use xlink:href="#DejaVuSans-2e" transform="translate(63.623047 0)"/>
       <use xlink:href="#DejaVuSans-32" transform="translate(95.410156 0)"/>
      </g>
     </g>
    </g>
    <g id="ytick_3">
     <g id="line2d_7">
      <g>
       <use xlink:href="#m8c79c9942b" x="41.190813" y="369.165375" style="stroke: #000000; stroke-width: 1.25"/>
      </g>
     </g>
     <g id="text_6">
      <!-- 0.4 -->
      <g transform="translate(7.2 375.016172) scale(0.154 -0.154)">
       <defs>
        <path id="DejaVuSans-34" d="M 2419 4116 
L 825 1625 
L 2419 1625 
L 2419 4116 
z
M 2253 4666 
L 3047 4666 
L 3047 1625 
L 3713 1625 
L 3713 1100 
L 3047 1100 
L 3047 0 
L 2419 0 
L 2419 1100 
L 313 1100 
L 313 1709 
L 2253 4666 
z
" transform="scale(0.015625)"/>
       </defs>
       <use xlink:href="#DejaVuSans-30"/>
       <use xlink:href="#DejaVuSans-2e" transform="translate(63.623047 0)"/>
       <use xlink:href="#DejaVuSans-34" transform="translate(95.410156 0)"/>
      </g>
     </g>
    </g>
    <g id="ytick_4">
     <g id="line2d_8">
      <g>
       <use xlink:href="#m8c79c9942b" x="41.190813" y="263.565375" style="stroke: #000000; stroke-width: 1.25"/>
      </g>
     </g>
     <g id="text_7">
      <!-- 0.6 -->
      <g transform="translate(7.2 269.416172) scale(0.154 -0.154)">
       <defs>
        <path id="DejaVuSans-36" d="M 2113 2584 
Q 1688 2584 1439 2293 
Q 1191 2003 1191 1497 
Q 1191 994 1439 701 
Q 1688 409 2113 409 
Q 2538 409 2786 701 
Q 3034 994 3034 1497 
Q 3034 2003 2786 2293 
Q 2538 2584 2113 2584 
z
M 3366 4563 
L 3366 3988 
Q 3128 4100 2886 4159 
Q 2644 4219 2406 4219 
Q 1781 4219 1451 3797 
Q 1122 3375 1075 2522 
Q 1259 2794 1537 2939 
Q 1816 3084 2150 3084 
Q 2853 3084 3261 2657 
Q 3669 2231 3669 1497 
Q 3669 778 3244 343 
Q 2819 -91 2113 -91 
Q 1303 -91 875 529 
Q 447 1150 447 2328 
Q 447 3434 972 4092 
Q 1497 4750 2381 4750 
Q 2619 4750 2861 4703 
Q 3103 4656 3366 4563 
z
" transform="scale(0.015625)"/>
       </defs>
       <use xlink:href="#DejaVuSans-30"/>
       <use xlink:href="#DejaVuSans-2e" transform="translate(63.623047 0)"/>
       <use xlink:href="#DejaVuSans-36" transform="translate(95.410156 0)"/>
      </g>
     </g>
    </g>
    <g id="ytick_5">
     <g id="line2d_9">
      <g>
       <use xlink:href="#m8c79c9942b" x="41.190813" y="157.965375" style="stroke: #000000; stroke-width: 1.25"/>
      </g>
     </g>
     <g id="text_8">
      <!-- 0.8 -->
      <g transform="translate(7.2 163.816172) scale(0.154 -0.154)">
       <defs>
        <path id="DejaVuSans-38" d="M 2034 2216 
Q 1584 2216 1326 1975 
Q 1069 1734 1069 1313 
Q 1069 891 1326 650 
Q 1584 409 2034 409 
Q 2484 409 2743 651 
Q 3003 894 3003 1313 
Q 3003 1734 2745 1975 
Q 2488 2216 2034 2216 
z
M 1403 2484 
Q 997 2584 770 2862 
Q 544 3141 544 3541 
Q 544 4100 942 4425 
Q 1341 4750 2034 4750 
Q 2731 4750 3128 4425 
Q 3525 4100 3525 3541 
Q 3525 3141 3298 2862 
Q 3072 2584 2669 2484 
Q 3125 2378 3379 2068 
Q 3634 1759 3634 1313 
Q 3634 634 3220 271 
Q 2806 -91 2034 -91 
Q 1263 -91 848 271 
Q 434 634 434 1313 
Q 434 1759 690 2068 
Q 947 2378 1403 2484 
z
M 1172 3481 
Q 1172 3119 1398 2916 
Q 1625 2713 2034 2713 
Q 2441 2713 2670 2916 
Q 2900 3119 2900 3481 
Q 2900 3844 2670 4047 
Q 2441 4250 2034 4250 
Q 1625 4250 1398 4047 
Q 1172 3844 1172 3481 
z
" transform="scale(0.015625)"/>
       </defs>
       <use xlink:href="#DejaVuSans-30"/>
       <use xlink:href="#DejaVuSans-2e" transform="translate(63.623047 0)"/>
       <use xlink:href="#DejaVuSans-38" transform="translate(95.410156 0)"/>
      </g>
     </g>
    </g>
    <g id="ytick_6">
     <g id="line2d_10">
      <g>
       <use xlink:href="#m8c79c9942b" x="41.190813" y="52.365375" style="stroke: #000000; stroke-width: 1.25"/>
      </g>
     </g>
     <g id="text_9">
      <!-- 1.0 -->
      <g transform="translate(7.2 58.216172) scale(0.154 -0.154)">
       <defs>
        <path id="DejaVuSans-31" d="M 794 531 
L 1825 531 
L 1825 4091 
L 703 3866 
L 703 4441 
L 1819 4666 
L 2450 4666 
L 2450 531 
L 3481 531 
L 3481 0 
L 794 0 
L 794 531 
z
" transform="scale(0.015625)"/>
       </defs>
       <use xlink:href="#DejaVuSans-31"/>
       <use xlink:href="#DejaVuSans-2e" transform="translate(63.623047 0)"/>
       <use xlink:href="#DejaVuSans-30" transform="translate(95.410156 0)"/>
      </g>
     </g>
    </g>
   </g>
   <g id="line2d_11">
    <path d="M 139.021981 242.46927 
L 139.021981 206.825479 
" clip-path="url(#p9bedf9576e)" style="fill: none; stroke: #4c4c4c; stroke-width: 2.25; stroke-linecap: square"/>
   </g>
   <g id="line2d_12">
    <path d="M 139.021981 228.636951 
L 139.021981 214.501438 
" clip-path="url(#p9bedf9576e)" style="fill: none; stroke: #4c4c4c; stroke-width: 6.75; stroke-linecap: square"/>
   </g>
   <g id="line2d_13">
    <path d="M 139.021981 219.416473 
" clip-path="url(#p9bedf9576e)" style="fill: none; stroke: #4c4c4c; stroke-width: 1.5; stroke-linecap: square"/>
    <defs>
     <path id="m0134fa12ff" d="M 2.8125 0 
L -2.8125 -0 
" style="stroke: #ffffff; stroke-width: 1.35"/>
    </defs>
    <g clip-path="url(#p9bedf9576e)">
     <use xlink:href="#m0134fa12ff" x="139.021981" y="219.416473" style="fill: #ffffff; stroke: #ffffff; stroke-width: 1.35"/>
    </g>
   </g>
   <g id="line2d_14">
    <path d="M 320.190812 177.79206 
L 320.190812 133.613368 
" clip-path="url(#p9bedf9576e)" style="fill: none; stroke: #4c4c4c; stroke-width: 2.25; stroke-linecap: square"/>
   </g>
   <g id="line2d_15">
    <path d="M 320.190812 162.322034 
L 320.190812 140.931829 
" clip-path="url(#p9bedf9576e)" style="fill: none; stroke: #4c4c4c; stroke-width: 6.75; stroke-linecap: square"/>
   </g>
   <g id="line2d_16">
    <path d="M 320.190812 151.2698 
" clip-path="url(#p9bedf9576e)" style="fill: none; stroke: #4c4c4c; stroke-width: 1.5; stroke-linecap: square"/>
    <g clip-path="url(#p9bedf9576e)">
     <use xlink:href="#m0134fa12ff" x="320.190812" y="151.2698" style="fill: #ffffff; stroke: #ffffff; stroke-width: 1.35"/>
    </g>
   </g>
   <g id="line2d_17">
    <path d="M 501.359644 191.838113 
L 501.359644 165.835042 
" clip-path="url(#p9bedf9576e)" style="fill: none; stroke: #4c4c4c; stroke-width: 2.25; stroke-linecap: square"/>
   </g>
   <g id="line2d_18">
    <path d="M 501.359644 182.055085 
L 501.359644 169.227626 
" clip-path="url(#p9bedf9576e)" style="fill: none; stroke: #4c4c4c; stroke-width: 6.75; stroke-linecap: square"/>
   </g>
   <g id="line2d_19">
    <path d="M 501.359644 171.849346 
" clip-path="url(#p9bedf9576e)" style="fill: none; stroke: #4c4c4c; stroke-width: 1.5; stroke-linecap: square"/>
    <g clip-path="url(#p9bedf9576e)">
     <use xlink:href="#m0134fa12ff" x="501.359644" y="171.849346" style="fill: #ffffff; stroke: #ffffff; stroke-width: 1.35"/>
    </g>
   </g>
   <g id="patch_3">
    <path d="M 41.190813 580.365375 
L 41.190813 25.965375 
" style="fill: none; stroke: #000000; stroke-width: 1.25; stroke-linejoin: miter; stroke-linecap: square"/>
   </g>
   <g id="patch_4">
    <path d="M 599.190812 580.365375 
L 599.190812 25.965375 
" style="fill: none; stroke: #000000; stroke-width: 1.25; stroke-linejoin: miter; stroke-linecap: square"/>
   </g>
   <g id="patch_5">
    <path d="M 41.190812 580.365375 
L 599.190812 580.365375 
" style="fill: none; stroke: #000000; stroke-width: 1.25; stroke-linejoin: miter; stroke-linecap: square"/>
   </g>
   <g id="patch_6">
    <path d="M 41.190812 25.965375 
L 599.190812 25.965375 
" style="fill: none; stroke: #000000; stroke-width: 1.25; stroke-linejoin: miter; stroke-linecap: square"/>
   </g>
   <g id="text_10">
    <!-- ***** -->
    <g transform="translate(214.606397 108.905272) scale(0.12 -0.12)">
     <defs>
      <path id="DejaVuSans-2a" d="M 3009 3897 
L 1888 3291 
L 3009 2681 
L 2828 2375 
L 1778 3009 
L 1778 1831 
L 1422 1831 
L 1422 3009 
L 372 2375 
L 191 2681 
L 1313 3291 
L 191 3897 
L 372 4206 
L 1422 3572 
L 1422 4750 
L 1778 4750 
L 1778 3572 
L 2828 4206 
L 3009 3897 
z
" transform="scale(0.015625)"/>
     </defs>
     <use xlink:href="#DejaVuSans-2a"/>
     <use xlink:href="#DejaVuSans-2a" transform="translate(50 0)"/>
     <use xlink:href="#DejaVuSans-2a" transform="translate(100 0)"/>
     <use xlink:href="#DejaVuSans-2a" transform="translate(150 0)"/>
     <use xlink:href="#DejaVuSans-2a" transform="translate(200 0)"/>
    </g>
   </g>
   <g id="text_11">
    <!-- ***** -->
    <g transform="translate(305.190812 94.079277) scale(0.12 -0.12)">
     <use xlink:href="#DejaVuSans-2a"/>
     <use xlink:href="#DejaVuSans-2a" transform="translate(50 0)"/>
     <use xlink:href="#DejaVuSans-2a" transform="translate(100 0)"/>
     <use xlink:href="#DejaVuSans-2a" transform="translate(150 0)"/>
     <use xlink:href="#DejaVuSans-2a" transform="translate(200 0)"/>
    </g>
   </g>
   <g id="text_12">
    <!-- ***** -->
    <g transform="translate(395.775228 79.253283) scale(0.12 -0.12)">
     <use xlink:href="#DejaVuSans-2a"/>
     <use xlink:href="#DejaVuSans-2a" transform="translate(50 0)"/>
     <use xlink:href="#DejaVuSans-2a" transform="translate(100 0)"/>
     <use xlink:href="#DejaVuSans-2a" transform="translate(150 0)"/>
     <use xlink:href="#DejaVuSans-2a" transform="translate(200 0)"/>
    </g>
   </g>
   <g id="text_13">
    <!-- Inorm1 sub -->
    <g transform="translate(272.715062 19.965375) scale(0.168 -0.168)">
     <defs>
      <path id="DejaVuSans-6e" d="M 3513 2113 
L 3513 0 
L 2938 0 
L 2938 2094 
Q 2938 2591 2744 2837 
Q 2550 3084 2163 3084 
Q 1697 3084 1428 2787 
Q 1159 2491 1159 1978 
L 1159 0 
L 581 0 
L 581 3500 
L 1159 3500 
L 1159 2956 
Q 1366 3272 1645 3428 
Q 1925 3584 2291 3584 
Q 2894 3584 3203 3211 
Q 3513 2838 3513 2113 
z
" transform="scale(0.015625)"/>
      <path id="DejaVuSans-6f" d="M 1959 3097 
Q 1497 3097 1228 2736 
Q 959 2375 959 1747 
Q 959 1119 1226 758 
Q 1494 397 1959 397 
Q 2419 397 2687 759 
Q 2956 1122 2956 1747 
Q 2956 2369 2687 2733 
Q 2419 3097 1959 3097 
z
M 1959 3584 
Q 2709 3584 3137 3096 
Q 3566 2609 3566 1747 
Q 3566 888 3137 398 
Q 2709 -91 1959 -91 
Q 1206 -91 779 398 
Q 353 888 353 1747 
Q 353 2609 779 3096 
Q 1206 3584 1959 3584 
z
" transform="scale(0.015625)"/>
      <path id="DejaVuSans-72" d="M 2631 2963 
Q 2534 3019 2420 3045 
Q 2306 3072 2169 3072 
Q 1681 3072 1420 2755 
Q 1159 2438 1159 1844 
L 1159 0 
L 581 0 
L 581 3500 
L 1159 3500 
L 1159 2956 
Q 1341 3275 1631 3429 
Q 1922 3584 2338 3584 
Q 2397 3584 2469 3576 
Q 2541 3569 2628 3553 
L 2631 2963 
z
" transform="scale(0.015625)"/>
      <path id="DejaVuSans-6d" d="M 3328 2828 
Q 3544 3216 3844 3400 
Q 4144 3584 4550 3584 
Q 5097 3584 5394 3201 
Q 5691 2819 5691 2113 
L 5691 0 
L 5113 0 
L 5113 2094 
Q 5113 2597 4934 2840 
Q 4756 3084 4391 3084 
Q 3944 3084 3684 2787 
Q 3425 2491 3425 1978 
L 3425 0 
L 2847 0 
L 2847 2094 
Q 2847 2600 2669 2842 
Q 2491 3084 2119 3084 
Q 1678 3084 1418 2786 
Q 1159 2488 1159 1978 
L 1159 0 
L 581 0 
L 581 3500 
L 1159 3500 
L 1159 2956 
Q 1356 3278 1631 3431 
Q 1906 3584 2284 3584 
Q 2666 3584 2933 3390 
Q 3200 3197 3328 2828 
z
" transform="scale(0.015625)"/>
      <path id="DejaVuSans-20" transform="scale(0.015625)"/>
      <path id="DejaVuSans-73" d="M 2834 3397 
L 2834 2853 
Q 2591 2978 2328 3040 
Q 2066 3103 1784 3103 
Q 1356 3103 1142 2972 
Q 928 2841 928 2578 
Q 928 2378 1081 2264 
Q 1234 2150 1697 2047 
L 1894 2003 
Q 2506 1872 2764 1633 
Q 3022 1394 3022 966 
Q 3022 478 2636 193 
Q 2250 -91 1575 -91 
Q 1294 -91 989 -36 
Q 684 19 347 128 
L 347 722 
Q 666 556 975 473 
Q 1284 391 1588 391 
Q 1994 391 2212 530 
Q 2431 669 2431 922 
Q 2431 1156 2273 1281 
Q 2116 1406 1581 1522 
L 1381 1569 
Q 847 1681 609 1914 
Q 372 2147 372 2553 
Q 372 3047 722 3315 
Q 1072 3584 1716 3584 
Q 2034 3584 2315 3537 
Q 2597 3491 2834 3397 
z
" transform="scale(0.015625)"/>
      <path id="DejaVuSans-75" d="M 544 1381 
L 544 3500 
L 1119 3500 
L 1119 1403 
Q 1119 906 1312 657 
Q 1506 409 1894 409 
Q 2359 409 2629 706 
Q 2900 1003 2900 1516 
L 2900 3500 
L 3475 3500 
L 3475 0 
L 2900 0 
L 2900 538 
Q 2691 219 2414 64 
Q 2138 -91 1772 -91 
Q 1169 -91 856 284 
Q 544 659 544 1381 
z
M 1991 3584 
L 1991 3584 
z
" transform="scale(0.015625)"/>
      <path id="DejaVuSans-62" d="M 3116 1747 
Q 3116 2381 2855 2742 
Q 2594 3103 2138 3103 
Q 1681 3103 1420 2742 
Q 1159 2381 1159 1747 
Q 1159 1113 1420 752 
Q 1681 391 2138 391 
Q 2594 391 2855 752 
Q 3116 1113 3116 1747 
z
M 1159 2969 
Q 1341 3281 1617 3432 
Q 1894 3584 2278 3584 
Q 2916 3584 3314 3078 
Q 3713 2572 3713 1747 
Q 3713 922 3314 415 
Q 2916 -91 2278 -91 
Q 1894 -91 1617 61 
Q 1341 213 1159 525 
L 1159 0 
L 581 0 
L 581 4863 
L 1159 4863 
L 1159 2969 
z
" transform="scale(0.015625)"/>
     </defs>
     <use xlink:href="#DejaVuSans-49"/>
     <use xlink:href="#DejaVuSans-6e" transform="translate(29.492188 0)"/>
     <use xlink:href="#DejaVuSans-6f" transform="translate(92.871094 0)"/>
     <use xlink:href="#DejaVuSans-72" transform="translate(154.052734 0)"/>
     <use xlink:href="#DejaVuSans-6d" transform="translate(193.416016 0)"/>
     <use xlink:href="#DejaVuSans-31" transform="translate(290.828125 0)"/>
     <use xlink:href="#DejaVuSans-20" transform="translate(354.451172 0)"/>
     <use xlink:href="#DejaVuSans-73" transform="translate(386.238281 0)"/>
     <use xlink:href="#DejaVuSans-75" transform="translate(438.337891 0)"/>
     <use xlink:href="#DejaVuSans-62" transform="translate(501.716797 0)"/>
    </g>
   </g>
   <g id="line2d_20">
    <path d="M 139.021981 111.87047 
L 320.190812 111.87047 
" clip-path="url(#p9bedf9576e)" style="fill: none; stroke: #000000; stroke-width: 1.5; stroke-linecap: square"/>
   </g>
   <g id="line2d_21">
    <path d="M 139.021981 97.044476 
L 501.359644 97.044476 
" clip-path="url(#p9bedf9576e)" style="fill: none; stroke: #000000; stroke-width: 1.5; stroke-linecap: square"/>
   </g>
   <g id="line2d_22">
    <path d="M 320.190812 82.218482 
L 501.359644 82.218482 
" clip-path="url(#p9bedf9576e)" style="fill: none; stroke: #000000; stroke-width: 1.5; stroke-linecap: square"/>
   </g>
  </g>
 </g>
 <defs>
  <clipPath id="p9bedf9576e">
   <rect x="41.190813" y="25.965375" width="558" height="554.4"/>
  </clipPath>
 </defs>
</svg>
