<?xml version="1.0" encoding="utf-8" standalone="no"?>
<!DOCTYPE svg PUBLIC "-//W3C//DTD SVG 1.1//EN"
  "http://www.w3.org/Graphics/SVG/1.1/DTD/svg11.dtd">
<svg xmlns:xlink="http://www.w3.org/1999/xlink" width="601.4965pt" height="611.969687pt" viewBox="0 0 601.4965 611.969687" xmlns="http://www.w3.org/2000/svg" version="1.1">
 <metadata>
  <rdf:RDF xmlns:dc="http://purl.org/dc/elements/1.1/" xmlns:cc="http://creativecommons.org/ns#" xmlns:rdf="http://www.w3.org/1999/02/22-rdf-syntax-ns#">
   <cc:Work>
    <dc:type rdf:resource="http://purl.org/dc/dcmitype/StillImage"/>
    <dc:date>2025-07-15T16:55:26.398238</dc:date>
    <dc:format>image/svg+xml</dc:format>
    <dc:creator>
     <cc:Agent>
      <dc:title>Matplotlib v3.10.0, https://matplotlib.org/</dc:title>
     </cc:Agent>
    </dc:creator>
   </cc:Work>
  </rdf:RDF>
 </metadata>
 <defs>
  <style type="text/css">*{stroke-linejoin: round; stroke-linecap: butt}</style>
 </defs>
 <g id="figure_1">
  <g id="patch_1">
   <path d="M -0 611.969687 
L 601.4965 611.969687 
L 601.4965 -0 
L -0 -0 
z
" style="fill: #ffffff"/>
  </g>
  <g id="axes_1">
   <g id="patch_2">
    <path d="M 36.2965 580.365375 
L 594.2965 580.365375 
L 594.2965 25.965375 
L 36.2965 25.965375 
z
" style="fill: #ffffff"/>
   </g>
   <g id="FillBetweenPolyCollection_1">
    <defs>
     <path id="m0b9e164188" d="M 136.874917 -42.606146 
L 131.380421 -42.606146 
L 130.684652 -44.466133 
L 129.850894 -46.32612 
L 128.861917 -48.186107 
L 127.700741 -50.046093 
L 126.351251 -51.90608 
L 124.798904 -53.766067 
L 123.031474 -55.626054 
L 121.03984 -57.486041 
L 118.818752 -59.346028 
L 116.367559 -61.206015 
L 113.690846 -63.066002 
L 110.798942 -64.925989 
L 107.708262 -66.785975 
L 104.441451 -68.645962 
L 101.027307 -70.505949 
L 97.500468 -72.365936 
L 93.90086 -74.225923 
L 90.272919 -76.08591 
L 86.664602 -77.945897 
L 83.126232 -79.805884 
L 79.709205 -81.665871 
L 76.46462 -83.525858 
L 73.441889 -85.385844 
L 70.687371 -87.245831 
L 68.2431 -89.105818 
L 66.14566 -90.965805 
L 64.425234 -92.825792 
L 63.10489 -94.685779 
L 62.200103 -96.545766 
L 61.718548 -98.405753 
L 61.660136 -100.26574 
L 62.017312 -102.125726 
L 62.77555 -103.985713 
L 63.914046 -105.8457 
L 65.406537 -107.705687 
L 67.222213 -109.565674 
L 69.326674 -111.425661 
L 71.682872 -113.285648 
L 74.252015 -115.145635 
L 76.994394 -117.005622 
L 79.870108 -118.865608 
L 82.839678 -120.725595 
L 85.86455 -122.585582 
L 88.907503 -124.445569 
L 91.932964 -126.305556 
L 94.907259 -128.165543 
L 97.798833 -130.02553 
L 100.578444 -131.885517 
L 103.219365 -133.745504 
L 105.697605 -135.605491 
L 107.99215 -137.465477 
L 110.085236 -139.325464 
L 111.96263 -141.185451 
L 113.613923 -143.045438 
L 115.032795 -144.905425 
L 116.217241 -146.765412 
L 117.169727 -148.625399 
L 117.897253 -150.485386 
L 118.411293 -152.345373 
L 118.727613 -154.205359 
L 118.865935 -156.065346 
L 118.849467 -157.925333 
L 118.704294 -159.78532 
L 118.458645 -161.645307 
L 118.142079 -163.505294 
L 117.784598 -165.365281 
L 117.41574 -167.225268 
L 117.063692 -169.085255 
L 116.75445 -170.945242 
L 116.511075 -172.805228 
L 116.353079 -174.665215 
L 116.295949 -176.525202 
L 116.350853 -178.385189 
L 116.524505 -180.245176 
L 116.819219 -182.105163 
L 117.233115 -183.96515 
L 117.760477 -185.825137 
L 118.392223 -187.685124 
L 119.116478 -189.54511 
L 119.9192 -191.405097 
L 120.784838 -193.265084 
L 121.696988 -195.125071 
L 122.639019 -196.985058 
L 123.594655 -198.845045 
L 124.548475 -200.705032 
L 125.486337 -202.565019 
L 126.395704 -204.425006 
L 127.265881 -206.284992 
L 128.08815 -208.144979 
L 128.855818 -210.004966 
L 129.564189 -211.864953 
L 130.21046 -213.72494 
L 130.793568 -215.584927 
L 131.313984 -217.444914 
L 131.773492 -219.304901 
L 132.174943 -221.164888 
L 132.52201 -223.024875 
L 132.81895 -224.884861 
L 133.070385 -226.744848 
L 135.184953 -226.744848 
L 135.184953 -226.744848 
L 135.436387 -224.884861 
L 135.733327 -223.024875 
L 136.080394 -221.164888 
L 136.481846 -219.304901 
L 136.941354 -217.444914 
L 137.46177 -215.584927 
L 138.044877 -213.72494 
L 138.691149 -211.864953 
L 139.39952 -210.004966 
L 140.167188 -208.144979 
L 140.989456 -206.284992 
L 141.859633 -204.425006 
L 142.769001 -202.565019 
L 143.706862 -200.705032 
L 144.660682 -198.845045 
L 145.616318 -196.985058 
L 146.55835 -195.125071 
L 147.470499 -193.265084 
L 148.336137 -191.405097 
L 149.13886 -189.54511 
L 149.863115 -187.685124 
L 150.494861 -185.825137 
L 151.022222 -183.96515 
L 151.436119 -182.105163 
L 151.730833 -180.245176 
L 151.904485 -178.385189 
L 151.959388 -176.525202 
L 151.902259 -174.665215 
L 151.744263 -172.805228 
L 151.500888 -170.945242 
L 151.191646 -169.085255 
L 150.839597 -167.225268 
L 150.47074 -165.365281 
L 150.113258 -163.505294 
L 149.796692 -161.645307 
L 149.551044 -159.78532 
L 149.40587 -157.925333 
L 149.389403 -156.065346 
L 149.527725 -154.205359 
L 149.844044 -152.345373 
L 150.358085 -150.485386 
L 151.08561 -148.625399 
L 152.038097 -146.765412 
L 153.222543 -144.905425 
L 154.641415 -143.045438 
L 156.292708 -141.185451 
L 158.170102 -139.325464 
L 160.263187 -137.465477 
L 162.557733 -135.605491 
L 165.035972 -133.745504 
L 167.676894 -131.885517 
L 170.456504 -130.02553 
L 173.348078 -128.165543 
L 176.322374 -126.305556 
L 179.347834 -124.445569 
L 182.390788 -122.585582 
L 185.41566 -120.725595 
L 188.385229 -118.865608 
L 191.260943 -117.005622 
L 194.003323 -115.145635 
L 196.572466 -113.285648 
L 198.928663 -111.425661 
L 201.033124 -109.565674 
L 202.848801 -107.705687 
L 204.341292 -105.8457 
L 205.479788 -103.985713 
L 206.238026 -102.125726 
L 206.595201 -100.26574 
L 206.53679 -98.405753 
L 206.055234 -96.545766 
L 205.150448 -94.685779 
L 203.830104 -92.825792 
L 202.109678 -90.965805 
L 200.012237 -89.105818 
L 197.567967 -87.245831 
L 194.813449 -85.385844 
L 191.790718 -83.525858 
L 188.546133 -81.665871 
L 185.129106 -79.805884 
L 181.590736 -77.945897 
L 177.982419 -76.08591 
L 174.354478 -74.225923 
L 170.75487 -72.365936 
L 167.228031 -70.505949 
L 163.813887 -68.645962 
L 160.547076 -66.785975 
L 157.456395 -64.925989 
L 154.564491 -63.066002 
L 151.887779 -61.206015 
L 149.436586 -59.346028 
L 147.215498 -57.486041 
L 145.223863 -55.626054 
L 143.456434 -53.766067 
L 141.904086 -51.90608 
L 140.554597 -50.046093 
L 139.39342 -48.186107 
L 138.404444 -46.32612 
L 137.570686 -44.466133 
L 136.874917 -42.606146 
z
" style="stroke: #4c4c4c; stroke-opacity: 0.6; stroke-width: 1.5"/>
    </defs>
    <g clip-path="url(#pc9550855aa)">
     <use xlink:href="#m0b9e164188" x="0" y="611.969687" style="fill: #4c72b0; fill-opacity: 0.6; stroke: #4c4c4c; stroke-opacity: 0.6; stroke-width: 1.5"/>
    </g>
   </g>
   <g id="FillBetweenPolyCollection_2">
    <defs>
     <path id="m4add26c5d7" d="M 318.734861 -50.409205 
L 311.858139 -50.409205 
L 310.876054 -52.119051 
L 309.680653 -53.828898 
L 308.245581 -55.538744 
L 306.546515 -57.24859 
L 304.562706 -58.958436 
L 302.278617 -60.668283 
L 299.685566 -62.378129 
L 296.783253 -64.087975 
L 293.581058 -65.797821 
L 290.098997 -67.507668 
L 286.368223 -69.217514 
L 282.431013 -70.92736 
L 278.340186 -72.637206 
L 274.157961 -74.347053 
L 269.954283 -76.056899 
L 265.804706 -77.766745 
L 261.787931 -79.476591 
L 257.983141 -81.186438 
L 254.467258 -82.896284 
L 251.312286 -84.60613 
L 248.582851 -86.315976 
L 246.334051 -88.025823 
L 244.609714 -89.735669 
L 243.441104 -91.445515 
L 242.846116 -93.155361 
L 242.828968 -94.865208 
L 243.380365 -96.575054 
L 244.478118 -98.2849 
L 246.088162 -99.994746 
L 248.165916 -101.704593 
L 250.657945 -103.414439 
L 253.503831 -105.124285 
L 256.6382 -106.834131 
L 259.992834 -108.543978 
L 263.498782 -110.253824 
L 267.088417 -111.96367 
L 270.697355 -113.673516 
L 274.266186 -115.383363 
L 277.741947 -117.093209 
L 281.079303 -118.803055 
L 284.241389 -120.512901 
L 287.200289 -122.222748 
L 289.937149 -123.932594 
L 292.441917 -125.64244 
L 294.712743 -127.352286 
L 296.755067 -129.062133 
L 298.580453 -130.771979 
L 300.205241 -132.481825 
L 301.649084 -134.191672 
L 302.933467 -135.901518 
L 304.08029 -137.611364 
L 305.110585 -139.32121 
L 306.043443 -141.031057 
L 306.895198 -142.740903 
L 307.678891 -144.450749 
L 308.404026 -146.160595 
L 309.076594 -147.870442 
L 309.699333 -149.580288 
L 310.272185 -151.290134 
L 310.792873 -152.99998 
L 311.25757 -154.709827 
L 311.661579 -156.419673 
L 312 -158.129519 
L 312.268345 -159.839365 
L 312.463073 -161.549212 
L 312.582043 -163.259058 
L 312.624868 -164.968904 
L 312.593176 -166.67875 
L 312.490776 -168.388597 
L 312.323723 -170.098443 
L 312.100283 -171.808289 
L 311.830791 -173.518135 
L 311.527396 -175.227982 
L 311.203701 -176.937828 
L 310.874287 -178.647674 
L 310.55415 -180.35752 
L 310.258071 -182.067367 
L 309.999943 -183.777213 
L 309.792114 -185.487059 
L 309.644782 -187.196905 
L 309.565483 -188.906752 
L 309.558739 -190.616598 
L 309.625864 -192.326444 
L 309.764972 -194.03629 
L 309.971182 -195.746137 
L 310.236992 -197.455983 
L 310.552806 -199.165829 
L 310.907561 -200.875675 
L 311.289408 -202.585522 
L 311.686387 -204.295368 
L 312.087049 -206.005214 
L 312.480992 -207.71506 
L 312.859265 -209.424907 
L 313.214641 -211.134753 
L 313.541738 -212.844599 
L 313.837022 -214.554445 
L 314.098688 -216.264292 
L 314.326455 -217.974138 
L 314.521313 -219.683984 
L 316.071687 -219.683984 
L 316.071687 -219.683984 
L 316.266545 -217.974138 
L 316.494312 -216.264292 
L 316.755978 -214.554445 
L 317.051262 -212.844599 
L 317.378359 -211.134753 
L 317.733735 -209.424907 
L 318.112008 -207.71506 
L 318.505951 -206.005214 
L 318.906613 -204.295368 
L 319.303592 -202.585522 
L 319.685439 -200.875675 
L 320.040194 -199.165829 
L 320.356008 -197.455983 
L 320.621818 -195.746137 
L 320.828028 -194.03629 
L 320.967136 -192.326444 
L 321.034261 -190.616598 
L 321.027517 -188.906752 
L 320.948218 -187.196905 
L 320.800886 -185.487059 
L 320.593057 -183.777213 
L 320.334929 -182.067367 
L 320.03885 -180.35752 
L 319.718713 -178.647674 
L 319.389299 -176.937828 
L 319.065604 -175.227982 
L 318.762209 -173.518135 
L 318.492717 -171.808289 
L 318.269277 -170.098443 
L 318.102224 -168.388597 
L 317.999824 -166.67875 
L 317.968132 -164.968904 
L 318.010957 -163.259058 
L 318.129927 -161.549212 
L 318.324655 -159.839365 
L 318.593 -158.129519 
L 318.931421 -156.419673 
L 319.33543 -154.709827 
L 319.800127 -152.99998 
L 320.320815 -151.290134 
L 320.893667 -149.580288 
L 321.516406 -147.870442 
L 322.188974 -146.160595 
L 322.914109 -144.450749 
L 323.697802 -142.740903 
L 324.549557 -141.031057 
L 325.482415 -139.32121 
L 326.51271 -137.611364 
L 327.659533 -135.901518 
L 328.943916 -134.191672 
L 330.387759 -132.481825 
L 332.012547 -130.771979 
L 333.837933 -129.062133 
L 335.880257 -127.352286 
L 338.151083 -125.64244 
L 340.655851 -123.932594 
L 343.392711 -122.222748 
L 346.351611 -120.512901 
L 349.513697 -118.803055 
L 352.851053 -117.093209 
L 356.326814 -115.383363 
L 359.895645 -113.673516 
L 363.504583 -111.96367 
L 367.094218 -110.253824 
L 370.600166 -108.543978 
L 373.9548 -106.834131 
L 377.089169 -105.124285 
L 379.935055 -103.414439 
L 382.427084 -101.704593 
L 384.504838 -99.994746 
L 386.114882 -98.2849 
L 387.212635 -96.575054 
L 387.764032 -94.865208 
L 387.746884 -93.155361 
L 387.151896 -91.445515 
L 385.983286 -89.735669 
L 384.258949 -88.025823 
L 382.010149 -86.315976 
L 379.280714 -84.60613 
L 376.125742 -82.896284 
L 372.609859 -81.186438 
L 368.805069 -79.476591 
L 364.788294 -77.766745 
L 360.638717 -76.056899 
L 356.435039 -74.347053 
L 352.252814 -72.637206 
L 348.161987 -70.92736 
L 344.224777 -69.217514 
L 340.494003 -67.507668 
L 337.011942 -65.797821 
L 333.809747 -64.087975 
L 330.907434 -62.378129 
L 328.314383 -60.668283 
L 326.030294 -58.958436 
L 324.046485 -57.24859 
L 322.347419 -55.538744 
L 320.912347 -53.828898 
L 319.716946 -52.119051 
L 318.734861 -50.409205 
z
" style="stroke: #4c4c4c; stroke-opacity: 0.6; stroke-width: 1.5"/>
    </defs>
    <g clip-path="url(#pc9550855aa)">
     <use xlink:href="#m4add26c5d7" x="0" y="611.969687" style="fill: #dd8452; fill-opacity: 0.6; stroke: #4c4c4c; stroke-opacity: 0.6; stroke-width: 1.5"/>
    </g>
   </g>
   <g id="FillBetweenPolyCollection_3">
    <defs>
     <path id="mfd96334934" d="M 498.543828 -46.893595 
L 494.386834 -46.893595 
L 493.806594 -50.966426 
L 493.096511 -55.039256 
L 492.236779 -59.112087 
L 491.206962 -63.184918 
L 489.986609 -67.257748 
L 488.556024 -71.330579 
L 486.897157 -75.40341 
L 484.994622 -79.47624 
L 482.836781 -83.549071 
L 480.416871 -87.621902 
L 477.734106 -91.694732 
L 474.79469 -95.767563 
L 471.612668 -99.840394 
L 468.210528 -103.913225 
L 464.619499 -107.986055 
L 460.87945 -112.058886 
L 457.038364 -116.131717 
L 453.151346 -120.204547 
L 449.279157 -124.277378 
L 445.486326 -128.350209 
L 441.838889 -132.423039 
L 438.401861 -136.49587 
L 435.236589 -140.568701 
L 432.398116 -144.641531 
L 429.932752 -148.714362 
L 427.875998 -152.787193 
L 426.250986 -156.860024 
L 425.067554 -160.932854 
L 424.322037 -165.005685 
L 423.997799 -169.078516 
L 424.06648 -173.151346 
L 424.489877 -177.224177 
L 425.222318 -181.297008 
L 426.213362 -185.369838 
L 427.41064 -189.442669 
L 428.762616 -193.5155 
L 430.221097 -197.588331 
L 431.743328 -201.661161 
L 433.293548 -205.733992 
L 434.843942 -209.806823 
L 436.374974 -213.879653 
L 437.875136 -217.952484 
L 439.340191 -222.025315 
L 440.772026 -226.098145 
L 442.17724 -230.170976 
L 443.56563 -234.243807 
L 444.948671 -238.316637 
L 446.338144 -242.389468 
L 447.744967 -246.462299 
L 449.178304 -250.53513 
L 450.644968 -254.60796 
L 452.1491 -258.680791 
L 453.692112 -262.753622 
L 455.272813 -266.826452 
L 456.88769 -270.899283 
L 458.531251 -274.972114 
L 460.196406 -279.044944 
L 461.874814 -283.117775 
L 463.557202 -287.190606 
L 465.233626 -291.263437 
L 466.893687 -295.336267 
L 468.526724 -299.409098 
L 470.12201 -303.481929 
L 471.668967 -307.554759 
L 473.157426 -311.62759 
L 474.577938 -315.700421 
L 475.922136 -319.773251 
L 477.183126 -323.846082 
L 478.355872 -327.918913 
L 479.437551 -331.991743 
L 480.427825 -336.064574 
L 481.328989 -340.137405 
L 482.145975 -344.210236 
L 482.886177 -348.283066 
L 483.559116 -352.355897 
L 484.175937 -356.428728 
L 484.748793 -360.501558 
L 485.29014 -364.574389 
L 485.812016 -368.64722 
L 486.325351 -372.72005 
L 486.839371 -376.792881 
L 487.361125 -380.865712 
L 487.895199 -384.938543 
L 488.443595 -389.011373 
L 489.005814 -393.084204 
L 489.579094 -397.157035 
L 490.158793 -401.229865 
L 490.73887 -405.302696 
L 491.312418 -409.375527 
L 491.872206 -413.448357 
L 492.411186 -417.521188 
L 492.922932 -421.594019 
L 493.401986 -425.666849 
L 493.844098 -429.73968 
L 494.246354 -433.812511 
L 494.607197 -437.885342 
L 494.92637 -441.958172 
L 495.204771 -446.031003 
L 495.444273 -450.103834 
L 497.486389 -450.103834 
L 497.486389 -450.103834 
L 497.725891 -446.031003 
L 498.004292 -441.958172 
L 498.323465 -437.885342 
L 498.684309 -433.812511 
L 499.086564 -429.73968 
L 499.528676 -425.666849 
L 500.007731 -421.594019 
L 500.519477 -417.521188 
L 501.058456 -413.448357 
L 501.618244 -409.375527 
L 502.191792 -405.302696 
L 502.771869 -401.229865 
L 503.351568 -397.157035 
L 503.924848 -393.084204 
L 504.487067 -389.011373 
L 505.035464 -384.938543 
L 505.569537 -380.865712 
L 506.091292 -376.792881 
L 506.605311 -372.72005 
L 507.118647 -368.64722 
L 507.640522 -364.574389 
L 508.181869 -360.501558 
L 508.754725 -356.428728 
L 509.371547 -352.355897 
L 510.044485 -348.283066 
L 510.784688 -344.210236 
L 511.601673 -340.137405 
L 512.502837 -336.064574 
L 513.493111 -331.991743 
L 514.574791 -327.918913 
L 515.747536 -323.846082 
L 517.008526 -319.773251 
L 518.352725 -315.700421 
L 519.773237 -311.62759 
L 521.261695 -307.554759 
L 522.808652 -303.481929 
L 524.403938 -299.409098 
L 526.036975 -295.336267 
L 527.697036 -291.263437 
L 529.37346 -287.190606 
L 531.055849 -283.117775 
L 532.734257 -279.044944 
L 534.399411 -274.972114 
L 536.042973 -270.899283 
L 537.657849 -266.826452 
L 539.238551 -262.753622 
L 540.781562 -258.680791 
L 542.285695 -254.60796 
L 543.752358 -250.53513 
L 545.185696 -246.462299 
L 546.592518 -242.389468 
L 547.981991 -238.316637 
L 549.365032 -234.243807 
L 550.753422 -230.170976 
L 552.158637 -226.098145 
L 553.590471 -222.025315 
L 555.055526 -217.952484 
L 556.555689 -213.879653 
L 558.08672 -209.806823 
L 559.637114 -205.733992 
L 561.187334 -201.661161 
L 562.709565 -197.588331 
L 564.168047 -193.5155 
L 565.520022 -189.442669 
L 566.7173 -185.369838 
L 567.708345 -181.297008 
L 568.440785 -177.224177 
L 568.864182 -173.151346 
L 568.932864 -169.078516 
L 568.608625 -165.005685 
L 567.863108 -160.932854 
L 566.679676 -156.860024 
L 565.054664 -152.787193 
L 562.99791 -148.714362 
L 560.532546 -144.641531 
L 557.694073 -140.568701 
L 554.528801 -136.49587 
L 551.091774 -132.423039 
L 547.444336 -128.350209 
L 543.651506 -124.277378 
L 539.779317 -120.204547 
L 535.892298 -116.131717 
L 532.051212 -112.058886 
L 528.311163 -107.986055 
L 524.720134 -103.913225 
L 521.317995 -99.840394 
L 518.135972 -95.767563 
L 515.196557 -91.694732 
L 512.513791 -87.621902 
L 510.093881 -83.549071 
L 507.93604 -79.47624 
L 506.033505 -75.40341 
L 504.374639 -71.330579 
L 502.944053 -67.257748 
L 501.7237 -63.184918 
L 500.693883 -59.112087 
L 499.834152 -55.039256 
L 499.124069 -50.966426 
L 498.543828 -46.893595 
z
" style="stroke: #4c4c4c; stroke-opacity: 0.6; stroke-width: 1.5"/>
    </defs>
    <g clip-path="url(#pc9550855aa)">
     <use xlink:href="#mfd96334934" x="0" y="611.969687" style="fill: #55a868; fill-opacity: 0.6; stroke: #4c4c4c; stroke-opacity: 0.6; stroke-width: 1.5"/>
    </g>
   </g>
   <g id="PathCollection_1">
    <defs>
     <path id="C0_0_8682d0e954" d="M 0 2 
C 0.530406 2 1.03916 1.789267 1.414214 1.414214 
C 1.789267 1.03916 2 0.530406 2 -0 
C 2 -0.530406 1.789267 -1.03916 1.414214 -1.414214 
C 1.03916 -1.789267 0.530406 -2 0 -2 
C -0.530406 -2 -1.03916 -1.789267 -1.414214 -1.414214 
C -1.789267 -1.03916 -2 -0.530406 -2 0 
C -2 0.530406 -1.789267 1.03916 -1.414214 1.414214 
C -1.03916 1.789267 -0.530406 2 0 2 
z
"/>
    </defs>
    <g clip-path="url(#pc9550855aa)">
     <use xlink:href="#C0_0_8682d0e954" x="134.127669" y="508.550448" style="fill: #4c72b0"/>
    </g>
    <g clip-path="url(#pc9550855aa)">
     <use xlink:href="#C0_0_8682d0e954" x="134.127669" y="518.130907" style="fill: #4c72b0"/>
    </g>
    <g clip-path="url(#pc9550855aa)">
     <use xlink:href="#C0_0_8682d0e954" x="130.107747" y="525.814273" style="fill: #4c72b0"/>
    </g>
    <g clip-path="url(#pc9550855aa)">
     <use xlink:href="#C0_0_8682d0e954" x="135.193827" y="489.834608" style="fill: #4c72b0"/>
    </g>
    <g clip-path="url(#pc9550855aa)">
     <use xlink:href="#C0_0_8682d0e954" x="134.127669" y="496.379436" style="fill: #4c72b0"/>
    </g>
    <g clip-path="url(#pc9550855aa)">
     <use xlink:href="#C0_0_8682d0e954" x="129.937683" y="513.849333" style="fill: #4c72b0"/>
    </g>
    <g clip-path="url(#pc9550855aa)">
     <use xlink:href="#C0_0_8682d0e954" x="137.459686" y="528.199785" style="fill: #4c72b0"/>
    </g>
    <g clip-path="url(#pc9550855aa)">
     <use xlink:href="#C0_0_8682d0e954" x="131.270467" y="437.049619" style="fill: #4c72b0"/>
    </g>
    <g clip-path="url(#pc9550855aa)">
     <use xlink:href="#C0_0_8682d0e954" x="134.127669" y="422.224024" style="fill: #4c72b0"/>
    </g>
    <g clip-path="url(#pc9550855aa)">
     <use xlink:href="#C0_0_8682d0e954" x="132.332861" y="492.763063" style="fill: #4c72b0"/>
    </g>
    <g clip-path="url(#pc9550855aa)">
     <use xlink:href="#C0_0_8682d0e954" x="134.127669" y="514.125386" style="fill: #4c72b0"/>
    </g>
    <g clip-path="url(#pc9550855aa)">
     <use xlink:href="#C0_0_8682d0e954" x="134.127669" y="439.981406" style="fill: #4c72b0"/>
    </g>
    <g clip-path="url(#pc9550855aa)">
     <use xlink:href="#C0_0_8682d0e954" x="126.907042" y="511.080013" style="fill: #4c72b0"/>
    </g>
    <g clip-path="url(#pc9550855aa)">
     <use xlink:href="#C0_0_8682d0e954" x="134.127669" y="479.609331" style="fill: #4c72b0"/>
    </g>
    <g clip-path="url(#pc9550855aa)">
     <use xlink:href="#C0_0_8682d0e954" x="132.17653" y="505.008274" style="fill: #4c72b0"/>
    </g>
    <g clip-path="url(#pc9550855aa)">
     <use xlink:href="#C0_0_8682d0e954" x="137.590265" y="511.861516" style="fill: #4c72b0"/>
    </g>
    <g clip-path="url(#pc9550855aa)">
     <use xlink:href="#C0_0_8682d0e954" x="134.127669" y="532.364357" style="fill: #4c72b0"/>
    </g>
    <g clip-path="url(#pc9550855aa)">
     <use xlink:href="#C0_0_8682d0e954" x="133.26785" y="528.449074" style="fill: #4c72b0"/>
    </g>
   </g>
   <g id="PathCollection_2">
    <defs>
     <path id="C1_0_04b6132ff1" d="M 0 2 
C 0.530406 2 1.03916 1.789267 1.414214 1.414214 
C 1.789267 1.03916 2 0.530406 2 -0 
C 2 -0.530406 1.789267 -1.03916 1.414214 -1.414214 
C 1.03916 -1.789267 0.530406 -2 0 -2 
C -0.530406 -2 -1.03916 -1.789267 -1.414214 -1.414214 
C -1.789267 -1.03916 -2 -0.530406 -2 0 
C -2 0.530406 -1.789267 1.03916 -1.414214 1.414214 
C -1.03916 1.789267 -0.530406 2 0 2 
z
"/>
    </defs>
    <g clip-path="url(#pc9550855aa)">
     <use xlink:href="#C1_0_04b6132ff1" x="319.290636" y="507.406007" style="fill: #dd8452"/>
    </g>
    <g clip-path="url(#pc9550855aa)">
     <use xlink:href="#C1_0_04b6132ff1" x="311.477217" y="520.209984" style="fill: #dd8452"/>
    </g>
    <g clip-path="url(#pc9550855aa)">
     <use xlink:href="#C1_0_04b6132ff1" x="315.2965" y="521.874086" style="fill: #dd8452"/>
    </g>
    <g clip-path="url(#pc9550855aa)">
     <use xlink:href="#C1_0_04b6132ff1" x="315.2965" y="494.719174" style="fill: #dd8452"/>
    </g>
    <g clip-path="url(#pc9550855aa)">
     <use xlink:href="#C1_0_04b6132ff1" x="311.10462" y="508.394343" style="fill: #dd8452"/>
    </g>
    <g clip-path="url(#pc9550855aa)">
     <use xlink:href="#C1_0_04b6132ff1" x="315.2965" y="499.223984" style="fill: #dd8452"/>
    </g>
    <g clip-path="url(#pc9550855aa)">
     <use xlink:href="#C1_0_04b6132ff1" x="311.096805" y="531.891889" style="fill: #dd8452"/>
    </g>
    <g clip-path="url(#pc9550855aa)">
     <use xlink:href="#C1_0_04b6132ff1" x="315.2965" y="472.767193" style="fill: #dd8452"/>
    </g>
    <g clip-path="url(#pc9550855aa)">
     <use xlink:href="#C1_0_04b6132ff1" x="315.2965" y="421.906126" style="fill: #dd8452"/>
    </g>
    <g clip-path="url(#pc9550855aa)">
     <use xlink:href="#C1_0_04b6132ff1" x="310.131768" y="513.608016" style="fill: #dd8452"/>
    </g>
    <g clip-path="url(#pc9550855aa)">
     <use xlink:href="#C1_0_04b6132ff1" x="316.973384" y="518.206732" style="fill: #dd8452"/>
    </g>
    <g clip-path="url(#pc9550855aa)">
     <use xlink:href="#C1_0_04b6132ff1" x="315.2965" y="508.642957" style="fill: #dd8452"/>
    </g>
    <g clip-path="url(#pc9550855aa)">
     <use xlink:href="#C1_0_04b6132ff1" x="314.38742" y="527.239828" style="fill: #dd8452"/>
    </g>
    <g clip-path="url(#pc9550855aa)">
     <use xlink:href="#C1_0_04b6132ff1" x="313.74304" y="515.65036" style="fill: #dd8452"/>
    </g>
    <g clip-path="url(#pc9550855aa)">
     <use xlink:href="#C1_0_04b6132ff1" x="319.089947" y="514.751785" style="fill: #dd8452"/>
    </g>
    <g clip-path="url(#pc9550855aa)">
     <use xlink:href="#C1_0_04b6132ff1" x="308.459404" y="528.778883" style="fill: #dd8452"/>
    </g>
    <g clip-path="url(#pc9550855aa)">
     <use xlink:href="#C1_0_04b6132ff1" x="315.2965" y="531.940059" style="fill: #dd8452"/>
    </g>
    <g clip-path="url(#pc9550855aa)">
     <use xlink:href="#C1_0_04b6132ff1" x="318.154354" y="529.00885" style="fill: #dd8452"/>
    </g>
   </g>
   <g id="PathCollection_3">
    <defs>
     <path id="C2_0_69ecc47e1c" d="M 0 2 
C 0.530406 2 1.03916 1.789267 1.414214 1.414214 
C 1.789267 1.03916 2 0.530406 2 -0 
C 2 -0.530406 1.789267 -1.03916 1.414214 -1.414214 
C 1.03916 -1.789267 0.530406 -2 0 -2 
C -0.530406 -2 -1.03916 -1.789267 -1.414214 -1.414214 
C -1.789267 -1.03916 -2 -0.530406 -2 0 
C -2 0.530406 -1.789267 1.03916 -1.414214 1.414214 
C -1.03916 1.789267 -0.530406 2 0 2 
z
"/>
    </defs>
    <g clip-path="url(#pc9550855aa)">
     <use xlink:href="#C2_0_69ecc47e1c" x="495.759619" y="454.813746" style="fill: #55a868"/>
    </g>
    <g clip-path="url(#pc9550855aa)">
     <use xlink:href="#C2_0_69ecc47e1c" x="496.465331" y="435.754772" style="fill: #55a868"/>
    </g>
    <g clip-path="url(#pc9550855aa)">
     <use xlink:href="#C2_0_69ecc47e1c" x="496.465331" y="445.523472" style="fill: #55a868"/>
    </g>
    <g clip-path="url(#pc9550855aa)">
     <use xlink:href="#C2_0_69ecc47e1c" x="496.465331" y="440.033863" style="fill: #55a868"/>
    </g>
    <g clip-path="url(#pc9550855aa)">
     <use xlink:href="#C2_0_69ecc47e1c" x="496.465331" y="477.063632" style="fill: #55a868"/>
    </g>
    <g clip-path="url(#pc9550855aa)">
     <use xlink:href="#C2_0_69ecc47e1c" x="496.465331" y="489.220343" style="fill: #55a868"/>
    </g>
    <g clip-path="url(#pc9550855aa)">
     <use xlink:href="#C2_0_69ecc47e1c" x="496.465331" y="406.379429" style="fill: #55a868"/>
    </g>
    <g clip-path="url(#pc9550855aa)">
     <use xlink:href="#C2_0_69ecc47e1c" x="496.465331" y="458.756876" style="fill: #55a868"/>
    </g>
    <g clip-path="url(#pc9550855aa)">
     <use xlink:href="#C2_0_69ecc47e1c" x="496.465331" y="303.247128" style="fill: #55a868"/>
    </g>
    <g clip-path="url(#pc9550855aa)">
     <use xlink:href="#C2_0_69ecc47e1c" x="496.465331" y="372.843733" style="fill: #55a868"/>
    </g>
    <g clip-path="url(#pc9550855aa)">
     <use xlink:href="#C2_0_69ecc47e1c" x="496.465331" y="399.538604" style="fill: #55a868"/>
    </g>
    <g clip-path="url(#pc9550855aa)">
     <use xlink:href="#C2_0_69ecc47e1c" x="496.465331" y="350.669767" style="fill: #55a868"/>
    </g>
    <g clip-path="url(#pc9550855aa)">
     <use xlink:href="#C2_0_69ecc47e1c" x="493.245021" y="451.609893" style="fill: #55a868"/>
    </g>
    <g clip-path="url(#pc9550855aa)">
     <use xlink:href="#C2_0_69ecc47e1c" x="496.465331" y="382.897274" style="fill: #55a868"/>
    </g>
    <g clip-path="url(#pc9550855aa)">
     <use xlink:href="#C2_0_69ecc47e1c" x="496.465331" y="237.721603" style="fill: #55a868"/>
    </g>
    <g clip-path="url(#pc9550855aa)">
     <use xlink:href="#C2_0_69ecc47e1c" x="499.957048" y="454.673818" style="fill: #55a868"/>
    </g>
    <g clip-path="url(#pc9550855aa)">
     <use xlink:href="#C2_0_69ecc47e1c" x="496.465331" y="360.373507" style="fill: #55a868"/>
    </g>
    <g clip-path="url(#pc9550855aa)">
     <use xlink:href="#C2_0_69ecc47e1c" x="496.465331" y="322.020841" style="fill: #55a868"/>
    </g>
   </g>
   <g id="matplotlib.axis_1">
    <g id="xtick_1">
     <g id="line2d_1">
      <defs>
       <path id="m562446139f" d="M 0 0 
L 0 6 
" style="stroke: #000000; stroke-width: 1.25"/>
      </defs>
      <g>
       <use xlink:href="#m562446139f" x="134.127669" y="580.365375" style="stroke: #000000; stroke-width: 1.25"/>
      </g>
     </g>
     <g id="text_1">
      <!-- HC -->
      <g transform="translate(122.960263 601.566969) scale(0.154 -0.154)">
       <defs>
        <path id="DejaVuSans-48" d="M 628 4666 
L 1259 4666 
L 1259 2753 
L 3553 2753 
L 3553 4666 
L 4184 4666 
L 4184 0 
L 3553 0 
L 3553 2222 
L 1259 2222 
L 1259 0 
L 628 0 
L 628 4666 
z
" transform="scale(0.015625)"/>
        <path id="DejaVuSans-43" d="M 4122 4306 
L 4122 3641 
Q 3803 3938 3442 4084 
Q 3081 4231 2675 4231 
Q 1875 4231 1450 3742 
Q 1025 3253 1025 2328 
Q 1025 1406 1450 917 
Q 1875 428 2675 428 
Q 3081 428 3442 575 
Q 3803 722 4122 1019 
L 4122 359 
Q 3791 134 3420 21 
Q 3050 -91 2638 -91 
Q 1578 -91 968 557 
Q 359 1206 359 2328 
Q 359 3453 968 4101 
Q 1578 4750 2638 4750 
Q 3056 4750 3426 4639 
Q 3797 4528 4122 4306 
z
" transform="scale(0.015625)"/>
       </defs>
       <use xlink:href="#DejaVuSans-48"/>
       <use xlink:href="#DejaVuSans-43" transform="translate(75.195312 0)"/>
      </g>
     </g>
    </g>
    <g id="xtick_2">
     <g id="line2d_2">
      <g>
       <use xlink:href="#m562446139f" x="315.2965" y="580.365375" style="stroke: #000000; stroke-width: 1.25"/>
      </g>
     </g>
     <g id="text_2">
      <!-- MCI -->
      <g transform="translate(301.004578 601.566969) scale(0.154 -0.154)">
       <defs>
        <path id="DejaVuSans-4d" d="M 628 4666 
L 1569 4666 
L 2759 1491 
L 3956 4666 
L 4897 4666 
L 4897 0 
L 4281 0 
L 4281 4097 
L 3078 897 
L 2444 897 
L 1241 4097 
L 1241 0 
L 628 0 
L 628 4666 
z
" transform="scale(0.015625)"/>
        <path id="DejaVuSans-49" d="M 628 4666 
L 1259 4666 
L 1259 0 
L 628 0 
L 628 4666 
z
" transform="scale(0.015625)"/>
       </defs>
       <use xlink:href="#DejaVuSans-4d"/>
       <use xlink:href="#DejaVuSans-43" transform="translate(86.279297 0)"/>
       <use xlink:href="#DejaVuSans-49" transform="translate(156.103516 0)"/>
      </g>
     </g>
    </g>
    <g id="xtick_3">
     <g id="line2d_3">
      <g>
       <use xlink:href="#m562446139f" x="496.465331" y="580.365375" style="stroke: #000000; stroke-width: 1.25"/>
      </g>
     </g>
     <g id="text_3">
      <!-- AD -->
      <g transform="translate(485.26905 601.566969) scale(0.154 -0.154)">
       <defs>
        <path id="DejaVuSans-41" d="M 2188 4044 
L 1331 1722 
L 3047 1722 
L 2188 4044 
z
M 1831 4666 
L 2547 4666 
L 4325 0 
L 3669 0 
L 3244 1197 
L 1141 1197 
L 716 0 
L 50 0 
L 1831 4666 
z
" transform="scale(0.015625)"/>
        <path id="DejaVuSans-44" d="M 1259 4147 
L 1259 519 
L 2022 519 
Q 2988 519 3436 956 
Q 3884 1394 3884 2338 
Q 3884 3275 3436 3711 
Q 2988 4147 2022 4147 
L 1259 4147 
z
M 628 4666 
L 1925 4666 
Q 3281 4666 3915 4102 
Q 4550 3538 4550 2338 
Q 4550 1131 3912 565 
Q 3275 0 1925 0 
L 628 0 
L 628 4666 
z
" transform="scale(0.015625)"/>
       </defs>
       <use xlink:href="#DejaVuSans-41"/>
       <use xlink:href="#DejaVuSans-44" transform="translate(68.408203 0)"/>
      </g>
     </g>
    </g>
   </g>
   <g id="matplotlib.axis_2">
    <g id="ytick_1">
     <g id="line2d_4">
      <defs>
       <path id="me2c040e9ab" d="M 0 0 
L -6 0 
" style="stroke: #000000; stroke-width: 1.25"/>
      </defs>
      <g>
       <use xlink:href="#me2c040e9ab" x="36.2965" y="580.365375" style="stroke: #000000; stroke-width: 1.25"/>
      </g>
     </g>
     <g id="text_4">
      <!-- 0 -->
      <g transform="translate(16.99825 586.216172) scale(0.154 -0.154)">
       <defs>
        <path id="DejaVuSans-30" d="M 2034 4250 
Q 1547 4250 1301 3770 
Q 1056 3291 1056 2328 
Q 1056 1369 1301 889 
Q 1547 409 2034 409 
Q 2525 409 2770 889 
Q 3016 1369 3016 2328 
Q 3016 3291 2770 3770 
Q 2525 4250 2034 4250 
z
M 2034 4750 
Q 2819 4750 3233 4129 
Q 3647 3509 3647 2328 
Q 3647 1150 3233 529 
Q 2819 -91 2034 -91 
Q 1250 -91 836 529 
Q 422 1150 422 2328 
Q 422 3509 836 4129 
Q 1250 4750 2034 4750 
z
" transform="scale(0.015625)"/>
       </defs>
       <use xlink:href="#DejaVuSans-30"/>
      </g>
     </g>
    </g>
    <g id="ytick_2">
     <g id="line2d_5">
      <g>
       <use xlink:href="#me2c040e9ab" x="36.2965" y="493.65928" style="stroke: #000000; stroke-width: 1.25"/>
      </g>
     </g>
     <g id="text_5">
      <!-- 2 -->
      <g transform="translate(16.99825 499.510077) scale(0.154 -0.154)">
       <defs>
        <path id="DejaVuSans-32" d="M 1228 531 
L 3431 531 
L 3431 0 
L 469 0 
L 469 531 
Q 828 903 1448 1529 
Q 2069 2156 2228 2338 
Q 2531 2678 2651 2914 
Q 2772 3150 2772 3378 
Q 2772 3750 2511 3984 
Q 2250 4219 1831 4219 
Q 1534 4219 1204 4116 
Q 875 4013 500 3803 
L 500 4441 
Q 881 4594 1212 4672 
Q 1544 4750 1819 4750 
Q 2544 4750 2975 4387 
Q 3406 4025 3406 3419 
Q 3406 3131 3298 2873 
Q 3191 2616 2906 2266 
Q 2828 2175 2409 1742 
Q 1991 1309 1228 531 
z
" transform="scale(0.015625)"/>
       </defs>
       <use xlink:href="#DejaVuSans-32"/>
      </g>
     </g>
    </g>
    <g id="ytick_3">
     <g id="line2d_6">
      <g>
       <use xlink:href="#me2c040e9ab" x="36.2965" y="406.953185" style="stroke: #000000; stroke-width: 1.25"/>
      </g>
     </g>
     <g id="text_6">
      <!-- 4 -->
      <g transform="translate(16.99825 412.803982) scale(0.154 -0.154)">
       <defs>
        <path id="DejaVuSans-34" d="M 2419 4116 
L 825 1625 
L 2419 1625 
L 2419 4116 
z
M 2253 4666 
L 3047 4666 
L 3047 1625 
L 3713 1625 
L 3713 1100 
L 3047 1100 
L 3047 0 
L 2419 0 
L 2419 1100 
L 313 1100 
L 313 1709 
L 2253 4666 
z
" transform="scale(0.015625)"/>
       </defs>
       <use xlink:href="#DejaVuSans-34"/>
      </g>
     </g>
    </g>
    <g id="ytick_4">
     <g id="line2d_7">
      <g>
       <use xlink:href="#me2c040e9ab" x="36.2965" y="320.247091" style="stroke: #000000; stroke-width: 1.25"/>
      </g>
     </g>
     <g id="text_7">
      <!-- 6 -->
      <g transform="translate(16.99825 326.097887) scale(0.154 -0.154)">
       <defs>
        <path id="DejaVuSans-36" d="M 2113 2584 
Q 1688 2584 1439 2293 
Q 1191 2003 1191 1497 
Q 1191 994 1439 701 
Q 1688 409 2113 409 
Q 2538 409 2786 701 
Q 3034 994 3034 1497 
Q 3034 2003 2786 2293 
Q 2538 2584 2113 2584 
z
M 3366 4563 
L 3366 3988 
Q 3128 4100 2886 4159 
Q 2644 4219 2406 4219 
Q 1781 4219 1451 3797 
Q 1122 3375 1075 2522 
Q 1259 2794 1537 2939 
Q 1816 3084 2150 3084 
Q 2853 3084 3261 2657 
Q 3669 2231 3669 1497 
Q 3669 778 3244 343 
Q 2819 -91 2113 -91 
Q 1303 -91 875 529 
Q 447 1150 447 2328 
Q 447 3434 972 4092 
Q 1497 4750 2381 4750 
Q 2619 4750 2861 4703 
Q 3103 4656 3366 4563 
z
" transform="scale(0.015625)"/>
       </defs>
       <use xlink:href="#DejaVuSans-36"/>
      </g>
     </g>
    </g>
    <g id="ytick_5">
     <g id="line2d_8">
      <g>
       <use xlink:href="#me2c040e9ab" x="36.2965" y="233.540996" style="stroke: #000000; stroke-width: 1.25"/>
      </g>
     </g>
     <g id="text_8">
      <!-- 8 -->
      <g transform="translate(16.99825 239.391793) scale(0.154 -0.154)">
       <defs>
        <path id="DejaVuSans-38" d="M 2034 2216 
Q 1584 2216 1326 1975 
Q 1069 1734 1069 1313 
Q 1069 891 1326 650 
Q 1584 409 2034 409 
Q 2484 409 2743 651 
Q 3003 894 3003 1313 
Q 3003 1734 2745 1975 
Q 2488 2216 2034 2216 
z
M 1403 2484 
Q 997 2584 770 2862 
Q 544 3141 544 3541 
Q 544 4100 942 4425 
Q 1341 4750 2034 4750 
Q 2731 4750 3128 4425 
Q 3525 4100 3525 3541 
Q 3525 3141 3298 2862 
Q 3072 2584 2669 2484 
Q 3125 2378 3379 2068 
Q 3634 1759 3634 1313 
Q 3634 634 3220 271 
Q 2806 -91 2034 -91 
Q 1263 -91 848 271 
Q 434 634 434 1313 
Q 434 1759 690 2068 
Q 947 2378 1403 2484 
z
M 1172 3481 
Q 1172 3119 1398 2916 
Q 1625 2713 2034 2713 
Q 2441 2713 2670 2916 
Q 2900 3119 2900 3481 
Q 2900 3844 2670 4047 
Q 2441 4250 2034 4250 
Q 1625 4250 1398 4047 
Q 1172 3844 1172 3481 
z
" transform="scale(0.015625)"/>
       </defs>
       <use xlink:href="#DejaVuSans-38"/>
      </g>
     </g>
    </g>
    <g id="ytick_6">
     <g id="line2d_9">
      <g>
       <use xlink:href="#me2c040e9ab" x="36.2965" y="146.834901" style="stroke: #000000; stroke-width: 1.25"/>
      </g>
     </g>
     <g id="text_9">
      <!-- 10 -->
      <g transform="translate(7.2 152.685698) scale(0.154 -0.154)">
       <defs>
        <path id="DejaVuSans-31" d="M 794 531 
L 1825 531 
L 1825 4091 
L 703 3866 
L 703 4441 
L 1819 4666 
L 2450 4666 
L 2450 531 
L 3481 531 
L 3481 0 
L 794 0 
L 794 531 
z
" transform="scale(0.015625)"/>
       </defs>
       <use xlink:href="#DejaVuSans-31"/>
       <use xlink:href="#DejaVuSans-30" transform="translate(63.623047 0)"/>
      </g>
     </g>
    </g>
    <g id="ytick_7">
     <g id="line2d_10">
      <g>
       <use xlink:href="#me2c040e9ab" x="36.2965" y="60.128806" style="stroke: #000000; stroke-width: 1.25"/>
      </g>
     </g>
     <g id="text_10">
      <!-- 12 -->
      <g transform="translate(7.2 65.979603) scale(0.154 -0.154)">
       <use xlink:href="#DejaVuSans-31"/>
       <use xlink:href="#DejaVuSans-32" transform="translate(63.623047 0)"/>
      </g>
     </g>
    </g>
   </g>
   <g id="line2d_11">
    <path d="M 134.127669 532.364357 
L 134.127669 479.609331 
" clip-path="url(#pc9550855aa)" style="fill: none; stroke: #4c4c4c; stroke-width: 2.25; stroke-linecap: square"/>
   </g>
   <g id="line2d_12">
    <path d="M 134.127669 517.129527 
L 134.127669 490.566721 
" clip-path="url(#pc9550855aa)" style="fill: none; stroke: #4c4c4c; stroke-width: 6.75; stroke-linecap: square"/>
   </g>
   <g id="line2d_13">
    <path d="M 134.127669 509.81523 
" clip-path="url(#pc9550855aa)" style="fill: none; stroke: #4c4c4c; stroke-width: 1.5; stroke-linecap: square"/>
    <defs>
     <path id="m09ea64ed51" d="M 2.8125 0 
L -2.8125 -0 
" style="stroke: #ffffff; stroke-width: 1.35"/>
    </defs>
    <g clip-path="url(#pc9550855aa)">
     <use xlink:href="#m09ea64ed51" x="134.127669" y="509.81523" style="fill: #ffffff; stroke: #ffffff; stroke-width: 1.35"/>
    </g>
   </g>
   <g id="line2d_14">
    <path d="M 315.2965 531.940059 
L 315.2965 494.719174 
" clip-path="url(#pc9550855aa)" style="fill: none; stroke: #4c4c4c; stroke-width: 2.25; stroke-linecap: square"/>
   </g>
   <g id="line2d_15">
    <path d="M 315.2965 525.898392 
L 315.2965 507.653091 
" clip-path="url(#pc9550855aa)" style="fill: none; stroke: #4c4c4c; stroke-width: 6.75; stroke-linecap: square"/>
   </g>
   <g id="line2d_16">
    <path d="M 315.2965 515.201073 
" clip-path="url(#pc9550855aa)" style="fill: none; stroke: #4c4c4c; stroke-width: 1.5; stroke-linecap: square"/>
    <g clip-path="url(#pc9550855aa)">
     <use xlink:href="#m09ea64ed51" x="315.2965" y="515.201073" style="fill: #ffffff; stroke: #ffffff; stroke-width: 1.35"/>
    </g>
   </g>
   <g id="line2d_17">
    <path d="M 496.465331 489.220343 
L 496.465331 237.721603 
" clip-path="url(#pc9550855aa)" style="fill: none; stroke: #4c4c4c; stroke-width: 2.25; stroke-linecap: square"/>
   </g>
   <g id="line2d_18">
    <path d="M 496.465331 453.907837 
L 496.465331 363.491063 
" clip-path="url(#pc9550855aa)" style="fill: none; stroke: #4c4c4c; stroke-width: 6.75; stroke-linecap: square"/>
   </g>
   <g id="line2d_19">
    <path d="M 496.465331 421.0671 
" clip-path="url(#pc9550855aa)" style="fill: none; stroke: #4c4c4c; stroke-width: 1.5; stroke-linecap: square"/>
    <g clip-path="url(#pc9550855aa)">
     <use xlink:href="#m09ea64ed51" x="496.465331" y="421.0671" style="fill: #ffffff; stroke: #ffffff; stroke-width: 1.35"/>
    </g>
   </g>
   <g id="patch_3">
    <path d="M 36.2965 580.365375 
L 36.2965 25.965375 
" style="fill: none; stroke: #000000; stroke-width: 1.25; stroke-linejoin: miter; stroke-linecap: square"/>
   </g>
   <g id="patch_4">
    <path d="M 594.2965 580.365375 
L 594.2965 25.965375 
" style="fill: none; stroke: #000000; stroke-width: 1.25; stroke-linejoin: miter; stroke-linecap: square"/>
   </g>
   <g id="patch_5">
    <path d="M 36.2965 580.365375 
L 594.2965 580.365375 
" style="fill: none; stroke: #000000; stroke-width: 1.25; stroke-linejoin: miter; stroke-linecap: square"/>
   </g>
   <g id="patch_6">
    <path d="M 36.2965 25.965375 
L 594.2965 25.965375 
" style="fill: none; stroke: #000000; stroke-width: 1.25; stroke-linejoin: miter; stroke-linecap: square"/>
   </g>
   <g id="text_11">
    <!-- (n.s.) -->
    <g transform="translate(209.288334 132.52602) scale(0.12 -0.12)">
     <defs>
      <path id="DejaVuSans-28" d="M 1984 4856 
Q 1566 4138 1362 3434 
Q 1159 2731 1159 2009 
Q 1159 1288 1364 580 
Q 1569 -128 1984 -844 
L 1484 -844 
Q 1016 -109 783 600 
Q 550 1309 550 2009 
Q 550 2706 781 3412 
Q 1013 4119 1484 4856 
L 1984 4856 
z
" transform="scale(0.015625)"/>
      <path id="DejaVuSans-6e" d="M 3513 2113 
L 3513 0 
L 2938 0 
L 2938 2094 
Q 2938 2591 2744 2837 
Q 2550 3084 2163 3084 
Q 1697 3084 1428 2787 
Q 1159 2491 1159 1978 
L 1159 0 
L 581 0 
L 581 3500 
L 1159 3500 
L 1159 2956 
Q 1366 3272 1645 3428 
Q 1925 3584 2291 3584 
Q 2894 3584 3203 3211 
Q 3513 2838 3513 2113 
z
" transform="scale(0.015625)"/>
      <path id="DejaVuSans-2e" d="M 684 794 
L 1344 794 
L 1344 0 
L 684 0 
L 684 794 
z
" transform="scale(0.015625)"/>
      <path id="DejaVuSans-73" d="M 2834 3397 
L 2834 2853 
Q 2591 2978 2328 3040 
Q 2066 3103 1784 3103 
Q 1356 3103 1142 2972 
Q 928 2841 928 2578 
Q 928 2378 1081 2264 
Q 1234 2150 1697 2047 
L 1894 2003 
Q 2506 1872 2764 1633 
Q 3022 1394 3022 966 
Q 3022 478 2636 193 
Q 2250 -91 1575 -91 
Q 1294 -91 989 -36 
Q 684 19 347 128 
L 347 722 
Q 666 556 975 473 
Q 1284 391 1588 391 
Q 1994 391 2212 530 
Q 2431 669 2431 922 
Q 2431 1156 2273 1281 
Q 2116 1406 1581 1522 
L 1381 1569 
Q 847 1681 609 1914 
Q 372 2147 372 2553 
Q 372 3047 722 3315 
Q 1072 3584 1716 3584 
Q 2034 3584 2315 3537 
Q 2597 3491 2834 3397 
z
" transform="scale(0.015625)"/>
      <path id="DejaVuSans-29" d="M 513 4856 
L 1013 4856 
Q 1481 4119 1714 3412 
Q 1947 2706 1947 2009 
Q 1947 1309 1714 600 
Q 1481 -109 1013 -844 
L 513 -844 
Q 928 -128 1133 580 
Q 1338 1288 1338 2009 
Q 1338 2731 1133 3434 
Q 928 4138 513 4856 
z
" transform="scale(0.015625)"/>
     </defs>
     <use xlink:href="#DejaVuSans-28"/>
     <use xlink:href="#DejaVuSans-6e" transform="translate(39.013672 0)"/>
     <use xlink:href="#DejaVuSans-2e" transform="translate(102.392578 0)"/>
     <use xlink:href="#DejaVuSans-73" transform="translate(134.179688 0)"/>
     <use xlink:href="#DejaVuSans-2e" transform="translate(186.279297 0)"/>
     <use xlink:href="#DejaVuSans-29" transform="translate(218.066406 0)"/>
    </g>
   </g>
   <g id="text_12">
    <!-- **** -->
    <g transform="translate(303.2965 87.701275) scale(0.12 -0.12)">
     <defs>
      <path id="DejaVuSans-2a" d="M 3009 3897 
L 1888 3291 
L 3009 2681 
L 2828 2375 
L 1778 3009 
L 1778 1831 
L 1422 1831 
L 1422 3009 
L 372 2375 
L 191 2681 
L 1313 3291 
L 191 3897 
L 372 4206 
L 1422 3572 
L 1422 4750 
L 1778 4750 
L 1778 3572 
L 2828 4206 
L 3009 3897 
z
" transform="scale(0.015625)"/>
     </defs>
     <use xlink:href="#DejaVuSans-2a"/>
     <use xlink:href="#DejaVuSans-2a" transform="translate(50 0)"/>
     <use xlink:href="#DejaVuSans-2a" transform="translate(100 0)"/>
     <use xlink:href="#DejaVuSans-2a" transform="translate(150 0)"/>
    </g>
   </g>
   <g id="text_13">
    <!-- ***** -->
    <g transform="translate(390.880916 42.876529) scale(0.12 -0.12)">
     <use xlink:href="#DejaVuSans-2a"/>
     <use xlink:href="#DejaVuSans-2a" transform="translate(50 0)"/>
     <use xlink:href="#DejaVuSans-2a" transform="translate(100 0)"/>
     <use xlink:href="#DejaVuSans-2a" transform="translate(150 0)"/>
     <use xlink:href="#DejaVuSans-2a" transform="translate(200 0)"/>
    </g>
   </g>
   <g id="text_14">
    <!-- Inorm1 group -->
    <g transform="translate(258.46 19.965375) scale(0.168 -0.168)">
     <defs>
      <path id="DejaVuSans-6f" d="M 1959 3097 
Q 1497 3097 1228 2736 
Q 959 2375 959 1747 
Q 959 1119 1226 758 
Q 1494 397 1959 397 
Q 2419 397 2687 759 
Q 2956 1122 2956 1747 
Q 2956 2369 2687 2733 
Q 2419 3097 1959 3097 
z
M 1959 3584 
Q 2709 3584 3137 3096 
Q 3566 2609 3566 1747 
Q 3566 888 3137 398 
Q 2709 -91 1959 -91 
Q 1206 -91 779 398 
Q 353 888 353 1747 
Q 353 2609 779 3096 
Q 1206 3584 1959 3584 
z
" transform="scale(0.015625)"/>
      <path id="DejaVuSans-72" d="M 2631 2963 
Q 2534 3019 2420 3045 
Q 2306 3072 2169 3072 
Q 1681 3072 1420 2755 
Q 1159 2438 1159 1844 
L 1159 0 
L 581 0 
L 581 3500 
L 1159 3500 
L 1159 2956 
Q 1341 3275 1631 3429 
Q 1922 3584 2338 3584 
Q 2397 3584 2469 3576 
Q 2541 3569 2628 3553 
L 2631 2963 
z
" transform="scale(0.015625)"/>
      <path id="DejaVuSans-6d" d="M 3328 2828 
Q 3544 3216 3844 3400 
Q 4144 3584 4550 3584 
Q 5097 3584 5394 3201 
Q 5691 2819 5691 2113 
L 5691 0 
L 5113 0 
L 5113 2094 
Q 5113 2597 4934 2840 
Q 4756 3084 4391 3084 
Q 3944 3084 3684 2787 
Q 3425 2491 3425 1978 
L 3425 0 
L 2847 0 
L 2847 2094 
Q 2847 2600 2669 2842 
Q 2491 3084 2119 3084 
Q 1678 3084 1418 2786 
Q 1159 2488 1159 1978 
L 1159 0 
L 581 0 
L 581 3500 
L 1159 3500 
L 1159 2956 
Q 1356 3278 1631 3431 
Q 1906 3584 2284 3584 
Q 2666 3584 2933 3390 
Q 3200 3197 3328 2828 
z
" transform="scale(0.015625)"/>
      <path id="DejaVuSans-20" transform="scale(0.015625)"/>
      <path id="DejaVuSans-67" d="M 2906 1791 
Q 2906 2416 2648 2759 
Q 2391 3103 1925 3103 
Q 1463 3103 1205 2759 
Q 947 2416 947 1791 
Q 947 1169 1205 825 
Q 1463 481 1925 481 
Q 2391 481 2648 825 
Q 2906 1169 2906 1791 
z
M 3481 434 
Q 3481 -459 3084 -895 
Q 2688 -1331 1869 -1331 
Q 1566 -1331 1297 -1286 
Q 1028 -1241 775 -1147 
L 775 -588 
Q 1028 -725 1275 -790 
Q 1522 -856 1778 -856 
Q 2344 -856 2625 -561 
Q 2906 -266 2906 331 
L 2906 616 
Q 2728 306 2450 153 
Q 2172 0 1784 0 
Q 1141 0 747 490 
Q 353 981 353 1791 
Q 353 2603 747 3093 
Q 1141 3584 1784 3584 
Q 2172 3584 2450 3431 
Q 2728 3278 2906 2969 
L 2906 3500 
L 3481 3500 
L 3481 434 
z
" transform="scale(0.015625)"/>
      <path id="DejaVuSans-75" d="M 544 1381 
L 544 3500 
L 1119 3500 
L 1119 1403 
Q 1119 906 1312 657 
Q 1506 409 1894 409 
Q 2359 409 2629 706 
Q 2900 1003 2900 1516 
L 2900 3500 
L 3475 3500 
L 3475 0 
L 2900 0 
L 2900 538 
Q 2691 219 2414 64 
Q 2138 -91 1772 -91 
Q 1169 -91 856 284 
Q 544 659 544 1381 
z
M 1991 3584 
L 1991 3584 
z
" transform="scale(0.015625)"/>
      <path id="DejaVuSans-70" d="M 1159 525 
L 1159 -1331 
L 581 -1331 
L 581 3500 
L 1159 3500 
L 1159 2969 
Q 1341 3281 1617 3432 
Q 1894 3584 2278 3584 
Q 2916 3584 3314 3078 
Q 3713 2572 3713 1747 
Q 3713 922 3314 415 
Q 2916 -91 2278 -91 
Q 1894 -91 1617 61 
Q 1341 213 1159 525 
z
M 3116 1747 
Q 3116 2381 2855 2742 
Q 2594 3103 2138 3103 
Q 1681 3103 1420 2742 
Q 1159 2381 1159 1747 
Q 1159 1113 1420 752 
Q 1681 391 2138 391 
Q 2594 391 2855 752 
Q 3116 1113 3116 1747 
z
" transform="scale(0.015625)"/>
     </defs>
     <use xlink:href="#DejaVuSans-49"/>
     <use xlink:href="#DejaVuSans-6e" transform="translate(29.492188 0)"/>
     <use xlink:href="#DejaVuSans-6f" transform="translate(92.871094 0)"/>
     <use xlink:href="#DejaVuSans-72" transform="translate(154.052734 0)"/>
     <use xlink:href="#DejaVuSans-6d" transform="translate(193.416016 0)"/>
     <use xlink:href="#DejaVuSans-31" transform="translate(290.828125 0)"/>
     <use xlink:href="#DejaVuSans-20" transform="translate(354.451172 0)"/>
     <use xlink:href="#DejaVuSans-67" transform="translate(386.238281 0)"/>
     <use xlink:href="#DejaVuSans-72" transform="translate(449.714844 0)"/>
     <use xlink:href="#DejaVuSans-6f" transform="translate(488.578125 0)"/>
     <use xlink:href="#DejaVuSans-75" transform="translate(549.759766 0)"/>
     <use xlink:href="#DejaVuSans-70" transform="translate(613.138672 0)"/>
    </g>
   </g>
   <g id="line2d_20">
    <path d="M 134.127669 141.490969 
L 315.2965 141.490969 
" clip-path="url(#pc9550855aa)" style="fill: none; stroke: #000000; stroke-width: 1.5; stroke-linecap: square"/>
   </g>
   <g id="line2d_21">
    <path d="M 134.127669 96.666224 
L 496.465331 96.666224 
" clip-path="url(#pc9550855aa)" style="fill: none; stroke: #000000; stroke-width: 1.5; stroke-linecap: square"/>
   </g>
   <g id="line2d_22">
    <path d="M 315.2965 51.841478 
L 496.465331 51.841478 
" clip-path="url(#pc9550855aa)" style="fill: none; stroke: #000000; stroke-width: 1.5; stroke-linecap: square"/>
   </g>
  </g>
 </g>
 <defs>
  <clipPath id="pc9550855aa">
   <rect x="36.2965" y="25.965375" width="558" height="554.4"/>
  </clipPath>
 </defs>
</svg>
